%TF.GenerationSoftware,KiCad,Pcbnew,9.0.7*%
%TF.CreationDate,2026-02-20T23:50:41+01:00*%
%TF.ProjectId,Accordeur,4163636f-7264-4657-9572-2e6b69636164,rev?*%
%TF.SameCoordinates,Original*%
%TF.FileFunction,Legend,Bot*%
%TF.FilePolarity,Positive*%
%FSLAX46Y46*%
G04 Gerber Fmt 4.6, Leading zero omitted, Abs format (unit mm)*
G04 Created by KiCad (PCBNEW 9.0.7) date 2026-02-20 23:50:41*
%MOMM*%
%LPD*%
G01*
G04 APERTURE LIST*
G04 Aperture macros list*
%AMRoundRect*
0 Rectangle with rounded corners*
0 $1 Rounding radius*
0 $2 $3 $4 $5 $6 $7 $8 $9 X,Y pos of 4 corners*
0 Add a 4 corners polygon primitive as box body*
4,1,4,$2,$3,$4,$5,$6,$7,$8,$9,$2,$3,0*
0 Add four circle primitives for the rounded corners*
1,1,$1+$1,$2,$3*
1,1,$1+$1,$4,$5*
1,1,$1+$1,$6,$7*
1,1,$1+$1,$8,$9*
0 Add four rect primitives between the rounded corners*
20,1,$1+$1,$2,$3,$4,$5,0*
20,1,$1+$1,$4,$5,$6,$7,0*
20,1,$1+$1,$6,$7,$8,$9,0*
20,1,$1+$1,$8,$9,$2,$3,0*%
G04 Aperture macros list end*
%ADD10C,0.150000*%
%ADD11C,0.120000*%
%ADD12C,0.000000*%
%ADD13RoundRect,0.135000X0.185000X-0.135000X0.185000X0.135000X-0.185000X0.135000X-0.185000X-0.135000X0*%
%ADD14R,1.800000X1.070000*%
%ADD15O,1.800000X1.070000*%
%ADD16RoundRect,0.250000X-0.625000X0.350000X-0.625000X-0.350000X0.625000X-0.350000X0.625000X0.350000X0*%
%ADD17O,1.750000X1.200000*%
%ADD18C,2.200000*%
%ADD19R,1.700000X1.700000*%
%ADD20C,1.700000*%
%ADD21RoundRect,0.250001X-0.949999X0.949999X-0.949999X-0.949999X0.949999X-0.949999X0.949999X0.949999X0*%
%ADD22C,2.400000*%
%ADD23RoundRect,0.250001X-0.949999X-0.949999X0.949999X-0.949999X0.949999X0.949999X-0.949999X0.949999X0*%
%ADD24O,1.700000X1.100000*%
%ADD25C,2.000000*%
%ADD26RoundRect,0.135000X-0.135000X-0.185000X0.135000X-0.185000X0.135000X0.185000X-0.135000X0.185000X0*%
%ADD27RoundRect,0.135000X-0.185000X0.135000X-0.185000X-0.135000X0.185000X-0.135000X0.185000X0.135000X0*%
%ADD28RoundRect,0.250000X0.325000X1.100000X-0.325000X1.100000X-0.325000X-1.100000X0.325000X-1.100000X0*%
%ADD29RoundRect,0.135000X0.135000X0.185000X-0.135000X0.185000X-0.135000X-0.185000X0.135000X-0.185000X0*%
%ADD30RoundRect,0.250000X0.250000X0.475000X-0.250000X0.475000X-0.250000X-0.475000X0.250000X-0.475000X0*%
%ADD31RoundRect,0.250000X0.475000X-0.250000X0.475000X0.250000X-0.475000X0.250000X-0.475000X-0.250000X0*%
%ADD32RoundRect,0.150000X-0.587500X-0.150000X0.587500X-0.150000X0.587500X0.150000X-0.587500X0.150000X0*%
G04 APERTURE END LIST*
D10*
X144124819Y-84867142D02*
X143648628Y-84533809D01*
X144124819Y-84295714D02*
X143124819Y-84295714D01*
X143124819Y-84295714D02*
X143124819Y-84676666D01*
X143124819Y-84676666D02*
X143172438Y-84771904D01*
X143172438Y-84771904D02*
X143220057Y-84819523D01*
X143220057Y-84819523D02*
X143315295Y-84867142D01*
X143315295Y-84867142D02*
X143458152Y-84867142D01*
X143458152Y-84867142D02*
X143553390Y-84819523D01*
X143553390Y-84819523D02*
X143601009Y-84771904D01*
X143601009Y-84771904D02*
X143648628Y-84676666D01*
X143648628Y-84676666D02*
X143648628Y-84295714D01*
X143124819Y-85200476D02*
X143124819Y-85819523D01*
X143124819Y-85819523D02*
X143505771Y-85486190D01*
X143505771Y-85486190D02*
X143505771Y-85629047D01*
X143505771Y-85629047D02*
X143553390Y-85724285D01*
X143553390Y-85724285D02*
X143601009Y-85771904D01*
X143601009Y-85771904D02*
X143696247Y-85819523D01*
X143696247Y-85819523D02*
X143934342Y-85819523D01*
X143934342Y-85819523D02*
X144029580Y-85771904D01*
X144029580Y-85771904D02*
X144077200Y-85724285D01*
X144077200Y-85724285D02*
X144124819Y-85629047D01*
X144124819Y-85629047D02*
X144124819Y-85343333D01*
X144124819Y-85343333D02*
X144077200Y-85248095D01*
X144077200Y-85248095D02*
X144029580Y-85200476D01*
X143124819Y-86438571D02*
X143124819Y-86533809D01*
X143124819Y-86533809D02*
X143172438Y-86629047D01*
X143172438Y-86629047D02*
X143220057Y-86676666D01*
X143220057Y-86676666D02*
X143315295Y-86724285D01*
X143315295Y-86724285D02*
X143505771Y-86771904D01*
X143505771Y-86771904D02*
X143743866Y-86771904D01*
X143743866Y-86771904D02*
X143934342Y-86724285D01*
X143934342Y-86724285D02*
X144029580Y-86676666D01*
X144029580Y-86676666D02*
X144077200Y-86629047D01*
X144077200Y-86629047D02*
X144124819Y-86533809D01*
X144124819Y-86533809D02*
X144124819Y-86438571D01*
X144124819Y-86438571D02*
X144077200Y-86343333D01*
X144077200Y-86343333D02*
X144029580Y-86295714D01*
X144029580Y-86295714D02*
X143934342Y-86248095D01*
X143934342Y-86248095D02*
X143743866Y-86200476D01*
X143743866Y-86200476D02*
X143505771Y-86200476D01*
X143505771Y-86200476D02*
X143315295Y-86248095D01*
X143315295Y-86248095D02*
X143220057Y-86295714D01*
X143220057Y-86295714D02*
X143172438Y-86343333D01*
X143172438Y-86343333D02*
X143124819Y-86438571D01*
X177142857Y-84454819D02*
X177476190Y-83978628D01*
X177714285Y-84454819D02*
X177714285Y-83454819D01*
X177714285Y-83454819D02*
X177333333Y-83454819D01*
X177333333Y-83454819D02*
X177238095Y-83502438D01*
X177238095Y-83502438D02*
X177190476Y-83550057D01*
X177190476Y-83550057D02*
X177142857Y-83645295D01*
X177142857Y-83645295D02*
X177142857Y-83788152D01*
X177142857Y-83788152D02*
X177190476Y-83883390D01*
X177190476Y-83883390D02*
X177238095Y-83931009D01*
X177238095Y-83931009D02*
X177333333Y-83978628D01*
X177333333Y-83978628D02*
X177714285Y-83978628D01*
X176761904Y-83550057D02*
X176714285Y-83502438D01*
X176714285Y-83502438D02*
X176619047Y-83454819D01*
X176619047Y-83454819D02*
X176380952Y-83454819D01*
X176380952Y-83454819D02*
X176285714Y-83502438D01*
X176285714Y-83502438D02*
X176238095Y-83550057D01*
X176238095Y-83550057D02*
X176190476Y-83645295D01*
X176190476Y-83645295D02*
X176190476Y-83740533D01*
X176190476Y-83740533D02*
X176238095Y-83883390D01*
X176238095Y-83883390D02*
X176809523Y-84454819D01*
X176809523Y-84454819D02*
X176190476Y-84454819D01*
X175571428Y-83454819D02*
X175476190Y-83454819D01*
X175476190Y-83454819D02*
X175380952Y-83502438D01*
X175380952Y-83502438D02*
X175333333Y-83550057D01*
X175333333Y-83550057D02*
X175285714Y-83645295D01*
X175285714Y-83645295D02*
X175238095Y-83835771D01*
X175238095Y-83835771D02*
X175238095Y-84073866D01*
X175238095Y-84073866D02*
X175285714Y-84264342D01*
X175285714Y-84264342D02*
X175333333Y-84359580D01*
X175333333Y-84359580D02*
X175380952Y-84407200D01*
X175380952Y-84407200D02*
X175476190Y-84454819D01*
X175476190Y-84454819D02*
X175571428Y-84454819D01*
X175571428Y-84454819D02*
X175666666Y-84407200D01*
X175666666Y-84407200D02*
X175714285Y-84359580D01*
X175714285Y-84359580D02*
X175761904Y-84264342D01*
X175761904Y-84264342D02*
X175809523Y-84073866D01*
X175809523Y-84073866D02*
X175809523Y-83835771D01*
X175809523Y-83835771D02*
X175761904Y-83645295D01*
X175761904Y-83645295D02*
X175714285Y-83550057D01*
X175714285Y-83550057D02*
X175666666Y-83502438D01*
X175666666Y-83502438D02*
X175571428Y-83454819D01*
X165652857Y-80624819D02*
X165986190Y-80148628D01*
X166224285Y-80624819D02*
X166224285Y-79624819D01*
X166224285Y-79624819D02*
X165843333Y-79624819D01*
X165843333Y-79624819D02*
X165748095Y-79672438D01*
X165748095Y-79672438D02*
X165700476Y-79720057D01*
X165700476Y-79720057D02*
X165652857Y-79815295D01*
X165652857Y-79815295D02*
X165652857Y-79958152D01*
X165652857Y-79958152D02*
X165700476Y-80053390D01*
X165700476Y-80053390D02*
X165748095Y-80101009D01*
X165748095Y-80101009D02*
X165843333Y-80148628D01*
X165843333Y-80148628D02*
X166224285Y-80148628D01*
X165271904Y-79720057D02*
X165224285Y-79672438D01*
X165224285Y-79672438D02*
X165129047Y-79624819D01*
X165129047Y-79624819D02*
X164890952Y-79624819D01*
X164890952Y-79624819D02*
X164795714Y-79672438D01*
X164795714Y-79672438D02*
X164748095Y-79720057D01*
X164748095Y-79720057D02*
X164700476Y-79815295D01*
X164700476Y-79815295D02*
X164700476Y-79910533D01*
X164700476Y-79910533D02*
X164748095Y-80053390D01*
X164748095Y-80053390D02*
X165319523Y-80624819D01*
X165319523Y-80624819D02*
X164700476Y-80624819D01*
X164129047Y-80053390D02*
X164224285Y-80005771D01*
X164224285Y-80005771D02*
X164271904Y-79958152D01*
X164271904Y-79958152D02*
X164319523Y-79862914D01*
X164319523Y-79862914D02*
X164319523Y-79815295D01*
X164319523Y-79815295D02*
X164271904Y-79720057D01*
X164271904Y-79720057D02*
X164224285Y-79672438D01*
X164224285Y-79672438D02*
X164129047Y-79624819D01*
X164129047Y-79624819D02*
X163938571Y-79624819D01*
X163938571Y-79624819D02*
X163843333Y-79672438D01*
X163843333Y-79672438D02*
X163795714Y-79720057D01*
X163795714Y-79720057D02*
X163748095Y-79815295D01*
X163748095Y-79815295D02*
X163748095Y-79862914D01*
X163748095Y-79862914D02*
X163795714Y-79958152D01*
X163795714Y-79958152D02*
X163843333Y-80005771D01*
X163843333Y-80005771D02*
X163938571Y-80053390D01*
X163938571Y-80053390D02*
X164129047Y-80053390D01*
X164129047Y-80053390D02*
X164224285Y-80101009D01*
X164224285Y-80101009D02*
X164271904Y-80148628D01*
X164271904Y-80148628D02*
X164319523Y-80243866D01*
X164319523Y-80243866D02*
X164319523Y-80434342D01*
X164319523Y-80434342D02*
X164271904Y-80529580D01*
X164271904Y-80529580D02*
X164224285Y-80577200D01*
X164224285Y-80577200D02*
X164129047Y-80624819D01*
X164129047Y-80624819D02*
X163938571Y-80624819D01*
X163938571Y-80624819D02*
X163843333Y-80577200D01*
X163843333Y-80577200D02*
X163795714Y-80529580D01*
X163795714Y-80529580D02*
X163748095Y-80434342D01*
X163748095Y-80434342D02*
X163748095Y-80243866D01*
X163748095Y-80243866D02*
X163795714Y-80148628D01*
X163795714Y-80148628D02*
X163843333Y-80101009D01*
X163843333Y-80101009D02*
X163938571Y-80053390D01*
X143284819Y-78347142D02*
X142808628Y-78013809D01*
X143284819Y-77775714D02*
X142284819Y-77775714D01*
X142284819Y-77775714D02*
X142284819Y-78156666D01*
X142284819Y-78156666D02*
X142332438Y-78251904D01*
X142332438Y-78251904D02*
X142380057Y-78299523D01*
X142380057Y-78299523D02*
X142475295Y-78347142D01*
X142475295Y-78347142D02*
X142618152Y-78347142D01*
X142618152Y-78347142D02*
X142713390Y-78299523D01*
X142713390Y-78299523D02*
X142761009Y-78251904D01*
X142761009Y-78251904D02*
X142808628Y-78156666D01*
X142808628Y-78156666D02*
X142808628Y-77775714D01*
X143284819Y-79299523D02*
X143284819Y-78728095D01*
X143284819Y-79013809D02*
X142284819Y-79013809D01*
X142284819Y-79013809D02*
X142427676Y-78918571D01*
X142427676Y-78918571D02*
X142522914Y-78823333D01*
X142522914Y-78823333D02*
X142570533Y-78728095D01*
X142380057Y-79680476D02*
X142332438Y-79728095D01*
X142332438Y-79728095D02*
X142284819Y-79823333D01*
X142284819Y-79823333D02*
X142284819Y-80061428D01*
X142284819Y-80061428D02*
X142332438Y-80156666D01*
X142332438Y-80156666D02*
X142380057Y-80204285D01*
X142380057Y-80204285D02*
X142475295Y-80251904D01*
X142475295Y-80251904D02*
X142570533Y-80251904D01*
X142570533Y-80251904D02*
X142713390Y-80204285D01*
X142713390Y-80204285D02*
X143284819Y-79632857D01*
X143284819Y-79632857D02*
X143284819Y-80251904D01*
X136166666Y-79559580D02*
X136214285Y-79607200D01*
X136214285Y-79607200D02*
X136357142Y-79654819D01*
X136357142Y-79654819D02*
X136452380Y-79654819D01*
X136452380Y-79654819D02*
X136595237Y-79607200D01*
X136595237Y-79607200D02*
X136690475Y-79511961D01*
X136690475Y-79511961D02*
X136738094Y-79416723D01*
X136738094Y-79416723D02*
X136785713Y-79226247D01*
X136785713Y-79226247D02*
X136785713Y-79083390D01*
X136785713Y-79083390D02*
X136738094Y-78892914D01*
X136738094Y-78892914D02*
X136690475Y-78797676D01*
X136690475Y-78797676D02*
X136595237Y-78702438D01*
X136595237Y-78702438D02*
X136452380Y-78654819D01*
X136452380Y-78654819D02*
X136357142Y-78654819D01*
X136357142Y-78654819D02*
X136214285Y-78702438D01*
X136214285Y-78702438D02*
X136166666Y-78750057D01*
X135785713Y-78750057D02*
X135738094Y-78702438D01*
X135738094Y-78702438D02*
X135642856Y-78654819D01*
X135642856Y-78654819D02*
X135404761Y-78654819D01*
X135404761Y-78654819D02*
X135309523Y-78702438D01*
X135309523Y-78702438D02*
X135261904Y-78750057D01*
X135261904Y-78750057D02*
X135214285Y-78845295D01*
X135214285Y-78845295D02*
X135214285Y-78940533D01*
X135214285Y-78940533D02*
X135261904Y-79083390D01*
X135261904Y-79083390D02*
X135833332Y-79654819D01*
X135833332Y-79654819D02*
X135214285Y-79654819D01*
X177142857Y-89454819D02*
X177476190Y-88978628D01*
X177714285Y-89454819D02*
X177714285Y-88454819D01*
X177714285Y-88454819D02*
X177333333Y-88454819D01*
X177333333Y-88454819D02*
X177238095Y-88502438D01*
X177238095Y-88502438D02*
X177190476Y-88550057D01*
X177190476Y-88550057D02*
X177142857Y-88645295D01*
X177142857Y-88645295D02*
X177142857Y-88788152D01*
X177142857Y-88788152D02*
X177190476Y-88883390D01*
X177190476Y-88883390D02*
X177238095Y-88931009D01*
X177238095Y-88931009D02*
X177333333Y-88978628D01*
X177333333Y-88978628D02*
X177714285Y-88978628D01*
X176190476Y-89454819D02*
X176761904Y-89454819D01*
X176476190Y-89454819D02*
X176476190Y-88454819D01*
X176476190Y-88454819D02*
X176571428Y-88597676D01*
X176571428Y-88597676D02*
X176666666Y-88692914D01*
X176666666Y-88692914D02*
X176761904Y-88740533D01*
X175857142Y-88454819D02*
X175190476Y-88454819D01*
X175190476Y-88454819D02*
X175619047Y-89454819D01*
X160784819Y-84343333D02*
X160308628Y-84010000D01*
X160784819Y-83771905D02*
X159784819Y-83771905D01*
X159784819Y-83771905D02*
X159784819Y-84152857D01*
X159784819Y-84152857D02*
X159832438Y-84248095D01*
X159832438Y-84248095D02*
X159880057Y-84295714D01*
X159880057Y-84295714D02*
X159975295Y-84343333D01*
X159975295Y-84343333D02*
X160118152Y-84343333D01*
X160118152Y-84343333D02*
X160213390Y-84295714D01*
X160213390Y-84295714D02*
X160261009Y-84248095D01*
X160261009Y-84248095D02*
X160308628Y-84152857D01*
X160308628Y-84152857D02*
X160308628Y-83771905D01*
X160213390Y-84914762D02*
X160165771Y-84819524D01*
X160165771Y-84819524D02*
X160118152Y-84771905D01*
X160118152Y-84771905D02*
X160022914Y-84724286D01*
X160022914Y-84724286D02*
X159975295Y-84724286D01*
X159975295Y-84724286D02*
X159880057Y-84771905D01*
X159880057Y-84771905D02*
X159832438Y-84819524D01*
X159832438Y-84819524D02*
X159784819Y-84914762D01*
X159784819Y-84914762D02*
X159784819Y-85105238D01*
X159784819Y-85105238D02*
X159832438Y-85200476D01*
X159832438Y-85200476D02*
X159880057Y-85248095D01*
X159880057Y-85248095D02*
X159975295Y-85295714D01*
X159975295Y-85295714D02*
X160022914Y-85295714D01*
X160022914Y-85295714D02*
X160118152Y-85248095D01*
X160118152Y-85248095D02*
X160165771Y-85200476D01*
X160165771Y-85200476D02*
X160213390Y-85105238D01*
X160213390Y-85105238D02*
X160213390Y-84914762D01*
X160213390Y-84914762D02*
X160261009Y-84819524D01*
X160261009Y-84819524D02*
X160308628Y-84771905D01*
X160308628Y-84771905D02*
X160403866Y-84724286D01*
X160403866Y-84724286D02*
X160594342Y-84724286D01*
X160594342Y-84724286D02*
X160689580Y-84771905D01*
X160689580Y-84771905D02*
X160737200Y-84819524D01*
X160737200Y-84819524D02*
X160784819Y-84914762D01*
X160784819Y-84914762D02*
X160784819Y-85105238D01*
X160784819Y-85105238D02*
X160737200Y-85200476D01*
X160737200Y-85200476D02*
X160689580Y-85248095D01*
X160689580Y-85248095D02*
X160594342Y-85295714D01*
X160594342Y-85295714D02*
X160403866Y-85295714D01*
X160403866Y-85295714D02*
X160308628Y-85248095D01*
X160308628Y-85248095D02*
X160261009Y-85200476D01*
X160261009Y-85200476D02*
X160213390Y-85105238D01*
X144884819Y-73583333D02*
X144408628Y-73250000D01*
X144884819Y-73011905D02*
X143884819Y-73011905D01*
X143884819Y-73011905D02*
X143884819Y-73392857D01*
X143884819Y-73392857D02*
X143932438Y-73488095D01*
X143932438Y-73488095D02*
X143980057Y-73535714D01*
X143980057Y-73535714D02*
X144075295Y-73583333D01*
X144075295Y-73583333D02*
X144218152Y-73583333D01*
X144218152Y-73583333D02*
X144313390Y-73535714D01*
X144313390Y-73535714D02*
X144361009Y-73488095D01*
X144361009Y-73488095D02*
X144408628Y-73392857D01*
X144408628Y-73392857D02*
X144408628Y-73011905D01*
X143884819Y-73916667D02*
X143884819Y-74583333D01*
X143884819Y-74583333D02*
X144884819Y-74154762D01*
X177592857Y-81179580D02*
X177640476Y-81227200D01*
X177640476Y-81227200D02*
X177783333Y-81274819D01*
X177783333Y-81274819D02*
X177878571Y-81274819D01*
X177878571Y-81274819D02*
X178021428Y-81227200D01*
X178021428Y-81227200D02*
X178116666Y-81131961D01*
X178116666Y-81131961D02*
X178164285Y-81036723D01*
X178164285Y-81036723D02*
X178211904Y-80846247D01*
X178211904Y-80846247D02*
X178211904Y-80703390D01*
X178211904Y-80703390D02*
X178164285Y-80512914D01*
X178164285Y-80512914D02*
X178116666Y-80417676D01*
X178116666Y-80417676D02*
X178021428Y-80322438D01*
X178021428Y-80322438D02*
X177878571Y-80274819D01*
X177878571Y-80274819D02*
X177783333Y-80274819D01*
X177783333Y-80274819D02*
X177640476Y-80322438D01*
X177640476Y-80322438D02*
X177592857Y-80370057D01*
X176640476Y-81274819D02*
X177211904Y-81274819D01*
X176926190Y-81274819D02*
X176926190Y-80274819D01*
X176926190Y-80274819D02*
X177021428Y-80417676D01*
X177021428Y-80417676D02*
X177116666Y-80512914D01*
X177116666Y-80512914D02*
X177211904Y-80560533D01*
X176021428Y-80274819D02*
X175926190Y-80274819D01*
X175926190Y-80274819D02*
X175830952Y-80322438D01*
X175830952Y-80322438D02*
X175783333Y-80370057D01*
X175783333Y-80370057D02*
X175735714Y-80465295D01*
X175735714Y-80465295D02*
X175688095Y-80655771D01*
X175688095Y-80655771D02*
X175688095Y-80893866D01*
X175688095Y-80893866D02*
X175735714Y-81084342D01*
X175735714Y-81084342D02*
X175783333Y-81179580D01*
X175783333Y-81179580D02*
X175830952Y-81227200D01*
X175830952Y-81227200D02*
X175926190Y-81274819D01*
X175926190Y-81274819D02*
X176021428Y-81274819D01*
X176021428Y-81274819D02*
X176116666Y-81227200D01*
X176116666Y-81227200D02*
X176164285Y-81179580D01*
X176164285Y-81179580D02*
X176211904Y-81084342D01*
X176211904Y-81084342D02*
X176259523Y-80893866D01*
X176259523Y-80893866D02*
X176259523Y-80655771D01*
X176259523Y-80655771D02*
X176211904Y-80465295D01*
X176211904Y-80465295D02*
X176164285Y-80370057D01*
X176164285Y-80370057D02*
X176116666Y-80322438D01*
X176116666Y-80322438D02*
X176021428Y-80274819D01*
X126359580Y-62833333D02*
X126407200Y-62785714D01*
X126407200Y-62785714D02*
X126454819Y-62642857D01*
X126454819Y-62642857D02*
X126454819Y-62547619D01*
X126454819Y-62547619D02*
X126407200Y-62404762D01*
X126407200Y-62404762D02*
X126311961Y-62309524D01*
X126311961Y-62309524D02*
X126216723Y-62261905D01*
X126216723Y-62261905D02*
X126026247Y-62214286D01*
X126026247Y-62214286D02*
X125883390Y-62214286D01*
X125883390Y-62214286D02*
X125692914Y-62261905D01*
X125692914Y-62261905D02*
X125597676Y-62309524D01*
X125597676Y-62309524D02*
X125502438Y-62404762D01*
X125502438Y-62404762D02*
X125454819Y-62547619D01*
X125454819Y-62547619D02*
X125454819Y-62642857D01*
X125454819Y-62642857D02*
X125502438Y-62785714D01*
X125502438Y-62785714D02*
X125550057Y-62833333D01*
X125454819Y-63738095D02*
X125454819Y-63261905D01*
X125454819Y-63261905D02*
X125931009Y-63214286D01*
X125931009Y-63214286D02*
X125883390Y-63261905D01*
X125883390Y-63261905D02*
X125835771Y-63357143D01*
X125835771Y-63357143D02*
X125835771Y-63595238D01*
X125835771Y-63595238D02*
X125883390Y-63690476D01*
X125883390Y-63690476D02*
X125931009Y-63738095D01*
X125931009Y-63738095D02*
X126026247Y-63785714D01*
X126026247Y-63785714D02*
X126264342Y-63785714D01*
X126264342Y-63785714D02*
X126359580Y-63738095D01*
X126359580Y-63738095D02*
X126407200Y-63690476D01*
X126407200Y-63690476D02*
X126454819Y-63595238D01*
X126454819Y-63595238D02*
X126454819Y-63357143D01*
X126454819Y-63357143D02*
X126407200Y-63261905D01*
X126407200Y-63261905D02*
X126359580Y-63214286D01*
X149874819Y-72357142D02*
X149398628Y-72023809D01*
X149874819Y-71785714D02*
X148874819Y-71785714D01*
X148874819Y-71785714D02*
X148874819Y-72166666D01*
X148874819Y-72166666D02*
X148922438Y-72261904D01*
X148922438Y-72261904D02*
X148970057Y-72309523D01*
X148970057Y-72309523D02*
X149065295Y-72357142D01*
X149065295Y-72357142D02*
X149208152Y-72357142D01*
X149208152Y-72357142D02*
X149303390Y-72309523D01*
X149303390Y-72309523D02*
X149351009Y-72261904D01*
X149351009Y-72261904D02*
X149398628Y-72166666D01*
X149398628Y-72166666D02*
X149398628Y-71785714D01*
X149874819Y-73309523D02*
X149874819Y-72738095D01*
X149874819Y-73023809D02*
X148874819Y-73023809D01*
X148874819Y-73023809D02*
X149017676Y-72928571D01*
X149017676Y-72928571D02*
X149112914Y-72833333D01*
X149112914Y-72833333D02*
X149160533Y-72738095D01*
X148874819Y-74214285D02*
X148874819Y-73738095D01*
X148874819Y-73738095D02*
X149351009Y-73690476D01*
X149351009Y-73690476D02*
X149303390Y-73738095D01*
X149303390Y-73738095D02*
X149255771Y-73833333D01*
X149255771Y-73833333D02*
X149255771Y-74071428D01*
X149255771Y-74071428D02*
X149303390Y-74166666D01*
X149303390Y-74166666D02*
X149351009Y-74214285D01*
X149351009Y-74214285D02*
X149446247Y-74261904D01*
X149446247Y-74261904D02*
X149684342Y-74261904D01*
X149684342Y-74261904D02*
X149779580Y-74214285D01*
X149779580Y-74214285D02*
X149827200Y-74166666D01*
X149827200Y-74166666D02*
X149874819Y-74071428D01*
X149874819Y-74071428D02*
X149874819Y-73833333D01*
X149874819Y-73833333D02*
X149827200Y-73738095D01*
X149827200Y-73738095D02*
X149779580Y-73690476D01*
X180532738Y-88900057D02*
X180627976Y-88852438D01*
X180627976Y-88852438D02*
X180723214Y-88757200D01*
X180723214Y-88757200D02*
X180866071Y-88614342D01*
X180866071Y-88614342D02*
X180961309Y-88566723D01*
X180961309Y-88566723D02*
X181056547Y-88566723D01*
X181008928Y-88804819D02*
X181104166Y-88757200D01*
X181104166Y-88757200D02*
X181199404Y-88661961D01*
X181199404Y-88661961D02*
X181247023Y-88471485D01*
X181247023Y-88471485D02*
X181247023Y-88138152D01*
X181247023Y-88138152D02*
X181199404Y-87947676D01*
X181199404Y-87947676D02*
X181104166Y-87852438D01*
X181104166Y-87852438D02*
X181008928Y-87804819D01*
X181008928Y-87804819D02*
X180818452Y-87804819D01*
X180818452Y-87804819D02*
X180723214Y-87852438D01*
X180723214Y-87852438D02*
X180627976Y-87947676D01*
X180627976Y-87947676D02*
X180580357Y-88138152D01*
X180580357Y-88138152D02*
X180580357Y-88471485D01*
X180580357Y-88471485D02*
X180627976Y-88661961D01*
X180627976Y-88661961D02*
X180723214Y-88757200D01*
X180723214Y-88757200D02*
X180818452Y-88804819D01*
X180818452Y-88804819D02*
X181008928Y-88804819D01*
X179627976Y-88804819D02*
X180199404Y-88804819D01*
X179913690Y-88804819D02*
X179913690Y-87804819D01*
X179913690Y-87804819D02*
X180008928Y-87947676D01*
X180008928Y-87947676D02*
X180104166Y-88042914D01*
X180104166Y-88042914D02*
X180199404Y-88090533D01*
D11*
%TO.C,R30*%
X142880000Y-85663641D02*
X142880000Y-85356359D01*
X142120000Y-85663641D02*
X142120000Y-85356359D01*
%TO.C,R20*%
X175846359Y-85120000D02*
X176153641Y-85120000D01*
X175846359Y-85880000D02*
X176153641Y-85880000D01*
%TO.C,R28*%
X164856359Y-78620000D02*
X165163641Y-78620000D01*
X164856359Y-79380000D02*
X165163641Y-79380000D01*
%TO.C,R12*%
X143620000Y-78836359D02*
X143620000Y-79143641D01*
X144380000Y-78836359D02*
X144380000Y-79143641D01*
%TO.C,C2*%
X136711252Y-80140000D02*
X135288748Y-80140000D01*
X136711252Y-82860000D02*
X135288748Y-82860000D01*
%TO.C,R17*%
X176163641Y-87120000D02*
X175856359Y-87120000D01*
X176163641Y-87880000D02*
X175856359Y-87880000D01*
%TO.C,R8*%
X161120000Y-84356359D02*
X161120000Y-84663641D01*
X161880000Y-84356359D02*
X161880000Y-84663641D01*
D12*
%TO.C,G\u002A\u002A\u002A*%
G36*
X157366667Y-70654138D02*
G01*
X157350000Y-70670827D01*
X157333334Y-70654138D01*
X157350000Y-70637450D01*
X157366667Y-70654138D01*
G37*
G36*
X161545396Y-70380334D02*
G01*
X161566667Y-70420498D01*
X161548597Y-70458996D01*
X161482298Y-70464437D01*
X161426568Y-70449090D01*
X161397928Y-70420498D01*
X161419087Y-70395803D01*
X161482298Y-70376560D01*
X161545396Y-70380334D01*
G37*
G36*
X159986903Y-70497840D02*
G01*
X160007095Y-70570588D01*
X160012868Y-70633547D01*
X159994768Y-70664454D01*
X159936141Y-70664166D01*
X159926604Y-70662675D01*
X159866370Y-70627124D01*
X159844017Y-70567925D01*
X159861545Y-70509711D01*
X159920955Y-70477118D01*
X159946686Y-70475478D01*
X159986903Y-70497840D01*
G37*
G36*
X161467911Y-70604075D02*
G01*
X161537702Y-70614015D01*
X161566667Y-70637450D01*
X161566659Y-70637865D01*
X161536880Y-70661159D01*
X161466667Y-70670827D01*
X161465423Y-70670824D01*
X161395633Y-70660885D01*
X161366667Y-70637450D01*
X161366675Y-70637035D01*
X161396454Y-70613741D01*
X161466667Y-70604073D01*
X161467911Y-70604075D01*
G37*
G36*
X159988505Y-67921778D02*
G01*
X160197961Y-68133721D01*
X160322953Y-68260365D01*
X160380434Y-68318605D01*
X160530918Y-68471361D01*
X160644404Y-68586924D01*
X160715885Y-68660224D01*
X160981770Y-68935216D01*
X158926109Y-68935216D01*
X156870447Y-68935216D01*
X156818557Y-68861035D01*
X156814304Y-68854276D01*
X156802911Y-68826207D01*
X156793454Y-68782095D01*
X156785759Y-68716304D01*
X156779653Y-68623200D01*
X156774963Y-68497150D01*
X156771514Y-68332518D01*
X156769133Y-68123671D01*
X156767648Y-67864973D01*
X156766883Y-67550791D01*
X156766678Y-67194315D01*
X157266667Y-67194315D01*
X157269726Y-67217049D01*
X157315883Y-67307481D01*
X157414695Y-67426450D01*
X157562541Y-67569957D01*
X157755797Y-67734007D01*
X158066630Y-67961442D01*
X158433630Y-68170088D01*
X158803841Y-68315277D01*
X159180975Y-68398741D01*
X159202393Y-68401707D01*
X159349730Y-68420416D01*
X159452518Y-68428653D01*
X159529645Y-68427242D01*
X159600000Y-68417006D01*
X159601603Y-68416695D01*
X159661006Y-68406203D01*
X159763794Y-68388880D01*
X159888715Y-68368309D01*
X159894182Y-68367411D01*
X160019789Y-68342459D01*
X160123077Y-68314475D01*
X160182159Y-68289349D01*
X160212583Y-68260365D01*
X160206746Y-68226716D01*
X160154267Y-68171556D01*
X160131672Y-68150793D01*
X160088405Y-68120334D01*
X160038186Y-68109118D01*
X159961505Y-68114914D01*
X159838856Y-68135491D01*
X159740043Y-68150910D01*
X159385146Y-68167435D01*
X159034120Y-68121062D01*
X158682008Y-68010811D01*
X158323855Y-67835702D01*
X158281173Y-67810328D01*
X158146865Y-67721793D01*
X158002398Y-67616576D01*
X157860966Y-67505315D01*
X157735765Y-67398645D01*
X157639991Y-67307204D01*
X157616948Y-67278774D01*
X158652971Y-67278774D01*
X158703581Y-67480926D01*
X158802769Y-67668095D01*
X158942983Y-67825506D01*
X159116667Y-67938386D01*
X159118821Y-67939360D01*
X159266669Y-67981601D01*
X159443633Y-67997414D01*
X159619797Y-67986356D01*
X159765246Y-67947985D01*
X159880491Y-67897927D01*
X159322809Y-67340159D01*
X159151643Y-67169021D01*
X159008024Y-67027702D01*
X158900235Y-66927927D01*
X158822161Y-66867022D01*
X158767685Y-66842317D01*
X158730693Y-66851137D01*
X158705069Y-66890811D01*
X158684698Y-66958667D01*
X158663465Y-67052032D01*
X158658495Y-67076413D01*
X158652971Y-67278774D01*
X157616948Y-67278774D01*
X157586840Y-67241626D01*
X157581131Y-67209923D01*
X157604204Y-67160286D01*
X157665571Y-67087661D01*
X157772009Y-66982563D01*
X157785249Y-66970122D01*
X157922408Y-66850395D01*
X158074326Y-66730160D01*
X158210487Y-66633697D01*
X158239504Y-66614712D01*
X158338195Y-66546834D01*
X158407301Y-66494050D01*
X158433334Y-66466478D01*
X158433256Y-66465381D01*
X158409082Y-66427148D01*
X158354775Y-66369667D01*
X158276215Y-66295768D01*
X158020107Y-66467289D01*
X157888206Y-66561682D01*
X157738174Y-66681443D01*
X157593956Y-66807790D01*
X157465125Y-66931486D01*
X157361252Y-67043297D01*
X157291909Y-67133985D01*
X157266667Y-67194315D01*
X156766678Y-67194315D01*
X156766667Y-67175490D01*
X156766413Y-66901812D01*
X156765774Y-66557640D01*
X156766016Y-66271301D01*
X156768474Y-66037523D01*
X156774487Y-65851032D01*
X156785392Y-65706557D01*
X156802524Y-65598825D01*
X156827223Y-65522563D01*
X156860824Y-65472500D01*
X156904664Y-65443362D01*
X156960082Y-65429877D01*
X157028413Y-65426773D01*
X157110995Y-65428777D01*
X157209166Y-65430617D01*
X157518332Y-65430617D01*
X158984166Y-66907925D01*
X159248329Y-67174267D01*
X159508682Y-67436984D01*
X159757077Y-67687843D01*
X159964910Y-67897927D01*
X159988505Y-67921778D01*
G37*
G36*
X162299988Y-67338893D02*
G01*
X162299756Y-67694338D01*
X162299080Y-67990454D01*
X162297772Y-68232777D01*
X162295640Y-68426843D01*
X162292495Y-68578188D01*
X162288145Y-68692349D01*
X162282400Y-68774862D01*
X162275071Y-68831264D01*
X162265966Y-68867091D01*
X162254895Y-68887879D01*
X162241667Y-68899165D01*
X162189900Y-68912080D01*
X162085441Y-68923298D01*
X161944712Y-68931066D01*
X161783215Y-68934201D01*
X161383096Y-68935216D01*
X159633334Y-67182916D01*
X158962077Y-66510686D01*
X159066667Y-66510686D01*
X159071613Y-66520952D01*
X159113916Y-66573982D01*
X159193885Y-66663159D01*
X159304745Y-66781209D01*
X159439724Y-66920858D01*
X159592046Y-67074832D01*
X159665330Y-67147857D01*
X159812244Y-67292690D01*
X159940527Y-67417079D01*
X160043107Y-67514278D01*
X160112913Y-67577543D01*
X160142871Y-67600130D01*
X160172538Y-67575277D01*
X160206949Y-67499520D01*
X160237351Y-67389369D01*
X160258015Y-67261667D01*
X160259278Y-67132846D01*
X160212568Y-66927377D01*
X160112687Y-66737850D01*
X159967789Y-66578079D01*
X159786028Y-66461881D01*
X159704157Y-66433527D01*
X159572641Y-66409920D01*
X159430985Y-66402273D01*
X159294374Y-66409556D01*
X159177994Y-66430740D01*
X159097030Y-66464793D01*
X159066667Y-66510686D01*
X158962077Y-66510686D01*
X158632723Y-66180854D01*
X158710607Y-66180854D01*
X158768019Y-66249582D01*
X158800534Y-66275699D01*
X158847957Y-66293897D01*
X158916688Y-66291873D01*
X159028359Y-66271443D01*
X159207611Y-66244933D01*
X159456906Y-66233442D01*
X159703684Y-66246188D01*
X159917997Y-66282788D01*
X159920923Y-66283543D01*
X160241867Y-66394275D01*
X160569683Y-66558675D01*
X160888722Y-66767720D01*
X161183334Y-67012386D01*
X161312018Y-67132846D01*
X161383334Y-67199605D01*
X161183334Y-67387788D01*
X161171142Y-67399139D01*
X161037261Y-67514256D01*
X160881003Y-67636293D01*
X160733707Y-67740655D01*
X160680773Y-67775688D01*
X160577061Y-67845046D01*
X160502212Y-67896111D01*
X160469687Y-67919752D01*
X160468558Y-67921922D01*
X160484989Y-67958172D01*
X160533457Y-68017476D01*
X160541022Y-68025441D01*
X160597359Y-68078575D01*
X160630811Y-68099756D01*
X160635251Y-68099255D01*
X160698686Y-68071289D01*
X160797125Y-68007081D01*
X160920749Y-67915104D01*
X161059742Y-67803832D01*
X161204286Y-67681741D01*
X161344564Y-67557305D01*
X161470758Y-67438998D01*
X161573051Y-67335294D01*
X161641627Y-67254668D01*
X161666667Y-67205595D01*
X161663555Y-67188799D01*
X161621098Y-67117077D01*
X161536162Y-67018389D01*
X161418018Y-66900878D01*
X161275934Y-66772683D01*
X161119180Y-66641946D01*
X160957025Y-66516806D01*
X160798738Y-66405404D01*
X160653589Y-66315881D01*
X160617654Y-66296135D01*
X160266734Y-66139301D01*
X159901859Y-66036764D01*
X159533767Y-65989976D01*
X159173200Y-66000390D01*
X158830897Y-66069457D01*
X158781652Y-66086249D01*
X158714404Y-66128550D01*
X158710607Y-66180854D01*
X158632723Y-66180854D01*
X157883572Y-65430617D01*
X160030828Y-65430617D01*
X160276970Y-65430649D01*
X160676404Y-65430923D01*
X161016713Y-65431577D01*
X161302765Y-65432734D01*
X161539430Y-65434515D01*
X161731576Y-65437042D01*
X161884071Y-65440437D01*
X162001786Y-65444822D01*
X162089587Y-65450319D01*
X162152345Y-65457049D01*
X162194928Y-65465133D01*
X162222204Y-65474695D01*
X162239042Y-65485855D01*
X162246188Y-65492967D01*
X162258856Y-65511639D01*
X162269371Y-65540787D01*
X162277930Y-65586038D01*
X162284734Y-65653021D01*
X162289983Y-65747363D01*
X162293876Y-65874692D01*
X162296614Y-66040636D01*
X162298395Y-66250823D01*
X162299420Y-66510881D01*
X162299889Y-66826437D01*
X162300000Y-67203119D01*
X162300000Y-67205595D01*
X162299988Y-67338893D01*
G37*
G36*
X159100544Y-70466458D02*
G01*
X159065172Y-70478404D01*
X158962012Y-70538758D01*
X158917025Y-70616636D01*
X158934340Y-70706087D01*
X158968867Y-70751034D01*
X159043846Y-70804102D01*
X159045142Y-70805664D01*
X159008349Y-70811016D01*
X158909755Y-70815986D01*
X158753160Y-70820521D01*
X158542362Y-70824568D01*
X158281163Y-70828072D01*
X157973361Y-70830981D01*
X157622755Y-70833240D01*
X157233147Y-70834797D01*
X156808334Y-70835597D01*
X154500000Y-70837713D01*
X154500000Y-70404379D01*
X156903438Y-70404379D01*
X156913932Y-70449635D01*
X156971833Y-70470564D01*
X157008172Y-70471777D01*
X157024064Y-70486428D01*
X156988500Y-70531602D01*
X156985083Y-70535469D01*
X156939720Y-70623278D01*
X156944246Y-70708669D01*
X156997809Y-70769784D01*
X157015958Y-70778929D01*
X157111322Y-70804124D01*
X157176110Y-70780634D01*
X157200000Y-70711437D01*
X157189063Y-70683295D01*
X157133367Y-70680489D01*
X157125690Y-70682379D01*
X157063713Y-70681708D01*
X157054240Y-70646430D01*
X157100787Y-70586672D01*
X157143850Y-70536849D01*
X157166667Y-70482849D01*
X157153442Y-70446714D01*
X157096948Y-70394210D01*
X157093100Y-70392397D01*
X157191614Y-70392397D01*
X157191775Y-70444459D01*
X157209195Y-70545663D01*
X157215890Y-70578804D01*
X157249041Y-70695474D01*
X157257079Y-70711437D01*
X157286362Y-70769591D01*
X157322655Y-70793417D01*
X157352718Y-70759215D01*
X157361389Y-70737900D01*
X157381574Y-70720054D01*
X157415553Y-70758388D01*
X157419523Y-70763573D01*
X157471119Y-70794425D01*
X157515450Y-70768382D01*
X157536657Y-70693890D01*
X157538996Y-70655648D01*
X157545794Y-70647437D01*
X157562576Y-70701729D01*
X157583645Y-70752900D01*
X157627707Y-70796831D01*
X157672294Y-70787576D01*
X157676361Y-70760690D01*
X157669935Y-70683884D01*
X157652311Y-70578273D01*
X157645211Y-70543937D01*
X157618394Y-70446025D01*
X157598678Y-70414234D01*
X157675693Y-70414234D01*
X157702651Y-70443739D01*
X157769138Y-70474661D01*
X157814839Y-70487978D01*
X157825697Y-70496865D01*
X157775000Y-70500614D01*
X157737056Y-70509163D01*
X157702839Y-70544844D01*
X157711205Y-70585004D01*
X157764700Y-70604073D01*
X157778239Y-70604495D01*
X157836197Y-70622168D01*
X157844455Y-70653509D01*
X157796114Y-70681516D01*
X157745646Y-70707679D01*
X157742891Y-70743586D01*
X157767350Y-70760690D01*
X157787101Y-70774502D01*
X157869445Y-70787647D01*
X157903751Y-70787188D01*
X157953985Y-70777995D01*
X157975480Y-70745951D01*
X157973344Y-70676875D01*
X157952684Y-70556590D01*
X157942730Y-70485903D01*
X157954619Y-70456031D01*
X157997509Y-70460241D01*
X158019828Y-70469396D01*
X158060381Y-70520905D01*
X158085661Y-70624667D01*
X158088706Y-70643783D01*
X158117761Y-70752510D01*
X158156748Y-70798541D01*
X158204265Y-70780039D01*
X158206113Y-70777996D01*
X158219463Y-70717527D01*
X158205360Y-70611420D01*
X158193869Y-70549543D01*
X158199047Y-70477806D01*
X158245825Y-70451604D01*
X158343226Y-70461098D01*
X158432226Y-70478134D01*
X158366847Y-70561359D01*
X158326764Y-70647098D01*
X158343577Y-70727536D01*
X158418467Y-70783720D01*
X158423524Y-70785643D01*
X158490029Y-70800703D01*
X158558334Y-70782230D01*
X158567183Y-70777969D01*
X158598197Y-70735830D01*
X158588119Y-70690349D01*
X158541667Y-70672572D01*
X158532482Y-70673473D01*
X158464637Y-70673217D01*
X158454543Y-70646865D01*
X158496847Y-70583817D01*
X158502198Y-70576899D01*
X158543388Y-70500501D01*
X158533526Y-70437547D01*
X158511541Y-70403046D01*
X158500747Y-70394590D01*
X158555627Y-70394590D01*
X158567121Y-70433738D01*
X158615986Y-70510515D01*
X158637784Y-70544081D01*
X158682291Y-70625406D01*
X158700000Y-70679069D01*
X158704402Y-70704010D01*
X158723195Y-70735830D01*
X158740000Y-70764283D01*
X158793639Y-70801546D01*
X158823680Y-70779559D01*
X158828994Y-70695860D01*
X158831154Y-70594236D01*
X158847265Y-70478908D01*
X158856412Y-70431692D01*
X158852710Y-70382921D01*
X158818270Y-70370433D01*
X158790763Y-70376444D01*
X158745012Y-70421479D01*
X158739912Y-70434060D01*
X158719320Y-70454072D01*
X158685522Y-70417850D01*
X158653389Y-70389320D01*
X158588783Y-70375148D01*
X158578406Y-70377653D01*
X158555627Y-70394590D01*
X158500747Y-70394590D01*
X158480410Y-70378658D01*
X158429345Y-70364288D01*
X158346680Y-70358198D01*
X158220750Y-70358646D01*
X158039888Y-70363891D01*
X157912140Y-70369325D01*
X157773699Y-70380309D01*
X157696046Y-70395118D01*
X157675693Y-70414234D01*
X157598678Y-70414234D01*
X157586998Y-70395400D01*
X157542697Y-70376752D01*
X157508992Y-70375460D01*
X157475466Y-70401268D01*
X157460514Y-70476884D01*
X157449835Y-70587384D01*
X157390729Y-70478908D01*
X157330410Y-70399454D01*
X157253941Y-70370433D01*
X157212880Y-70373161D01*
X157191614Y-70392397D01*
X157093100Y-70392397D01*
X157021363Y-70358595D01*
X156954697Y-70356558D01*
X156944303Y-70361098D01*
X156903438Y-70404379D01*
X154500000Y-70404379D01*
X154500000Y-67499999D01*
X154500000Y-64162286D01*
X155485580Y-64162286D01*
X155555987Y-64162289D01*
X155823398Y-64162502D01*
X156032652Y-64163389D01*
X156190669Y-64165422D01*
X156304369Y-64169072D01*
X156380671Y-64174813D01*
X156426494Y-64183117D01*
X156448759Y-64194456D01*
X156454384Y-64209302D01*
X156450290Y-64228127D01*
X156447663Y-64240251D01*
X156445498Y-64320050D01*
X156453319Y-64440020D01*
X156468684Y-64580270D01*
X156489152Y-64720911D01*
X156512285Y-64842052D01*
X156535641Y-64923805D01*
X156537664Y-64928623D01*
X156581624Y-64983144D01*
X156658616Y-64990559D01*
X156667697Y-64989432D01*
X156722462Y-64972534D01*
X156750848Y-64928205D01*
X156766667Y-64836787D01*
X156783334Y-64693549D01*
X156994980Y-64907786D01*
X157206626Y-65122023D01*
X156987006Y-65136026D01*
X156876405Y-65147918D01*
X156723290Y-65192428D01*
X156610726Y-65273727D01*
X156525052Y-65399612D01*
X156523778Y-65402137D01*
X156505068Y-65447407D01*
X156490875Y-65504656D01*
X156480599Y-65583012D01*
X156473644Y-65691605D01*
X156469411Y-65839561D01*
X156467302Y-66036010D01*
X156466719Y-66290078D01*
X156466667Y-67066096D01*
X156042572Y-67066096D01*
X155618476Y-67066096D01*
X155725905Y-66967846D01*
X155753632Y-66941371D01*
X155810644Y-66877621D01*
X155833334Y-66836722D01*
X155833054Y-66832219D01*
X155803283Y-66776438D01*
X155744844Y-66722885D01*
X155686857Y-66698948D01*
X155676869Y-66701520D01*
X155619000Y-66732678D01*
X155528247Y-66791035D01*
X155419009Y-66866278D01*
X155305684Y-66948098D01*
X155202669Y-67026180D01*
X155124363Y-67090214D01*
X155085163Y-67129888D01*
X155075356Y-67151092D01*
X155078681Y-67206863D01*
X155124201Y-67274988D01*
X155217289Y-67362134D01*
X155363317Y-67474966D01*
X155481634Y-67558226D01*
X155604997Y-67630974D01*
X155694182Y-67660613D01*
X155756806Y-67649308D01*
X155800486Y-67599223D01*
X155815948Y-67553407D01*
X155799122Y-67502386D01*
X155737556Y-67432337D01*
X155638462Y-67333113D01*
X156052565Y-67333113D01*
X156466667Y-67333113D01*
X156466792Y-68109132D01*
X156466949Y-68271883D01*
X156468044Y-68484697D01*
X156470779Y-68645655D01*
X156475842Y-68763938D01*
X156483923Y-68848727D01*
X156495709Y-68909202D01*
X156511890Y-68954543D01*
X156533154Y-68993931D01*
X156535435Y-68997615D01*
X156613789Y-69092178D01*
X156708029Y-69169036D01*
X156725424Y-69179098D01*
X156750993Y-69190777D01*
X156783995Y-69200719D01*
X156829367Y-69209063D01*
X156892045Y-69215951D01*
X156976966Y-69221522D01*
X157089065Y-69225915D01*
X157233278Y-69229272D01*
X157414541Y-69231732D01*
X157637791Y-69233436D01*
X157907963Y-69234523D01*
X158229993Y-69235133D01*
X158608819Y-69235407D01*
X159049374Y-69235485D01*
X161282081Y-69235610D01*
X161590077Y-69542729D01*
X161898074Y-69849847D01*
X161982370Y-69770551D01*
X161989881Y-69763347D01*
X162044354Y-69700923D01*
X162066667Y-69656318D01*
X162064840Y-69649641D01*
X162031459Y-69600524D01*
X161964744Y-69522288D01*
X161876044Y-69428496D01*
X161685421Y-69235610D01*
X161984377Y-69235485D01*
X162082097Y-69233697D01*
X162257440Y-69215442D01*
X162386540Y-69173140D01*
X162482073Y-69101468D01*
X162556716Y-68995102D01*
X162558197Y-68992360D01*
X162577601Y-68948930D01*
X162592240Y-68894633D01*
X162602763Y-68820155D01*
X162609819Y-68716183D01*
X162614056Y-68573403D01*
X162616122Y-68382501D01*
X162616667Y-68134165D01*
X162616667Y-67383179D01*
X163183334Y-67366490D01*
X163750000Y-67349802D01*
X163760160Y-67191261D01*
X163770320Y-67032719D01*
X163204512Y-67032719D01*
X162638705Y-67032719D01*
X162627686Y-66256701D01*
X162624847Y-66077927D01*
X162618818Y-65840159D01*
X162609047Y-65655567D01*
X162593332Y-65515786D01*
X162569472Y-65412450D01*
X162535265Y-65337196D01*
X162488508Y-65281657D01*
X162427000Y-65237470D01*
X162348538Y-65196268D01*
X162322018Y-65184220D01*
X162290659Y-65173066D01*
X162251393Y-65163562D01*
X162199323Y-65155577D01*
X162129552Y-65148979D01*
X162037185Y-65143635D01*
X161917323Y-65139414D01*
X161765071Y-65136184D01*
X161575532Y-65133813D01*
X161343810Y-65132168D01*
X161065007Y-65131119D01*
X160734227Y-65130533D01*
X160346574Y-65130278D01*
X159897151Y-65130222D01*
X157582017Y-65130222D01*
X157266667Y-64813140D01*
X156951317Y-64496057D01*
X157091153Y-64496057D01*
X157133051Y-64493892D01*
X157233232Y-64462628D01*
X157284759Y-64400269D01*
X157279538Y-64314612D01*
X157267378Y-64290698D01*
X157240102Y-64267621D01*
X157187002Y-64247869D01*
X157094745Y-64226794D01*
X156950000Y-64199751D01*
X156946320Y-64196778D01*
X156993598Y-64192277D01*
X157104398Y-64188064D01*
X157276790Y-64184157D01*
X157508845Y-64180573D01*
X157798632Y-64177330D01*
X158144222Y-64174446D01*
X158543684Y-64171937D01*
X158995090Y-64169823D01*
X159496509Y-64168120D01*
X160046011Y-64166846D01*
X160641667Y-64166018D01*
X164500000Y-64162286D01*
X164500000Y-67499999D01*
X164500000Y-70804335D01*
X164500000Y-70837713D01*
X161858334Y-70835597D01*
X161803181Y-70835549D01*
X161260064Y-70834644D01*
X160783466Y-70833000D01*
X160373255Y-70830615D01*
X160029301Y-70827489D01*
X159751472Y-70823618D01*
X159539636Y-70819002D01*
X159393663Y-70813638D01*
X159313422Y-70807525D01*
X159298780Y-70800661D01*
X159313868Y-70794611D01*
X159376438Y-70765796D01*
X159394216Y-70739365D01*
X159382206Y-70696608D01*
X159365154Y-70672955D01*
X159311588Y-70657832D01*
X159209760Y-70663359D01*
X159114807Y-70665483D01*
X159077158Y-70648484D01*
X159102008Y-70620111D01*
X159172480Y-70595162D01*
X159702668Y-70595162D01*
X159759649Y-70703814D01*
X159817867Y-70746465D01*
X159909600Y-70781226D01*
X160010031Y-70801298D01*
X160096123Y-70802167D01*
X160144841Y-70779317D01*
X160149654Y-70748303D01*
X160143815Y-70666266D01*
X160125637Y-70558515D01*
X160101969Y-70445531D01*
X160167462Y-70445531D01*
X160168069Y-70462556D01*
X160179640Y-70555941D01*
X160201233Y-70660230D01*
X160226411Y-70748303D01*
X160226811Y-70749702D01*
X160250337Y-70798635D01*
X160261843Y-70799959D01*
X160307898Y-70769750D01*
X160369919Y-70705465D01*
X160380784Y-70692562D01*
X160434829Y-70633961D01*
X160460290Y-70623714D01*
X160466667Y-70657068D01*
X160472758Y-70698681D01*
X160506667Y-70764283D01*
X160537388Y-70791025D01*
X160578010Y-70799566D01*
X160593979Y-70748841D01*
X160586426Y-70637043D01*
X160564610Y-70506909D01*
X160534534Y-70413685D01*
X160609364Y-70413685D01*
X160620350Y-70495597D01*
X160622122Y-70504991D01*
X160644421Y-70613317D01*
X160665714Y-70703411D01*
X160680421Y-70743305D01*
X160686495Y-70748841D01*
X160712699Y-70772723D01*
X160777093Y-70788176D01*
X160890877Y-70796833D01*
X160985231Y-70798296D01*
X161072326Y-70791222D01*
X161113331Y-70776364D01*
X161117926Y-70746319D01*
X161112399Y-70665115D01*
X161105544Y-70622729D01*
X161201951Y-70622729D01*
X161208128Y-70701109D01*
X161230937Y-70746319D01*
X161240000Y-70764283D01*
X161281437Y-70782800D01*
X161377842Y-70798505D01*
X161508015Y-70804335D01*
X161736030Y-70804335D01*
X161726349Y-70528974D01*
X161716667Y-70253613D01*
X161526616Y-70243651D01*
X161507494Y-70242722D01*
X161395200Y-70243430D01*
X161323146Y-70261331D01*
X161268880Y-70301462D01*
X161257338Y-70313445D01*
X161220070Y-70377489D01*
X161232658Y-70452095D01*
X161247035Y-70508654D01*
X161232060Y-70554795D01*
X161222745Y-70562799D01*
X161201951Y-70622729D01*
X161105544Y-70622729D01*
X161095039Y-70557778D01*
X161092200Y-70543839D01*
X161065103Y-70438605D01*
X161035202Y-70385251D01*
X160995399Y-70370433D01*
X160956705Y-70373283D01*
X160938609Y-70392702D01*
X160941988Y-70444795D01*
X160963952Y-70545663D01*
X160968929Y-70567460D01*
X160979708Y-70637373D01*
X160963651Y-70665585D01*
X160913157Y-70670827D01*
X160858418Y-70671191D01*
X160808334Y-70672515D01*
X160799059Y-70665370D01*
X160776474Y-70611670D01*
X160754728Y-70522318D01*
X160736160Y-70443214D01*
X160706068Y-70386205D01*
X160661551Y-70370433D01*
X160621876Y-70378020D01*
X160609364Y-70413685D01*
X160534534Y-70413685D01*
X160531797Y-70405202D01*
X160490468Y-70367116D01*
X160438460Y-70391007D01*
X160373613Y-70475233D01*
X160307346Y-70580032D01*
X160284358Y-70475233D01*
X160258730Y-70409681D01*
X160218402Y-70373366D01*
X160182479Y-70383918D01*
X160167462Y-70445531D01*
X160101969Y-70445531D01*
X160086238Y-70370433D01*
X159945500Y-70370433D01*
X159871598Y-70376950D01*
X159764655Y-70420944D01*
X159706341Y-70497276D01*
X159702668Y-70595162D01*
X159172480Y-70595162D01*
X159191352Y-70588481D01*
X159198919Y-70586532D01*
X159319868Y-70533040D01*
X159384880Y-70460571D01*
X159396184Y-70381926D01*
X159356009Y-70309902D01*
X159266583Y-70257302D01*
X159130135Y-70236924D01*
X159080026Y-70237922D01*
X158984994Y-70252219D01*
X158944857Y-70287116D01*
X158952126Y-70347256D01*
X158960475Y-70362178D01*
X159007655Y-70383805D01*
X159102235Y-70379250D01*
X159119379Y-70377154D01*
X159204674Y-70376996D01*
X159229869Y-70396819D01*
X159195111Y-70429136D01*
X159188635Y-70431692D01*
X159100544Y-70466458D01*
G37*
D11*
%TO.C,R7*%
X142880000Y-73903641D02*
X142880000Y-73596359D01*
X143640000Y-73903641D02*
X143640000Y-73596359D01*
%TO.C,C10*%
X177211252Y-81765000D02*
X176688748Y-81765000D01*
X177211252Y-83235000D02*
X176688748Y-83235000D01*
%TO.C,C5*%
X128265000Y-63961252D02*
X128265000Y-63438748D01*
X129735000Y-63961252D02*
X129735000Y-63438748D01*
%TO.C,R15*%
X147870000Y-73153641D02*
X147870000Y-72846359D01*
X148630000Y-73153641D02*
X148630000Y-72846359D01*
%TO.C,Q1*%
X179677500Y-84390000D02*
X179677500Y-84440000D01*
X179677500Y-85560000D02*
X179677500Y-86340000D01*
X179677500Y-87460000D02*
X179677500Y-87510000D01*
X179677500Y-87510000D02*
X181197500Y-87510000D01*
X181197500Y-84390000D02*
X179677500Y-84390000D01*
X181197500Y-85390000D02*
X181197500Y-84390000D01*
X181197500Y-87510000D02*
X181197500Y-86510000D01*
X179137500Y-86330000D02*
X178897500Y-86000000D01*
X179377500Y-86000000D01*
X179137500Y-86330000D01*
G36*
X179137500Y-86330000D02*
G01*
X178897500Y-86000000D01*
X179377500Y-86000000D01*
X179137500Y-86330000D01*
G37*
%TD*%
%LPC*%
D13*
%TO.C,R30*%
X142500000Y-86020000D03*
X142500000Y-85000000D03*
%TD*%
D14*
%TO.C,L_INST1*%
X158750000Y-101205000D03*
D15*
X158750000Y-99935000D03*
X158750000Y-98665000D03*
X158750000Y-97395000D03*
%TD*%
D16*
%TO.C,CBAT1*%
X131235000Y-62750000D03*
D17*
X131235000Y-64750000D03*
%TD*%
D18*
%TO.C,REF\u002A\u002A*%
X174000000Y-67000000D03*
%TD*%
D19*
%TO.C,JP1*%
X155420000Y-62070000D03*
D20*
X157960000Y-62070000D03*
X160500000Y-62070000D03*
%TD*%
D21*
%TO.C,CPT1*%
X129750000Y-86000000D03*
D22*
X129750000Y-89500000D03*
%TD*%
D23*
%TO.C,Moteur1*%
X142000000Y-97250000D03*
D22*
X145500000Y-97250000D03*
%TD*%
D24*
%TO.C,J2*%
X131485000Y-70555000D03*
X127685000Y-70555000D03*
X131485000Y-79195000D03*
X127685000Y-79195000D03*
%TD*%
D18*
%TO.C,REF\u002A\u002A*%
X133000000Y-100000000D03*
%TD*%
D19*
%TO.C,J3*%
X172865000Y-72110000D03*
D20*
X172865000Y-74650000D03*
X172865000Y-77190000D03*
X172865000Y-79730000D03*
X172865000Y-82270000D03*
X172865000Y-84810000D03*
X172865000Y-87350000D03*
X172865000Y-89890000D03*
%TD*%
D25*
%TO.C,SW1*%
X164000000Y-99500000D03*
X164000000Y-93000000D03*
X168500000Y-99500000D03*
X168500000Y-93000000D03*
%TD*%
D14*
%TO.C,LBAT1*%
X151500000Y-101205000D03*
D15*
X151500000Y-99935000D03*
X151500000Y-98665000D03*
X151500000Y-97395000D03*
%TD*%
D18*
%TO.C,REF\u002A\u002A*%
X178000000Y-95500000D03*
%TD*%
D26*
%TO.C,R20*%
X175490000Y-85500000D03*
X176510000Y-85500000D03*
%TD*%
%TO.C,R28*%
X164500000Y-79000000D03*
X165520000Y-79000000D03*
%TD*%
D27*
%TO.C,R12*%
X144000000Y-78480000D03*
X144000000Y-79500000D03*
%TD*%
D28*
%TO.C,C2*%
X137475000Y-81500000D03*
X134525000Y-81500000D03*
%TD*%
D29*
%TO.C,R17*%
X176520000Y-87500000D03*
X175500000Y-87500000D03*
%TD*%
D27*
%TO.C,R8*%
X161500000Y-84000000D03*
X161500000Y-85020000D03*
%TD*%
D13*
%TO.C,R7*%
X143260000Y-74260000D03*
X143260000Y-73240000D03*
%TD*%
D30*
%TO.C,C10*%
X177900000Y-82500000D03*
X176000000Y-82500000D03*
%TD*%
D31*
%TO.C,C5*%
X129000000Y-64650000D03*
X129000000Y-62750000D03*
%TD*%
D13*
%TO.C,R15*%
X148250000Y-73510000D03*
X148250000Y-72490000D03*
%TD*%
D32*
%TO.C,Q1*%
X179500000Y-86900000D03*
X179500000Y-85000000D03*
X181375000Y-85950000D03*
%TD*%
%LPD*%
M02*
