%TF.GenerationSoftware,KiCad,Pcbnew,9.0.7*%
%TF.CreationDate,2026-02-20T23:50:41+01:00*%
%TF.ProjectId,Accordeur,4163636f-7264-4657-9572-2e6b69636164,rev?*%
%TF.SameCoordinates,Original*%
%TF.FileFunction,Soldermask,Top*%
%TF.FilePolarity,Negative*%
%FSLAX46Y46*%
G04 Gerber Fmt 4.6, Leading zero omitted, Abs format (unit mm)*
G04 Created by KiCad (PCBNEW 9.0.7) date 2026-02-20 23:50:41*
%MOMM*%
%LPD*%
G01*
G04 APERTURE LIST*
G04 Aperture macros list*
%AMRoundRect*
0 Rectangle with rounded corners*
0 $1 Rounding radius*
0 $2 $3 $4 $5 $6 $7 $8 $9 X,Y pos of 4 corners*
0 Add a 4 corners polygon primitive as box body*
4,1,4,$2,$3,$4,$5,$6,$7,$8,$9,$2,$3,0*
0 Add four circle primitives for the rounded corners*
1,1,$1+$1,$2,$3*
1,1,$1+$1,$4,$5*
1,1,$1+$1,$6,$7*
1,1,$1+$1,$8,$9*
0 Add four rect primitives between the rounded corners*
20,1,$1+$1,$2,$3,$4,$5,0*
20,1,$1+$1,$4,$5,$6,$7,0*
20,1,$1+$1,$6,$7,$8,$9,0*
20,1,$1+$1,$8,$9,$2,$3,0*%
G04 Aperture macros list end*
%ADD10C,0.010000*%
%ADD11RoundRect,0.135000X0.185000X-0.135000X0.185000X0.135000X-0.185000X0.135000X-0.185000X-0.135000X0*%
%ADD12RoundRect,0.225000X-0.375000X0.225000X-0.375000X-0.225000X0.375000X-0.225000X0.375000X0.225000X0*%
%ADD13RoundRect,0.250000X-0.475000X0.250000X-0.475000X-0.250000X0.475000X-0.250000X0.475000X0.250000X0*%
%ADD14RoundRect,0.135000X-0.185000X0.135000X-0.185000X-0.135000X0.185000X-0.135000X0.185000X0.135000X0*%
%ADD15RoundRect,0.250000X-0.250000X-0.475000X0.250000X-0.475000X0.250000X0.475000X-0.250000X0.475000X0*%
%ADD16R,1.800000X1.070000*%
%ADD17O,1.800000X1.070000*%
%ADD18R,0.510000X1.100000*%
%ADD19RoundRect,0.250000X-0.625000X0.350000X-0.625000X-0.350000X0.625000X-0.350000X0.625000X0.350000X0*%
%ADD20O,1.750000X1.200000*%
%ADD21R,1.500000X0.900000*%
%ADD22R,0.800000X0.800000*%
%ADD23RoundRect,0.250000X0.250000X0.475000X-0.250000X0.475000X-0.250000X-0.475000X0.250000X-0.475000X0*%
%ADD24RoundRect,0.245000X-0.245000X-1.455000X0.245000X-1.455000X0.245000X1.455000X-0.245000X1.455000X0*%
%ADD25RoundRect,0.150000X0.587500X0.150000X-0.587500X0.150000X-0.587500X-0.150000X0.587500X-0.150000X0*%
%ADD26RoundRect,0.135000X0.135000X0.185000X-0.135000X0.185000X-0.135000X-0.185000X0.135000X-0.185000X0*%
%ADD27RoundRect,0.135000X-0.135000X-0.185000X0.135000X-0.185000X0.135000X0.185000X-0.135000X0.185000X0*%
%ADD28RoundRect,0.050000X-0.050000X0.325000X-0.050000X-0.325000X0.050000X-0.325000X0.050000X0.325000X0*%
%ADD29R,1.700000X1.700000*%
%ADD30C,1.700000*%
%ADD31RoundRect,0.250001X-0.949999X0.949999X-0.949999X-0.949999X0.949999X-0.949999X0.949999X0.949999X0*%
%ADD32C,2.400000*%
%ADD33RoundRect,0.250001X-0.949999X-0.949999X0.949999X-0.949999X0.949999X0.949999X-0.949999X0.949999X0*%
%ADD34RoundRect,0.150000X-0.150000X0.825000X-0.150000X-0.825000X0.150000X-0.825000X0.150000X0.825000X0*%
%ADD35RoundRect,0.175000X-0.425000X0.175000X-0.425000X-0.175000X0.425000X-0.175000X0.425000X0.175000X0*%
%ADD36RoundRect,0.190000X0.410000X-0.190000X0.410000X0.190000X-0.410000X0.190000X-0.410000X-0.190000X0*%
%ADD37RoundRect,0.200000X0.400000X-0.200000X0.400000X0.200000X-0.400000X0.200000X-0.400000X-0.200000X0*%
%ADD38RoundRect,0.175000X0.425000X-0.175000X0.425000X0.175000X-0.425000X0.175000X-0.425000X-0.175000X0*%
%ADD39RoundRect,0.190000X-0.410000X0.190000X-0.410000X-0.190000X0.410000X-0.190000X0.410000X0.190000X0*%
%ADD40RoundRect,0.200000X-0.400000X0.200000X-0.400000X-0.200000X0.400000X-0.200000X0.400000X0.200000X0*%
%ADD41O,1.700000X1.100000*%
%ADD42RoundRect,0.033750X-0.346250X-0.101250X0.346250X-0.101250X0.346250X0.101250X-0.346250X0.101250X0*%
%ADD43R,0.900000X1.300000*%
%ADD44C,2.000000*%
G04 APERTURE END LIST*
D10*
%TO.C,U7*%
X138113000Y-71806000D02*
X138119000Y-71806000D01*
X138125000Y-71808000D01*
X138131000Y-71809000D01*
X138137000Y-71811000D01*
X138143000Y-71813000D01*
X138149000Y-71815000D01*
X138154000Y-71818000D01*
X138160000Y-71821000D01*
X138165000Y-71824000D01*
X138171000Y-71828000D01*
X138176000Y-71832000D01*
X138180000Y-71836000D01*
X138185000Y-71840000D01*
X138189000Y-71845000D01*
X138193000Y-71849000D01*
X138197000Y-71854000D01*
X138201000Y-71860000D01*
X138204000Y-71865000D01*
X138207000Y-71871000D01*
X138210000Y-71876000D01*
X138212000Y-71882000D01*
X138214000Y-71888000D01*
X138216000Y-71894000D01*
X138217000Y-71900000D01*
X138219000Y-71906000D01*
X138219000Y-71912000D01*
X138220000Y-71919000D01*
X138220000Y-71925000D01*
X138220000Y-72075000D01*
X138220000Y-72081000D01*
X138219000Y-72088000D01*
X138219000Y-72094000D01*
X138217000Y-72100000D01*
X138216000Y-72106000D01*
X138214000Y-72112000D01*
X138212000Y-72118000D01*
X138210000Y-72124000D01*
X138207000Y-72129000D01*
X138204000Y-72135000D01*
X138201000Y-72140000D01*
X138197000Y-72146000D01*
X138193000Y-72151000D01*
X138189000Y-72155000D01*
X138185000Y-72160000D01*
X138180000Y-72164000D01*
X138176000Y-72168000D01*
X138171000Y-72172000D01*
X138165000Y-72176000D01*
X138160000Y-72179000D01*
X138154000Y-72182000D01*
X138149000Y-72185000D01*
X138143000Y-72187000D01*
X138137000Y-72189000D01*
X138131000Y-72191000D01*
X138125000Y-72192000D01*
X138119000Y-72194000D01*
X138113000Y-72194000D01*
X138106000Y-72195000D01*
X138100000Y-72195000D01*
X137600000Y-72195000D01*
X137594000Y-72195000D01*
X137587000Y-72194000D01*
X137581000Y-72194000D01*
X137575000Y-72192000D01*
X137569000Y-72191000D01*
X137563000Y-72189000D01*
X137557000Y-72187000D01*
X137551000Y-72185000D01*
X137546000Y-72182000D01*
X137540000Y-72179000D01*
X137535000Y-72176000D01*
X137529000Y-72172000D01*
X137524000Y-72168000D01*
X137520000Y-72164000D01*
X137515000Y-72160000D01*
X137511000Y-72155000D01*
X137507000Y-72151000D01*
X137503000Y-72146000D01*
X137499000Y-72140000D01*
X137496000Y-72135000D01*
X137493000Y-72129000D01*
X137490000Y-72124000D01*
X137488000Y-72118000D01*
X137486000Y-72112000D01*
X137484000Y-72106000D01*
X137483000Y-72100000D01*
X137481000Y-72094000D01*
X137481000Y-72088000D01*
X137480000Y-72081000D01*
X137480000Y-72075000D01*
X137480000Y-71925000D01*
X137480000Y-71919000D01*
X137481000Y-71912000D01*
X137481000Y-71906000D01*
X137483000Y-71900000D01*
X137484000Y-71894000D01*
X137486000Y-71888000D01*
X137488000Y-71882000D01*
X137490000Y-71876000D01*
X137493000Y-71871000D01*
X137496000Y-71865000D01*
X137499000Y-71860000D01*
X137503000Y-71854000D01*
X137507000Y-71849000D01*
X137511000Y-71845000D01*
X137515000Y-71840000D01*
X137520000Y-71836000D01*
X137524000Y-71832000D01*
X137529000Y-71828000D01*
X137535000Y-71824000D01*
X137540000Y-71821000D01*
X137546000Y-71818000D01*
X137551000Y-71815000D01*
X137557000Y-71813000D01*
X137563000Y-71811000D01*
X137569000Y-71809000D01*
X137575000Y-71808000D01*
X137581000Y-71806000D01*
X137587000Y-71806000D01*
X137594000Y-71805000D01*
X137600000Y-71805000D01*
X138100000Y-71805000D01*
X138106000Y-71805000D01*
X138113000Y-71806000D01*
G36*
X138113000Y-71806000D02*
G01*
X138119000Y-71806000D01*
X138125000Y-71808000D01*
X138131000Y-71809000D01*
X138137000Y-71811000D01*
X138143000Y-71813000D01*
X138149000Y-71815000D01*
X138154000Y-71818000D01*
X138160000Y-71821000D01*
X138165000Y-71824000D01*
X138171000Y-71828000D01*
X138176000Y-71832000D01*
X138180000Y-71836000D01*
X138185000Y-71840000D01*
X138189000Y-71845000D01*
X138193000Y-71849000D01*
X138197000Y-71854000D01*
X138201000Y-71860000D01*
X138204000Y-71865000D01*
X138207000Y-71871000D01*
X138210000Y-71876000D01*
X138212000Y-71882000D01*
X138214000Y-71888000D01*
X138216000Y-71894000D01*
X138217000Y-71900000D01*
X138219000Y-71906000D01*
X138219000Y-71912000D01*
X138220000Y-71919000D01*
X138220000Y-71925000D01*
X138220000Y-72075000D01*
X138220000Y-72081000D01*
X138219000Y-72088000D01*
X138219000Y-72094000D01*
X138217000Y-72100000D01*
X138216000Y-72106000D01*
X138214000Y-72112000D01*
X138212000Y-72118000D01*
X138210000Y-72124000D01*
X138207000Y-72129000D01*
X138204000Y-72135000D01*
X138201000Y-72140000D01*
X138197000Y-72146000D01*
X138193000Y-72151000D01*
X138189000Y-72155000D01*
X138185000Y-72160000D01*
X138180000Y-72164000D01*
X138176000Y-72168000D01*
X138171000Y-72172000D01*
X138165000Y-72176000D01*
X138160000Y-72179000D01*
X138154000Y-72182000D01*
X138149000Y-72185000D01*
X138143000Y-72187000D01*
X138137000Y-72189000D01*
X138131000Y-72191000D01*
X138125000Y-72192000D01*
X138119000Y-72194000D01*
X138113000Y-72194000D01*
X138106000Y-72195000D01*
X138100000Y-72195000D01*
X137600000Y-72195000D01*
X137594000Y-72195000D01*
X137587000Y-72194000D01*
X137581000Y-72194000D01*
X137575000Y-72192000D01*
X137569000Y-72191000D01*
X137563000Y-72189000D01*
X137557000Y-72187000D01*
X137551000Y-72185000D01*
X137546000Y-72182000D01*
X137540000Y-72179000D01*
X137535000Y-72176000D01*
X137529000Y-72172000D01*
X137524000Y-72168000D01*
X137520000Y-72164000D01*
X137515000Y-72160000D01*
X137511000Y-72155000D01*
X137507000Y-72151000D01*
X137503000Y-72146000D01*
X137499000Y-72140000D01*
X137496000Y-72135000D01*
X137493000Y-72129000D01*
X137490000Y-72124000D01*
X137488000Y-72118000D01*
X137486000Y-72112000D01*
X137484000Y-72106000D01*
X137483000Y-72100000D01*
X137481000Y-72094000D01*
X137481000Y-72088000D01*
X137480000Y-72081000D01*
X137480000Y-72075000D01*
X137480000Y-71925000D01*
X137480000Y-71919000D01*
X137481000Y-71912000D01*
X137481000Y-71906000D01*
X137483000Y-71900000D01*
X137484000Y-71894000D01*
X137486000Y-71888000D01*
X137488000Y-71882000D01*
X137490000Y-71876000D01*
X137493000Y-71871000D01*
X137496000Y-71865000D01*
X137499000Y-71860000D01*
X137503000Y-71854000D01*
X137507000Y-71849000D01*
X137511000Y-71845000D01*
X137515000Y-71840000D01*
X137520000Y-71836000D01*
X137524000Y-71832000D01*
X137529000Y-71828000D01*
X137535000Y-71824000D01*
X137540000Y-71821000D01*
X137546000Y-71818000D01*
X137551000Y-71815000D01*
X137557000Y-71813000D01*
X137563000Y-71811000D01*
X137569000Y-71809000D01*
X137575000Y-71808000D01*
X137581000Y-71806000D01*
X137587000Y-71806000D01*
X137594000Y-71805000D01*
X137600000Y-71805000D01*
X138100000Y-71805000D01*
X138106000Y-71805000D01*
X138113000Y-71806000D01*
G37*
X138113000Y-72306000D02*
X138119000Y-72306000D01*
X138125000Y-72308000D01*
X138131000Y-72309000D01*
X138137000Y-72311000D01*
X138143000Y-72313000D01*
X138149000Y-72315000D01*
X138154000Y-72318000D01*
X138160000Y-72321000D01*
X138165000Y-72324000D01*
X138171000Y-72328000D01*
X138176000Y-72332000D01*
X138180000Y-72336000D01*
X138185000Y-72340000D01*
X138189000Y-72345000D01*
X138193000Y-72349000D01*
X138197000Y-72354000D01*
X138201000Y-72360000D01*
X138204000Y-72365000D01*
X138207000Y-72371000D01*
X138210000Y-72376000D01*
X138212000Y-72382000D01*
X138214000Y-72388000D01*
X138216000Y-72394000D01*
X138217000Y-72400000D01*
X138219000Y-72406000D01*
X138219000Y-72412000D01*
X138220000Y-72419000D01*
X138220000Y-72425000D01*
X138220000Y-72575000D01*
X138220000Y-72581000D01*
X138219000Y-72588000D01*
X138219000Y-72594000D01*
X138217000Y-72600000D01*
X138216000Y-72606000D01*
X138214000Y-72612000D01*
X138212000Y-72618000D01*
X138210000Y-72624000D01*
X138207000Y-72629000D01*
X138204000Y-72635000D01*
X138201000Y-72640000D01*
X138197000Y-72646000D01*
X138193000Y-72651000D01*
X138189000Y-72655000D01*
X138185000Y-72660000D01*
X138180000Y-72664000D01*
X138176000Y-72668000D01*
X138171000Y-72672000D01*
X138165000Y-72676000D01*
X138160000Y-72679000D01*
X138154000Y-72682000D01*
X138149000Y-72685000D01*
X138143000Y-72687000D01*
X138137000Y-72689000D01*
X138131000Y-72691000D01*
X138125000Y-72692000D01*
X138119000Y-72694000D01*
X138113000Y-72694000D01*
X138106000Y-72695000D01*
X138100000Y-72695000D01*
X137600000Y-72695000D01*
X137594000Y-72695000D01*
X137587000Y-72694000D01*
X137581000Y-72694000D01*
X137575000Y-72692000D01*
X137569000Y-72691000D01*
X137563000Y-72689000D01*
X137557000Y-72687000D01*
X137551000Y-72685000D01*
X137546000Y-72682000D01*
X137540000Y-72679000D01*
X137535000Y-72676000D01*
X137529000Y-72672000D01*
X137524000Y-72668000D01*
X137520000Y-72664000D01*
X137515000Y-72660000D01*
X137511000Y-72655000D01*
X137507000Y-72651000D01*
X137503000Y-72646000D01*
X137499000Y-72640000D01*
X137496000Y-72635000D01*
X137493000Y-72629000D01*
X137490000Y-72624000D01*
X137488000Y-72618000D01*
X137486000Y-72612000D01*
X137484000Y-72606000D01*
X137483000Y-72600000D01*
X137481000Y-72594000D01*
X137481000Y-72588000D01*
X137480000Y-72581000D01*
X137480000Y-72575000D01*
X137480000Y-72425000D01*
X137480000Y-72419000D01*
X137481000Y-72412000D01*
X137481000Y-72406000D01*
X137483000Y-72400000D01*
X137484000Y-72394000D01*
X137486000Y-72388000D01*
X137488000Y-72382000D01*
X137490000Y-72376000D01*
X137493000Y-72371000D01*
X137496000Y-72365000D01*
X137499000Y-72360000D01*
X137503000Y-72354000D01*
X137507000Y-72349000D01*
X137511000Y-72345000D01*
X137515000Y-72340000D01*
X137520000Y-72336000D01*
X137524000Y-72332000D01*
X137529000Y-72328000D01*
X137535000Y-72324000D01*
X137540000Y-72321000D01*
X137546000Y-72318000D01*
X137551000Y-72315000D01*
X137557000Y-72313000D01*
X137563000Y-72311000D01*
X137569000Y-72309000D01*
X137575000Y-72308000D01*
X137581000Y-72306000D01*
X137587000Y-72306000D01*
X137594000Y-72305000D01*
X137600000Y-72305000D01*
X138100000Y-72305000D01*
X138106000Y-72305000D01*
X138113000Y-72306000D01*
G36*
X138113000Y-72306000D02*
G01*
X138119000Y-72306000D01*
X138125000Y-72308000D01*
X138131000Y-72309000D01*
X138137000Y-72311000D01*
X138143000Y-72313000D01*
X138149000Y-72315000D01*
X138154000Y-72318000D01*
X138160000Y-72321000D01*
X138165000Y-72324000D01*
X138171000Y-72328000D01*
X138176000Y-72332000D01*
X138180000Y-72336000D01*
X138185000Y-72340000D01*
X138189000Y-72345000D01*
X138193000Y-72349000D01*
X138197000Y-72354000D01*
X138201000Y-72360000D01*
X138204000Y-72365000D01*
X138207000Y-72371000D01*
X138210000Y-72376000D01*
X138212000Y-72382000D01*
X138214000Y-72388000D01*
X138216000Y-72394000D01*
X138217000Y-72400000D01*
X138219000Y-72406000D01*
X138219000Y-72412000D01*
X138220000Y-72419000D01*
X138220000Y-72425000D01*
X138220000Y-72575000D01*
X138220000Y-72581000D01*
X138219000Y-72588000D01*
X138219000Y-72594000D01*
X138217000Y-72600000D01*
X138216000Y-72606000D01*
X138214000Y-72612000D01*
X138212000Y-72618000D01*
X138210000Y-72624000D01*
X138207000Y-72629000D01*
X138204000Y-72635000D01*
X138201000Y-72640000D01*
X138197000Y-72646000D01*
X138193000Y-72651000D01*
X138189000Y-72655000D01*
X138185000Y-72660000D01*
X138180000Y-72664000D01*
X138176000Y-72668000D01*
X138171000Y-72672000D01*
X138165000Y-72676000D01*
X138160000Y-72679000D01*
X138154000Y-72682000D01*
X138149000Y-72685000D01*
X138143000Y-72687000D01*
X138137000Y-72689000D01*
X138131000Y-72691000D01*
X138125000Y-72692000D01*
X138119000Y-72694000D01*
X138113000Y-72694000D01*
X138106000Y-72695000D01*
X138100000Y-72695000D01*
X137600000Y-72695000D01*
X137594000Y-72695000D01*
X137587000Y-72694000D01*
X137581000Y-72694000D01*
X137575000Y-72692000D01*
X137569000Y-72691000D01*
X137563000Y-72689000D01*
X137557000Y-72687000D01*
X137551000Y-72685000D01*
X137546000Y-72682000D01*
X137540000Y-72679000D01*
X137535000Y-72676000D01*
X137529000Y-72672000D01*
X137524000Y-72668000D01*
X137520000Y-72664000D01*
X137515000Y-72660000D01*
X137511000Y-72655000D01*
X137507000Y-72651000D01*
X137503000Y-72646000D01*
X137499000Y-72640000D01*
X137496000Y-72635000D01*
X137493000Y-72629000D01*
X137490000Y-72624000D01*
X137488000Y-72618000D01*
X137486000Y-72612000D01*
X137484000Y-72606000D01*
X137483000Y-72600000D01*
X137481000Y-72594000D01*
X137481000Y-72588000D01*
X137480000Y-72581000D01*
X137480000Y-72575000D01*
X137480000Y-72425000D01*
X137480000Y-72419000D01*
X137481000Y-72412000D01*
X137481000Y-72406000D01*
X137483000Y-72400000D01*
X137484000Y-72394000D01*
X137486000Y-72388000D01*
X137488000Y-72382000D01*
X137490000Y-72376000D01*
X137493000Y-72371000D01*
X137496000Y-72365000D01*
X137499000Y-72360000D01*
X137503000Y-72354000D01*
X137507000Y-72349000D01*
X137511000Y-72345000D01*
X137515000Y-72340000D01*
X137520000Y-72336000D01*
X137524000Y-72332000D01*
X137529000Y-72328000D01*
X137535000Y-72324000D01*
X137540000Y-72321000D01*
X137546000Y-72318000D01*
X137551000Y-72315000D01*
X137557000Y-72313000D01*
X137563000Y-72311000D01*
X137569000Y-72309000D01*
X137575000Y-72308000D01*
X137581000Y-72306000D01*
X137587000Y-72306000D01*
X137594000Y-72305000D01*
X137600000Y-72305000D01*
X138100000Y-72305000D01*
X138106000Y-72305000D01*
X138113000Y-72306000D01*
G37*
X138113000Y-72806000D02*
X138119000Y-72806000D01*
X138125000Y-72808000D01*
X138131000Y-72809000D01*
X138137000Y-72811000D01*
X138143000Y-72813000D01*
X138149000Y-72815000D01*
X138154000Y-72818000D01*
X138160000Y-72821000D01*
X138165000Y-72824000D01*
X138171000Y-72828000D01*
X138176000Y-72832000D01*
X138180000Y-72836000D01*
X138185000Y-72840000D01*
X138189000Y-72845000D01*
X138193000Y-72849000D01*
X138197000Y-72854000D01*
X138201000Y-72860000D01*
X138204000Y-72865000D01*
X138207000Y-72871000D01*
X138210000Y-72876000D01*
X138212000Y-72882000D01*
X138214000Y-72888000D01*
X138216000Y-72894000D01*
X138217000Y-72900000D01*
X138219000Y-72906000D01*
X138219000Y-72912000D01*
X138220000Y-72919000D01*
X138220000Y-72925000D01*
X138220000Y-73075000D01*
X138220000Y-73081000D01*
X138219000Y-73088000D01*
X138219000Y-73094000D01*
X138217000Y-73100000D01*
X138216000Y-73106000D01*
X138214000Y-73112000D01*
X138212000Y-73118000D01*
X138210000Y-73124000D01*
X138207000Y-73129000D01*
X138204000Y-73135000D01*
X138201000Y-73140000D01*
X138197000Y-73146000D01*
X138193000Y-73151000D01*
X138189000Y-73155000D01*
X138185000Y-73160000D01*
X138180000Y-73164000D01*
X138176000Y-73168000D01*
X138171000Y-73172000D01*
X138165000Y-73176000D01*
X138160000Y-73179000D01*
X138154000Y-73182000D01*
X138149000Y-73185000D01*
X138143000Y-73187000D01*
X138137000Y-73189000D01*
X138131000Y-73191000D01*
X138125000Y-73192000D01*
X138119000Y-73194000D01*
X138113000Y-73194000D01*
X138106000Y-73195000D01*
X138100000Y-73195000D01*
X137600000Y-73195000D01*
X137594000Y-73195000D01*
X137587000Y-73194000D01*
X137581000Y-73194000D01*
X137575000Y-73192000D01*
X137569000Y-73191000D01*
X137563000Y-73189000D01*
X137557000Y-73187000D01*
X137551000Y-73185000D01*
X137546000Y-73182000D01*
X137540000Y-73179000D01*
X137535000Y-73176000D01*
X137529000Y-73172000D01*
X137524000Y-73168000D01*
X137520000Y-73164000D01*
X137515000Y-73160000D01*
X137511000Y-73155000D01*
X137507000Y-73151000D01*
X137503000Y-73146000D01*
X137499000Y-73140000D01*
X137496000Y-73135000D01*
X137493000Y-73129000D01*
X137490000Y-73124000D01*
X137488000Y-73118000D01*
X137486000Y-73112000D01*
X137484000Y-73106000D01*
X137483000Y-73100000D01*
X137481000Y-73094000D01*
X137481000Y-73088000D01*
X137480000Y-73081000D01*
X137480000Y-73075000D01*
X137480000Y-72925000D01*
X137480000Y-72919000D01*
X137481000Y-72912000D01*
X137481000Y-72906000D01*
X137483000Y-72900000D01*
X137484000Y-72894000D01*
X137486000Y-72888000D01*
X137488000Y-72882000D01*
X137490000Y-72876000D01*
X137493000Y-72871000D01*
X137496000Y-72865000D01*
X137499000Y-72860000D01*
X137503000Y-72854000D01*
X137507000Y-72849000D01*
X137511000Y-72845000D01*
X137515000Y-72840000D01*
X137520000Y-72836000D01*
X137524000Y-72832000D01*
X137529000Y-72828000D01*
X137535000Y-72824000D01*
X137540000Y-72821000D01*
X137546000Y-72818000D01*
X137551000Y-72815000D01*
X137557000Y-72813000D01*
X137563000Y-72811000D01*
X137569000Y-72809000D01*
X137575000Y-72808000D01*
X137581000Y-72806000D01*
X137587000Y-72806000D01*
X137594000Y-72805000D01*
X137600000Y-72805000D01*
X138100000Y-72805000D01*
X138106000Y-72805000D01*
X138113000Y-72806000D01*
G36*
X138113000Y-72806000D02*
G01*
X138119000Y-72806000D01*
X138125000Y-72808000D01*
X138131000Y-72809000D01*
X138137000Y-72811000D01*
X138143000Y-72813000D01*
X138149000Y-72815000D01*
X138154000Y-72818000D01*
X138160000Y-72821000D01*
X138165000Y-72824000D01*
X138171000Y-72828000D01*
X138176000Y-72832000D01*
X138180000Y-72836000D01*
X138185000Y-72840000D01*
X138189000Y-72845000D01*
X138193000Y-72849000D01*
X138197000Y-72854000D01*
X138201000Y-72860000D01*
X138204000Y-72865000D01*
X138207000Y-72871000D01*
X138210000Y-72876000D01*
X138212000Y-72882000D01*
X138214000Y-72888000D01*
X138216000Y-72894000D01*
X138217000Y-72900000D01*
X138219000Y-72906000D01*
X138219000Y-72912000D01*
X138220000Y-72919000D01*
X138220000Y-72925000D01*
X138220000Y-73075000D01*
X138220000Y-73081000D01*
X138219000Y-73088000D01*
X138219000Y-73094000D01*
X138217000Y-73100000D01*
X138216000Y-73106000D01*
X138214000Y-73112000D01*
X138212000Y-73118000D01*
X138210000Y-73124000D01*
X138207000Y-73129000D01*
X138204000Y-73135000D01*
X138201000Y-73140000D01*
X138197000Y-73146000D01*
X138193000Y-73151000D01*
X138189000Y-73155000D01*
X138185000Y-73160000D01*
X138180000Y-73164000D01*
X138176000Y-73168000D01*
X138171000Y-73172000D01*
X138165000Y-73176000D01*
X138160000Y-73179000D01*
X138154000Y-73182000D01*
X138149000Y-73185000D01*
X138143000Y-73187000D01*
X138137000Y-73189000D01*
X138131000Y-73191000D01*
X138125000Y-73192000D01*
X138119000Y-73194000D01*
X138113000Y-73194000D01*
X138106000Y-73195000D01*
X138100000Y-73195000D01*
X137600000Y-73195000D01*
X137594000Y-73195000D01*
X137587000Y-73194000D01*
X137581000Y-73194000D01*
X137575000Y-73192000D01*
X137569000Y-73191000D01*
X137563000Y-73189000D01*
X137557000Y-73187000D01*
X137551000Y-73185000D01*
X137546000Y-73182000D01*
X137540000Y-73179000D01*
X137535000Y-73176000D01*
X137529000Y-73172000D01*
X137524000Y-73168000D01*
X137520000Y-73164000D01*
X137515000Y-73160000D01*
X137511000Y-73155000D01*
X137507000Y-73151000D01*
X137503000Y-73146000D01*
X137499000Y-73140000D01*
X137496000Y-73135000D01*
X137493000Y-73129000D01*
X137490000Y-73124000D01*
X137488000Y-73118000D01*
X137486000Y-73112000D01*
X137484000Y-73106000D01*
X137483000Y-73100000D01*
X137481000Y-73094000D01*
X137481000Y-73088000D01*
X137480000Y-73081000D01*
X137480000Y-73075000D01*
X137480000Y-72925000D01*
X137480000Y-72919000D01*
X137481000Y-72912000D01*
X137481000Y-72906000D01*
X137483000Y-72900000D01*
X137484000Y-72894000D01*
X137486000Y-72888000D01*
X137488000Y-72882000D01*
X137490000Y-72876000D01*
X137493000Y-72871000D01*
X137496000Y-72865000D01*
X137499000Y-72860000D01*
X137503000Y-72854000D01*
X137507000Y-72849000D01*
X137511000Y-72845000D01*
X137515000Y-72840000D01*
X137520000Y-72836000D01*
X137524000Y-72832000D01*
X137529000Y-72828000D01*
X137535000Y-72824000D01*
X137540000Y-72821000D01*
X137546000Y-72818000D01*
X137551000Y-72815000D01*
X137557000Y-72813000D01*
X137563000Y-72811000D01*
X137569000Y-72809000D01*
X137575000Y-72808000D01*
X137581000Y-72806000D01*
X137587000Y-72806000D01*
X137594000Y-72805000D01*
X137600000Y-72805000D01*
X138100000Y-72805000D01*
X138106000Y-72805000D01*
X138113000Y-72806000D01*
G37*
X138113000Y-73306000D02*
X138119000Y-73306000D01*
X138125000Y-73308000D01*
X138131000Y-73309000D01*
X138137000Y-73311000D01*
X138143000Y-73313000D01*
X138149000Y-73315000D01*
X138154000Y-73318000D01*
X138160000Y-73321000D01*
X138165000Y-73324000D01*
X138171000Y-73328000D01*
X138176000Y-73332000D01*
X138180000Y-73336000D01*
X138185000Y-73340000D01*
X138189000Y-73345000D01*
X138193000Y-73349000D01*
X138197000Y-73354000D01*
X138201000Y-73360000D01*
X138204000Y-73365000D01*
X138207000Y-73371000D01*
X138210000Y-73376000D01*
X138212000Y-73382000D01*
X138214000Y-73388000D01*
X138216000Y-73394000D01*
X138217000Y-73400000D01*
X138219000Y-73406000D01*
X138219000Y-73412000D01*
X138220000Y-73419000D01*
X138220000Y-73425000D01*
X138220000Y-73575000D01*
X138220000Y-73581000D01*
X138219000Y-73588000D01*
X138219000Y-73594000D01*
X138217000Y-73600000D01*
X138216000Y-73606000D01*
X138214000Y-73612000D01*
X138212000Y-73618000D01*
X138210000Y-73624000D01*
X138207000Y-73629000D01*
X138204000Y-73635000D01*
X138201000Y-73640000D01*
X138197000Y-73646000D01*
X138193000Y-73651000D01*
X138189000Y-73655000D01*
X138185000Y-73660000D01*
X138180000Y-73664000D01*
X138176000Y-73668000D01*
X138171000Y-73672000D01*
X138165000Y-73676000D01*
X138160000Y-73679000D01*
X138154000Y-73682000D01*
X138149000Y-73685000D01*
X138143000Y-73687000D01*
X138137000Y-73689000D01*
X138131000Y-73691000D01*
X138125000Y-73692000D01*
X138119000Y-73694000D01*
X138113000Y-73694000D01*
X138106000Y-73695000D01*
X138100000Y-73695000D01*
X137600000Y-73695000D01*
X137594000Y-73695000D01*
X137587000Y-73694000D01*
X137581000Y-73694000D01*
X137575000Y-73692000D01*
X137569000Y-73691000D01*
X137563000Y-73689000D01*
X137557000Y-73687000D01*
X137551000Y-73685000D01*
X137546000Y-73682000D01*
X137540000Y-73679000D01*
X137535000Y-73676000D01*
X137529000Y-73672000D01*
X137524000Y-73668000D01*
X137520000Y-73664000D01*
X137515000Y-73660000D01*
X137511000Y-73655000D01*
X137507000Y-73651000D01*
X137503000Y-73646000D01*
X137499000Y-73640000D01*
X137496000Y-73635000D01*
X137493000Y-73629000D01*
X137490000Y-73624000D01*
X137488000Y-73618000D01*
X137486000Y-73612000D01*
X137484000Y-73606000D01*
X137483000Y-73600000D01*
X137481000Y-73594000D01*
X137481000Y-73588000D01*
X137480000Y-73581000D01*
X137480000Y-73575000D01*
X137480000Y-73425000D01*
X137480000Y-73419000D01*
X137481000Y-73412000D01*
X137481000Y-73406000D01*
X137483000Y-73400000D01*
X137484000Y-73394000D01*
X137486000Y-73388000D01*
X137488000Y-73382000D01*
X137490000Y-73376000D01*
X137493000Y-73371000D01*
X137496000Y-73365000D01*
X137499000Y-73360000D01*
X137503000Y-73354000D01*
X137507000Y-73349000D01*
X137511000Y-73345000D01*
X137515000Y-73340000D01*
X137520000Y-73336000D01*
X137524000Y-73332000D01*
X137529000Y-73328000D01*
X137535000Y-73324000D01*
X137540000Y-73321000D01*
X137546000Y-73318000D01*
X137551000Y-73315000D01*
X137557000Y-73313000D01*
X137563000Y-73311000D01*
X137569000Y-73309000D01*
X137575000Y-73308000D01*
X137581000Y-73306000D01*
X137587000Y-73306000D01*
X137594000Y-73305000D01*
X137600000Y-73305000D01*
X138100000Y-73305000D01*
X138106000Y-73305000D01*
X138113000Y-73306000D01*
G36*
X138113000Y-73306000D02*
G01*
X138119000Y-73306000D01*
X138125000Y-73308000D01*
X138131000Y-73309000D01*
X138137000Y-73311000D01*
X138143000Y-73313000D01*
X138149000Y-73315000D01*
X138154000Y-73318000D01*
X138160000Y-73321000D01*
X138165000Y-73324000D01*
X138171000Y-73328000D01*
X138176000Y-73332000D01*
X138180000Y-73336000D01*
X138185000Y-73340000D01*
X138189000Y-73345000D01*
X138193000Y-73349000D01*
X138197000Y-73354000D01*
X138201000Y-73360000D01*
X138204000Y-73365000D01*
X138207000Y-73371000D01*
X138210000Y-73376000D01*
X138212000Y-73382000D01*
X138214000Y-73388000D01*
X138216000Y-73394000D01*
X138217000Y-73400000D01*
X138219000Y-73406000D01*
X138219000Y-73412000D01*
X138220000Y-73419000D01*
X138220000Y-73425000D01*
X138220000Y-73575000D01*
X138220000Y-73581000D01*
X138219000Y-73588000D01*
X138219000Y-73594000D01*
X138217000Y-73600000D01*
X138216000Y-73606000D01*
X138214000Y-73612000D01*
X138212000Y-73618000D01*
X138210000Y-73624000D01*
X138207000Y-73629000D01*
X138204000Y-73635000D01*
X138201000Y-73640000D01*
X138197000Y-73646000D01*
X138193000Y-73651000D01*
X138189000Y-73655000D01*
X138185000Y-73660000D01*
X138180000Y-73664000D01*
X138176000Y-73668000D01*
X138171000Y-73672000D01*
X138165000Y-73676000D01*
X138160000Y-73679000D01*
X138154000Y-73682000D01*
X138149000Y-73685000D01*
X138143000Y-73687000D01*
X138137000Y-73689000D01*
X138131000Y-73691000D01*
X138125000Y-73692000D01*
X138119000Y-73694000D01*
X138113000Y-73694000D01*
X138106000Y-73695000D01*
X138100000Y-73695000D01*
X137600000Y-73695000D01*
X137594000Y-73695000D01*
X137587000Y-73694000D01*
X137581000Y-73694000D01*
X137575000Y-73692000D01*
X137569000Y-73691000D01*
X137563000Y-73689000D01*
X137557000Y-73687000D01*
X137551000Y-73685000D01*
X137546000Y-73682000D01*
X137540000Y-73679000D01*
X137535000Y-73676000D01*
X137529000Y-73672000D01*
X137524000Y-73668000D01*
X137520000Y-73664000D01*
X137515000Y-73660000D01*
X137511000Y-73655000D01*
X137507000Y-73651000D01*
X137503000Y-73646000D01*
X137499000Y-73640000D01*
X137496000Y-73635000D01*
X137493000Y-73629000D01*
X137490000Y-73624000D01*
X137488000Y-73618000D01*
X137486000Y-73612000D01*
X137484000Y-73606000D01*
X137483000Y-73600000D01*
X137481000Y-73594000D01*
X137481000Y-73588000D01*
X137480000Y-73581000D01*
X137480000Y-73575000D01*
X137480000Y-73425000D01*
X137480000Y-73419000D01*
X137481000Y-73412000D01*
X137481000Y-73406000D01*
X137483000Y-73400000D01*
X137484000Y-73394000D01*
X137486000Y-73388000D01*
X137488000Y-73382000D01*
X137490000Y-73376000D01*
X137493000Y-73371000D01*
X137496000Y-73365000D01*
X137499000Y-73360000D01*
X137503000Y-73354000D01*
X137507000Y-73349000D01*
X137511000Y-73345000D01*
X137515000Y-73340000D01*
X137520000Y-73336000D01*
X137524000Y-73332000D01*
X137529000Y-73328000D01*
X137535000Y-73324000D01*
X137540000Y-73321000D01*
X137546000Y-73318000D01*
X137551000Y-73315000D01*
X137557000Y-73313000D01*
X137563000Y-73311000D01*
X137569000Y-73309000D01*
X137575000Y-73308000D01*
X137581000Y-73306000D01*
X137587000Y-73306000D01*
X137594000Y-73305000D01*
X137600000Y-73305000D01*
X138100000Y-73305000D01*
X138106000Y-73305000D01*
X138113000Y-73306000D01*
G37*
X138113000Y-73806000D02*
X138119000Y-73806000D01*
X138125000Y-73808000D01*
X138131000Y-73809000D01*
X138137000Y-73811000D01*
X138143000Y-73813000D01*
X138149000Y-73815000D01*
X138154000Y-73818000D01*
X138160000Y-73821000D01*
X138165000Y-73824000D01*
X138171000Y-73828000D01*
X138176000Y-73832000D01*
X138180000Y-73836000D01*
X138185000Y-73840000D01*
X138189000Y-73845000D01*
X138193000Y-73849000D01*
X138197000Y-73854000D01*
X138201000Y-73860000D01*
X138204000Y-73865000D01*
X138207000Y-73871000D01*
X138210000Y-73876000D01*
X138212000Y-73882000D01*
X138214000Y-73888000D01*
X138216000Y-73894000D01*
X138217000Y-73900000D01*
X138219000Y-73906000D01*
X138219000Y-73912000D01*
X138220000Y-73919000D01*
X138220000Y-73925000D01*
X138220000Y-74075000D01*
X138220000Y-74081000D01*
X138219000Y-74088000D01*
X138219000Y-74094000D01*
X138217000Y-74100000D01*
X138216000Y-74106000D01*
X138214000Y-74112000D01*
X138212000Y-74118000D01*
X138210000Y-74124000D01*
X138207000Y-74129000D01*
X138204000Y-74135000D01*
X138201000Y-74140000D01*
X138197000Y-74146000D01*
X138193000Y-74151000D01*
X138189000Y-74155000D01*
X138185000Y-74160000D01*
X138180000Y-74164000D01*
X138176000Y-74168000D01*
X138171000Y-74172000D01*
X138165000Y-74176000D01*
X138160000Y-74179000D01*
X138154000Y-74182000D01*
X138149000Y-74185000D01*
X138143000Y-74187000D01*
X138137000Y-74189000D01*
X138131000Y-74191000D01*
X138125000Y-74192000D01*
X138119000Y-74194000D01*
X138113000Y-74194000D01*
X138106000Y-74195000D01*
X138100000Y-74195000D01*
X137600000Y-74195000D01*
X137594000Y-74195000D01*
X137587000Y-74194000D01*
X137581000Y-74194000D01*
X137575000Y-74192000D01*
X137569000Y-74191000D01*
X137563000Y-74189000D01*
X137557000Y-74187000D01*
X137551000Y-74185000D01*
X137546000Y-74182000D01*
X137540000Y-74179000D01*
X137535000Y-74176000D01*
X137529000Y-74172000D01*
X137524000Y-74168000D01*
X137520000Y-74164000D01*
X137515000Y-74160000D01*
X137511000Y-74155000D01*
X137507000Y-74151000D01*
X137503000Y-74146000D01*
X137499000Y-74140000D01*
X137496000Y-74135000D01*
X137493000Y-74129000D01*
X137490000Y-74124000D01*
X137488000Y-74118000D01*
X137486000Y-74112000D01*
X137484000Y-74106000D01*
X137483000Y-74100000D01*
X137481000Y-74094000D01*
X137481000Y-74088000D01*
X137480000Y-74081000D01*
X137480000Y-74075000D01*
X137480000Y-73925000D01*
X137480000Y-73919000D01*
X137481000Y-73912000D01*
X137481000Y-73906000D01*
X137483000Y-73900000D01*
X137484000Y-73894000D01*
X137486000Y-73888000D01*
X137488000Y-73882000D01*
X137490000Y-73876000D01*
X137493000Y-73871000D01*
X137496000Y-73865000D01*
X137499000Y-73860000D01*
X137503000Y-73854000D01*
X137507000Y-73849000D01*
X137511000Y-73845000D01*
X137515000Y-73840000D01*
X137520000Y-73836000D01*
X137524000Y-73832000D01*
X137529000Y-73828000D01*
X137535000Y-73824000D01*
X137540000Y-73821000D01*
X137546000Y-73818000D01*
X137551000Y-73815000D01*
X137557000Y-73813000D01*
X137563000Y-73811000D01*
X137569000Y-73809000D01*
X137575000Y-73808000D01*
X137581000Y-73806000D01*
X137587000Y-73806000D01*
X137594000Y-73805000D01*
X137600000Y-73805000D01*
X138100000Y-73805000D01*
X138106000Y-73805000D01*
X138113000Y-73806000D01*
G36*
X138113000Y-73806000D02*
G01*
X138119000Y-73806000D01*
X138125000Y-73808000D01*
X138131000Y-73809000D01*
X138137000Y-73811000D01*
X138143000Y-73813000D01*
X138149000Y-73815000D01*
X138154000Y-73818000D01*
X138160000Y-73821000D01*
X138165000Y-73824000D01*
X138171000Y-73828000D01*
X138176000Y-73832000D01*
X138180000Y-73836000D01*
X138185000Y-73840000D01*
X138189000Y-73845000D01*
X138193000Y-73849000D01*
X138197000Y-73854000D01*
X138201000Y-73860000D01*
X138204000Y-73865000D01*
X138207000Y-73871000D01*
X138210000Y-73876000D01*
X138212000Y-73882000D01*
X138214000Y-73888000D01*
X138216000Y-73894000D01*
X138217000Y-73900000D01*
X138219000Y-73906000D01*
X138219000Y-73912000D01*
X138220000Y-73919000D01*
X138220000Y-73925000D01*
X138220000Y-74075000D01*
X138220000Y-74081000D01*
X138219000Y-74088000D01*
X138219000Y-74094000D01*
X138217000Y-74100000D01*
X138216000Y-74106000D01*
X138214000Y-74112000D01*
X138212000Y-74118000D01*
X138210000Y-74124000D01*
X138207000Y-74129000D01*
X138204000Y-74135000D01*
X138201000Y-74140000D01*
X138197000Y-74146000D01*
X138193000Y-74151000D01*
X138189000Y-74155000D01*
X138185000Y-74160000D01*
X138180000Y-74164000D01*
X138176000Y-74168000D01*
X138171000Y-74172000D01*
X138165000Y-74176000D01*
X138160000Y-74179000D01*
X138154000Y-74182000D01*
X138149000Y-74185000D01*
X138143000Y-74187000D01*
X138137000Y-74189000D01*
X138131000Y-74191000D01*
X138125000Y-74192000D01*
X138119000Y-74194000D01*
X138113000Y-74194000D01*
X138106000Y-74195000D01*
X138100000Y-74195000D01*
X137600000Y-74195000D01*
X137594000Y-74195000D01*
X137587000Y-74194000D01*
X137581000Y-74194000D01*
X137575000Y-74192000D01*
X137569000Y-74191000D01*
X137563000Y-74189000D01*
X137557000Y-74187000D01*
X137551000Y-74185000D01*
X137546000Y-74182000D01*
X137540000Y-74179000D01*
X137535000Y-74176000D01*
X137529000Y-74172000D01*
X137524000Y-74168000D01*
X137520000Y-74164000D01*
X137515000Y-74160000D01*
X137511000Y-74155000D01*
X137507000Y-74151000D01*
X137503000Y-74146000D01*
X137499000Y-74140000D01*
X137496000Y-74135000D01*
X137493000Y-74129000D01*
X137490000Y-74124000D01*
X137488000Y-74118000D01*
X137486000Y-74112000D01*
X137484000Y-74106000D01*
X137483000Y-74100000D01*
X137481000Y-74094000D01*
X137481000Y-74088000D01*
X137480000Y-74081000D01*
X137480000Y-74075000D01*
X137480000Y-73925000D01*
X137480000Y-73919000D01*
X137481000Y-73912000D01*
X137481000Y-73906000D01*
X137483000Y-73900000D01*
X137484000Y-73894000D01*
X137486000Y-73888000D01*
X137488000Y-73882000D01*
X137490000Y-73876000D01*
X137493000Y-73871000D01*
X137496000Y-73865000D01*
X137499000Y-73860000D01*
X137503000Y-73854000D01*
X137507000Y-73849000D01*
X137511000Y-73845000D01*
X137515000Y-73840000D01*
X137520000Y-73836000D01*
X137524000Y-73832000D01*
X137529000Y-73828000D01*
X137535000Y-73824000D01*
X137540000Y-73821000D01*
X137546000Y-73818000D01*
X137551000Y-73815000D01*
X137557000Y-73813000D01*
X137563000Y-73811000D01*
X137569000Y-73809000D01*
X137575000Y-73808000D01*
X137581000Y-73806000D01*
X137587000Y-73806000D01*
X137594000Y-73805000D01*
X137600000Y-73805000D01*
X138100000Y-73805000D01*
X138106000Y-73805000D01*
X138113000Y-73806000D01*
G37*
X139913000Y-71806000D02*
X139919000Y-71806000D01*
X139925000Y-71808000D01*
X139931000Y-71809000D01*
X139937000Y-71811000D01*
X139943000Y-71813000D01*
X139949000Y-71815000D01*
X139954000Y-71818000D01*
X139960000Y-71821000D01*
X139965000Y-71824000D01*
X139971000Y-71828000D01*
X139976000Y-71832000D01*
X139980000Y-71836000D01*
X139985000Y-71840000D01*
X139989000Y-71845000D01*
X139993000Y-71849000D01*
X139997000Y-71854000D01*
X140001000Y-71860000D01*
X140004000Y-71865000D01*
X140007000Y-71871000D01*
X140010000Y-71876000D01*
X140012000Y-71882000D01*
X140014000Y-71888000D01*
X140016000Y-71894000D01*
X140017000Y-71900000D01*
X140019000Y-71906000D01*
X140019000Y-71912000D01*
X140020000Y-71919000D01*
X140020000Y-71925000D01*
X140020000Y-72075000D01*
X140020000Y-72081000D01*
X140019000Y-72088000D01*
X140019000Y-72094000D01*
X140017000Y-72100000D01*
X140016000Y-72106000D01*
X140014000Y-72112000D01*
X140012000Y-72118000D01*
X140010000Y-72124000D01*
X140007000Y-72129000D01*
X140004000Y-72135000D01*
X140001000Y-72140000D01*
X139997000Y-72146000D01*
X139993000Y-72151000D01*
X139989000Y-72155000D01*
X139985000Y-72160000D01*
X139980000Y-72164000D01*
X139976000Y-72168000D01*
X139971000Y-72172000D01*
X139965000Y-72176000D01*
X139960000Y-72179000D01*
X139954000Y-72182000D01*
X139949000Y-72185000D01*
X139943000Y-72187000D01*
X139937000Y-72189000D01*
X139931000Y-72191000D01*
X139925000Y-72192000D01*
X139919000Y-72194000D01*
X139913000Y-72194000D01*
X139906000Y-72195000D01*
X139900000Y-72195000D01*
X139100000Y-72195000D01*
X139094000Y-72195000D01*
X139087000Y-72194000D01*
X139081000Y-72194000D01*
X139075000Y-72192000D01*
X139069000Y-72191000D01*
X139063000Y-72189000D01*
X139057000Y-72187000D01*
X139051000Y-72185000D01*
X139046000Y-72182000D01*
X139040000Y-72179000D01*
X139035000Y-72176000D01*
X139029000Y-72172000D01*
X139024000Y-72168000D01*
X139020000Y-72164000D01*
X139015000Y-72160000D01*
X139011000Y-72155000D01*
X139007000Y-72151000D01*
X139003000Y-72146000D01*
X138999000Y-72140000D01*
X138996000Y-72135000D01*
X138993000Y-72129000D01*
X138990000Y-72124000D01*
X138988000Y-72118000D01*
X138986000Y-72112000D01*
X138984000Y-72106000D01*
X138983000Y-72100000D01*
X138981000Y-72094000D01*
X138981000Y-72088000D01*
X138980000Y-72081000D01*
X138980000Y-72075000D01*
X138980000Y-71925000D01*
X138980000Y-71919000D01*
X138981000Y-71912000D01*
X138981000Y-71906000D01*
X138983000Y-71900000D01*
X138984000Y-71894000D01*
X138986000Y-71888000D01*
X138988000Y-71882000D01*
X138990000Y-71876000D01*
X138993000Y-71871000D01*
X138996000Y-71865000D01*
X138999000Y-71860000D01*
X139003000Y-71854000D01*
X139007000Y-71849000D01*
X139011000Y-71845000D01*
X139015000Y-71840000D01*
X139020000Y-71836000D01*
X139024000Y-71832000D01*
X139029000Y-71828000D01*
X139035000Y-71824000D01*
X139040000Y-71821000D01*
X139046000Y-71818000D01*
X139051000Y-71815000D01*
X139057000Y-71813000D01*
X139063000Y-71811000D01*
X139069000Y-71809000D01*
X139075000Y-71808000D01*
X139081000Y-71806000D01*
X139087000Y-71806000D01*
X139094000Y-71805000D01*
X139100000Y-71805000D01*
X139900000Y-71805000D01*
X139906000Y-71805000D01*
X139913000Y-71806000D01*
G36*
X139913000Y-71806000D02*
G01*
X139919000Y-71806000D01*
X139925000Y-71808000D01*
X139931000Y-71809000D01*
X139937000Y-71811000D01*
X139943000Y-71813000D01*
X139949000Y-71815000D01*
X139954000Y-71818000D01*
X139960000Y-71821000D01*
X139965000Y-71824000D01*
X139971000Y-71828000D01*
X139976000Y-71832000D01*
X139980000Y-71836000D01*
X139985000Y-71840000D01*
X139989000Y-71845000D01*
X139993000Y-71849000D01*
X139997000Y-71854000D01*
X140001000Y-71860000D01*
X140004000Y-71865000D01*
X140007000Y-71871000D01*
X140010000Y-71876000D01*
X140012000Y-71882000D01*
X140014000Y-71888000D01*
X140016000Y-71894000D01*
X140017000Y-71900000D01*
X140019000Y-71906000D01*
X140019000Y-71912000D01*
X140020000Y-71919000D01*
X140020000Y-71925000D01*
X140020000Y-72075000D01*
X140020000Y-72081000D01*
X140019000Y-72088000D01*
X140019000Y-72094000D01*
X140017000Y-72100000D01*
X140016000Y-72106000D01*
X140014000Y-72112000D01*
X140012000Y-72118000D01*
X140010000Y-72124000D01*
X140007000Y-72129000D01*
X140004000Y-72135000D01*
X140001000Y-72140000D01*
X139997000Y-72146000D01*
X139993000Y-72151000D01*
X139989000Y-72155000D01*
X139985000Y-72160000D01*
X139980000Y-72164000D01*
X139976000Y-72168000D01*
X139971000Y-72172000D01*
X139965000Y-72176000D01*
X139960000Y-72179000D01*
X139954000Y-72182000D01*
X139949000Y-72185000D01*
X139943000Y-72187000D01*
X139937000Y-72189000D01*
X139931000Y-72191000D01*
X139925000Y-72192000D01*
X139919000Y-72194000D01*
X139913000Y-72194000D01*
X139906000Y-72195000D01*
X139900000Y-72195000D01*
X139100000Y-72195000D01*
X139094000Y-72195000D01*
X139087000Y-72194000D01*
X139081000Y-72194000D01*
X139075000Y-72192000D01*
X139069000Y-72191000D01*
X139063000Y-72189000D01*
X139057000Y-72187000D01*
X139051000Y-72185000D01*
X139046000Y-72182000D01*
X139040000Y-72179000D01*
X139035000Y-72176000D01*
X139029000Y-72172000D01*
X139024000Y-72168000D01*
X139020000Y-72164000D01*
X139015000Y-72160000D01*
X139011000Y-72155000D01*
X139007000Y-72151000D01*
X139003000Y-72146000D01*
X138999000Y-72140000D01*
X138996000Y-72135000D01*
X138993000Y-72129000D01*
X138990000Y-72124000D01*
X138988000Y-72118000D01*
X138986000Y-72112000D01*
X138984000Y-72106000D01*
X138983000Y-72100000D01*
X138981000Y-72094000D01*
X138981000Y-72088000D01*
X138980000Y-72081000D01*
X138980000Y-72075000D01*
X138980000Y-71925000D01*
X138980000Y-71919000D01*
X138981000Y-71912000D01*
X138981000Y-71906000D01*
X138983000Y-71900000D01*
X138984000Y-71894000D01*
X138986000Y-71888000D01*
X138988000Y-71882000D01*
X138990000Y-71876000D01*
X138993000Y-71871000D01*
X138996000Y-71865000D01*
X138999000Y-71860000D01*
X139003000Y-71854000D01*
X139007000Y-71849000D01*
X139011000Y-71845000D01*
X139015000Y-71840000D01*
X139020000Y-71836000D01*
X139024000Y-71832000D01*
X139029000Y-71828000D01*
X139035000Y-71824000D01*
X139040000Y-71821000D01*
X139046000Y-71818000D01*
X139051000Y-71815000D01*
X139057000Y-71813000D01*
X139063000Y-71811000D01*
X139069000Y-71809000D01*
X139075000Y-71808000D01*
X139081000Y-71806000D01*
X139087000Y-71806000D01*
X139094000Y-71805000D01*
X139100000Y-71805000D01*
X139900000Y-71805000D01*
X139906000Y-71805000D01*
X139913000Y-71806000D01*
G37*
X139913000Y-72306000D02*
X139919000Y-72306000D01*
X139925000Y-72308000D01*
X139931000Y-72309000D01*
X139937000Y-72311000D01*
X139943000Y-72313000D01*
X139949000Y-72315000D01*
X139954000Y-72318000D01*
X139960000Y-72321000D01*
X139965000Y-72324000D01*
X139971000Y-72328000D01*
X139976000Y-72332000D01*
X139980000Y-72336000D01*
X139985000Y-72340000D01*
X139989000Y-72345000D01*
X139993000Y-72349000D01*
X139997000Y-72354000D01*
X140001000Y-72360000D01*
X140004000Y-72365000D01*
X140007000Y-72371000D01*
X140010000Y-72376000D01*
X140012000Y-72382000D01*
X140014000Y-72388000D01*
X140016000Y-72394000D01*
X140017000Y-72400000D01*
X140019000Y-72406000D01*
X140019000Y-72412000D01*
X140020000Y-72419000D01*
X140020000Y-72425000D01*
X140020000Y-72575000D01*
X140020000Y-72581000D01*
X140019000Y-72588000D01*
X140019000Y-72594000D01*
X140017000Y-72600000D01*
X140016000Y-72606000D01*
X140014000Y-72612000D01*
X140012000Y-72618000D01*
X140010000Y-72624000D01*
X140007000Y-72629000D01*
X140004000Y-72635000D01*
X140001000Y-72640000D01*
X139997000Y-72646000D01*
X139993000Y-72651000D01*
X139989000Y-72655000D01*
X139985000Y-72660000D01*
X139980000Y-72664000D01*
X139976000Y-72668000D01*
X139971000Y-72672000D01*
X139965000Y-72676000D01*
X139960000Y-72679000D01*
X139954000Y-72682000D01*
X139949000Y-72685000D01*
X139943000Y-72687000D01*
X139937000Y-72689000D01*
X139931000Y-72691000D01*
X139925000Y-72692000D01*
X139919000Y-72694000D01*
X139913000Y-72694000D01*
X139906000Y-72695000D01*
X139900000Y-72695000D01*
X139100000Y-72695000D01*
X139094000Y-72695000D01*
X139087000Y-72694000D01*
X139081000Y-72694000D01*
X139075000Y-72692000D01*
X139069000Y-72691000D01*
X139063000Y-72689000D01*
X139057000Y-72687000D01*
X139051000Y-72685000D01*
X139046000Y-72682000D01*
X139040000Y-72679000D01*
X139035000Y-72676000D01*
X139029000Y-72672000D01*
X139024000Y-72668000D01*
X139020000Y-72664000D01*
X139015000Y-72660000D01*
X139011000Y-72655000D01*
X139007000Y-72651000D01*
X139003000Y-72646000D01*
X138999000Y-72640000D01*
X138996000Y-72635000D01*
X138993000Y-72629000D01*
X138990000Y-72624000D01*
X138988000Y-72618000D01*
X138986000Y-72612000D01*
X138984000Y-72606000D01*
X138983000Y-72600000D01*
X138981000Y-72594000D01*
X138981000Y-72588000D01*
X138980000Y-72581000D01*
X138980000Y-72575000D01*
X138980000Y-72425000D01*
X138980000Y-72419000D01*
X138981000Y-72412000D01*
X138981000Y-72406000D01*
X138983000Y-72400000D01*
X138984000Y-72394000D01*
X138986000Y-72388000D01*
X138988000Y-72382000D01*
X138990000Y-72376000D01*
X138993000Y-72371000D01*
X138996000Y-72365000D01*
X138999000Y-72360000D01*
X139003000Y-72354000D01*
X139007000Y-72349000D01*
X139011000Y-72345000D01*
X139015000Y-72340000D01*
X139020000Y-72336000D01*
X139024000Y-72332000D01*
X139029000Y-72328000D01*
X139035000Y-72324000D01*
X139040000Y-72321000D01*
X139046000Y-72318000D01*
X139051000Y-72315000D01*
X139057000Y-72313000D01*
X139063000Y-72311000D01*
X139069000Y-72309000D01*
X139075000Y-72308000D01*
X139081000Y-72306000D01*
X139087000Y-72306000D01*
X139094000Y-72305000D01*
X139100000Y-72305000D01*
X139900000Y-72305000D01*
X139906000Y-72305000D01*
X139913000Y-72306000D01*
G36*
X139913000Y-72306000D02*
G01*
X139919000Y-72306000D01*
X139925000Y-72308000D01*
X139931000Y-72309000D01*
X139937000Y-72311000D01*
X139943000Y-72313000D01*
X139949000Y-72315000D01*
X139954000Y-72318000D01*
X139960000Y-72321000D01*
X139965000Y-72324000D01*
X139971000Y-72328000D01*
X139976000Y-72332000D01*
X139980000Y-72336000D01*
X139985000Y-72340000D01*
X139989000Y-72345000D01*
X139993000Y-72349000D01*
X139997000Y-72354000D01*
X140001000Y-72360000D01*
X140004000Y-72365000D01*
X140007000Y-72371000D01*
X140010000Y-72376000D01*
X140012000Y-72382000D01*
X140014000Y-72388000D01*
X140016000Y-72394000D01*
X140017000Y-72400000D01*
X140019000Y-72406000D01*
X140019000Y-72412000D01*
X140020000Y-72419000D01*
X140020000Y-72425000D01*
X140020000Y-72575000D01*
X140020000Y-72581000D01*
X140019000Y-72588000D01*
X140019000Y-72594000D01*
X140017000Y-72600000D01*
X140016000Y-72606000D01*
X140014000Y-72612000D01*
X140012000Y-72618000D01*
X140010000Y-72624000D01*
X140007000Y-72629000D01*
X140004000Y-72635000D01*
X140001000Y-72640000D01*
X139997000Y-72646000D01*
X139993000Y-72651000D01*
X139989000Y-72655000D01*
X139985000Y-72660000D01*
X139980000Y-72664000D01*
X139976000Y-72668000D01*
X139971000Y-72672000D01*
X139965000Y-72676000D01*
X139960000Y-72679000D01*
X139954000Y-72682000D01*
X139949000Y-72685000D01*
X139943000Y-72687000D01*
X139937000Y-72689000D01*
X139931000Y-72691000D01*
X139925000Y-72692000D01*
X139919000Y-72694000D01*
X139913000Y-72694000D01*
X139906000Y-72695000D01*
X139900000Y-72695000D01*
X139100000Y-72695000D01*
X139094000Y-72695000D01*
X139087000Y-72694000D01*
X139081000Y-72694000D01*
X139075000Y-72692000D01*
X139069000Y-72691000D01*
X139063000Y-72689000D01*
X139057000Y-72687000D01*
X139051000Y-72685000D01*
X139046000Y-72682000D01*
X139040000Y-72679000D01*
X139035000Y-72676000D01*
X139029000Y-72672000D01*
X139024000Y-72668000D01*
X139020000Y-72664000D01*
X139015000Y-72660000D01*
X139011000Y-72655000D01*
X139007000Y-72651000D01*
X139003000Y-72646000D01*
X138999000Y-72640000D01*
X138996000Y-72635000D01*
X138993000Y-72629000D01*
X138990000Y-72624000D01*
X138988000Y-72618000D01*
X138986000Y-72612000D01*
X138984000Y-72606000D01*
X138983000Y-72600000D01*
X138981000Y-72594000D01*
X138981000Y-72588000D01*
X138980000Y-72581000D01*
X138980000Y-72575000D01*
X138980000Y-72425000D01*
X138980000Y-72419000D01*
X138981000Y-72412000D01*
X138981000Y-72406000D01*
X138983000Y-72400000D01*
X138984000Y-72394000D01*
X138986000Y-72388000D01*
X138988000Y-72382000D01*
X138990000Y-72376000D01*
X138993000Y-72371000D01*
X138996000Y-72365000D01*
X138999000Y-72360000D01*
X139003000Y-72354000D01*
X139007000Y-72349000D01*
X139011000Y-72345000D01*
X139015000Y-72340000D01*
X139020000Y-72336000D01*
X139024000Y-72332000D01*
X139029000Y-72328000D01*
X139035000Y-72324000D01*
X139040000Y-72321000D01*
X139046000Y-72318000D01*
X139051000Y-72315000D01*
X139057000Y-72313000D01*
X139063000Y-72311000D01*
X139069000Y-72309000D01*
X139075000Y-72308000D01*
X139081000Y-72306000D01*
X139087000Y-72306000D01*
X139094000Y-72305000D01*
X139100000Y-72305000D01*
X139900000Y-72305000D01*
X139906000Y-72305000D01*
X139913000Y-72306000D01*
G37*
X139913000Y-72806000D02*
X139919000Y-72806000D01*
X139925000Y-72808000D01*
X139931000Y-72809000D01*
X139937000Y-72811000D01*
X139943000Y-72813000D01*
X139949000Y-72815000D01*
X139954000Y-72818000D01*
X139960000Y-72821000D01*
X139965000Y-72824000D01*
X139971000Y-72828000D01*
X139976000Y-72832000D01*
X139980000Y-72836000D01*
X139985000Y-72840000D01*
X139989000Y-72845000D01*
X139993000Y-72849000D01*
X139997000Y-72854000D01*
X140001000Y-72860000D01*
X140004000Y-72865000D01*
X140007000Y-72871000D01*
X140010000Y-72876000D01*
X140012000Y-72882000D01*
X140014000Y-72888000D01*
X140016000Y-72894000D01*
X140017000Y-72900000D01*
X140019000Y-72906000D01*
X140019000Y-72912000D01*
X140020000Y-72919000D01*
X140020000Y-72925000D01*
X140020000Y-73075000D01*
X140020000Y-73081000D01*
X140019000Y-73088000D01*
X140019000Y-73094000D01*
X140017000Y-73100000D01*
X140016000Y-73106000D01*
X140014000Y-73112000D01*
X140012000Y-73118000D01*
X140010000Y-73124000D01*
X140007000Y-73129000D01*
X140004000Y-73135000D01*
X140001000Y-73140000D01*
X139997000Y-73146000D01*
X139993000Y-73151000D01*
X139989000Y-73155000D01*
X139985000Y-73160000D01*
X139980000Y-73164000D01*
X139976000Y-73168000D01*
X139971000Y-73172000D01*
X139965000Y-73176000D01*
X139960000Y-73179000D01*
X139954000Y-73182000D01*
X139949000Y-73185000D01*
X139943000Y-73187000D01*
X139937000Y-73189000D01*
X139931000Y-73191000D01*
X139925000Y-73192000D01*
X139919000Y-73194000D01*
X139913000Y-73194000D01*
X139906000Y-73195000D01*
X139900000Y-73195000D01*
X138700000Y-73195000D01*
X138694000Y-73195000D01*
X138687000Y-73194000D01*
X138681000Y-73194000D01*
X138675000Y-73192000D01*
X138669000Y-73191000D01*
X138663000Y-73189000D01*
X138657000Y-73187000D01*
X138651000Y-73185000D01*
X138646000Y-73182000D01*
X138640000Y-73179000D01*
X138635000Y-73176000D01*
X138629000Y-73172000D01*
X138624000Y-73168000D01*
X138620000Y-73164000D01*
X138615000Y-73160000D01*
X138611000Y-73155000D01*
X138607000Y-73151000D01*
X138603000Y-73146000D01*
X138599000Y-73140000D01*
X138596000Y-73135000D01*
X138593000Y-73129000D01*
X138590000Y-73124000D01*
X138588000Y-73118000D01*
X138586000Y-73112000D01*
X138584000Y-73106000D01*
X138583000Y-73100000D01*
X138581000Y-73094000D01*
X138581000Y-73088000D01*
X138580000Y-73081000D01*
X138580000Y-73075000D01*
X138580000Y-72925000D01*
X138580000Y-72919000D01*
X138581000Y-72912000D01*
X138581000Y-72906000D01*
X138583000Y-72900000D01*
X138584000Y-72894000D01*
X138586000Y-72888000D01*
X138588000Y-72882000D01*
X138590000Y-72876000D01*
X138593000Y-72871000D01*
X138596000Y-72865000D01*
X138599000Y-72860000D01*
X138603000Y-72854000D01*
X138607000Y-72849000D01*
X138611000Y-72845000D01*
X138615000Y-72840000D01*
X138620000Y-72836000D01*
X138624000Y-72832000D01*
X138629000Y-72828000D01*
X138635000Y-72824000D01*
X138640000Y-72821000D01*
X138646000Y-72818000D01*
X138651000Y-72815000D01*
X138657000Y-72813000D01*
X138663000Y-72811000D01*
X138669000Y-72809000D01*
X138675000Y-72808000D01*
X138681000Y-72806000D01*
X138687000Y-72806000D01*
X138694000Y-72805000D01*
X138700000Y-72805000D01*
X139900000Y-72805000D01*
X139906000Y-72805000D01*
X139913000Y-72806000D01*
G36*
X139913000Y-72806000D02*
G01*
X139919000Y-72806000D01*
X139925000Y-72808000D01*
X139931000Y-72809000D01*
X139937000Y-72811000D01*
X139943000Y-72813000D01*
X139949000Y-72815000D01*
X139954000Y-72818000D01*
X139960000Y-72821000D01*
X139965000Y-72824000D01*
X139971000Y-72828000D01*
X139976000Y-72832000D01*
X139980000Y-72836000D01*
X139985000Y-72840000D01*
X139989000Y-72845000D01*
X139993000Y-72849000D01*
X139997000Y-72854000D01*
X140001000Y-72860000D01*
X140004000Y-72865000D01*
X140007000Y-72871000D01*
X140010000Y-72876000D01*
X140012000Y-72882000D01*
X140014000Y-72888000D01*
X140016000Y-72894000D01*
X140017000Y-72900000D01*
X140019000Y-72906000D01*
X140019000Y-72912000D01*
X140020000Y-72919000D01*
X140020000Y-72925000D01*
X140020000Y-73075000D01*
X140020000Y-73081000D01*
X140019000Y-73088000D01*
X140019000Y-73094000D01*
X140017000Y-73100000D01*
X140016000Y-73106000D01*
X140014000Y-73112000D01*
X140012000Y-73118000D01*
X140010000Y-73124000D01*
X140007000Y-73129000D01*
X140004000Y-73135000D01*
X140001000Y-73140000D01*
X139997000Y-73146000D01*
X139993000Y-73151000D01*
X139989000Y-73155000D01*
X139985000Y-73160000D01*
X139980000Y-73164000D01*
X139976000Y-73168000D01*
X139971000Y-73172000D01*
X139965000Y-73176000D01*
X139960000Y-73179000D01*
X139954000Y-73182000D01*
X139949000Y-73185000D01*
X139943000Y-73187000D01*
X139937000Y-73189000D01*
X139931000Y-73191000D01*
X139925000Y-73192000D01*
X139919000Y-73194000D01*
X139913000Y-73194000D01*
X139906000Y-73195000D01*
X139900000Y-73195000D01*
X138700000Y-73195000D01*
X138694000Y-73195000D01*
X138687000Y-73194000D01*
X138681000Y-73194000D01*
X138675000Y-73192000D01*
X138669000Y-73191000D01*
X138663000Y-73189000D01*
X138657000Y-73187000D01*
X138651000Y-73185000D01*
X138646000Y-73182000D01*
X138640000Y-73179000D01*
X138635000Y-73176000D01*
X138629000Y-73172000D01*
X138624000Y-73168000D01*
X138620000Y-73164000D01*
X138615000Y-73160000D01*
X138611000Y-73155000D01*
X138607000Y-73151000D01*
X138603000Y-73146000D01*
X138599000Y-73140000D01*
X138596000Y-73135000D01*
X138593000Y-73129000D01*
X138590000Y-73124000D01*
X138588000Y-73118000D01*
X138586000Y-73112000D01*
X138584000Y-73106000D01*
X138583000Y-73100000D01*
X138581000Y-73094000D01*
X138581000Y-73088000D01*
X138580000Y-73081000D01*
X138580000Y-73075000D01*
X138580000Y-72925000D01*
X138580000Y-72919000D01*
X138581000Y-72912000D01*
X138581000Y-72906000D01*
X138583000Y-72900000D01*
X138584000Y-72894000D01*
X138586000Y-72888000D01*
X138588000Y-72882000D01*
X138590000Y-72876000D01*
X138593000Y-72871000D01*
X138596000Y-72865000D01*
X138599000Y-72860000D01*
X138603000Y-72854000D01*
X138607000Y-72849000D01*
X138611000Y-72845000D01*
X138615000Y-72840000D01*
X138620000Y-72836000D01*
X138624000Y-72832000D01*
X138629000Y-72828000D01*
X138635000Y-72824000D01*
X138640000Y-72821000D01*
X138646000Y-72818000D01*
X138651000Y-72815000D01*
X138657000Y-72813000D01*
X138663000Y-72811000D01*
X138669000Y-72809000D01*
X138675000Y-72808000D01*
X138681000Y-72806000D01*
X138687000Y-72806000D01*
X138694000Y-72805000D01*
X138700000Y-72805000D01*
X139900000Y-72805000D01*
X139906000Y-72805000D01*
X139913000Y-72806000D01*
G37*
X139913000Y-73306000D02*
X139919000Y-73306000D01*
X139925000Y-73308000D01*
X139931000Y-73309000D01*
X139937000Y-73311000D01*
X139943000Y-73313000D01*
X139949000Y-73315000D01*
X139954000Y-73318000D01*
X139960000Y-73321000D01*
X139965000Y-73324000D01*
X139971000Y-73328000D01*
X139976000Y-73332000D01*
X139980000Y-73336000D01*
X139985000Y-73340000D01*
X139989000Y-73345000D01*
X139993000Y-73349000D01*
X139997000Y-73354000D01*
X140001000Y-73360000D01*
X140004000Y-73365000D01*
X140007000Y-73371000D01*
X140010000Y-73376000D01*
X140012000Y-73382000D01*
X140014000Y-73388000D01*
X140016000Y-73394000D01*
X140017000Y-73400000D01*
X140019000Y-73406000D01*
X140019000Y-73412000D01*
X140020000Y-73419000D01*
X140020000Y-73425000D01*
X140020000Y-73575000D01*
X140020000Y-73581000D01*
X140019000Y-73588000D01*
X140019000Y-73594000D01*
X140017000Y-73600000D01*
X140016000Y-73606000D01*
X140014000Y-73612000D01*
X140012000Y-73618000D01*
X140010000Y-73624000D01*
X140007000Y-73629000D01*
X140004000Y-73635000D01*
X140001000Y-73640000D01*
X139997000Y-73646000D01*
X139993000Y-73651000D01*
X139989000Y-73655000D01*
X139985000Y-73660000D01*
X139980000Y-73664000D01*
X139976000Y-73668000D01*
X139971000Y-73672000D01*
X139965000Y-73676000D01*
X139960000Y-73679000D01*
X139954000Y-73682000D01*
X139949000Y-73685000D01*
X139943000Y-73687000D01*
X139937000Y-73689000D01*
X139931000Y-73691000D01*
X139925000Y-73692000D01*
X139919000Y-73694000D01*
X139913000Y-73694000D01*
X139906000Y-73695000D01*
X139900000Y-73695000D01*
X139100000Y-73695000D01*
X139094000Y-73695000D01*
X139087000Y-73694000D01*
X139081000Y-73694000D01*
X139075000Y-73692000D01*
X139069000Y-73691000D01*
X139063000Y-73689000D01*
X139057000Y-73687000D01*
X139051000Y-73685000D01*
X139046000Y-73682000D01*
X139040000Y-73679000D01*
X139035000Y-73676000D01*
X139029000Y-73672000D01*
X139024000Y-73668000D01*
X139020000Y-73664000D01*
X139015000Y-73660000D01*
X139011000Y-73655000D01*
X139007000Y-73651000D01*
X139003000Y-73646000D01*
X138999000Y-73640000D01*
X138996000Y-73635000D01*
X138993000Y-73629000D01*
X138990000Y-73624000D01*
X138988000Y-73618000D01*
X138986000Y-73612000D01*
X138984000Y-73606000D01*
X138983000Y-73600000D01*
X138981000Y-73594000D01*
X138981000Y-73588000D01*
X138980000Y-73581000D01*
X138980000Y-73575000D01*
X138980000Y-73425000D01*
X138980000Y-73419000D01*
X138981000Y-73412000D01*
X138981000Y-73406000D01*
X138983000Y-73400000D01*
X138984000Y-73394000D01*
X138986000Y-73388000D01*
X138988000Y-73382000D01*
X138990000Y-73376000D01*
X138993000Y-73371000D01*
X138996000Y-73365000D01*
X138999000Y-73360000D01*
X139003000Y-73354000D01*
X139007000Y-73349000D01*
X139011000Y-73345000D01*
X139015000Y-73340000D01*
X139020000Y-73336000D01*
X139024000Y-73332000D01*
X139029000Y-73328000D01*
X139035000Y-73324000D01*
X139040000Y-73321000D01*
X139046000Y-73318000D01*
X139051000Y-73315000D01*
X139057000Y-73313000D01*
X139063000Y-73311000D01*
X139069000Y-73309000D01*
X139075000Y-73308000D01*
X139081000Y-73306000D01*
X139087000Y-73306000D01*
X139094000Y-73305000D01*
X139100000Y-73305000D01*
X139900000Y-73305000D01*
X139906000Y-73305000D01*
X139913000Y-73306000D01*
G36*
X139913000Y-73306000D02*
G01*
X139919000Y-73306000D01*
X139925000Y-73308000D01*
X139931000Y-73309000D01*
X139937000Y-73311000D01*
X139943000Y-73313000D01*
X139949000Y-73315000D01*
X139954000Y-73318000D01*
X139960000Y-73321000D01*
X139965000Y-73324000D01*
X139971000Y-73328000D01*
X139976000Y-73332000D01*
X139980000Y-73336000D01*
X139985000Y-73340000D01*
X139989000Y-73345000D01*
X139993000Y-73349000D01*
X139997000Y-73354000D01*
X140001000Y-73360000D01*
X140004000Y-73365000D01*
X140007000Y-73371000D01*
X140010000Y-73376000D01*
X140012000Y-73382000D01*
X140014000Y-73388000D01*
X140016000Y-73394000D01*
X140017000Y-73400000D01*
X140019000Y-73406000D01*
X140019000Y-73412000D01*
X140020000Y-73419000D01*
X140020000Y-73425000D01*
X140020000Y-73575000D01*
X140020000Y-73581000D01*
X140019000Y-73588000D01*
X140019000Y-73594000D01*
X140017000Y-73600000D01*
X140016000Y-73606000D01*
X140014000Y-73612000D01*
X140012000Y-73618000D01*
X140010000Y-73624000D01*
X140007000Y-73629000D01*
X140004000Y-73635000D01*
X140001000Y-73640000D01*
X139997000Y-73646000D01*
X139993000Y-73651000D01*
X139989000Y-73655000D01*
X139985000Y-73660000D01*
X139980000Y-73664000D01*
X139976000Y-73668000D01*
X139971000Y-73672000D01*
X139965000Y-73676000D01*
X139960000Y-73679000D01*
X139954000Y-73682000D01*
X139949000Y-73685000D01*
X139943000Y-73687000D01*
X139937000Y-73689000D01*
X139931000Y-73691000D01*
X139925000Y-73692000D01*
X139919000Y-73694000D01*
X139913000Y-73694000D01*
X139906000Y-73695000D01*
X139900000Y-73695000D01*
X139100000Y-73695000D01*
X139094000Y-73695000D01*
X139087000Y-73694000D01*
X139081000Y-73694000D01*
X139075000Y-73692000D01*
X139069000Y-73691000D01*
X139063000Y-73689000D01*
X139057000Y-73687000D01*
X139051000Y-73685000D01*
X139046000Y-73682000D01*
X139040000Y-73679000D01*
X139035000Y-73676000D01*
X139029000Y-73672000D01*
X139024000Y-73668000D01*
X139020000Y-73664000D01*
X139015000Y-73660000D01*
X139011000Y-73655000D01*
X139007000Y-73651000D01*
X139003000Y-73646000D01*
X138999000Y-73640000D01*
X138996000Y-73635000D01*
X138993000Y-73629000D01*
X138990000Y-73624000D01*
X138988000Y-73618000D01*
X138986000Y-73612000D01*
X138984000Y-73606000D01*
X138983000Y-73600000D01*
X138981000Y-73594000D01*
X138981000Y-73588000D01*
X138980000Y-73581000D01*
X138980000Y-73575000D01*
X138980000Y-73425000D01*
X138980000Y-73419000D01*
X138981000Y-73412000D01*
X138981000Y-73406000D01*
X138983000Y-73400000D01*
X138984000Y-73394000D01*
X138986000Y-73388000D01*
X138988000Y-73382000D01*
X138990000Y-73376000D01*
X138993000Y-73371000D01*
X138996000Y-73365000D01*
X138999000Y-73360000D01*
X139003000Y-73354000D01*
X139007000Y-73349000D01*
X139011000Y-73345000D01*
X139015000Y-73340000D01*
X139020000Y-73336000D01*
X139024000Y-73332000D01*
X139029000Y-73328000D01*
X139035000Y-73324000D01*
X139040000Y-73321000D01*
X139046000Y-73318000D01*
X139051000Y-73315000D01*
X139057000Y-73313000D01*
X139063000Y-73311000D01*
X139069000Y-73309000D01*
X139075000Y-73308000D01*
X139081000Y-73306000D01*
X139087000Y-73306000D01*
X139094000Y-73305000D01*
X139100000Y-73305000D01*
X139900000Y-73305000D01*
X139906000Y-73305000D01*
X139913000Y-73306000D01*
G37*
X139913000Y-73806000D02*
X139919000Y-73806000D01*
X139925000Y-73808000D01*
X139931000Y-73809000D01*
X139937000Y-73811000D01*
X139943000Y-73813000D01*
X139949000Y-73815000D01*
X139954000Y-73818000D01*
X139960000Y-73821000D01*
X139965000Y-73824000D01*
X139971000Y-73828000D01*
X139976000Y-73832000D01*
X139980000Y-73836000D01*
X139985000Y-73840000D01*
X139989000Y-73845000D01*
X139993000Y-73849000D01*
X139997000Y-73854000D01*
X140001000Y-73860000D01*
X140004000Y-73865000D01*
X140007000Y-73871000D01*
X140010000Y-73876000D01*
X140012000Y-73882000D01*
X140014000Y-73888000D01*
X140016000Y-73894000D01*
X140017000Y-73900000D01*
X140019000Y-73906000D01*
X140019000Y-73912000D01*
X140020000Y-73919000D01*
X140020000Y-73925000D01*
X140020000Y-74075000D01*
X140020000Y-74081000D01*
X140019000Y-74088000D01*
X140019000Y-74094000D01*
X140017000Y-74100000D01*
X140016000Y-74106000D01*
X140014000Y-74112000D01*
X140012000Y-74118000D01*
X140010000Y-74124000D01*
X140007000Y-74129000D01*
X140004000Y-74135000D01*
X140001000Y-74140000D01*
X139997000Y-74146000D01*
X139993000Y-74151000D01*
X139989000Y-74155000D01*
X139985000Y-74160000D01*
X139980000Y-74164000D01*
X139976000Y-74168000D01*
X139971000Y-74172000D01*
X139965000Y-74176000D01*
X139960000Y-74179000D01*
X139954000Y-74182000D01*
X139949000Y-74185000D01*
X139943000Y-74187000D01*
X139937000Y-74189000D01*
X139931000Y-74191000D01*
X139925000Y-74192000D01*
X139919000Y-74194000D01*
X139913000Y-74194000D01*
X139906000Y-74195000D01*
X139900000Y-74195000D01*
X139100000Y-74195000D01*
X139094000Y-74195000D01*
X139087000Y-74194000D01*
X139081000Y-74194000D01*
X139075000Y-74192000D01*
X139069000Y-74191000D01*
X139063000Y-74189000D01*
X139057000Y-74187000D01*
X139051000Y-74185000D01*
X139046000Y-74182000D01*
X139040000Y-74179000D01*
X139035000Y-74176000D01*
X139029000Y-74172000D01*
X139024000Y-74168000D01*
X139020000Y-74164000D01*
X139015000Y-74160000D01*
X139011000Y-74155000D01*
X139007000Y-74151000D01*
X139003000Y-74146000D01*
X138999000Y-74140000D01*
X138996000Y-74135000D01*
X138993000Y-74129000D01*
X138990000Y-74124000D01*
X138988000Y-74118000D01*
X138986000Y-74112000D01*
X138984000Y-74106000D01*
X138983000Y-74100000D01*
X138981000Y-74094000D01*
X138981000Y-74088000D01*
X138980000Y-74081000D01*
X138980000Y-74075000D01*
X138980000Y-73925000D01*
X138980000Y-73919000D01*
X138981000Y-73912000D01*
X138981000Y-73906000D01*
X138983000Y-73900000D01*
X138984000Y-73894000D01*
X138986000Y-73888000D01*
X138988000Y-73882000D01*
X138990000Y-73876000D01*
X138993000Y-73871000D01*
X138996000Y-73865000D01*
X138999000Y-73860000D01*
X139003000Y-73854000D01*
X139007000Y-73849000D01*
X139011000Y-73845000D01*
X139015000Y-73840000D01*
X139020000Y-73836000D01*
X139024000Y-73832000D01*
X139029000Y-73828000D01*
X139035000Y-73824000D01*
X139040000Y-73821000D01*
X139046000Y-73818000D01*
X139051000Y-73815000D01*
X139057000Y-73813000D01*
X139063000Y-73811000D01*
X139069000Y-73809000D01*
X139075000Y-73808000D01*
X139081000Y-73806000D01*
X139087000Y-73806000D01*
X139094000Y-73805000D01*
X139100000Y-73805000D01*
X139900000Y-73805000D01*
X139906000Y-73805000D01*
X139913000Y-73806000D01*
G36*
X139913000Y-73806000D02*
G01*
X139919000Y-73806000D01*
X139925000Y-73808000D01*
X139931000Y-73809000D01*
X139937000Y-73811000D01*
X139943000Y-73813000D01*
X139949000Y-73815000D01*
X139954000Y-73818000D01*
X139960000Y-73821000D01*
X139965000Y-73824000D01*
X139971000Y-73828000D01*
X139976000Y-73832000D01*
X139980000Y-73836000D01*
X139985000Y-73840000D01*
X139989000Y-73845000D01*
X139993000Y-73849000D01*
X139997000Y-73854000D01*
X140001000Y-73860000D01*
X140004000Y-73865000D01*
X140007000Y-73871000D01*
X140010000Y-73876000D01*
X140012000Y-73882000D01*
X140014000Y-73888000D01*
X140016000Y-73894000D01*
X140017000Y-73900000D01*
X140019000Y-73906000D01*
X140019000Y-73912000D01*
X140020000Y-73919000D01*
X140020000Y-73925000D01*
X140020000Y-74075000D01*
X140020000Y-74081000D01*
X140019000Y-74088000D01*
X140019000Y-74094000D01*
X140017000Y-74100000D01*
X140016000Y-74106000D01*
X140014000Y-74112000D01*
X140012000Y-74118000D01*
X140010000Y-74124000D01*
X140007000Y-74129000D01*
X140004000Y-74135000D01*
X140001000Y-74140000D01*
X139997000Y-74146000D01*
X139993000Y-74151000D01*
X139989000Y-74155000D01*
X139985000Y-74160000D01*
X139980000Y-74164000D01*
X139976000Y-74168000D01*
X139971000Y-74172000D01*
X139965000Y-74176000D01*
X139960000Y-74179000D01*
X139954000Y-74182000D01*
X139949000Y-74185000D01*
X139943000Y-74187000D01*
X139937000Y-74189000D01*
X139931000Y-74191000D01*
X139925000Y-74192000D01*
X139919000Y-74194000D01*
X139913000Y-74194000D01*
X139906000Y-74195000D01*
X139900000Y-74195000D01*
X139100000Y-74195000D01*
X139094000Y-74195000D01*
X139087000Y-74194000D01*
X139081000Y-74194000D01*
X139075000Y-74192000D01*
X139069000Y-74191000D01*
X139063000Y-74189000D01*
X139057000Y-74187000D01*
X139051000Y-74185000D01*
X139046000Y-74182000D01*
X139040000Y-74179000D01*
X139035000Y-74176000D01*
X139029000Y-74172000D01*
X139024000Y-74168000D01*
X139020000Y-74164000D01*
X139015000Y-74160000D01*
X139011000Y-74155000D01*
X139007000Y-74151000D01*
X139003000Y-74146000D01*
X138999000Y-74140000D01*
X138996000Y-74135000D01*
X138993000Y-74129000D01*
X138990000Y-74124000D01*
X138988000Y-74118000D01*
X138986000Y-74112000D01*
X138984000Y-74106000D01*
X138983000Y-74100000D01*
X138981000Y-74094000D01*
X138981000Y-74088000D01*
X138980000Y-74081000D01*
X138980000Y-74075000D01*
X138980000Y-73925000D01*
X138980000Y-73919000D01*
X138981000Y-73912000D01*
X138981000Y-73906000D01*
X138983000Y-73900000D01*
X138984000Y-73894000D01*
X138986000Y-73888000D01*
X138988000Y-73882000D01*
X138990000Y-73876000D01*
X138993000Y-73871000D01*
X138996000Y-73865000D01*
X138999000Y-73860000D01*
X139003000Y-73854000D01*
X139007000Y-73849000D01*
X139011000Y-73845000D01*
X139015000Y-73840000D01*
X139020000Y-73836000D01*
X139024000Y-73832000D01*
X139029000Y-73828000D01*
X139035000Y-73824000D01*
X139040000Y-73821000D01*
X139046000Y-73818000D01*
X139051000Y-73815000D01*
X139057000Y-73813000D01*
X139063000Y-73811000D01*
X139069000Y-73809000D01*
X139075000Y-73808000D01*
X139081000Y-73806000D01*
X139087000Y-73806000D01*
X139094000Y-73805000D01*
X139100000Y-73805000D01*
X139900000Y-73805000D01*
X139906000Y-73805000D01*
X139913000Y-73806000D01*
G37*
%TD*%
D11*
%TO.C,R29*%
X130500000Y-97020000D03*
X130500000Y-96000000D03*
%TD*%
D12*
%TO.C,D2*%
X127000000Y-97500000D03*
X127000000Y-100800000D03*
%TD*%
D13*
%TO.C,C4*%
X147000000Y-66600000D03*
X147000000Y-68500000D03*
%TD*%
%TO.C,C12*%
X149000000Y-81500000D03*
X149000000Y-83400000D03*
%TD*%
D14*
%TO.C,R16*%
X140500000Y-81500000D03*
X140500000Y-82520000D03*
%TD*%
D15*
%TO.C,C9*%
X135750000Y-94750000D03*
X137650000Y-94750000D03*
%TD*%
%TO.C,C7*%
X134050000Y-70000000D03*
X135950000Y-70000000D03*
%TD*%
D16*
%TO.C,L_INST1*%
X158750000Y-101205000D03*
D17*
X158750000Y-99935000D03*
X158750000Y-98665000D03*
X158750000Y-97395000D03*
%TD*%
D18*
%TO.C,U6*%
X148250000Y-85200000D03*
X147250000Y-85200000D03*
X146250000Y-85200000D03*
X145250000Y-85200000D03*
X144250000Y-85200000D03*
X144250000Y-90300000D03*
X145250000Y-90300000D03*
X146250000Y-90300000D03*
X147250000Y-90300000D03*
X148250000Y-90300000D03*
%TD*%
D19*
%TO.C,CBAT1*%
X131235000Y-62750000D03*
D20*
X131235000Y-64750000D03*
%TD*%
D21*
%TO.C,U1*%
X151500000Y-71750000D03*
X151500000Y-73020000D03*
X151500000Y-74290000D03*
X151500000Y-75560000D03*
X151500000Y-76830000D03*
X151500000Y-78100000D03*
X151500000Y-79370000D03*
X151500000Y-80640000D03*
X151500000Y-81910000D03*
X151500000Y-83180000D03*
X151500000Y-84450000D03*
X151500000Y-85720000D03*
X151500000Y-86990000D03*
X151500000Y-88260000D03*
X169000000Y-88260000D03*
X169000000Y-86990000D03*
X169000000Y-85720000D03*
X169000000Y-84450000D03*
X169000000Y-83180000D03*
X169000000Y-81910000D03*
X169000000Y-80640000D03*
X169000000Y-79370000D03*
X169000000Y-78100000D03*
X169000000Y-76830000D03*
X169000000Y-75560000D03*
X169000000Y-74290000D03*
X169000000Y-73020000D03*
X169000000Y-71750000D03*
D22*
X157495000Y-76220000D03*
X157495000Y-77470000D03*
X157495000Y-78720000D03*
X158745000Y-76220000D03*
X158745000Y-77470000D03*
X158745000Y-78720000D03*
X159995000Y-76220000D03*
X159995000Y-77470000D03*
X159995000Y-78720000D03*
%TD*%
D23*
%TO.C,C6*%
X131500000Y-82500000D03*
X129600000Y-82500000D03*
%TD*%
%TO.C,C1*%
X136700000Y-65750000D03*
X134800000Y-65750000D03*
%TD*%
%TO.C,C8*%
X131700000Y-93500000D03*
X129800000Y-93500000D03*
%TD*%
%TO.C,C11*%
X142450000Y-91000000D03*
X140550000Y-91000000D03*
%TD*%
D24*
%TO.C,L1*%
X139750000Y-77500000D03*
X142120000Y-77500000D03*
%TD*%
D25*
%TO.C,Q2*%
X173000000Y-98000000D03*
X173000000Y-96100000D03*
X171125000Y-97050000D03*
%TD*%
D26*
%TO.C,R21*%
X173000000Y-93500000D03*
X171980000Y-93500000D03*
%TD*%
D11*
%TO.C,R26*%
X160000000Y-95020000D03*
X160000000Y-94000000D03*
%TD*%
D27*
%TO.C,R3*%
X135990000Y-79500000D03*
X137010000Y-79500000D03*
%TD*%
D28*
%TO.C,U2*%
X136550000Y-74400000D03*
X136150000Y-74400000D03*
X135750000Y-74400000D03*
X135350000Y-74400000D03*
X134950000Y-74400000D03*
X134950000Y-76600000D03*
X135350000Y-76600000D03*
X135750000Y-76600000D03*
X136150000Y-76600000D03*
X136550000Y-76600000D03*
D21*
X135750000Y-75500000D03*
%TD*%
D11*
%TO.C,R1*%
X137750000Y-76520000D03*
X137750000Y-75500000D03*
%TD*%
%TO.C,R25*%
X161500000Y-95020000D03*
X161500000Y-94000000D03*
%TD*%
D29*
%TO.C,JP1*%
X155420000Y-62070000D03*
D30*
X157960000Y-62070000D03*
X160500000Y-62070000D03*
%TD*%
D31*
%TO.C,CPT1*%
X129750000Y-86000000D03*
D32*
X129750000Y-89500000D03*
%TD*%
D33*
%TO.C,Moteur1*%
X142000000Y-97250000D03*
D32*
X145500000Y-97250000D03*
%TD*%
D11*
%TO.C,R2*%
X133500000Y-80520000D03*
X133500000Y-79500000D03*
%TD*%
D26*
%TO.C,R14*%
X137010000Y-93000000D03*
X135990000Y-93000000D03*
%TD*%
D11*
%TO.C,R27*%
X158500000Y-95020000D03*
X158500000Y-94000000D03*
%TD*%
D26*
%TO.C,R18*%
X172000000Y-99500000D03*
X170980000Y-99500000D03*
%TD*%
D34*
%TO.C,U5*%
X138790000Y-86000000D03*
X137520000Y-86000000D03*
X136250000Y-86000000D03*
X134980000Y-86000000D03*
X134980000Y-90950000D03*
X136250000Y-90950000D03*
X137520000Y-90950000D03*
X138790000Y-90950000D03*
%TD*%
D11*
%TO.C,R23*%
X155500000Y-95020000D03*
X155500000Y-94000000D03*
%TD*%
%TO.C,R24*%
X154000000Y-95020000D03*
X154000000Y-94000000D03*
%TD*%
%TO.C,R22*%
X157000000Y-95020000D03*
X157000000Y-94000000D03*
%TD*%
D35*
%TO.C,J2*%
X131565000Y-74375000D03*
D36*
X131565000Y-76395000D03*
D37*
X131565000Y-77625000D03*
D38*
X131565000Y-75375000D03*
D39*
X131565000Y-73355000D03*
D40*
X131565000Y-72125000D03*
D41*
X131485000Y-70555000D03*
X127685000Y-70555000D03*
X131485000Y-79195000D03*
X127685000Y-79195000D03*
%TD*%
D11*
%TO.C,R4*%
X147500000Y-77010000D03*
X147500000Y-75990000D03*
%TD*%
D23*
%TO.C,C13*%
X142450000Y-88250000D03*
X140550000Y-88250000D03*
%TD*%
D15*
%TO.C,C14*%
X138000000Y-70000000D03*
X139900000Y-70000000D03*
%TD*%
D14*
%TO.C,R9*%
X133500000Y-73990000D03*
X133500000Y-75010000D03*
%TD*%
D11*
%TO.C,R5*%
X145500000Y-77510000D03*
X145500000Y-76490000D03*
%TD*%
D26*
%TO.C,R11*%
X137520000Y-84000000D03*
X136500000Y-84000000D03*
%TD*%
D27*
%TO.C,R19*%
X148490000Y-92510000D03*
X149510000Y-92510000D03*
%TD*%
D29*
%TO.C,J3*%
X172865000Y-72110000D03*
D30*
X172865000Y-74650000D03*
X172865000Y-77190000D03*
X172865000Y-79730000D03*
X172865000Y-82270000D03*
X172865000Y-84810000D03*
X172865000Y-87350000D03*
X172865000Y-89890000D03*
%TD*%
D42*
%TO.C,U3*%
X140015000Y-64750000D03*
X140015000Y-65250000D03*
X140015000Y-65750000D03*
X140015000Y-66250000D03*
X141985000Y-66250000D03*
X141985000Y-65750000D03*
X141985000Y-65250000D03*
X141985000Y-64750000D03*
D43*
X141000000Y-65500000D03*
%TD*%
D14*
%TO.C,R13*%
X139000000Y-82990000D03*
X139000000Y-84010000D03*
%TD*%
D44*
%TO.C,SW1*%
X164000000Y-99500000D03*
X164000000Y-93000000D03*
X168500000Y-99500000D03*
X168500000Y-93000000D03*
%TD*%
D16*
%TO.C,LBAT1*%
X151500000Y-101205000D03*
D17*
X151500000Y-99935000D03*
X151500000Y-98665000D03*
X151500000Y-97395000D03*
%TD*%
D11*
%TO.C,R10*%
X133500000Y-77260000D03*
X133500000Y-76240000D03*
%TD*%
%TO.C,R6*%
X141500000Y-70520000D03*
X141500000Y-69500000D03*
%TD*%
M02*
