%TF.GenerationSoftware,KiCad,Pcbnew,9.0.7*%
%TF.CreationDate,2026-02-20T23:50:41+01:00*%
%TF.ProjectId,Accordeur,4163636f-7264-4657-9572-2e6b69636164,rev?*%
%TF.SameCoordinates,Original*%
%TF.FileFunction,Paste,Top*%
%TF.FilePolarity,Positive*%
%FSLAX46Y46*%
G04 Gerber Fmt 4.6, Leading zero omitted, Abs format (unit mm)*
G04 Created by KiCad (PCBNEW 9.0.7) date 2026-02-20 23:50:41*
%MOMM*%
%LPD*%
G01*
G04 APERTURE LIST*
G04 Aperture macros list*
%AMRoundRect*
0 Rectangle with rounded corners*
0 $1 Rounding radius*
0 $2 $3 $4 $5 $6 $7 $8 $9 X,Y pos of 4 corners*
0 Add a 4 corners polygon primitive as box body*
4,1,4,$2,$3,$4,$5,$6,$7,$8,$9,$2,$3,0*
0 Add four circle primitives for the rounded corners*
1,1,$1+$1,$2,$3*
1,1,$1+$1,$4,$5*
1,1,$1+$1,$6,$7*
1,1,$1+$1,$8,$9*
0 Add four rect primitives between the rounded corners*
20,1,$1+$1,$2,$3,$4,$5,0*
20,1,$1+$1,$4,$5,$6,$7,0*
20,1,$1+$1,$6,$7,$8,$9,0*
20,1,$1+$1,$8,$9,$2,$3,0*%
G04 Aperture macros list end*
%ADD10C,0.010000*%
%ADD11RoundRect,0.135000X0.185000X-0.135000X0.185000X0.135000X-0.185000X0.135000X-0.185000X-0.135000X0*%
%ADD12RoundRect,0.225000X-0.375000X0.225000X-0.375000X-0.225000X0.375000X-0.225000X0.375000X0.225000X0*%
%ADD13RoundRect,0.250000X-0.475000X0.250000X-0.475000X-0.250000X0.475000X-0.250000X0.475000X0.250000X0*%
%ADD14RoundRect,0.135000X-0.185000X0.135000X-0.185000X-0.135000X0.185000X-0.135000X0.185000X0.135000X0*%
%ADD15RoundRect,0.250000X-0.250000X-0.475000X0.250000X-0.475000X0.250000X0.475000X-0.250000X0.475000X0*%
%ADD16R,0.510000X1.100000*%
%ADD17R,1.500000X0.900000*%
%ADD18R,0.800000X0.800000*%
%ADD19RoundRect,0.250000X0.250000X0.475000X-0.250000X0.475000X-0.250000X-0.475000X0.250000X-0.475000X0*%
%ADD20RoundRect,0.050000X-0.250000X-0.075000X0.250000X-0.075000X0.250000X0.075000X-0.250000X0.075000X0*%
%ADD21RoundRect,0.050000X-0.400000X-0.075000X0.400000X-0.075000X0.400000X0.075000X-0.400000X0.075000X0*%
%ADD22RoundRect,0.245000X-0.245000X-1.455000X0.245000X-1.455000X0.245000X1.455000X-0.245000X1.455000X0*%
%ADD23RoundRect,0.150000X0.587500X0.150000X-0.587500X0.150000X-0.587500X-0.150000X0.587500X-0.150000X0*%
%ADD24RoundRect,0.135000X0.135000X0.185000X-0.135000X0.185000X-0.135000X-0.185000X0.135000X-0.185000X0*%
%ADD25RoundRect,0.135000X-0.135000X-0.185000X0.135000X-0.185000X0.135000X0.185000X-0.135000X0.185000X0*%
%ADD26RoundRect,0.210000X-0.495000X0.210000X-0.495000X-0.210000X0.495000X-0.210000X0.495000X0.210000X0*%
%ADD27RoundRect,0.050000X-0.050000X0.325000X-0.050000X-0.325000X0.050000X-0.325000X0.050000X0.325000X0*%
%ADD28RoundRect,0.150000X-0.150000X0.825000X-0.150000X-0.825000X0.150000X-0.825000X0.150000X0.825000X0*%
%ADD29RoundRect,0.175000X-0.425000X0.175000X-0.425000X-0.175000X0.425000X-0.175000X0.425000X0.175000X0*%
%ADD30RoundRect,0.190000X0.410000X-0.190000X0.410000X0.190000X-0.410000X0.190000X-0.410000X-0.190000X0*%
%ADD31RoundRect,0.200000X0.400000X-0.200000X0.400000X0.200000X-0.400000X0.200000X-0.400000X-0.200000X0*%
%ADD32RoundRect,0.175000X0.425000X-0.175000X0.425000X0.175000X-0.425000X0.175000X-0.425000X-0.175000X0*%
%ADD33RoundRect,0.190000X-0.410000X0.190000X-0.410000X-0.190000X0.410000X-0.190000X0.410000X0.190000X0*%
%ADD34RoundRect,0.200000X-0.400000X0.200000X-0.400000X-0.200000X0.400000X-0.200000X0.400000X0.200000X0*%
%ADD35O,1.700000X1.100000*%
%ADD36RoundRect,0.033750X-0.346250X-0.101250X0.346250X-0.101250X0.346250X0.101250X-0.346250X0.101250X0*%
G04 APERTURE END LIST*
D10*
%TO.C,U7*%
X139158000Y-72876000D02*
X139160000Y-72876000D01*
X139163000Y-72877000D01*
X139165000Y-72877000D01*
X139168000Y-72878000D01*
X139170000Y-72879000D01*
X139173000Y-72880000D01*
X139175000Y-72882000D01*
X139177000Y-72883000D01*
X139179000Y-72885000D01*
X139181000Y-72886000D01*
X139183000Y-72888000D01*
X139185000Y-72890000D01*
X139187000Y-72892000D01*
X139189000Y-72894000D01*
X139190000Y-72896000D01*
X139192000Y-72898000D01*
X139193000Y-72900000D01*
X139195000Y-72902000D01*
X139196000Y-72905000D01*
X139197000Y-72907000D01*
X139198000Y-72910000D01*
X139198000Y-72912000D01*
X139199000Y-72915000D01*
X139199000Y-72917000D01*
X139200000Y-72920000D01*
X139200000Y-72922000D01*
X139200000Y-72925000D01*
X139200000Y-73075000D01*
X139200000Y-73078000D01*
X139200000Y-73080000D01*
X139199000Y-73083000D01*
X139199000Y-73085000D01*
X139198000Y-73088000D01*
X139198000Y-73090000D01*
X139197000Y-73093000D01*
X139196000Y-73095000D01*
X139195000Y-73098000D01*
X139193000Y-73100000D01*
X139192000Y-73102000D01*
X139190000Y-73104000D01*
X139189000Y-73106000D01*
X139187000Y-73108000D01*
X139185000Y-73110000D01*
X139183000Y-73112000D01*
X139181000Y-73114000D01*
X139179000Y-73115000D01*
X139177000Y-73117000D01*
X139175000Y-73118000D01*
X139173000Y-73120000D01*
X139170000Y-73121000D01*
X139168000Y-73122000D01*
X139165000Y-73123000D01*
X139163000Y-73123000D01*
X139160000Y-73124000D01*
X139158000Y-73124000D01*
X139155000Y-73125000D01*
X139153000Y-73125000D01*
X139150000Y-73125000D01*
X138700000Y-73125000D01*
X138697000Y-73125000D01*
X138695000Y-73125000D01*
X138692000Y-73124000D01*
X138690000Y-73124000D01*
X138687000Y-73123000D01*
X138685000Y-73123000D01*
X138682000Y-73122000D01*
X138680000Y-73121000D01*
X138677000Y-73120000D01*
X138675000Y-73118000D01*
X138673000Y-73117000D01*
X138671000Y-73115000D01*
X138669000Y-73114000D01*
X138667000Y-73112000D01*
X138665000Y-73110000D01*
X138663000Y-73108000D01*
X138661000Y-73106000D01*
X138660000Y-73104000D01*
X138658000Y-73102000D01*
X138657000Y-73100000D01*
X138655000Y-73098000D01*
X138654000Y-73095000D01*
X138653000Y-73093000D01*
X138652000Y-73090000D01*
X138652000Y-73088000D01*
X138651000Y-73085000D01*
X138651000Y-73083000D01*
X138650000Y-73080000D01*
X138650000Y-73078000D01*
X138650000Y-73075000D01*
X138650000Y-72925000D01*
X138650000Y-72922000D01*
X138650000Y-72920000D01*
X138651000Y-72917000D01*
X138651000Y-72915000D01*
X138652000Y-72912000D01*
X138652000Y-72910000D01*
X138653000Y-72907000D01*
X138654000Y-72905000D01*
X138655000Y-72902000D01*
X138657000Y-72900000D01*
X138658000Y-72898000D01*
X138660000Y-72896000D01*
X138661000Y-72894000D01*
X138663000Y-72892000D01*
X138665000Y-72890000D01*
X138667000Y-72888000D01*
X138669000Y-72886000D01*
X138671000Y-72885000D01*
X138673000Y-72883000D01*
X138675000Y-72882000D01*
X138677000Y-72880000D01*
X138680000Y-72879000D01*
X138682000Y-72878000D01*
X138685000Y-72877000D01*
X138687000Y-72877000D01*
X138690000Y-72876000D01*
X138692000Y-72876000D01*
X138695000Y-72875000D01*
X138697000Y-72875000D01*
X138700000Y-72875000D01*
X139150000Y-72875000D01*
X139153000Y-72875000D01*
X139155000Y-72875000D01*
X139158000Y-72876000D01*
G36*
X139158000Y-72876000D02*
G01*
X139160000Y-72876000D01*
X139163000Y-72877000D01*
X139165000Y-72877000D01*
X139168000Y-72878000D01*
X139170000Y-72879000D01*
X139173000Y-72880000D01*
X139175000Y-72882000D01*
X139177000Y-72883000D01*
X139179000Y-72885000D01*
X139181000Y-72886000D01*
X139183000Y-72888000D01*
X139185000Y-72890000D01*
X139187000Y-72892000D01*
X139189000Y-72894000D01*
X139190000Y-72896000D01*
X139192000Y-72898000D01*
X139193000Y-72900000D01*
X139195000Y-72902000D01*
X139196000Y-72905000D01*
X139197000Y-72907000D01*
X139198000Y-72910000D01*
X139198000Y-72912000D01*
X139199000Y-72915000D01*
X139199000Y-72917000D01*
X139200000Y-72920000D01*
X139200000Y-72922000D01*
X139200000Y-72925000D01*
X139200000Y-73075000D01*
X139200000Y-73078000D01*
X139200000Y-73080000D01*
X139199000Y-73083000D01*
X139199000Y-73085000D01*
X139198000Y-73088000D01*
X139198000Y-73090000D01*
X139197000Y-73093000D01*
X139196000Y-73095000D01*
X139195000Y-73098000D01*
X139193000Y-73100000D01*
X139192000Y-73102000D01*
X139190000Y-73104000D01*
X139189000Y-73106000D01*
X139187000Y-73108000D01*
X139185000Y-73110000D01*
X139183000Y-73112000D01*
X139181000Y-73114000D01*
X139179000Y-73115000D01*
X139177000Y-73117000D01*
X139175000Y-73118000D01*
X139173000Y-73120000D01*
X139170000Y-73121000D01*
X139168000Y-73122000D01*
X139165000Y-73123000D01*
X139163000Y-73123000D01*
X139160000Y-73124000D01*
X139158000Y-73124000D01*
X139155000Y-73125000D01*
X139153000Y-73125000D01*
X139150000Y-73125000D01*
X138700000Y-73125000D01*
X138697000Y-73125000D01*
X138695000Y-73125000D01*
X138692000Y-73124000D01*
X138690000Y-73124000D01*
X138687000Y-73123000D01*
X138685000Y-73123000D01*
X138682000Y-73122000D01*
X138680000Y-73121000D01*
X138677000Y-73120000D01*
X138675000Y-73118000D01*
X138673000Y-73117000D01*
X138671000Y-73115000D01*
X138669000Y-73114000D01*
X138667000Y-73112000D01*
X138665000Y-73110000D01*
X138663000Y-73108000D01*
X138661000Y-73106000D01*
X138660000Y-73104000D01*
X138658000Y-73102000D01*
X138657000Y-73100000D01*
X138655000Y-73098000D01*
X138654000Y-73095000D01*
X138653000Y-73093000D01*
X138652000Y-73090000D01*
X138652000Y-73088000D01*
X138651000Y-73085000D01*
X138651000Y-73083000D01*
X138650000Y-73080000D01*
X138650000Y-73078000D01*
X138650000Y-73075000D01*
X138650000Y-72925000D01*
X138650000Y-72922000D01*
X138650000Y-72920000D01*
X138651000Y-72917000D01*
X138651000Y-72915000D01*
X138652000Y-72912000D01*
X138652000Y-72910000D01*
X138653000Y-72907000D01*
X138654000Y-72905000D01*
X138655000Y-72902000D01*
X138657000Y-72900000D01*
X138658000Y-72898000D01*
X138660000Y-72896000D01*
X138661000Y-72894000D01*
X138663000Y-72892000D01*
X138665000Y-72890000D01*
X138667000Y-72888000D01*
X138669000Y-72886000D01*
X138671000Y-72885000D01*
X138673000Y-72883000D01*
X138675000Y-72882000D01*
X138677000Y-72880000D01*
X138680000Y-72879000D01*
X138682000Y-72878000D01*
X138685000Y-72877000D01*
X138687000Y-72877000D01*
X138690000Y-72876000D01*
X138692000Y-72876000D01*
X138695000Y-72875000D01*
X138697000Y-72875000D01*
X138700000Y-72875000D01*
X139150000Y-72875000D01*
X139153000Y-72875000D01*
X139155000Y-72875000D01*
X139158000Y-72876000D01*
G37*
X139908000Y-72876000D02*
X139910000Y-72876000D01*
X139913000Y-72877000D01*
X139915000Y-72877000D01*
X139918000Y-72878000D01*
X139920000Y-72879000D01*
X139923000Y-72880000D01*
X139925000Y-72882000D01*
X139927000Y-72883000D01*
X139929000Y-72885000D01*
X139931000Y-72886000D01*
X139933000Y-72888000D01*
X139935000Y-72890000D01*
X139937000Y-72892000D01*
X139939000Y-72894000D01*
X139940000Y-72896000D01*
X139942000Y-72898000D01*
X139943000Y-72900000D01*
X139945000Y-72902000D01*
X139946000Y-72905000D01*
X139947000Y-72907000D01*
X139948000Y-72910000D01*
X139948000Y-72912000D01*
X139949000Y-72915000D01*
X139949000Y-72917000D01*
X139950000Y-72920000D01*
X139950000Y-72922000D01*
X139950000Y-72925000D01*
X139950000Y-73075000D01*
X139950000Y-73078000D01*
X139950000Y-73080000D01*
X139949000Y-73083000D01*
X139949000Y-73085000D01*
X139948000Y-73088000D01*
X139948000Y-73090000D01*
X139947000Y-73093000D01*
X139946000Y-73095000D01*
X139945000Y-73098000D01*
X139943000Y-73100000D01*
X139942000Y-73102000D01*
X139940000Y-73104000D01*
X139939000Y-73106000D01*
X139937000Y-73108000D01*
X139935000Y-73110000D01*
X139933000Y-73112000D01*
X139931000Y-73114000D01*
X139929000Y-73115000D01*
X139927000Y-73117000D01*
X139925000Y-73118000D01*
X139923000Y-73120000D01*
X139920000Y-73121000D01*
X139918000Y-73122000D01*
X139915000Y-73123000D01*
X139913000Y-73123000D01*
X139910000Y-73124000D01*
X139908000Y-73124000D01*
X139905000Y-73125000D01*
X139903000Y-73125000D01*
X139900000Y-73125000D01*
X139450000Y-73125000D01*
X139447000Y-73125000D01*
X139445000Y-73125000D01*
X139442000Y-73124000D01*
X139440000Y-73124000D01*
X139437000Y-73123000D01*
X139435000Y-73123000D01*
X139432000Y-73122000D01*
X139430000Y-73121000D01*
X139427000Y-73120000D01*
X139425000Y-73118000D01*
X139423000Y-73117000D01*
X139421000Y-73115000D01*
X139419000Y-73114000D01*
X139417000Y-73112000D01*
X139415000Y-73110000D01*
X139413000Y-73108000D01*
X139411000Y-73106000D01*
X139410000Y-73104000D01*
X139408000Y-73102000D01*
X139407000Y-73100000D01*
X139405000Y-73098000D01*
X139404000Y-73095000D01*
X139403000Y-73093000D01*
X139402000Y-73090000D01*
X139402000Y-73088000D01*
X139401000Y-73085000D01*
X139401000Y-73083000D01*
X139400000Y-73080000D01*
X139400000Y-73078000D01*
X139400000Y-73075000D01*
X139400000Y-72925000D01*
X139400000Y-72922000D01*
X139400000Y-72920000D01*
X139401000Y-72917000D01*
X139401000Y-72915000D01*
X139402000Y-72912000D01*
X139402000Y-72910000D01*
X139403000Y-72907000D01*
X139404000Y-72905000D01*
X139405000Y-72902000D01*
X139407000Y-72900000D01*
X139408000Y-72898000D01*
X139410000Y-72896000D01*
X139411000Y-72894000D01*
X139413000Y-72892000D01*
X139415000Y-72890000D01*
X139417000Y-72888000D01*
X139419000Y-72886000D01*
X139421000Y-72885000D01*
X139423000Y-72883000D01*
X139425000Y-72882000D01*
X139427000Y-72880000D01*
X139430000Y-72879000D01*
X139432000Y-72878000D01*
X139435000Y-72877000D01*
X139437000Y-72877000D01*
X139440000Y-72876000D01*
X139442000Y-72876000D01*
X139445000Y-72875000D01*
X139447000Y-72875000D01*
X139450000Y-72875000D01*
X139900000Y-72875000D01*
X139903000Y-72875000D01*
X139905000Y-72875000D01*
X139908000Y-72876000D01*
G36*
X139908000Y-72876000D02*
G01*
X139910000Y-72876000D01*
X139913000Y-72877000D01*
X139915000Y-72877000D01*
X139918000Y-72878000D01*
X139920000Y-72879000D01*
X139923000Y-72880000D01*
X139925000Y-72882000D01*
X139927000Y-72883000D01*
X139929000Y-72885000D01*
X139931000Y-72886000D01*
X139933000Y-72888000D01*
X139935000Y-72890000D01*
X139937000Y-72892000D01*
X139939000Y-72894000D01*
X139940000Y-72896000D01*
X139942000Y-72898000D01*
X139943000Y-72900000D01*
X139945000Y-72902000D01*
X139946000Y-72905000D01*
X139947000Y-72907000D01*
X139948000Y-72910000D01*
X139948000Y-72912000D01*
X139949000Y-72915000D01*
X139949000Y-72917000D01*
X139950000Y-72920000D01*
X139950000Y-72922000D01*
X139950000Y-72925000D01*
X139950000Y-73075000D01*
X139950000Y-73078000D01*
X139950000Y-73080000D01*
X139949000Y-73083000D01*
X139949000Y-73085000D01*
X139948000Y-73088000D01*
X139948000Y-73090000D01*
X139947000Y-73093000D01*
X139946000Y-73095000D01*
X139945000Y-73098000D01*
X139943000Y-73100000D01*
X139942000Y-73102000D01*
X139940000Y-73104000D01*
X139939000Y-73106000D01*
X139937000Y-73108000D01*
X139935000Y-73110000D01*
X139933000Y-73112000D01*
X139931000Y-73114000D01*
X139929000Y-73115000D01*
X139927000Y-73117000D01*
X139925000Y-73118000D01*
X139923000Y-73120000D01*
X139920000Y-73121000D01*
X139918000Y-73122000D01*
X139915000Y-73123000D01*
X139913000Y-73123000D01*
X139910000Y-73124000D01*
X139908000Y-73124000D01*
X139905000Y-73125000D01*
X139903000Y-73125000D01*
X139900000Y-73125000D01*
X139450000Y-73125000D01*
X139447000Y-73125000D01*
X139445000Y-73125000D01*
X139442000Y-73124000D01*
X139440000Y-73124000D01*
X139437000Y-73123000D01*
X139435000Y-73123000D01*
X139432000Y-73122000D01*
X139430000Y-73121000D01*
X139427000Y-73120000D01*
X139425000Y-73118000D01*
X139423000Y-73117000D01*
X139421000Y-73115000D01*
X139419000Y-73114000D01*
X139417000Y-73112000D01*
X139415000Y-73110000D01*
X139413000Y-73108000D01*
X139411000Y-73106000D01*
X139410000Y-73104000D01*
X139408000Y-73102000D01*
X139407000Y-73100000D01*
X139405000Y-73098000D01*
X139404000Y-73095000D01*
X139403000Y-73093000D01*
X139402000Y-73090000D01*
X139402000Y-73088000D01*
X139401000Y-73085000D01*
X139401000Y-73083000D01*
X139400000Y-73080000D01*
X139400000Y-73078000D01*
X139400000Y-73075000D01*
X139400000Y-72925000D01*
X139400000Y-72922000D01*
X139400000Y-72920000D01*
X139401000Y-72917000D01*
X139401000Y-72915000D01*
X139402000Y-72912000D01*
X139402000Y-72910000D01*
X139403000Y-72907000D01*
X139404000Y-72905000D01*
X139405000Y-72902000D01*
X139407000Y-72900000D01*
X139408000Y-72898000D01*
X139410000Y-72896000D01*
X139411000Y-72894000D01*
X139413000Y-72892000D01*
X139415000Y-72890000D01*
X139417000Y-72888000D01*
X139419000Y-72886000D01*
X139421000Y-72885000D01*
X139423000Y-72883000D01*
X139425000Y-72882000D01*
X139427000Y-72880000D01*
X139430000Y-72879000D01*
X139432000Y-72878000D01*
X139435000Y-72877000D01*
X139437000Y-72877000D01*
X139440000Y-72876000D01*
X139442000Y-72876000D01*
X139445000Y-72875000D01*
X139447000Y-72875000D01*
X139450000Y-72875000D01*
X139900000Y-72875000D01*
X139903000Y-72875000D01*
X139905000Y-72875000D01*
X139908000Y-72876000D01*
G37*
%TO.C,U3*%
X141280000Y-65910000D02*
X140720000Y-65910000D01*
X140720000Y-65090000D01*
X141280000Y-65090000D01*
X141280000Y-65910000D01*
G36*
X141280000Y-65910000D02*
G01*
X140720000Y-65910000D01*
X140720000Y-65090000D01*
X141280000Y-65090000D01*
X141280000Y-65910000D01*
G37*
%TD*%
D11*
%TO.C,R29*%
X130500000Y-97020000D03*
X130500000Y-96000000D03*
%TD*%
D12*
%TO.C,D2*%
X127000000Y-97500000D03*
X127000000Y-100800000D03*
%TD*%
D13*
%TO.C,C4*%
X147000000Y-66600000D03*
X147000000Y-68500000D03*
%TD*%
%TO.C,C12*%
X149000000Y-81500000D03*
X149000000Y-83400000D03*
%TD*%
D14*
%TO.C,R16*%
X140500000Y-81500000D03*
X140500000Y-82520000D03*
%TD*%
D15*
%TO.C,C9*%
X135750000Y-94750000D03*
X137650000Y-94750000D03*
%TD*%
%TO.C,C7*%
X134050000Y-70000000D03*
X135950000Y-70000000D03*
%TD*%
D16*
%TO.C,U6*%
X148250000Y-85200000D03*
X147250000Y-85200000D03*
X146250000Y-85200000D03*
X145250000Y-85200000D03*
X144250000Y-85200000D03*
X144250000Y-90300000D03*
X145250000Y-90300000D03*
X146250000Y-90300000D03*
X147250000Y-90300000D03*
X148250000Y-90300000D03*
%TD*%
D17*
%TO.C,U1*%
X151500000Y-71750000D03*
X151500000Y-73020000D03*
X151500000Y-74290000D03*
X151500000Y-75560000D03*
X151500000Y-76830000D03*
X151500000Y-78100000D03*
X151500000Y-79370000D03*
X151500000Y-80640000D03*
X151500000Y-81910000D03*
X151500000Y-83180000D03*
X151500000Y-84450000D03*
X151500000Y-85720000D03*
X151500000Y-86990000D03*
X151500000Y-88260000D03*
X169000000Y-88260000D03*
X169000000Y-86990000D03*
X169000000Y-85720000D03*
X169000000Y-84450000D03*
X169000000Y-83180000D03*
X169000000Y-81910000D03*
X169000000Y-80640000D03*
X169000000Y-79370000D03*
X169000000Y-78100000D03*
X169000000Y-76830000D03*
X169000000Y-75560000D03*
X169000000Y-74290000D03*
X169000000Y-73020000D03*
X169000000Y-71750000D03*
D18*
X157495000Y-76220000D03*
X157495000Y-77470000D03*
X157495000Y-78720000D03*
X158745000Y-76220000D03*
X158745000Y-77470000D03*
X158745000Y-78720000D03*
X159995000Y-76220000D03*
X159995000Y-77470000D03*
X159995000Y-78720000D03*
%TD*%
D19*
%TO.C,C6*%
X131500000Y-82500000D03*
X129600000Y-82500000D03*
%TD*%
%TO.C,C1*%
X136700000Y-65750000D03*
X134800000Y-65750000D03*
%TD*%
%TO.C,C8*%
X131700000Y-93500000D03*
X129800000Y-93500000D03*
%TD*%
D20*
%TO.C,U7*%
X137850000Y-72000000D03*
X137850000Y-72500000D03*
X137850000Y-73000000D03*
X137850000Y-73500000D03*
X137850000Y-74000000D03*
D21*
X139500000Y-74000000D03*
X139500000Y-73500000D03*
X139500000Y-72500000D03*
X139500000Y-72000000D03*
%TD*%
D19*
%TO.C,C11*%
X142450000Y-91000000D03*
X140550000Y-91000000D03*
%TD*%
D22*
%TO.C,L1*%
X139750000Y-77500000D03*
X142120000Y-77500000D03*
%TD*%
D23*
%TO.C,Q2*%
X173000000Y-98000000D03*
X173000000Y-96100000D03*
X171125000Y-97050000D03*
%TD*%
D24*
%TO.C,R21*%
X173000000Y-93500000D03*
X171980000Y-93500000D03*
%TD*%
D11*
%TO.C,R26*%
X160000000Y-95020000D03*
X160000000Y-94000000D03*
%TD*%
D25*
%TO.C,R3*%
X135990000Y-79500000D03*
X137010000Y-79500000D03*
%TD*%
D26*
%TO.C,U2*%
X135750000Y-75500000D03*
D27*
X136550000Y-74400000D03*
X136150000Y-74400000D03*
X135750000Y-74400000D03*
X135350000Y-74400000D03*
X134950000Y-74400000D03*
X134950000Y-76600000D03*
X135350000Y-76600000D03*
X135750000Y-76600000D03*
X136150000Y-76600000D03*
X136550000Y-76600000D03*
%TD*%
D11*
%TO.C,R1*%
X137750000Y-76520000D03*
X137750000Y-75500000D03*
%TD*%
%TO.C,R25*%
X161500000Y-95020000D03*
X161500000Y-94000000D03*
%TD*%
%TO.C,R2*%
X133500000Y-80520000D03*
X133500000Y-79500000D03*
%TD*%
D24*
%TO.C,R14*%
X137010000Y-93000000D03*
X135990000Y-93000000D03*
%TD*%
D11*
%TO.C,R27*%
X158500000Y-95020000D03*
X158500000Y-94000000D03*
%TD*%
D24*
%TO.C,R18*%
X172000000Y-99500000D03*
X170980000Y-99500000D03*
%TD*%
D28*
%TO.C,U5*%
X138790000Y-86000000D03*
X137520000Y-86000000D03*
X136250000Y-86000000D03*
X134980000Y-86000000D03*
X134980000Y-90950000D03*
X136250000Y-90950000D03*
X137520000Y-90950000D03*
X138790000Y-90950000D03*
%TD*%
D11*
%TO.C,R23*%
X155500000Y-95020000D03*
X155500000Y-94000000D03*
%TD*%
%TO.C,R24*%
X154000000Y-95020000D03*
X154000000Y-94000000D03*
%TD*%
%TO.C,R22*%
X157000000Y-95020000D03*
X157000000Y-94000000D03*
%TD*%
D29*
%TO.C,J2*%
X131565000Y-74375000D03*
D30*
X131565000Y-76395000D03*
D31*
X131565000Y-77625000D03*
D32*
X131565000Y-75375000D03*
D33*
X131565000Y-73355000D03*
D34*
X131565000Y-72125000D03*
D35*
X131485000Y-70555000D03*
X127685000Y-70555000D03*
X131485000Y-79195000D03*
X127685000Y-79195000D03*
%TD*%
D11*
%TO.C,R4*%
X147500000Y-77010000D03*
X147500000Y-75990000D03*
%TD*%
D19*
%TO.C,C13*%
X142450000Y-88250000D03*
X140550000Y-88250000D03*
%TD*%
D15*
%TO.C,C14*%
X138000000Y-70000000D03*
X139900000Y-70000000D03*
%TD*%
D14*
%TO.C,R9*%
X133500000Y-73990000D03*
X133500000Y-75010000D03*
%TD*%
D11*
%TO.C,R5*%
X145500000Y-77510000D03*
X145500000Y-76490000D03*
%TD*%
D24*
%TO.C,R11*%
X137520000Y-84000000D03*
X136500000Y-84000000D03*
%TD*%
D25*
%TO.C,R19*%
X148490000Y-92510000D03*
X149510000Y-92510000D03*
%TD*%
D36*
%TO.C,U3*%
X140015000Y-64750000D03*
X140015000Y-65250000D03*
X140015000Y-65750000D03*
X140015000Y-66250000D03*
X141985000Y-66250000D03*
X141985000Y-65750000D03*
X141985000Y-65250000D03*
X141985000Y-64750000D03*
%TD*%
D14*
%TO.C,R13*%
X139000000Y-82990000D03*
X139000000Y-84010000D03*
%TD*%
D11*
%TO.C,R10*%
X133500000Y-77260000D03*
X133500000Y-76240000D03*
%TD*%
%TO.C,R6*%
X141500000Y-70520000D03*
X141500000Y-69500000D03*
%TD*%
M02*
