M48
; DRILL file {KiCad 9.0.7} date 2026-02-20T23:50:41+0100
; FORMAT={-:-/ absolute / inch / decimal}
; #@! TF.CreationDate,2026-02-20T23:50:41+01:00
; #@! TF.GenerationSoftware,Kicad,Pcbnew,9.0.7
; #@! TF.FileFunction,Plated,1,2,PTH
FMAT,2
INCH
; #@! TA.AperFunction,Plated,PTH,ComponentDrill
T1C0.0079
; #@! TA.AperFunction,Plated,PTH,ViaDrill
T2C0.0118
; #@! TA.AperFunction,Plated,PTH,ViaDrill
T3C0.0157
; #@! TA.AperFunction,Plated,PTH,ComponentDrill
T4C0.0236
; #@! TA.AperFunction,Plated,PTH,ComponentDrill
T5C0.0295
; #@! TA.AperFunction,Plated,PTH,ComponentDrill
T6C0.0354
; #@! TA.AperFunction,Plated,PTH,ComponentDrill
T7C0.0394
; #@! TA.AperFunction,Plated,PTH,ComponentDrill
T8C0.0433
; #@! TA.AperFunction,Plated,PTH,ComponentDrill
T9C0.0472
%
G90
G05
T1
X5.3248Y-2.9724
X5.3642Y-2.9724
T2
X5.0984Y-3.0512
X5.2806Y-3.0856
X5.2953Y-3.0512
X5.3543Y-3.0819
X5.3897Y-2.8583
X5.4106Y-3.4589
X5.4132Y-3.0967
X5.4291Y-3.0512
X5.4528Y-2.8739
X5.4567Y-2.9254
X5.4724Y-3.4449
X5.4921Y-3.2087
X5.5512Y-2.8346
X5.5709Y-2.7764
X5.6629Y-3.2416
X5.6693Y-3.0512
X5.748Y-3.248
X5.7677Y-3.0118
X5.8071Y-3.1299
X5.9055Y-3.0118
X5.9055Y-3.0748
X5.9646Y-2.9748
X6.1024Y-2.8937
X6.1145Y-3.3071
X6.5748Y-3.5433
T3
X5.5118Y-3.6417
X6.5748Y-3.1299
T5
X5.1667Y-2.4705
X5.1667Y-2.5492
T6
X5.9646Y-3.8344
X5.9646Y-3.8844
X5.9646Y-3.9344
X5.9646Y-3.9844
X6.25Y-3.8344
X6.25Y-3.8844
X6.25Y-3.9344
X6.25Y-3.9844
T7
X6.1189Y-2.4437
X6.2189Y-2.4437
X6.3189Y-2.4437
X6.8057Y-2.839
X6.8057Y-2.939
X6.8057Y-3.039
X6.8057Y-3.139
X6.8057Y-3.239
X6.8057Y-3.339
X6.8057Y-3.439
X6.8057Y-3.539
T8
X6.4567Y-3.6614
X6.4567Y-3.9173
X6.6339Y-3.6614
X6.6339Y-3.9173
T9
X5.1083Y-3.3858
X5.1083Y-3.5236
X5.5906Y-3.8287
X5.7283Y-3.8287
T4
G00X5.0388Y-2.7778
M15
G01X5.0152Y-2.7778
M16
G05
G00X5.0388Y-3.1179
M15
G01X5.0152Y-3.1179
M16
G05
G00X5.1884Y-2.7778
M15
G01X5.1648Y-2.7778
M16
G05
G00X5.1884Y-3.1179
M15
G01X5.1648Y-3.1179
M16
G05
M30
