%TF.GenerationSoftware,KiCad,Pcbnew,9.0.7*%
%TF.CreationDate,2026-02-20T23:50:41+01:00*%
%TF.ProjectId,Accordeur,4163636f-7264-4657-9572-2e6b69636164,rev?*%
%TF.SameCoordinates,Original*%
%TF.FileFunction,Legend,Top*%
%TF.FilePolarity,Positive*%
%FSLAX46Y46*%
G04 Gerber Fmt 4.6, Leading zero omitted, Abs format (unit mm)*
G04 Created by KiCad (PCBNEW 9.0.7) date 2026-02-20 23:50:41*
%MOMM*%
%LPD*%
G01*
G04 APERTURE LIST*
G04 Aperture macros list*
%AMRoundRect*
0 Rectangle with rounded corners*
0 $1 Rounding radius*
0 $2 $3 $4 $5 $6 $7 $8 $9 X,Y pos of 4 corners*
0 Add a 4 corners polygon primitive as box body*
4,1,4,$2,$3,$4,$5,$6,$7,$8,$9,$2,$3,0*
0 Add four circle primitives for the rounded corners*
1,1,$1+$1,$2,$3*
1,1,$1+$1,$4,$5*
1,1,$1+$1,$6,$7*
1,1,$1+$1,$8,$9*
0 Add four rect primitives between the rounded corners*
20,1,$1+$1,$2,$3,$4,$5,0*
20,1,$1+$1,$4,$5,$6,$7,0*
20,1,$1+$1,$6,$7,$8,$9,0*
20,1,$1+$1,$8,$9,$2,$3,0*%
G04 Aperture macros list end*
%ADD10C,0.150000*%
%ADD11C,0.160000*%
%ADD12C,0.120000*%
%ADD13C,0.127000*%
%ADD14C,0.200000*%
%ADD15C,0.010000*%
%ADD16RoundRect,0.135000X0.185000X-0.135000X0.185000X0.135000X-0.185000X0.135000X-0.185000X-0.135000X0*%
%ADD17RoundRect,0.225000X-0.375000X0.225000X-0.375000X-0.225000X0.375000X-0.225000X0.375000X0.225000X0*%
%ADD18RoundRect,0.250000X-0.475000X0.250000X-0.475000X-0.250000X0.475000X-0.250000X0.475000X0.250000X0*%
%ADD19RoundRect,0.135000X-0.185000X0.135000X-0.185000X-0.135000X0.185000X-0.135000X0.185000X0.135000X0*%
%ADD20RoundRect,0.250000X-0.250000X-0.475000X0.250000X-0.475000X0.250000X0.475000X-0.250000X0.475000X0*%
%ADD21R,1.800000X1.070000*%
%ADD22O,1.800000X1.070000*%
%ADD23R,0.510000X1.100000*%
%ADD24RoundRect,0.250000X-0.625000X0.350000X-0.625000X-0.350000X0.625000X-0.350000X0.625000X0.350000X0*%
%ADD25O,1.750000X1.200000*%
%ADD26R,1.500000X0.900000*%
%ADD27R,0.800000X0.800000*%
%ADD28RoundRect,0.250000X0.250000X0.475000X-0.250000X0.475000X-0.250000X-0.475000X0.250000X-0.475000X0*%
%ADD29RoundRect,0.245000X-0.245000X-1.455000X0.245000X-1.455000X0.245000X1.455000X-0.245000X1.455000X0*%
%ADD30RoundRect,0.150000X0.587500X0.150000X-0.587500X0.150000X-0.587500X-0.150000X0.587500X-0.150000X0*%
%ADD31RoundRect,0.135000X0.135000X0.185000X-0.135000X0.185000X-0.135000X-0.185000X0.135000X-0.185000X0*%
%ADD32RoundRect,0.135000X-0.135000X-0.185000X0.135000X-0.185000X0.135000X0.185000X-0.135000X0.185000X0*%
%ADD33C,2.200000*%
%ADD34RoundRect,0.050000X-0.050000X0.325000X-0.050000X-0.325000X0.050000X-0.325000X0.050000X0.325000X0*%
%ADD35R,1.700000X1.700000*%
%ADD36C,1.700000*%
%ADD37RoundRect,0.250001X-0.949999X0.949999X-0.949999X-0.949999X0.949999X-0.949999X0.949999X0.949999X0*%
%ADD38C,2.400000*%
%ADD39RoundRect,0.250001X-0.949999X-0.949999X0.949999X-0.949999X0.949999X0.949999X-0.949999X0.949999X0*%
%ADD40RoundRect,0.150000X-0.150000X0.825000X-0.150000X-0.825000X0.150000X-0.825000X0.150000X0.825000X0*%
%ADD41RoundRect,0.175000X-0.425000X0.175000X-0.425000X-0.175000X0.425000X-0.175000X0.425000X0.175000X0*%
%ADD42RoundRect,0.190000X0.410000X-0.190000X0.410000X0.190000X-0.410000X0.190000X-0.410000X-0.190000X0*%
%ADD43RoundRect,0.200000X0.400000X-0.200000X0.400000X0.200000X-0.400000X0.200000X-0.400000X-0.200000X0*%
%ADD44RoundRect,0.175000X0.425000X-0.175000X0.425000X0.175000X-0.425000X0.175000X-0.425000X-0.175000X0*%
%ADD45RoundRect,0.190000X-0.410000X0.190000X-0.410000X-0.190000X0.410000X-0.190000X0.410000X0.190000X0*%
%ADD46RoundRect,0.200000X-0.400000X0.200000X-0.400000X-0.200000X0.400000X-0.200000X0.400000X0.200000X0*%
%ADD47O,1.700000X1.100000*%
%ADD48RoundRect,0.033750X-0.346250X-0.101250X0.346250X-0.101250X0.346250X0.101250X-0.346250X0.101250X0*%
%ADD49R,0.900000X1.300000*%
%ADD50C,2.000000*%
G04 APERTURE END LIST*
D10*
X131857142Y-96954819D02*
X131523809Y-96478628D01*
X131285714Y-96954819D02*
X131285714Y-95954819D01*
X131285714Y-95954819D02*
X131666666Y-95954819D01*
X131666666Y-95954819D02*
X131761904Y-96002438D01*
X131761904Y-96002438D02*
X131809523Y-96050057D01*
X131809523Y-96050057D02*
X131857142Y-96145295D01*
X131857142Y-96145295D02*
X131857142Y-96288152D01*
X131857142Y-96288152D02*
X131809523Y-96383390D01*
X131809523Y-96383390D02*
X131761904Y-96431009D01*
X131761904Y-96431009D02*
X131666666Y-96478628D01*
X131666666Y-96478628D02*
X131285714Y-96478628D01*
X132238095Y-96050057D02*
X132285714Y-96002438D01*
X132285714Y-96002438D02*
X132380952Y-95954819D01*
X132380952Y-95954819D02*
X132619047Y-95954819D01*
X132619047Y-95954819D02*
X132714285Y-96002438D01*
X132714285Y-96002438D02*
X132761904Y-96050057D01*
X132761904Y-96050057D02*
X132809523Y-96145295D01*
X132809523Y-96145295D02*
X132809523Y-96240533D01*
X132809523Y-96240533D02*
X132761904Y-96383390D01*
X132761904Y-96383390D02*
X132190476Y-96954819D01*
X132190476Y-96954819D02*
X132809523Y-96954819D01*
X133285714Y-96954819D02*
X133476190Y-96954819D01*
X133476190Y-96954819D02*
X133571428Y-96907200D01*
X133571428Y-96907200D02*
X133619047Y-96859580D01*
X133619047Y-96859580D02*
X133714285Y-96716723D01*
X133714285Y-96716723D02*
X133761904Y-96526247D01*
X133761904Y-96526247D02*
X133761904Y-96145295D01*
X133761904Y-96145295D02*
X133714285Y-96050057D01*
X133714285Y-96050057D02*
X133666666Y-96002438D01*
X133666666Y-96002438D02*
X133571428Y-95954819D01*
X133571428Y-95954819D02*
X133380952Y-95954819D01*
X133380952Y-95954819D02*
X133285714Y-96002438D01*
X133285714Y-96002438D02*
X133238095Y-96050057D01*
X133238095Y-96050057D02*
X133190476Y-96145295D01*
X133190476Y-96145295D02*
X133190476Y-96383390D01*
X133190476Y-96383390D02*
X133238095Y-96478628D01*
X133238095Y-96478628D02*
X133285714Y-96526247D01*
X133285714Y-96526247D02*
X133380952Y-96573866D01*
X133380952Y-96573866D02*
X133571428Y-96573866D01*
X133571428Y-96573866D02*
X133666666Y-96526247D01*
X133666666Y-96526247D02*
X133714285Y-96478628D01*
X133714285Y-96478628D02*
X133761904Y-96383390D01*
X126761905Y-103454819D02*
X126761905Y-102454819D01*
X126761905Y-102454819D02*
X127000000Y-102454819D01*
X127000000Y-102454819D02*
X127142857Y-102502438D01*
X127142857Y-102502438D02*
X127238095Y-102597676D01*
X127238095Y-102597676D02*
X127285714Y-102692914D01*
X127285714Y-102692914D02*
X127333333Y-102883390D01*
X127333333Y-102883390D02*
X127333333Y-103026247D01*
X127333333Y-103026247D02*
X127285714Y-103216723D01*
X127285714Y-103216723D02*
X127238095Y-103311961D01*
X127238095Y-103311961D02*
X127142857Y-103407200D01*
X127142857Y-103407200D02*
X127000000Y-103454819D01*
X127000000Y-103454819D02*
X126761905Y-103454819D01*
X127714286Y-102550057D02*
X127761905Y-102502438D01*
X127761905Y-102502438D02*
X127857143Y-102454819D01*
X127857143Y-102454819D02*
X128095238Y-102454819D01*
X128095238Y-102454819D02*
X128190476Y-102502438D01*
X128190476Y-102502438D02*
X128238095Y-102550057D01*
X128238095Y-102550057D02*
X128285714Y-102645295D01*
X128285714Y-102645295D02*
X128285714Y-102740533D01*
X128285714Y-102740533D02*
X128238095Y-102883390D01*
X128238095Y-102883390D02*
X127666667Y-103454819D01*
X127666667Y-103454819D02*
X128285714Y-103454819D01*
D11*
X148866667Y-67909060D02*
X148828571Y-67956680D01*
X148828571Y-67956680D02*
X148714286Y-68004299D01*
X148714286Y-68004299D02*
X148638095Y-68004299D01*
X148638095Y-68004299D02*
X148523809Y-67956680D01*
X148523809Y-67956680D02*
X148447619Y-67861441D01*
X148447619Y-67861441D02*
X148409524Y-67766203D01*
X148409524Y-67766203D02*
X148371428Y-67575727D01*
X148371428Y-67575727D02*
X148371428Y-67432870D01*
X148371428Y-67432870D02*
X148409524Y-67242394D01*
X148409524Y-67242394D02*
X148447619Y-67147156D01*
X148447619Y-67147156D02*
X148523809Y-67051918D01*
X148523809Y-67051918D02*
X148638095Y-67004299D01*
X148638095Y-67004299D02*
X148714286Y-67004299D01*
X148714286Y-67004299D02*
X148828571Y-67051918D01*
X148828571Y-67051918D02*
X148866667Y-67099537D01*
X149552381Y-67337632D02*
X149552381Y-68004299D01*
X149361905Y-66956680D02*
X149171428Y-67670965D01*
X149171428Y-67670965D02*
X149666667Y-67670965D01*
X145985714Y-81359060D02*
X145947618Y-81406680D01*
X145947618Y-81406680D02*
X145833333Y-81454299D01*
X145833333Y-81454299D02*
X145757142Y-81454299D01*
X145757142Y-81454299D02*
X145642856Y-81406680D01*
X145642856Y-81406680D02*
X145566666Y-81311441D01*
X145566666Y-81311441D02*
X145528571Y-81216203D01*
X145528571Y-81216203D02*
X145490475Y-81025727D01*
X145490475Y-81025727D02*
X145490475Y-80882870D01*
X145490475Y-80882870D02*
X145528571Y-80692394D01*
X145528571Y-80692394D02*
X145566666Y-80597156D01*
X145566666Y-80597156D02*
X145642856Y-80501918D01*
X145642856Y-80501918D02*
X145757142Y-80454299D01*
X145757142Y-80454299D02*
X145833333Y-80454299D01*
X145833333Y-80454299D02*
X145947618Y-80501918D01*
X145947618Y-80501918D02*
X145985714Y-80549537D01*
X146747618Y-81454299D02*
X146290475Y-81454299D01*
X146519047Y-81454299D02*
X146519047Y-80454299D01*
X146519047Y-80454299D02*
X146442856Y-80597156D01*
X146442856Y-80597156D02*
X146366666Y-80692394D01*
X146366666Y-80692394D02*
X146290475Y-80740013D01*
X147052380Y-80549537D02*
X147090476Y-80501918D01*
X147090476Y-80501918D02*
X147166666Y-80454299D01*
X147166666Y-80454299D02*
X147357142Y-80454299D01*
X147357142Y-80454299D02*
X147433333Y-80501918D01*
X147433333Y-80501918D02*
X147471428Y-80549537D01*
X147471428Y-80549537D02*
X147509523Y-80644775D01*
X147509523Y-80644775D02*
X147509523Y-80740013D01*
X147509523Y-80740013D02*
X147471428Y-80882870D01*
X147471428Y-80882870D02*
X147014285Y-81454299D01*
X147014285Y-81454299D02*
X147509523Y-81454299D01*
X133866667Y-95359060D02*
X133828571Y-95406680D01*
X133828571Y-95406680D02*
X133714286Y-95454299D01*
X133714286Y-95454299D02*
X133638095Y-95454299D01*
X133638095Y-95454299D02*
X133523809Y-95406680D01*
X133523809Y-95406680D02*
X133447619Y-95311441D01*
X133447619Y-95311441D02*
X133409524Y-95216203D01*
X133409524Y-95216203D02*
X133371428Y-95025727D01*
X133371428Y-95025727D02*
X133371428Y-94882870D01*
X133371428Y-94882870D02*
X133409524Y-94692394D01*
X133409524Y-94692394D02*
X133447619Y-94597156D01*
X133447619Y-94597156D02*
X133523809Y-94501918D01*
X133523809Y-94501918D02*
X133638095Y-94454299D01*
X133638095Y-94454299D02*
X133714286Y-94454299D01*
X133714286Y-94454299D02*
X133828571Y-94501918D01*
X133828571Y-94501918D02*
X133866667Y-94549537D01*
X134247619Y-95454299D02*
X134400000Y-95454299D01*
X134400000Y-95454299D02*
X134476190Y-95406680D01*
X134476190Y-95406680D02*
X134514286Y-95359060D01*
X134514286Y-95359060D02*
X134590476Y-95216203D01*
X134590476Y-95216203D02*
X134628571Y-95025727D01*
X134628571Y-95025727D02*
X134628571Y-94644775D01*
X134628571Y-94644775D02*
X134590476Y-94549537D01*
X134590476Y-94549537D02*
X134552381Y-94501918D01*
X134552381Y-94501918D02*
X134476190Y-94454299D01*
X134476190Y-94454299D02*
X134323809Y-94454299D01*
X134323809Y-94454299D02*
X134247619Y-94501918D01*
X134247619Y-94501918D02*
X134209524Y-94549537D01*
X134209524Y-94549537D02*
X134171428Y-94644775D01*
X134171428Y-94644775D02*
X134171428Y-94882870D01*
X134171428Y-94882870D02*
X134209524Y-94978108D01*
X134209524Y-94978108D02*
X134247619Y-95025727D01*
X134247619Y-95025727D02*
X134323809Y-95073346D01*
X134323809Y-95073346D02*
X134476190Y-95073346D01*
X134476190Y-95073346D02*
X134552381Y-95025727D01*
X134552381Y-95025727D02*
X134590476Y-94978108D01*
X134590476Y-94978108D02*
X134628571Y-94882870D01*
X133366667Y-68679060D02*
X133328571Y-68726680D01*
X133328571Y-68726680D02*
X133214286Y-68774299D01*
X133214286Y-68774299D02*
X133138095Y-68774299D01*
X133138095Y-68774299D02*
X133023809Y-68726680D01*
X133023809Y-68726680D02*
X132947619Y-68631441D01*
X132947619Y-68631441D02*
X132909524Y-68536203D01*
X132909524Y-68536203D02*
X132871428Y-68345727D01*
X132871428Y-68345727D02*
X132871428Y-68202870D01*
X132871428Y-68202870D02*
X132909524Y-68012394D01*
X132909524Y-68012394D02*
X132947619Y-67917156D01*
X132947619Y-67917156D02*
X133023809Y-67821918D01*
X133023809Y-67821918D02*
X133138095Y-67774299D01*
X133138095Y-67774299D02*
X133214286Y-67774299D01*
X133214286Y-67774299D02*
X133328571Y-67821918D01*
X133328571Y-67821918D02*
X133366667Y-67869537D01*
X133633333Y-67774299D02*
X134166667Y-67774299D01*
X134166667Y-67774299D02*
X133823809Y-68774299D01*
X157266666Y-103454299D02*
X156885714Y-103454299D01*
X156885714Y-103454299D02*
X156885714Y-102454299D01*
X157342857Y-103549537D02*
X157952380Y-103549537D01*
X158142857Y-103454299D02*
X158142857Y-102454299D01*
X158523809Y-103454299D02*
X158523809Y-102454299D01*
X158523809Y-102454299D02*
X158980952Y-103454299D01*
X158980952Y-103454299D02*
X158980952Y-102454299D01*
X159323808Y-103406680D02*
X159438094Y-103454299D01*
X159438094Y-103454299D02*
X159628570Y-103454299D01*
X159628570Y-103454299D02*
X159704761Y-103406680D01*
X159704761Y-103406680D02*
X159742856Y-103359060D01*
X159742856Y-103359060D02*
X159780951Y-103263822D01*
X159780951Y-103263822D02*
X159780951Y-103168584D01*
X159780951Y-103168584D02*
X159742856Y-103073346D01*
X159742856Y-103073346D02*
X159704761Y-103025727D01*
X159704761Y-103025727D02*
X159628570Y-102978108D01*
X159628570Y-102978108D02*
X159476189Y-102930489D01*
X159476189Y-102930489D02*
X159399999Y-102882870D01*
X159399999Y-102882870D02*
X159361904Y-102835251D01*
X159361904Y-102835251D02*
X159323808Y-102740013D01*
X159323808Y-102740013D02*
X159323808Y-102644775D01*
X159323808Y-102644775D02*
X159361904Y-102549537D01*
X159361904Y-102549537D02*
X159399999Y-102501918D01*
X159399999Y-102501918D02*
X159476189Y-102454299D01*
X159476189Y-102454299D02*
X159666666Y-102454299D01*
X159666666Y-102454299D02*
X159780951Y-102501918D01*
X160009523Y-102454299D02*
X160466666Y-102454299D01*
X160238094Y-103454299D02*
X160238094Y-102454299D01*
X161152380Y-103454299D02*
X160695237Y-103454299D01*
X160923809Y-103454299D02*
X160923809Y-102454299D01*
X160923809Y-102454299D02*
X160847618Y-102597156D01*
X160847618Y-102597156D02*
X160771428Y-102692394D01*
X160771428Y-102692394D02*
X160695237Y-102740013D01*
X143890476Y-82954299D02*
X143890476Y-83763822D01*
X143890476Y-83763822D02*
X143928571Y-83859060D01*
X143928571Y-83859060D02*
X143966666Y-83906680D01*
X143966666Y-83906680D02*
X144042857Y-83954299D01*
X144042857Y-83954299D02*
X144195238Y-83954299D01*
X144195238Y-83954299D02*
X144271428Y-83906680D01*
X144271428Y-83906680D02*
X144309523Y-83859060D01*
X144309523Y-83859060D02*
X144347619Y-83763822D01*
X144347619Y-83763822D02*
X144347619Y-82954299D01*
X145071428Y-82954299D02*
X144919047Y-82954299D01*
X144919047Y-82954299D02*
X144842856Y-83001918D01*
X144842856Y-83001918D02*
X144804761Y-83049537D01*
X144804761Y-83049537D02*
X144728571Y-83192394D01*
X144728571Y-83192394D02*
X144690475Y-83382870D01*
X144690475Y-83382870D02*
X144690475Y-83763822D01*
X144690475Y-83763822D02*
X144728571Y-83859060D01*
X144728571Y-83859060D02*
X144766666Y-83906680D01*
X144766666Y-83906680D02*
X144842856Y-83954299D01*
X144842856Y-83954299D02*
X144995237Y-83954299D01*
X144995237Y-83954299D02*
X145071428Y-83906680D01*
X145071428Y-83906680D02*
X145109523Y-83859060D01*
X145109523Y-83859060D02*
X145147618Y-83763822D01*
X145147618Y-83763822D02*
X145147618Y-83525727D01*
X145147618Y-83525727D02*
X145109523Y-83430489D01*
X145109523Y-83430489D02*
X145071428Y-83382870D01*
X145071428Y-83382870D02*
X144995237Y-83335251D01*
X144995237Y-83335251D02*
X144842856Y-83335251D01*
X144842856Y-83335251D02*
X144766666Y-83382870D01*
X144766666Y-83382870D02*
X144728571Y-83430489D01*
X144728571Y-83430489D02*
X144690475Y-83525727D01*
X133819048Y-62359060D02*
X133780952Y-62406680D01*
X133780952Y-62406680D02*
X133666667Y-62454299D01*
X133666667Y-62454299D02*
X133590476Y-62454299D01*
X133590476Y-62454299D02*
X133476190Y-62406680D01*
X133476190Y-62406680D02*
X133400000Y-62311441D01*
X133400000Y-62311441D02*
X133361905Y-62216203D01*
X133361905Y-62216203D02*
X133323809Y-62025727D01*
X133323809Y-62025727D02*
X133323809Y-61882870D01*
X133323809Y-61882870D02*
X133361905Y-61692394D01*
X133361905Y-61692394D02*
X133400000Y-61597156D01*
X133400000Y-61597156D02*
X133476190Y-61501918D01*
X133476190Y-61501918D02*
X133590476Y-61454299D01*
X133590476Y-61454299D02*
X133666667Y-61454299D01*
X133666667Y-61454299D02*
X133780952Y-61501918D01*
X133780952Y-61501918D02*
X133819048Y-61549537D01*
X134428571Y-61930489D02*
X134542857Y-61978108D01*
X134542857Y-61978108D02*
X134580952Y-62025727D01*
X134580952Y-62025727D02*
X134619048Y-62120965D01*
X134619048Y-62120965D02*
X134619048Y-62263822D01*
X134619048Y-62263822D02*
X134580952Y-62359060D01*
X134580952Y-62359060D02*
X134542857Y-62406680D01*
X134542857Y-62406680D02*
X134466667Y-62454299D01*
X134466667Y-62454299D02*
X134161905Y-62454299D01*
X134161905Y-62454299D02*
X134161905Y-61454299D01*
X134161905Y-61454299D02*
X134428571Y-61454299D01*
X134428571Y-61454299D02*
X134504762Y-61501918D01*
X134504762Y-61501918D02*
X134542857Y-61549537D01*
X134542857Y-61549537D02*
X134580952Y-61644775D01*
X134580952Y-61644775D02*
X134580952Y-61740013D01*
X134580952Y-61740013D02*
X134542857Y-61835251D01*
X134542857Y-61835251D02*
X134504762Y-61882870D01*
X134504762Y-61882870D02*
X134428571Y-61930489D01*
X134428571Y-61930489D02*
X134161905Y-61930489D01*
X134923809Y-62168584D02*
X135304762Y-62168584D01*
X134847619Y-62454299D02*
X135114286Y-61454299D01*
X135114286Y-61454299D02*
X135380952Y-62454299D01*
X135533333Y-61454299D02*
X135990476Y-61454299D01*
X135761904Y-62454299D02*
X135761904Y-61454299D01*
X136676190Y-62454299D02*
X136219047Y-62454299D01*
X136447619Y-62454299D02*
X136447619Y-61454299D01*
X136447619Y-61454299D02*
X136371428Y-61597156D01*
X136371428Y-61597156D02*
X136295238Y-61692394D01*
X136295238Y-61692394D02*
X136219047Y-61740013D01*
X167890476Y-62454299D02*
X167890476Y-63263822D01*
X167890476Y-63263822D02*
X167928571Y-63359060D01*
X167928571Y-63359060D02*
X167966666Y-63406680D01*
X167966666Y-63406680D02*
X168042857Y-63454299D01*
X168042857Y-63454299D02*
X168195238Y-63454299D01*
X168195238Y-63454299D02*
X168271428Y-63406680D01*
X168271428Y-63406680D02*
X168309523Y-63359060D01*
X168309523Y-63359060D02*
X168347619Y-63263822D01*
X168347619Y-63263822D02*
X168347619Y-62454299D01*
X169147618Y-63454299D02*
X168690475Y-63454299D01*
X168919047Y-63454299D02*
X168919047Y-62454299D01*
X168919047Y-62454299D02*
X168842856Y-62597156D01*
X168842856Y-62597156D02*
X168766666Y-62692394D01*
X168766666Y-62692394D02*
X168690475Y-62740013D01*
X156440475Y-67428584D02*
X156821428Y-67428584D01*
X156364285Y-67714299D02*
X156630952Y-66714299D01*
X156630952Y-66714299D02*
X156897618Y-67714299D01*
X157164285Y-67047632D02*
X157164285Y-67714299D01*
X157164285Y-67142870D02*
X157202380Y-67095251D01*
X157202380Y-67095251D02*
X157278570Y-67047632D01*
X157278570Y-67047632D02*
X157392856Y-67047632D01*
X157392856Y-67047632D02*
X157469047Y-67095251D01*
X157469047Y-67095251D02*
X157507142Y-67190489D01*
X157507142Y-67190489D02*
X157507142Y-67714299D01*
X157773809Y-67047632D02*
X158078571Y-67047632D01*
X157888095Y-66714299D02*
X157888095Y-67571441D01*
X157888095Y-67571441D02*
X157926190Y-67666680D01*
X157926190Y-67666680D02*
X158002380Y-67714299D01*
X158002380Y-67714299D02*
X158078571Y-67714299D01*
X158650000Y-67666680D02*
X158573809Y-67714299D01*
X158573809Y-67714299D02*
X158421428Y-67714299D01*
X158421428Y-67714299D02*
X158345238Y-67666680D01*
X158345238Y-67666680D02*
X158307142Y-67571441D01*
X158307142Y-67571441D02*
X158307142Y-67190489D01*
X158307142Y-67190489D02*
X158345238Y-67095251D01*
X158345238Y-67095251D02*
X158421428Y-67047632D01*
X158421428Y-67047632D02*
X158573809Y-67047632D01*
X158573809Y-67047632D02*
X158650000Y-67095251D01*
X158650000Y-67095251D02*
X158688095Y-67190489D01*
X158688095Y-67190489D02*
X158688095Y-67285727D01*
X158688095Y-67285727D02*
X158307142Y-67380965D01*
X159030952Y-67047632D02*
X159030952Y-67714299D01*
X159030952Y-67142870D02*
X159069047Y-67095251D01*
X159069047Y-67095251D02*
X159145237Y-67047632D01*
X159145237Y-67047632D02*
X159259523Y-67047632D01*
X159259523Y-67047632D02*
X159335714Y-67095251D01*
X159335714Y-67095251D02*
X159373809Y-67190489D01*
X159373809Y-67190489D02*
X159373809Y-67714299D01*
X159754762Y-67047632D02*
X159754762Y-67714299D01*
X159754762Y-67142870D02*
X159792857Y-67095251D01*
X159792857Y-67095251D02*
X159869047Y-67047632D01*
X159869047Y-67047632D02*
X159983333Y-67047632D01*
X159983333Y-67047632D02*
X160059524Y-67095251D01*
X160059524Y-67095251D02*
X160097619Y-67190489D01*
X160097619Y-67190489D02*
X160097619Y-67714299D01*
X160821429Y-67714299D02*
X160821429Y-67190489D01*
X160821429Y-67190489D02*
X160783334Y-67095251D01*
X160783334Y-67095251D02*
X160707143Y-67047632D01*
X160707143Y-67047632D02*
X160554762Y-67047632D01*
X160554762Y-67047632D02*
X160478572Y-67095251D01*
X160821429Y-67666680D02*
X160745238Y-67714299D01*
X160745238Y-67714299D02*
X160554762Y-67714299D01*
X160554762Y-67714299D02*
X160478572Y-67666680D01*
X160478572Y-67666680D02*
X160440476Y-67571441D01*
X160440476Y-67571441D02*
X160440476Y-67476203D01*
X160440476Y-67476203D02*
X160478572Y-67380965D01*
X160478572Y-67380965D02*
X160554762Y-67333346D01*
X160554762Y-67333346D02*
X160745238Y-67333346D01*
X160745238Y-67333346D02*
X160821429Y-67285727D01*
X161773810Y-67428584D02*
X162154763Y-67428584D01*
X161697620Y-67714299D02*
X161964287Y-66714299D01*
X161964287Y-66714299D02*
X162230953Y-67714299D01*
X162497620Y-67714299D02*
X162497620Y-67047632D01*
X162497620Y-67238108D02*
X162535715Y-67142870D01*
X162535715Y-67142870D02*
X162573810Y-67095251D01*
X162573810Y-67095251D02*
X162650001Y-67047632D01*
X162650001Y-67047632D02*
X162726191Y-67047632D01*
X163297620Y-67666680D02*
X163221429Y-67714299D01*
X163221429Y-67714299D02*
X163069048Y-67714299D01*
X163069048Y-67714299D02*
X162992858Y-67666680D01*
X162992858Y-67666680D02*
X162954762Y-67571441D01*
X162954762Y-67571441D02*
X162954762Y-67190489D01*
X162954762Y-67190489D02*
X162992858Y-67095251D01*
X162992858Y-67095251D02*
X163069048Y-67047632D01*
X163069048Y-67047632D02*
X163221429Y-67047632D01*
X163221429Y-67047632D02*
X163297620Y-67095251D01*
X163297620Y-67095251D02*
X163335715Y-67190489D01*
X163335715Y-67190489D02*
X163335715Y-67285727D01*
X163335715Y-67285727D02*
X162954762Y-67380965D01*
X164021429Y-67714299D02*
X164021429Y-67190489D01*
X164021429Y-67190489D02*
X163983334Y-67095251D01*
X163983334Y-67095251D02*
X163907143Y-67047632D01*
X163907143Y-67047632D02*
X163754762Y-67047632D01*
X163754762Y-67047632D02*
X163678572Y-67095251D01*
X164021429Y-67666680D02*
X163945238Y-67714299D01*
X163945238Y-67714299D02*
X163754762Y-67714299D01*
X163754762Y-67714299D02*
X163678572Y-67666680D01*
X163678572Y-67666680D02*
X163640476Y-67571441D01*
X163640476Y-67571441D02*
X163640476Y-67476203D01*
X163640476Y-67476203D02*
X163678572Y-67380965D01*
X163678572Y-67380965D02*
X163754762Y-67333346D01*
X163754762Y-67333346D02*
X163945238Y-67333346D01*
X163945238Y-67333346D02*
X164021429Y-67285727D01*
X132866667Y-82859060D02*
X132828571Y-82906680D01*
X132828571Y-82906680D02*
X132714286Y-82954299D01*
X132714286Y-82954299D02*
X132638095Y-82954299D01*
X132638095Y-82954299D02*
X132523809Y-82906680D01*
X132523809Y-82906680D02*
X132447619Y-82811441D01*
X132447619Y-82811441D02*
X132409524Y-82716203D01*
X132409524Y-82716203D02*
X132371428Y-82525727D01*
X132371428Y-82525727D02*
X132371428Y-82382870D01*
X132371428Y-82382870D02*
X132409524Y-82192394D01*
X132409524Y-82192394D02*
X132447619Y-82097156D01*
X132447619Y-82097156D02*
X132523809Y-82001918D01*
X132523809Y-82001918D02*
X132638095Y-81954299D01*
X132638095Y-81954299D02*
X132714286Y-81954299D01*
X132714286Y-81954299D02*
X132828571Y-82001918D01*
X132828571Y-82001918D02*
X132866667Y-82049537D01*
X133552381Y-81954299D02*
X133400000Y-81954299D01*
X133400000Y-81954299D02*
X133323809Y-82001918D01*
X133323809Y-82001918D02*
X133285714Y-82049537D01*
X133285714Y-82049537D02*
X133209524Y-82192394D01*
X133209524Y-82192394D02*
X133171428Y-82382870D01*
X133171428Y-82382870D02*
X133171428Y-82763822D01*
X133171428Y-82763822D02*
X133209524Y-82859060D01*
X133209524Y-82859060D02*
X133247619Y-82906680D01*
X133247619Y-82906680D02*
X133323809Y-82954299D01*
X133323809Y-82954299D02*
X133476190Y-82954299D01*
X133476190Y-82954299D02*
X133552381Y-82906680D01*
X133552381Y-82906680D02*
X133590476Y-82859060D01*
X133590476Y-82859060D02*
X133628571Y-82763822D01*
X133628571Y-82763822D02*
X133628571Y-82525727D01*
X133628571Y-82525727D02*
X133590476Y-82430489D01*
X133590476Y-82430489D02*
X133552381Y-82382870D01*
X133552381Y-82382870D02*
X133476190Y-82335251D01*
X133476190Y-82335251D02*
X133323809Y-82335251D01*
X133323809Y-82335251D02*
X133247619Y-82382870D01*
X133247619Y-82382870D02*
X133209524Y-82430489D01*
X133209524Y-82430489D02*
X133171428Y-82525727D01*
X135616667Y-64359060D02*
X135578571Y-64406680D01*
X135578571Y-64406680D02*
X135464286Y-64454299D01*
X135464286Y-64454299D02*
X135388095Y-64454299D01*
X135388095Y-64454299D02*
X135273809Y-64406680D01*
X135273809Y-64406680D02*
X135197619Y-64311441D01*
X135197619Y-64311441D02*
X135159524Y-64216203D01*
X135159524Y-64216203D02*
X135121428Y-64025727D01*
X135121428Y-64025727D02*
X135121428Y-63882870D01*
X135121428Y-63882870D02*
X135159524Y-63692394D01*
X135159524Y-63692394D02*
X135197619Y-63597156D01*
X135197619Y-63597156D02*
X135273809Y-63501918D01*
X135273809Y-63501918D02*
X135388095Y-63454299D01*
X135388095Y-63454299D02*
X135464286Y-63454299D01*
X135464286Y-63454299D02*
X135578571Y-63501918D01*
X135578571Y-63501918D02*
X135616667Y-63549537D01*
X136378571Y-64454299D02*
X135921428Y-64454299D01*
X136150000Y-64454299D02*
X136150000Y-63454299D01*
X136150000Y-63454299D02*
X136073809Y-63597156D01*
X136073809Y-63597156D02*
X135997619Y-63692394D01*
X135997619Y-63692394D02*
X135921428Y-63740013D01*
X127366667Y-95359060D02*
X127328571Y-95406680D01*
X127328571Y-95406680D02*
X127214286Y-95454299D01*
X127214286Y-95454299D02*
X127138095Y-95454299D01*
X127138095Y-95454299D02*
X127023809Y-95406680D01*
X127023809Y-95406680D02*
X126947619Y-95311441D01*
X126947619Y-95311441D02*
X126909524Y-95216203D01*
X126909524Y-95216203D02*
X126871428Y-95025727D01*
X126871428Y-95025727D02*
X126871428Y-94882870D01*
X126871428Y-94882870D02*
X126909524Y-94692394D01*
X126909524Y-94692394D02*
X126947619Y-94597156D01*
X126947619Y-94597156D02*
X127023809Y-94501918D01*
X127023809Y-94501918D02*
X127138095Y-94454299D01*
X127138095Y-94454299D02*
X127214286Y-94454299D01*
X127214286Y-94454299D02*
X127328571Y-94501918D01*
X127328571Y-94501918D02*
X127366667Y-94549537D01*
X127823809Y-94882870D02*
X127747619Y-94835251D01*
X127747619Y-94835251D02*
X127709524Y-94787632D01*
X127709524Y-94787632D02*
X127671428Y-94692394D01*
X127671428Y-94692394D02*
X127671428Y-94644775D01*
X127671428Y-94644775D02*
X127709524Y-94549537D01*
X127709524Y-94549537D02*
X127747619Y-94501918D01*
X127747619Y-94501918D02*
X127823809Y-94454299D01*
X127823809Y-94454299D02*
X127976190Y-94454299D01*
X127976190Y-94454299D02*
X128052381Y-94501918D01*
X128052381Y-94501918D02*
X128090476Y-94549537D01*
X128090476Y-94549537D02*
X128128571Y-94644775D01*
X128128571Y-94644775D02*
X128128571Y-94692394D01*
X128128571Y-94692394D02*
X128090476Y-94787632D01*
X128090476Y-94787632D02*
X128052381Y-94835251D01*
X128052381Y-94835251D02*
X127976190Y-94882870D01*
X127976190Y-94882870D02*
X127823809Y-94882870D01*
X127823809Y-94882870D02*
X127747619Y-94930489D01*
X127747619Y-94930489D02*
X127709524Y-94978108D01*
X127709524Y-94978108D02*
X127671428Y-95073346D01*
X127671428Y-95073346D02*
X127671428Y-95263822D01*
X127671428Y-95263822D02*
X127709524Y-95359060D01*
X127709524Y-95359060D02*
X127747619Y-95406680D01*
X127747619Y-95406680D02*
X127823809Y-95454299D01*
X127823809Y-95454299D02*
X127976190Y-95454299D01*
X127976190Y-95454299D02*
X128052381Y-95406680D01*
X128052381Y-95406680D02*
X128090476Y-95359060D01*
X128090476Y-95359060D02*
X128128571Y-95263822D01*
X128128571Y-95263822D02*
X128128571Y-95073346D01*
X128128571Y-95073346D02*
X128090476Y-94978108D01*
X128090476Y-94978108D02*
X128052381Y-94930489D01*
X128052381Y-94930489D02*
X127976190Y-94882870D01*
X141890476Y-71454299D02*
X141890476Y-72263822D01*
X141890476Y-72263822D02*
X141928571Y-72359060D01*
X141928571Y-72359060D02*
X141966666Y-72406680D01*
X141966666Y-72406680D02*
X142042857Y-72454299D01*
X142042857Y-72454299D02*
X142195238Y-72454299D01*
X142195238Y-72454299D02*
X142271428Y-72406680D01*
X142271428Y-72406680D02*
X142309523Y-72359060D01*
X142309523Y-72359060D02*
X142347619Y-72263822D01*
X142347619Y-72263822D02*
X142347619Y-71454299D01*
X142652380Y-71454299D02*
X143185714Y-71454299D01*
X143185714Y-71454299D02*
X142842856Y-72454299D01*
X143485714Y-92859060D02*
X143447618Y-92906680D01*
X143447618Y-92906680D02*
X143333333Y-92954299D01*
X143333333Y-92954299D02*
X143257142Y-92954299D01*
X143257142Y-92954299D02*
X143142856Y-92906680D01*
X143142856Y-92906680D02*
X143066666Y-92811441D01*
X143066666Y-92811441D02*
X143028571Y-92716203D01*
X143028571Y-92716203D02*
X142990475Y-92525727D01*
X142990475Y-92525727D02*
X142990475Y-92382870D01*
X142990475Y-92382870D02*
X143028571Y-92192394D01*
X143028571Y-92192394D02*
X143066666Y-92097156D01*
X143066666Y-92097156D02*
X143142856Y-92001918D01*
X143142856Y-92001918D02*
X143257142Y-91954299D01*
X143257142Y-91954299D02*
X143333333Y-91954299D01*
X143333333Y-91954299D02*
X143447618Y-92001918D01*
X143447618Y-92001918D02*
X143485714Y-92049537D01*
X144247618Y-92954299D02*
X143790475Y-92954299D01*
X144019047Y-92954299D02*
X144019047Y-91954299D01*
X144019047Y-91954299D02*
X143942856Y-92097156D01*
X143942856Y-92097156D02*
X143866666Y-92192394D01*
X143866666Y-92192394D02*
X143790475Y-92240013D01*
X145009523Y-92954299D02*
X144552380Y-92954299D01*
X144780952Y-92954299D02*
X144780952Y-91954299D01*
X144780952Y-91954299D02*
X144704761Y-92097156D01*
X144704761Y-92097156D02*
X144628571Y-92192394D01*
X144628571Y-92192394D02*
X144552380Y-92240013D01*
X141366666Y-74454299D02*
X140985714Y-74454299D01*
X140985714Y-74454299D02*
X140985714Y-73454299D01*
X142052380Y-74454299D02*
X141595237Y-74454299D01*
X141823809Y-74454299D02*
X141823809Y-73454299D01*
X141823809Y-73454299D02*
X141747618Y-73597156D01*
X141747618Y-73597156D02*
X141671428Y-73692394D01*
X141671428Y-73692394D02*
X141595237Y-73740013D01*
X175923809Y-99549537D02*
X175847619Y-99501918D01*
X175847619Y-99501918D02*
X175771428Y-99406680D01*
X175771428Y-99406680D02*
X175657142Y-99263822D01*
X175657142Y-99263822D02*
X175580952Y-99216203D01*
X175580952Y-99216203D02*
X175504761Y-99216203D01*
X175542857Y-99454299D02*
X175466666Y-99406680D01*
X175466666Y-99406680D02*
X175390476Y-99311441D01*
X175390476Y-99311441D02*
X175352380Y-99120965D01*
X175352380Y-99120965D02*
X175352380Y-98787632D01*
X175352380Y-98787632D02*
X175390476Y-98597156D01*
X175390476Y-98597156D02*
X175466666Y-98501918D01*
X175466666Y-98501918D02*
X175542857Y-98454299D01*
X175542857Y-98454299D02*
X175695238Y-98454299D01*
X175695238Y-98454299D02*
X175771428Y-98501918D01*
X175771428Y-98501918D02*
X175847619Y-98597156D01*
X175847619Y-98597156D02*
X175885714Y-98787632D01*
X175885714Y-98787632D02*
X175885714Y-99120965D01*
X175885714Y-99120965D02*
X175847619Y-99311441D01*
X175847619Y-99311441D02*
X175771428Y-99406680D01*
X175771428Y-99406680D02*
X175695238Y-99454299D01*
X175695238Y-99454299D02*
X175542857Y-99454299D01*
X176190475Y-98549537D02*
X176228571Y-98501918D01*
X176228571Y-98501918D02*
X176304761Y-98454299D01*
X176304761Y-98454299D02*
X176495237Y-98454299D01*
X176495237Y-98454299D02*
X176571428Y-98501918D01*
X176571428Y-98501918D02*
X176609523Y-98549537D01*
X176609523Y-98549537D02*
X176647618Y-98644775D01*
X176647618Y-98644775D02*
X176647618Y-98740013D01*
X176647618Y-98740013D02*
X176609523Y-98882870D01*
X176609523Y-98882870D02*
X176152380Y-99454299D01*
X176152380Y-99454299D02*
X176647618Y-99454299D01*
X174653214Y-94004299D02*
X174386547Y-93528108D01*
X174196071Y-94004299D02*
X174196071Y-93004299D01*
X174196071Y-93004299D02*
X174500833Y-93004299D01*
X174500833Y-93004299D02*
X174577023Y-93051918D01*
X174577023Y-93051918D02*
X174615118Y-93099537D01*
X174615118Y-93099537D02*
X174653214Y-93194775D01*
X174653214Y-93194775D02*
X174653214Y-93337632D01*
X174653214Y-93337632D02*
X174615118Y-93432870D01*
X174615118Y-93432870D02*
X174577023Y-93480489D01*
X174577023Y-93480489D02*
X174500833Y-93528108D01*
X174500833Y-93528108D02*
X174196071Y-93528108D01*
X174957975Y-93099537D02*
X174996071Y-93051918D01*
X174996071Y-93051918D02*
X175072261Y-93004299D01*
X175072261Y-93004299D02*
X175262737Y-93004299D01*
X175262737Y-93004299D02*
X175338928Y-93051918D01*
X175338928Y-93051918D02*
X175377023Y-93099537D01*
X175377023Y-93099537D02*
X175415118Y-93194775D01*
X175415118Y-93194775D02*
X175415118Y-93290013D01*
X175415118Y-93290013D02*
X175377023Y-93432870D01*
X175377023Y-93432870D02*
X174919880Y-94004299D01*
X174919880Y-94004299D02*
X175415118Y-94004299D01*
X176177023Y-94004299D02*
X175719880Y-94004299D01*
X175948452Y-94004299D02*
X175948452Y-93004299D01*
X175948452Y-93004299D02*
X175872261Y-93147156D01*
X175872261Y-93147156D02*
X175796071Y-93242394D01*
X175796071Y-93242394D02*
X175719880Y-93290013D01*
D10*
X159454819Y-92642857D02*
X158978628Y-92976190D01*
X159454819Y-93214285D02*
X158454819Y-93214285D01*
X158454819Y-93214285D02*
X158454819Y-92833333D01*
X158454819Y-92833333D02*
X158502438Y-92738095D01*
X158502438Y-92738095D02*
X158550057Y-92690476D01*
X158550057Y-92690476D02*
X158645295Y-92642857D01*
X158645295Y-92642857D02*
X158788152Y-92642857D01*
X158788152Y-92642857D02*
X158883390Y-92690476D01*
X158883390Y-92690476D02*
X158931009Y-92738095D01*
X158931009Y-92738095D02*
X158978628Y-92833333D01*
X158978628Y-92833333D02*
X158978628Y-93214285D01*
X158550057Y-92261904D02*
X158502438Y-92214285D01*
X158502438Y-92214285D02*
X158454819Y-92119047D01*
X158454819Y-92119047D02*
X158454819Y-91880952D01*
X158454819Y-91880952D02*
X158502438Y-91785714D01*
X158502438Y-91785714D02*
X158550057Y-91738095D01*
X158550057Y-91738095D02*
X158645295Y-91690476D01*
X158645295Y-91690476D02*
X158740533Y-91690476D01*
X158740533Y-91690476D02*
X158883390Y-91738095D01*
X158883390Y-91738095D02*
X159454819Y-92309523D01*
X159454819Y-92309523D02*
X159454819Y-91690476D01*
X158454819Y-90833333D02*
X158454819Y-91023809D01*
X158454819Y-91023809D02*
X158502438Y-91119047D01*
X158502438Y-91119047D02*
X158550057Y-91166666D01*
X158550057Y-91166666D02*
X158692914Y-91261904D01*
X158692914Y-91261904D02*
X158883390Y-91309523D01*
X158883390Y-91309523D02*
X159264342Y-91309523D01*
X159264342Y-91309523D02*
X159359580Y-91261904D01*
X159359580Y-91261904D02*
X159407200Y-91214285D01*
X159407200Y-91214285D02*
X159454819Y-91119047D01*
X159454819Y-91119047D02*
X159454819Y-90928571D01*
X159454819Y-90928571D02*
X159407200Y-90833333D01*
X159407200Y-90833333D02*
X159359580Y-90785714D01*
X159359580Y-90785714D02*
X159264342Y-90738095D01*
X159264342Y-90738095D02*
X159026247Y-90738095D01*
X159026247Y-90738095D02*
X158931009Y-90785714D01*
X158931009Y-90785714D02*
X158883390Y-90833333D01*
X158883390Y-90833333D02*
X158835771Y-90928571D01*
X158835771Y-90928571D02*
X158835771Y-91119047D01*
X158835771Y-91119047D02*
X158883390Y-91214285D01*
X158883390Y-91214285D02*
X158931009Y-91261904D01*
X158931009Y-91261904D02*
X159026247Y-91309523D01*
D11*
X134890476Y-72454299D02*
X134890476Y-73263822D01*
X134890476Y-73263822D02*
X134928571Y-73359060D01*
X134928571Y-73359060D02*
X134966666Y-73406680D01*
X134966666Y-73406680D02*
X135042857Y-73454299D01*
X135042857Y-73454299D02*
X135195238Y-73454299D01*
X135195238Y-73454299D02*
X135271428Y-73406680D01*
X135271428Y-73406680D02*
X135309523Y-73359060D01*
X135309523Y-73359060D02*
X135347619Y-73263822D01*
X135347619Y-73263822D02*
X135347619Y-72454299D01*
X135690475Y-72549537D02*
X135728571Y-72501918D01*
X135728571Y-72501918D02*
X135804761Y-72454299D01*
X135804761Y-72454299D02*
X135995237Y-72454299D01*
X135995237Y-72454299D02*
X136071428Y-72501918D01*
X136071428Y-72501918D02*
X136109523Y-72549537D01*
X136109523Y-72549537D02*
X136147618Y-72644775D01*
X136147618Y-72644775D02*
X136147618Y-72740013D01*
X136147618Y-72740013D02*
X136109523Y-72882870D01*
X136109523Y-72882870D02*
X135652380Y-73454299D01*
X135652380Y-73454299D02*
X136147618Y-73454299D01*
D10*
X160954819Y-92642857D02*
X160478628Y-92976190D01*
X160954819Y-93214285D02*
X159954819Y-93214285D01*
X159954819Y-93214285D02*
X159954819Y-92833333D01*
X159954819Y-92833333D02*
X160002438Y-92738095D01*
X160002438Y-92738095D02*
X160050057Y-92690476D01*
X160050057Y-92690476D02*
X160145295Y-92642857D01*
X160145295Y-92642857D02*
X160288152Y-92642857D01*
X160288152Y-92642857D02*
X160383390Y-92690476D01*
X160383390Y-92690476D02*
X160431009Y-92738095D01*
X160431009Y-92738095D02*
X160478628Y-92833333D01*
X160478628Y-92833333D02*
X160478628Y-93214285D01*
X160050057Y-92261904D02*
X160002438Y-92214285D01*
X160002438Y-92214285D02*
X159954819Y-92119047D01*
X159954819Y-92119047D02*
X159954819Y-91880952D01*
X159954819Y-91880952D02*
X160002438Y-91785714D01*
X160002438Y-91785714D02*
X160050057Y-91738095D01*
X160050057Y-91738095D02*
X160145295Y-91690476D01*
X160145295Y-91690476D02*
X160240533Y-91690476D01*
X160240533Y-91690476D02*
X160383390Y-91738095D01*
X160383390Y-91738095D02*
X160954819Y-92309523D01*
X160954819Y-92309523D02*
X160954819Y-91690476D01*
X159954819Y-90785714D02*
X159954819Y-91261904D01*
X159954819Y-91261904D02*
X160431009Y-91309523D01*
X160431009Y-91309523D02*
X160383390Y-91261904D01*
X160383390Y-91261904D02*
X160335771Y-91166666D01*
X160335771Y-91166666D02*
X160335771Y-90928571D01*
X160335771Y-90928571D02*
X160383390Y-90833333D01*
X160383390Y-90833333D02*
X160431009Y-90785714D01*
X160431009Y-90785714D02*
X160526247Y-90738095D01*
X160526247Y-90738095D02*
X160764342Y-90738095D01*
X160764342Y-90738095D02*
X160859580Y-90785714D01*
X160859580Y-90785714D02*
X160907200Y-90833333D01*
X160907200Y-90833333D02*
X160954819Y-90928571D01*
X160954819Y-90928571D02*
X160954819Y-91166666D01*
X160954819Y-91166666D02*
X160907200Y-91261904D01*
X160907200Y-91261904D02*
X160859580Y-91309523D01*
D11*
X162833333Y-60454299D02*
X162833333Y-61168584D01*
X162833333Y-61168584D02*
X162795238Y-61311441D01*
X162795238Y-61311441D02*
X162719047Y-61406680D01*
X162719047Y-61406680D02*
X162604762Y-61454299D01*
X162604762Y-61454299D02*
X162528571Y-61454299D01*
X163214286Y-61454299D02*
X163214286Y-60454299D01*
X163214286Y-60454299D02*
X163519048Y-60454299D01*
X163519048Y-60454299D02*
X163595238Y-60501918D01*
X163595238Y-60501918D02*
X163633333Y-60549537D01*
X163633333Y-60549537D02*
X163671429Y-60644775D01*
X163671429Y-60644775D02*
X163671429Y-60787632D01*
X163671429Y-60787632D02*
X163633333Y-60882870D01*
X163633333Y-60882870D02*
X163595238Y-60930489D01*
X163595238Y-60930489D02*
X163519048Y-60978108D01*
X163519048Y-60978108D02*
X163214286Y-60978108D01*
X164433333Y-61454299D02*
X163976190Y-61454299D01*
X164204762Y-61454299D02*
X164204762Y-60454299D01*
X164204762Y-60454299D02*
X164128571Y-60597156D01*
X164128571Y-60597156D02*
X164052381Y-60692394D01*
X164052381Y-60692394D02*
X163976190Y-60740013D01*
X125661905Y-93359060D02*
X125623809Y-93406680D01*
X125623809Y-93406680D02*
X125509524Y-93454299D01*
X125509524Y-93454299D02*
X125433333Y-93454299D01*
X125433333Y-93454299D02*
X125319047Y-93406680D01*
X125319047Y-93406680D02*
X125242857Y-93311441D01*
X125242857Y-93311441D02*
X125204762Y-93216203D01*
X125204762Y-93216203D02*
X125166666Y-93025727D01*
X125166666Y-93025727D02*
X125166666Y-92882870D01*
X125166666Y-92882870D02*
X125204762Y-92692394D01*
X125204762Y-92692394D02*
X125242857Y-92597156D01*
X125242857Y-92597156D02*
X125319047Y-92501918D01*
X125319047Y-92501918D02*
X125433333Y-92454299D01*
X125433333Y-92454299D02*
X125509524Y-92454299D01*
X125509524Y-92454299D02*
X125623809Y-92501918D01*
X125623809Y-92501918D02*
X125661905Y-92549537D01*
X126004762Y-93454299D02*
X126004762Y-92454299D01*
X126004762Y-92454299D02*
X126309524Y-92454299D01*
X126309524Y-92454299D02*
X126385714Y-92501918D01*
X126385714Y-92501918D02*
X126423809Y-92549537D01*
X126423809Y-92549537D02*
X126461905Y-92644775D01*
X126461905Y-92644775D02*
X126461905Y-92787632D01*
X126461905Y-92787632D02*
X126423809Y-92882870D01*
X126423809Y-92882870D02*
X126385714Y-92930489D01*
X126385714Y-92930489D02*
X126309524Y-92978108D01*
X126309524Y-92978108D02*
X126004762Y-92978108D01*
X126690476Y-92454299D02*
X127147619Y-92454299D01*
X126919047Y-93454299D02*
X126919047Y-92454299D01*
X127833333Y-93454299D02*
X127376190Y-93454299D01*
X127604762Y-93454299D02*
X127604762Y-92454299D01*
X127604762Y-92454299D02*
X127528571Y-92597156D01*
X127528571Y-92597156D02*
X127452381Y-92692394D01*
X127452381Y-92692394D02*
X127376190Y-92740013D01*
X136309523Y-103454299D02*
X136309523Y-102454299D01*
X136309523Y-102454299D02*
X136576189Y-103168584D01*
X136576189Y-103168584D02*
X136842856Y-102454299D01*
X136842856Y-102454299D02*
X136842856Y-103454299D01*
X137338094Y-103454299D02*
X137261904Y-103406680D01*
X137261904Y-103406680D02*
X137223809Y-103359060D01*
X137223809Y-103359060D02*
X137185713Y-103263822D01*
X137185713Y-103263822D02*
X137185713Y-102978108D01*
X137185713Y-102978108D02*
X137223809Y-102882870D01*
X137223809Y-102882870D02*
X137261904Y-102835251D01*
X137261904Y-102835251D02*
X137338094Y-102787632D01*
X137338094Y-102787632D02*
X137452380Y-102787632D01*
X137452380Y-102787632D02*
X137528571Y-102835251D01*
X137528571Y-102835251D02*
X137566666Y-102882870D01*
X137566666Y-102882870D02*
X137604761Y-102978108D01*
X137604761Y-102978108D02*
X137604761Y-103263822D01*
X137604761Y-103263822D02*
X137566666Y-103359060D01*
X137566666Y-103359060D02*
X137528571Y-103406680D01*
X137528571Y-103406680D02*
X137452380Y-103454299D01*
X137452380Y-103454299D02*
X137338094Y-103454299D01*
X137833333Y-102787632D02*
X138138095Y-102787632D01*
X137947619Y-102454299D02*
X137947619Y-103311441D01*
X137947619Y-103311441D02*
X137985714Y-103406680D01*
X137985714Y-103406680D02*
X138061904Y-103454299D01*
X138061904Y-103454299D02*
X138138095Y-103454299D01*
X138709524Y-103406680D02*
X138633333Y-103454299D01*
X138633333Y-103454299D02*
X138480952Y-103454299D01*
X138480952Y-103454299D02*
X138404762Y-103406680D01*
X138404762Y-103406680D02*
X138366666Y-103311441D01*
X138366666Y-103311441D02*
X138366666Y-102930489D01*
X138366666Y-102930489D02*
X138404762Y-102835251D01*
X138404762Y-102835251D02*
X138480952Y-102787632D01*
X138480952Y-102787632D02*
X138633333Y-102787632D01*
X138633333Y-102787632D02*
X138709524Y-102835251D01*
X138709524Y-102835251D02*
X138747619Y-102930489D01*
X138747619Y-102930489D02*
X138747619Y-103025727D01*
X138747619Y-103025727D02*
X138366666Y-103120965D01*
X139433333Y-102787632D02*
X139433333Y-103454299D01*
X139090476Y-102787632D02*
X139090476Y-103311441D01*
X139090476Y-103311441D02*
X139128571Y-103406680D01*
X139128571Y-103406680D02*
X139204761Y-103454299D01*
X139204761Y-103454299D02*
X139319047Y-103454299D01*
X139319047Y-103454299D02*
X139395238Y-103406680D01*
X139395238Y-103406680D02*
X139433333Y-103359060D01*
X139814286Y-103454299D02*
X139814286Y-102787632D01*
X139814286Y-102978108D02*
X139852381Y-102882870D01*
X139852381Y-102882870D02*
X139890476Y-102835251D01*
X139890476Y-102835251D02*
X139966667Y-102787632D01*
X139966667Y-102787632D02*
X140042857Y-102787632D01*
X140728571Y-103454299D02*
X140271428Y-103454299D01*
X140500000Y-103454299D02*
X140500000Y-102454299D01*
X140500000Y-102454299D02*
X140423809Y-102597156D01*
X140423809Y-102597156D02*
X140347619Y-102692394D01*
X140347619Y-102692394D02*
X140271428Y-102740013D01*
X133485714Y-93454299D02*
X133219047Y-92978108D01*
X133028571Y-93454299D02*
X133028571Y-92454299D01*
X133028571Y-92454299D02*
X133333333Y-92454299D01*
X133333333Y-92454299D02*
X133409523Y-92501918D01*
X133409523Y-92501918D02*
X133447618Y-92549537D01*
X133447618Y-92549537D02*
X133485714Y-92644775D01*
X133485714Y-92644775D02*
X133485714Y-92787632D01*
X133485714Y-92787632D02*
X133447618Y-92882870D01*
X133447618Y-92882870D02*
X133409523Y-92930489D01*
X133409523Y-92930489D02*
X133333333Y-92978108D01*
X133333333Y-92978108D02*
X133028571Y-92978108D01*
X134247618Y-93454299D02*
X133790475Y-93454299D01*
X134019047Y-93454299D02*
X134019047Y-92454299D01*
X134019047Y-92454299D02*
X133942856Y-92597156D01*
X133942856Y-92597156D02*
X133866666Y-92692394D01*
X133866666Y-92692394D02*
X133790475Y-92740013D01*
X134933333Y-92787632D02*
X134933333Y-93454299D01*
X134742857Y-92406680D02*
X134552380Y-93120965D01*
X134552380Y-93120965D02*
X135047619Y-93120965D01*
D10*
X157954819Y-92642857D02*
X157478628Y-92976190D01*
X157954819Y-93214285D02*
X156954819Y-93214285D01*
X156954819Y-93214285D02*
X156954819Y-92833333D01*
X156954819Y-92833333D02*
X157002438Y-92738095D01*
X157002438Y-92738095D02*
X157050057Y-92690476D01*
X157050057Y-92690476D02*
X157145295Y-92642857D01*
X157145295Y-92642857D02*
X157288152Y-92642857D01*
X157288152Y-92642857D02*
X157383390Y-92690476D01*
X157383390Y-92690476D02*
X157431009Y-92738095D01*
X157431009Y-92738095D02*
X157478628Y-92833333D01*
X157478628Y-92833333D02*
X157478628Y-93214285D01*
X157050057Y-92261904D02*
X157002438Y-92214285D01*
X157002438Y-92214285D02*
X156954819Y-92119047D01*
X156954819Y-92119047D02*
X156954819Y-91880952D01*
X156954819Y-91880952D02*
X157002438Y-91785714D01*
X157002438Y-91785714D02*
X157050057Y-91738095D01*
X157050057Y-91738095D02*
X157145295Y-91690476D01*
X157145295Y-91690476D02*
X157240533Y-91690476D01*
X157240533Y-91690476D02*
X157383390Y-91738095D01*
X157383390Y-91738095D02*
X157954819Y-92309523D01*
X157954819Y-92309523D02*
X157954819Y-91690476D01*
X156954819Y-91357142D02*
X156954819Y-90690476D01*
X156954819Y-90690476D02*
X157954819Y-91119047D01*
D11*
X170985714Y-101499299D02*
X170719047Y-101023108D01*
X170528571Y-101499299D02*
X170528571Y-100499299D01*
X170528571Y-100499299D02*
X170833333Y-100499299D01*
X170833333Y-100499299D02*
X170909523Y-100546918D01*
X170909523Y-100546918D02*
X170947618Y-100594537D01*
X170947618Y-100594537D02*
X170985714Y-100689775D01*
X170985714Y-100689775D02*
X170985714Y-100832632D01*
X170985714Y-100832632D02*
X170947618Y-100927870D01*
X170947618Y-100927870D02*
X170909523Y-100975489D01*
X170909523Y-100975489D02*
X170833333Y-101023108D01*
X170833333Y-101023108D02*
X170528571Y-101023108D01*
X171747618Y-101499299D02*
X171290475Y-101499299D01*
X171519047Y-101499299D02*
X171519047Y-100499299D01*
X171519047Y-100499299D02*
X171442856Y-100642156D01*
X171442856Y-100642156D02*
X171366666Y-100737394D01*
X171366666Y-100737394D02*
X171290475Y-100785013D01*
X172204761Y-100927870D02*
X172128571Y-100880251D01*
X172128571Y-100880251D02*
X172090476Y-100832632D01*
X172090476Y-100832632D02*
X172052380Y-100737394D01*
X172052380Y-100737394D02*
X172052380Y-100689775D01*
X172052380Y-100689775D02*
X172090476Y-100594537D01*
X172090476Y-100594537D02*
X172128571Y-100546918D01*
X172128571Y-100546918D02*
X172204761Y-100499299D01*
X172204761Y-100499299D02*
X172357142Y-100499299D01*
X172357142Y-100499299D02*
X172433333Y-100546918D01*
X172433333Y-100546918D02*
X172471428Y-100594537D01*
X172471428Y-100594537D02*
X172509523Y-100689775D01*
X172509523Y-100689775D02*
X172509523Y-100737394D01*
X172509523Y-100737394D02*
X172471428Y-100832632D01*
X172471428Y-100832632D02*
X172433333Y-100880251D01*
X172433333Y-100880251D02*
X172357142Y-100927870D01*
X172357142Y-100927870D02*
X172204761Y-100927870D01*
X172204761Y-100927870D02*
X172128571Y-100975489D01*
X172128571Y-100975489D02*
X172090476Y-101023108D01*
X172090476Y-101023108D02*
X172052380Y-101118346D01*
X172052380Y-101118346D02*
X172052380Y-101308822D01*
X172052380Y-101308822D02*
X172090476Y-101404060D01*
X172090476Y-101404060D02*
X172128571Y-101451680D01*
X172128571Y-101451680D02*
X172204761Y-101499299D01*
X172204761Y-101499299D02*
X172357142Y-101499299D01*
X172357142Y-101499299D02*
X172433333Y-101451680D01*
X172433333Y-101451680D02*
X172471428Y-101404060D01*
X172471428Y-101404060D02*
X172509523Y-101308822D01*
X172509523Y-101308822D02*
X172509523Y-101118346D01*
X172509523Y-101118346D02*
X172471428Y-101023108D01*
X172471428Y-101023108D02*
X172433333Y-100975489D01*
X172433333Y-100975489D02*
X172357142Y-100927870D01*
X138390476Y-92454299D02*
X138390476Y-93263822D01*
X138390476Y-93263822D02*
X138428571Y-93359060D01*
X138428571Y-93359060D02*
X138466666Y-93406680D01*
X138466666Y-93406680D02*
X138542857Y-93454299D01*
X138542857Y-93454299D02*
X138695238Y-93454299D01*
X138695238Y-93454299D02*
X138771428Y-93406680D01*
X138771428Y-93406680D02*
X138809523Y-93359060D01*
X138809523Y-93359060D02*
X138847619Y-93263822D01*
X138847619Y-93263822D02*
X138847619Y-92454299D01*
X139609523Y-92454299D02*
X139228571Y-92454299D01*
X139228571Y-92454299D02*
X139190475Y-92930489D01*
X139190475Y-92930489D02*
X139228571Y-92882870D01*
X139228571Y-92882870D02*
X139304761Y-92835251D01*
X139304761Y-92835251D02*
X139495237Y-92835251D01*
X139495237Y-92835251D02*
X139571428Y-92882870D01*
X139571428Y-92882870D02*
X139609523Y-92930489D01*
X139609523Y-92930489D02*
X139647618Y-93025727D01*
X139647618Y-93025727D02*
X139647618Y-93263822D01*
X139647618Y-93263822D02*
X139609523Y-93359060D01*
X139609523Y-93359060D02*
X139571428Y-93406680D01*
X139571428Y-93406680D02*
X139495237Y-93454299D01*
X139495237Y-93454299D02*
X139304761Y-93454299D01*
X139304761Y-93454299D02*
X139228571Y-93406680D01*
X139228571Y-93406680D02*
X139190475Y-93359060D01*
D10*
X154954819Y-92642857D02*
X154478628Y-92976190D01*
X154954819Y-93214285D02*
X153954819Y-93214285D01*
X153954819Y-93214285D02*
X153954819Y-92833333D01*
X153954819Y-92833333D02*
X154002438Y-92738095D01*
X154002438Y-92738095D02*
X154050057Y-92690476D01*
X154050057Y-92690476D02*
X154145295Y-92642857D01*
X154145295Y-92642857D02*
X154288152Y-92642857D01*
X154288152Y-92642857D02*
X154383390Y-92690476D01*
X154383390Y-92690476D02*
X154431009Y-92738095D01*
X154431009Y-92738095D02*
X154478628Y-92833333D01*
X154478628Y-92833333D02*
X154478628Y-93214285D01*
X154050057Y-92261904D02*
X154002438Y-92214285D01*
X154002438Y-92214285D02*
X153954819Y-92119047D01*
X153954819Y-92119047D02*
X153954819Y-91880952D01*
X153954819Y-91880952D02*
X154002438Y-91785714D01*
X154002438Y-91785714D02*
X154050057Y-91738095D01*
X154050057Y-91738095D02*
X154145295Y-91690476D01*
X154145295Y-91690476D02*
X154240533Y-91690476D01*
X154240533Y-91690476D02*
X154383390Y-91738095D01*
X154383390Y-91738095D02*
X154954819Y-92309523D01*
X154954819Y-92309523D02*
X154954819Y-91690476D01*
X153954819Y-91357142D02*
X153954819Y-90738095D01*
X153954819Y-90738095D02*
X154335771Y-91071428D01*
X154335771Y-91071428D02*
X154335771Y-90928571D01*
X154335771Y-90928571D02*
X154383390Y-90833333D01*
X154383390Y-90833333D02*
X154431009Y-90785714D01*
X154431009Y-90785714D02*
X154526247Y-90738095D01*
X154526247Y-90738095D02*
X154764342Y-90738095D01*
X154764342Y-90738095D02*
X154859580Y-90785714D01*
X154859580Y-90785714D02*
X154907200Y-90833333D01*
X154907200Y-90833333D02*
X154954819Y-90928571D01*
X154954819Y-90928571D02*
X154954819Y-91214285D01*
X154954819Y-91214285D02*
X154907200Y-91309523D01*
X154907200Y-91309523D02*
X154859580Y-91357142D01*
X153284819Y-95152857D02*
X152808628Y-95486190D01*
X153284819Y-95724285D02*
X152284819Y-95724285D01*
X152284819Y-95724285D02*
X152284819Y-95343333D01*
X152284819Y-95343333D02*
X152332438Y-95248095D01*
X152332438Y-95248095D02*
X152380057Y-95200476D01*
X152380057Y-95200476D02*
X152475295Y-95152857D01*
X152475295Y-95152857D02*
X152618152Y-95152857D01*
X152618152Y-95152857D02*
X152713390Y-95200476D01*
X152713390Y-95200476D02*
X152761009Y-95248095D01*
X152761009Y-95248095D02*
X152808628Y-95343333D01*
X152808628Y-95343333D02*
X152808628Y-95724285D01*
X152380057Y-94771904D02*
X152332438Y-94724285D01*
X152332438Y-94724285D02*
X152284819Y-94629047D01*
X152284819Y-94629047D02*
X152284819Y-94390952D01*
X152284819Y-94390952D02*
X152332438Y-94295714D01*
X152332438Y-94295714D02*
X152380057Y-94248095D01*
X152380057Y-94248095D02*
X152475295Y-94200476D01*
X152475295Y-94200476D02*
X152570533Y-94200476D01*
X152570533Y-94200476D02*
X152713390Y-94248095D01*
X152713390Y-94248095D02*
X153284819Y-94819523D01*
X153284819Y-94819523D02*
X153284819Y-94200476D01*
X152618152Y-93343333D02*
X153284819Y-93343333D01*
X152237200Y-93581428D02*
X152951485Y-93819523D01*
X152951485Y-93819523D02*
X152951485Y-93200476D01*
X156454819Y-92642857D02*
X155978628Y-92976190D01*
X156454819Y-93214285D02*
X155454819Y-93214285D01*
X155454819Y-93214285D02*
X155454819Y-92833333D01*
X155454819Y-92833333D02*
X155502438Y-92738095D01*
X155502438Y-92738095D02*
X155550057Y-92690476D01*
X155550057Y-92690476D02*
X155645295Y-92642857D01*
X155645295Y-92642857D02*
X155788152Y-92642857D01*
X155788152Y-92642857D02*
X155883390Y-92690476D01*
X155883390Y-92690476D02*
X155931009Y-92738095D01*
X155931009Y-92738095D02*
X155978628Y-92833333D01*
X155978628Y-92833333D02*
X155978628Y-93214285D01*
X155550057Y-92261904D02*
X155502438Y-92214285D01*
X155502438Y-92214285D02*
X155454819Y-92119047D01*
X155454819Y-92119047D02*
X155454819Y-91880952D01*
X155454819Y-91880952D02*
X155502438Y-91785714D01*
X155502438Y-91785714D02*
X155550057Y-91738095D01*
X155550057Y-91738095D02*
X155645295Y-91690476D01*
X155645295Y-91690476D02*
X155740533Y-91690476D01*
X155740533Y-91690476D02*
X155883390Y-91738095D01*
X155883390Y-91738095D02*
X156454819Y-92309523D01*
X156454819Y-92309523D02*
X156454819Y-91690476D01*
X155550057Y-91309523D02*
X155502438Y-91261904D01*
X155502438Y-91261904D02*
X155454819Y-91166666D01*
X155454819Y-91166666D02*
X155454819Y-90928571D01*
X155454819Y-90928571D02*
X155502438Y-90833333D01*
X155502438Y-90833333D02*
X155550057Y-90785714D01*
X155550057Y-90785714D02*
X155645295Y-90738095D01*
X155645295Y-90738095D02*
X155740533Y-90738095D01*
X155740533Y-90738095D02*
X155883390Y-90785714D01*
X155883390Y-90785714D02*
X156454819Y-91357142D01*
X156454819Y-91357142D02*
X156454819Y-90738095D01*
X125454819Y-68833333D02*
X126169104Y-68833333D01*
X126169104Y-68833333D02*
X126311961Y-68880952D01*
X126311961Y-68880952D02*
X126407200Y-68976190D01*
X126407200Y-68976190D02*
X126454819Y-69119047D01*
X126454819Y-69119047D02*
X126454819Y-69214285D01*
X125550057Y-68404761D02*
X125502438Y-68357142D01*
X125502438Y-68357142D02*
X125454819Y-68261904D01*
X125454819Y-68261904D02*
X125454819Y-68023809D01*
X125454819Y-68023809D02*
X125502438Y-67928571D01*
X125502438Y-67928571D02*
X125550057Y-67880952D01*
X125550057Y-67880952D02*
X125645295Y-67833333D01*
X125645295Y-67833333D02*
X125740533Y-67833333D01*
X125740533Y-67833333D02*
X125883390Y-67880952D01*
X125883390Y-67880952D02*
X126454819Y-68452380D01*
X126454819Y-68452380D02*
X126454819Y-67833333D01*
D11*
X146866667Y-74954299D02*
X146600000Y-74478108D01*
X146409524Y-74954299D02*
X146409524Y-73954299D01*
X146409524Y-73954299D02*
X146714286Y-73954299D01*
X146714286Y-73954299D02*
X146790476Y-74001918D01*
X146790476Y-74001918D02*
X146828571Y-74049537D01*
X146828571Y-74049537D02*
X146866667Y-74144775D01*
X146866667Y-74144775D02*
X146866667Y-74287632D01*
X146866667Y-74287632D02*
X146828571Y-74382870D01*
X146828571Y-74382870D02*
X146790476Y-74430489D01*
X146790476Y-74430489D02*
X146714286Y-74478108D01*
X146714286Y-74478108D02*
X146409524Y-74478108D01*
X147552381Y-74287632D02*
X147552381Y-74954299D01*
X147361905Y-73906680D02*
X147171428Y-74620965D01*
X147171428Y-74620965D02*
X147666667Y-74620965D01*
X140985714Y-86859060D02*
X140947618Y-86906680D01*
X140947618Y-86906680D02*
X140833333Y-86954299D01*
X140833333Y-86954299D02*
X140757142Y-86954299D01*
X140757142Y-86954299D02*
X140642856Y-86906680D01*
X140642856Y-86906680D02*
X140566666Y-86811441D01*
X140566666Y-86811441D02*
X140528571Y-86716203D01*
X140528571Y-86716203D02*
X140490475Y-86525727D01*
X140490475Y-86525727D02*
X140490475Y-86382870D01*
X140490475Y-86382870D02*
X140528571Y-86192394D01*
X140528571Y-86192394D02*
X140566666Y-86097156D01*
X140566666Y-86097156D02*
X140642856Y-86001918D01*
X140642856Y-86001918D02*
X140757142Y-85954299D01*
X140757142Y-85954299D02*
X140833333Y-85954299D01*
X140833333Y-85954299D02*
X140947618Y-86001918D01*
X140947618Y-86001918D02*
X140985714Y-86049537D01*
X141747618Y-86954299D02*
X141290475Y-86954299D01*
X141519047Y-86954299D02*
X141519047Y-85954299D01*
X141519047Y-85954299D02*
X141442856Y-86097156D01*
X141442856Y-86097156D02*
X141366666Y-86192394D01*
X141366666Y-86192394D02*
X141290475Y-86240013D01*
X142014285Y-85954299D02*
X142509523Y-85954299D01*
X142509523Y-85954299D02*
X142242857Y-86335251D01*
X142242857Y-86335251D02*
X142357142Y-86335251D01*
X142357142Y-86335251D02*
X142433333Y-86382870D01*
X142433333Y-86382870D02*
X142471428Y-86430489D01*
X142471428Y-86430489D02*
X142509523Y-86525727D01*
X142509523Y-86525727D02*
X142509523Y-86763822D01*
X142509523Y-86763822D02*
X142471428Y-86859060D01*
X142471428Y-86859060D02*
X142433333Y-86906680D01*
X142433333Y-86906680D02*
X142357142Y-86954299D01*
X142357142Y-86954299D02*
X142128571Y-86954299D01*
X142128571Y-86954299D02*
X142052380Y-86906680D01*
X142052380Y-86906680D02*
X142014285Y-86859060D01*
X137485714Y-68679060D02*
X137447618Y-68726680D01*
X137447618Y-68726680D02*
X137333333Y-68774299D01*
X137333333Y-68774299D02*
X137257142Y-68774299D01*
X137257142Y-68774299D02*
X137142856Y-68726680D01*
X137142856Y-68726680D02*
X137066666Y-68631441D01*
X137066666Y-68631441D02*
X137028571Y-68536203D01*
X137028571Y-68536203D02*
X136990475Y-68345727D01*
X136990475Y-68345727D02*
X136990475Y-68202870D01*
X136990475Y-68202870D02*
X137028571Y-68012394D01*
X137028571Y-68012394D02*
X137066666Y-67917156D01*
X137066666Y-67917156D02*
X137142856Y-67821918D01*
X137142856Y-67821918D02*
X137257142Y-67774299D01*
X137257142Y-67774299D02*
X137333333Y-67774299D01*
X137333333Y-67774299D02*
X137447618Y-67821918D01*
X137447618Y-67821918D02*
X137485714Y-67869537D01*
X138247618Y-68774299D02*
X137790475Y-68774299D01*
X138019047Y-68774299D02*
X138019047Y-67774299D01*
X138019047Y-67774299D02*
X137942856Y-67917156D01*
X137942856Y-67917156D02*
X137866666Y-68012394D01*
X137866666Y-68012394D02*
X137790475Y-68060013D01*
X138933333Y-68107632D02*
X138933333Y-68774299D01*
X138742857Y-67726680D02*
X138552380Y-68440965D01*
X138552380Y-68440965D02*
X139047619Y-68440965D01*
X133366667Y-72954299D02*
X133100000Y-72478108D01*
X132909524Y-72954299D02*
X132909524Y-71954299D01*
X132909524Y-71954299D02*
X133214286Y-71954299D01*
X133214286Y-71954299D02*
X133290476Y-72001918D01*
X133290476Y-72001918D02*
X133328571Y-72049537D01*
X133328571Y-72049537D02*
X133366667Y-72144775D01*
X133366667Y-72144775D02*
X133366667Y-72287632D01*
X133366667Y-72287632D02*
X133328571Y-72382870D01*
X133328571Y-72382870D02*
X133290476Y-72430489D01*
X133290476Y-72430489D02*
X133214286Y-72478108D01*
X133214286Y-72478108D02*
X132909524Y-72478108D01*
X133747619Y-72954299D02*
X133900000Y-72954299D01*
X133900000Y-72954299D02*
X133976190Y-72906680D01*
X133976190Y-72906680D02*
X134014286Y-72859060D01*
X134014286Y-72859060D02*
X134090476Y-72716203D01*
X134090476Y-72716203D02*
X134128571Y-72525727D01*
X134128571Y-72525727D02*
X134128571Y-72144775D01*
X134128571Y-72144775D02*
X134090476Y-72049537D01*
X134090476Y-72049537D02*
X134052381Y-72001918D01*
X134052381Y-72001918D02*
X133976190Y-71954299D01*
X133976190Y-71954299D02*
X133823809Y-71954299D01*
X133823809Y-71954299D02*
X133747619Y-72001918D01*
X133747619Y-72001918D02*
X133709524Y-72049537D01*
X133709524Y-72049537D02*
X133671428Y-72144775D01*
X133671428Y-72144775D02*
X133671428Y-72382870D01*
X133671428Y-72382870D02*
X133709524Y-72478108D01*
X133709524Y-72478108D02*
X133747619Y-72525727D01*
X133747619Y-72525727D02*
X133823809Y-72573346D01*
X133823809Y-72573346D02*
X133976190Y-72573346D01*
X133976190Y-72573346D02*
X134052381Y-72525727D01*
X134052381Y-72525727D02*
X134090476Y-72478108D01*
X134090476Y-72478108D02*
X134128571Y-72382870D01*
X143866667Y-76454299D02*
X143600000Y-75978108D01*
X143409524Y-76454299D02*
X143409524Y-75454299D01*
X143409524Y-75454299D02*
X143714286Y-75454299D01*
X143714286Y-75454299D02*
X143790476Y-75501918D01*
X143790476Y-75501918D02*
X143828571Y-75549537D01*
X143828571Y-75549537D02*
X143866667Y-75644775D01*
X143866667Y-75644775D02*
X143866667Y-75787632D01*
X143866667Y-75787632D02*
X143828571Y-75882870D01*
X143828571Y-75882870D02*
X143790476Y-75930489D01*
X143790476Y-75930489D02*
X143714286Y-75978108D01*
X143714286Y-75978108D02*
X143409524Y-75978108D01*
X144590476Y-75454299D02*
X144209524Y-75454299D01*
X144209524Y-75454299D02*
X144171428Y-75930489D01*
X144171428Y-75930489D02*
X144209524Y-75882870D01*
X144209524Y-75882870D02*
X144285714Y-75835251D01*
X144285714Y-75835251D02*
X144476190Y-75835251D01*
X144476190Y-75835251D02*
X144552381Y-75882870D01*
X144552381Y-75882870D02*
X144590476Y-75930489D01*
X144590476Y-75930489D02*
X144628571Y-76025727D01*
X144628571Y-76025727D02*
X144628571Y-76263822D01*
X144628571Y-76263822D02*
X144590476Y-76359060D01*
X144590476Y-76359060D02*
X144552381Y-76406680D01*
X144552381Y-76406680D02*
X144476190Y-76454299D01*
X144476190Y-76454299D02*
X144285714Y-76454299D01*
X144285714Y-76454299D02*
X144209524Y-76406680D01*
X144209524Y-76406680D02*
X144171428Y-76359060D01*
X134485714Y-84454299D02*
X134219047Y-83978108D01*
X134028571Y-84454299D02*
X134028571Y-83454299D01*
X134028571Y-83454299D02*
X134333333Y-83454299D01*
X134333333Y-83454299D02*
X134409523Y-83501918D01*
X134409523Y-83501918D02*
X134447618Y-83549537D01*
X134447618Y-83549537D02*
X134485714Y-83644775D01*
X134485714Y-83644775D02*
X134485714Y-83787632D01*
X134485714Y-83787632D02*
X134447618Y-83882870D01*
X134447618Y-83882870D02*
X134409523Y-83930489D01*
X134409523Y-83930489D02*
X134333333Y-83978108D01*
X134333333Y-83978108D02*
X134028571Y-83978108D01*
X135247618Y-84454299D02*
X134790475Y-84454299D01*
X135019047Y-84454299D02*
X135019047Y-83454299D01*
X135019047Y-83454299D02*
X134942856Y-83597156D01*
X134942856Y-83597156D02*
X134866666Y-83692394D01*
X134866666Y-83692394D02*
X134790475Y-83740013D01*
X136009523Y-84454299D02*
X135552380Y-84454299D01*
X135780952Y-84454299D02*
X135780952Y-83454299D01*
X135780952Y-83454299D02*
X135704761Y-83597156D01*
X135704761Y-83597156D02*
X135628571Y-83692394D01*
X135628571Y-83692394D02*
X135552380Y-83740013D01*
X151485714Y-91954299D02*
X151219047Y-91478108D01*
X151028571Y-91954299D02*
X151028571Y-90954299D01*
X151028571Y-90954299D02*
X151333333Y-90954299D01*
X151333333Y-90954299D02*
X151409523Y-91001918D01*
X151409523Y-91001918D02*
X151447618Y-91049537D01*
X151447618Y-91049537D02*
X151485714Y-91144775D01*
X151485714Y-91144775D02*
X151485714Y-91287632D01*
X151485714Y-91287632D02*
X151447618Y-91382870D01*
X151447618Y-91382870D02*
X151409523Y-91430489D01*
X151409523Y-91430489D02*
X151333333Y-91478108D01*
X151333333Y-91478108D02*
X151028571Y-91478108D01*
X152247618Y-91954299D02*
X151790475Y-91954299D01*
X152019047Y-91954299D02*
X152019047Y-90954299D01*
X152019047Y-90954299D02*
X151942856Y-91097156D01*
X151942856Y-91097156D02*
X151866666Y-91192394D01*
X151866666Y-91192394D02*
X151790475Y-91240013D01*
X152628571Y-91954299D02*
X152780952Y-91954299D01*
X152780952Y-91954299D02*
X152857142Y-91906680D01*
X152857142Y-91906680D02*
X152895238Y-91859060D01*
X152895238Y-91859060D02*
X152971428Y-91716203D01*
X152971428Y-91716203D02*
X153009523Y-91525727D01*
X153009523Y-91525727D02*
X153009523Y-91144775D01*
X153009523Y-91144775D02*
X152971428Y-91049537D01*
X152971428Y-91049537D02*
X152933333Y-91001918D01*
X152933333Y-91001918D02*
X152857142Y-90954299D01*
X152857142Y-90954299D02*
X152704761Y-90954299D01*
X152704761Y-90954299D02*
X152628571Y-91001918D01*
X152628571Y-91001918D02*
X152590476Y-91049537D01*
X152590476Y-91049537D02*
X152552380Y-91144775D01*
X152552380Y-91144775D02*
X152552380Y-91382870D01*
X152552380Y-91382870D02*
X152590476Y-91478108D01*
X152590476Y-91478108D02*
X152628571Y-91525727D01*
X152628571Y-91525727D02*
X152704761Y-91573346D01*
X152704761Y-91573346D02*
X152857142Y-91573346D01*
X152857142Y-91573346D02*
X152933333Y-91525727D01*
X152933333Y-91525727D02*
X152971428Y-91478108D01*
X152971428Y-91478108D02*
X153009523Y-91382870D01*
X179233333Y-68954299D02*
X179233333Y-69668584D01*
X179233333Y-69668584D02*
X179195238Y-69811441D01*
X179195238Y-69811441D02*
X179119047Y-69906680D01*
X179119047Y-69906680D02*
X179004762Y-69954299D01*
X179004762Y-69954299D02*
X178928571Y-69954299D01*
X179538095Y-68954299D02*
X180033333Y-68954299D01*
X180033333Y-68954299D02*
X179766667Y-69335251D01*
X179766667Y-69335251D02*
X179880952Y-69335251D01*
X179880952Y-69335251D02*
X179957143Y-69382870D01*
X179957143Y-69382870D02*
X179995238Y-69430489D01*
X179995238Y-69430489D02*
X180033333Y-69525727D01*
X180033333Y-69525727D02*
X180033333Y-69763822D01*
X180033333Y-69763822D02*
X179995238Y-69859060D01*
X179995238Y-69859060D02*
X179957143Y-69906680D01*
X179957143Y-69906680D02*
X179880952Y-69954299D01*
X179880952Y-69954299D02*
X179652381Y-69954299D01*
X179652381Y-69954299D02*
X179576190Y-69906680D01*
X179576190Y-69906680D02*
X179538095Y-69859060D01*
X139890476Y-62454299D02*
X139890476Y-63263822D01*
X139890476Y-63263822D02*
X139928571Y-63359060D01*
X139928571Y-63359060D02*
X139966666Y-63406680D01*
X139966666Y-63406680D02*
X140042857Y-63454299D01*
X140042857Y-63454299D02*
X140195238Y-63454299D01*
X140195238Y-63454299D02*
X140271428Y-63406680D01*
X140271428Y-63406680D02*
X140309523Y-63359060D01*
X140309523Y-63359060D02*
X140347619Y-63263822D01*
X140347619Y-63263822D02*
X140347619Y-62454299D01*
X140652380Y-62454299D02*
X141147618Y-62454299D01*
X141147618Y-62454299D02*
X140880952Y-62835251D01*
X140880952Y-62835251D02*
X140995237Y-62835251D01*
X140995237Y-62835251D02*
X141071428Y-62882870D01*
X141071428Y-62882870D02*
X141109523Y-62930489D01*
X141109523Y-62930489D02*
X141147618Y-63025727D01*
X141147618Y-63025727D02*
X141147618Y-63263822D01*
X141147618Y-63263822D02*
X141109523Y-63359060D01*
X141109523Y-63359060D02*
X141071428Y-63406680D01*
X141071428Y-63406680D02*
X140995237Y-63454299D01*
X140995237Y-63454299D02*
X140766666Y-63454299D01*
X140766666Y-63454299D02*
X140690475Y-63406680D01*
X140690475Y-63406680D02*
X140652380Y-63359060D01*
X140485714Y-84454299D02*
X140219047Y-83978108D01*
X140028571Y-84454299D02*
X140028571Y-83454299D01*
X140028571Y-83454299D02*
X140333333Y-83454299D01*
X140333333Y-83454299D02*
X140409523Y-83501918D01*
X140409523Y-83501918D02*
X140447618Y-83549537D01*
X140447618Y-83549537D02*
X140485714Y-83644775D01*
X140485714Y-83644775D02*
X140485714Y-83787632D01*
X140485714Y-83787632D02*
X140447618Y-83882870D01*
X140447618Y-83882870D02*
X140409523Y-83930489D01*
X140409523Y-83930489D02*
X140333333Y-83978108D01*
X140333333Y-83978108D02*
X140028571Y-83978108D01*
X141247618Y-84454299D02*
X140790475Y-84454299D01*
X141019047Y-84454299D02*
X141019047Y-83454299D01*
X141019047Y-83454299D02*
X140942856Y-83597156D01*
X140942856Y-83597156D02*
X140866666Y-83692394D01*
X140866666Y-83692394D02*
X140790475Y-83740013D01*
X141514285Y-83454299D02*
X142009523Y-83454299D01*
X142009523Y-83454299D02*
X141742857Y-83835251D01*
X141742857Y-83835251D02*
X141857142Y-83835251D01*
X141857142Y-83835251D02*
X141933333Y-83882870D01*
X141933333Y-83882870D02*
X141971428Y-83930489D01*
X141971428Y-83930489D02*
X142009523Y-84025727D01*
X142009523Y-84025727D02*
X142009523Y-84263822D01*
X142009523Y-84263822D02*
X141971428Y-84359060D01*
X141971428Y-84359060D02*
X141933333Y-84406680D01*
X141933333Y-84406680D02*
X141857142Y-84454299D01*
X141857142Y-84454299D02*
X141628571Y-84454299D01*
X141628571Y-84454299D02*
X141552380Y-84406680D01*
X141552380Y-84406680D02*
X141514285Y-84359060D01*
D10*
X166657200Y-97583332D02*
X166704819Y-97440475D01*
X166704819Y-97440475D02*
X166704819Y-97202380D01*
X166704819Y-97202380D02*
X166657200Y-97107142D01*
X166657200Y-97107142D02*
X166609580Y-97059523D01*
X166609580Y-97059523D02*
X166514342Y-97011904D01*
X166514342Y-97011904D02*
X166419104Y-97011904D01*
X166419104Y-97011904D02*
X166323866Y-97059523D01*
X166323866Y-97059523D02*
X166276247Y-97107142D01*
X166276247Y-97107142D02*
X166228628Y-97202380D01*
X166228628Y-97202380D02*
X166181009Y-97392856D01*
X166181009Y-97392856D02*
X166133390Y-97488094D01*
X166133390Y-97488094D02*
X166085771Y-97535713D01*
X166085771Y-97535713D02*
X165990533Y-97583332D01*
X165990533Y-97583332D02*
X165895295Y-97583332D01*
X165895295Y-97583332D02*
X165800057Y-97535713D01*
X165800057Y-97535713D02*
X165752438Y-97488094D01*
X165752438Y-97488094D02*
X165704819Y-97392856D01*
X165704819Y-97392856D02*
X165704819Y-97154761D01*
X165704819Y-97154761D02*
X165752438Y-97011904D01*
X165704819Y-96678570D02*
X166704819Y-96440475D01*
X166704819Y-96440475D02*
X165990533Y-96249999D01*
X165990533Y-96249999D02*
X166704819Y-96059523D01*
X166704819Y-96059523D02*
X165704819Y-95821428D01*
X166704819Y-94916666D02*
X166704819Y-95488094D01*
X166704819Y-95202380D02*
X165704819Y-95202380D01*
X165704819Y-95202380D02*
X165847676Y-95297618D01*
X165847676Y-95297618D02*
X165942914Y-95392856D01*
X165942914Y-95392856D02*
X165990533Y-95488094D01*
D11*
X149319047Y-94954299D02*
X148938095Y-94954299D01*
X148938095Y-94954299D02*
X148938095Y-93954299D01*
X149852380Y-94430489D02*
X149966666Y-94478108D01*
X149966666Y-94478108D02*
X150004761Y-94525727D01*
X150004761Y-94525727D02*
X150042857Y-94620965D01*
X150042857Y-94620965D02*
X150042857Y-94763822D01*
X150042857Y-94763822D02*
X150004761Y-94859060D01*
X150004761Y-94859060D02*
X149966666Y-94906680D01*
X149966666Y-94906680D02*
X149890476Y-94954299D01*
X149890476Y-94954299D02*
X149585714Y-94954299D01*
X149585714Y-94954299D02*
X149585714Y-93954299D01*
X149585714Y-93954299D02*
X149852380Y-93954299D01*
X149852380Y-93954299D02*
X149928571Y-94001918D01*
X149928571Y-94001918D02*
X149966666Y-94049537D01*
X149966666Y-94049537D02*
X150004761Y-94144775D01*
X150004761Y-94144775D02*
X150004761Y-94240013D01*
X150004761Y-94240013D02*
X149966666Y-94335251D01*
X149966666Y-94335251D02*
X149928571Y-94382870D01*
X149928571Y-94382870D02*
X149852380Y-94430489D01*
X149852380Y-94430489D02*
X149585714Y-94430489D01*
X150347618Y-94668584D02*
X150728571Y-94668584D01*
X150271428Y-94954299D02*
X150538095Y-93954299D01*
X150538095Y-93954299D02*
X150804761Y-94954299D01*
X150957142Y-93954299D02*
X151414285Y-93954299D01*
X151185713Y-94954299D02*
X151185713Y-93954299D01*
X152099999Y-94954299D02*
X151642856Y-94954299D01*
X151871428Y-94954299D02*
X151871428Y-93954299D01*
X151871428Y-93954299D02*
X151795237Y-94097156D01*
X151795237Y-94097156D02*
X151719047Y-94192394D01*
X151719047Y-94192394D02*
X151642856Y-94240013D01*
X141366667Y-68454299D02*
X141100000Y-67978108D01*
X140909524Y-68454299D02*
X140909524Y-67454299D01*
X140909524Y-67454299D02*
X141214286Y-67454299D01*
X141214286Y-67454299D02*
X141290476Y-67501918D01*
X141290476Y-67501918D02*
X141328571Y-67549537D01*
X141328571Y-67549537D02*
X141366667Y-67644775D01*
X141366667Y-67644775D02*
X141366667Y-67787632D01*
X141366667Y-67787632D02*
X141328571Y-67882870D01*
X141328571Y-67882870D02*
X141290476Y-67930489D01*
X141290476Y-67930489D02*
X141214286Y-67978108D01*
X141214286Y-67978108D02*
X140909524Y-67978108D01*
X142052381Y-67454299D02*
X141900000Y-67454299D01*
X141900000Y-67454299D02*
X141823809Y-67501918D01*
X141823809Y-67501918D02*
X141785714Y-67549537D01*
X141785714Y-67549537D02*
X141709524Y-67692394D01*
X141709524Y-67692394D02*
X141671428Y-67882870D01*
X141671428Y-67882870D02*
X141671428Y-68263822D01*
X141671428Y-68263822D02*
X141709524Y-68359060D01*
X141709524Y-68359060D02*
X141747619Y-68406680D01*
X141747619Y-68406680D02*
X141823809Y-68454299D01*
X141823809Y-68454299D02*
X141976190Y-68454299D01*
X141976190Y-68454299D02*
X142052381Y-68406680D01*
X142052381Y-68406680D02*
X142090476Y-68359060D01*
X142090476Y-68359060D02*
X142128571Y-68263822D01*
X142128571Y-68263822D02*
X142128571Y-68025727D01*
X142128571Y-68025727D02*
X142090476Y-67930489D01*
X142090476Y-67930489D02*
X142052381Y-67882870D01*
X142052381Y-67882870D02*
X141976190Y-67835251D01*
X141976190Y-67835251D02*
X141823809Y-67835251D01*
X141823809Y-67835251D02*
X141747619Y-67882870D01*
X141747619Y-67882870D02*
X141709524Y-67930489D01*
X141709524Y-67930489D02*
X141671428Y-68025727D01*
D12*
%TO.C,R29*%
X130120000Y-96663641D02*
X130120000Y-96356359D01*
X130880000Y-96663641D02*
X130880000Y-96356359D01*
%TO.C,D2*%
X128000000Y-96790000D02*
X126000000Y-96790000D01*
X128000000Y-96790000D02*
X128000000Y-100800000D01*
X126000000Y-96790000D02*
X126000000Y-100800000D01*
%TO.C,C4*%
X146265000Y-67288748D02*
X146265000Y-67811252D01*
X147735000Y-67288748D02*
X147735000Y-67811252D01*
%TO.C,C12*%
X148265000Y-82188748D02*
X148265000Y-82711252D01*
X149735000Y-82188748D02*
X149735000Y-82711252D01*
%TO.C,R16*%
X140120000Y-81856359D02*
X140120000Y-82163641D01*
X140880000Y-81856359D02*
X140880000Y-82163641D01*
%TO.C,C9*%
X136438748Y-94015000D02*
X136961252Y-94015000D01*
X136438748Y-95485000D02*
X136961252Y-95485000D01*
%TO.C,C7*%
X134738748Y-69265000D02*
X135261252Y-69265000D01*
X134738748Y-70735000D02*
X135261252Y-70735000D01*
%TO.C,L_INST1*%
X157205000Y-101860000D02*
X157670000Y-101860000D01*
X159830000Y-101860000D02*
X160295000Y-101860000D01*
X157205170Y-101860000D02*
G75*
G02*
X157670000Y-96511864I1544830J2560000D01*
G01*
X157670000Y-101554684D02*
G75*
G02*
X157670000Y-97045316I1080000J2254684D01*
G01*
X159830000Y-96511864D02*
G75*
G02*
X160294830Y-101860000I-1080000J-2788136D01*
G01*
X159830000Y-97045316D02*
G75*
G02*
X159830000Y-101554684I-1080000J-2254684D01*
G01*
D10*
%TO.C,U6*%
X143680000Y-85680000D02*
X143680000Y-89820000D01*
X148820000Y-85680000D02*
X148820000Y-89820000D01*
D12*
X149106919Y-85590000D02*
X148776919Y-85350000D01*
X149106919Y-85110000D01*
X149106919Y-85590000D01*
G36*
X149106919Y-85590000D02*
G01*
X148776919Y-85350000D01*
X149106919Y-85110000D01*
X149106919Y-85590000D01*
G37*
%TO.C,CBAT1*%
X124875000Y-60690000D02*
X124875000Y-66810000D01*
X124875000Y-63250000D02*
X129235000Y-63250000D01*
X124875000Y-66810000D02*
X132695000Y-66810000D01*
X127135000Y-61950000D02*
X124875000Y-61950000D01*
X127135000Y-62450000D02*
X124875000Y-62450000D01*
X129235000Y-63250000D02*
X129235000Y-64250000D01*
X129235000Y-64250000D02*
X124875000Y-64250000D01*
X131095000Y-60690000D02*
X131095000Y-61610000D01*
X131095000Y-61610000D02*
X132695000Y-61610000D01*
X131095000Y-61890000D02*
X131095000Y-61610000D01*
X131095000Y-61890000D02*
X132310000Y-61890000D01*
X131095000Y-65890000D02*
X131095000Y-65610000D01*
X131095000Y-66810000D02*
X131095000Y-65890000D01*
X132695000Y-60690000D02*
X124875000Y-60690000D01*
X132695000Y-61610000D02*
X132695000Y-60690000D01*
X132695000Y-65890000D02*
X131095000Y-65890000D01*
X132695000Y-66810000D02*
X132695000Y-65890000D01*
X128735000Y-61450000D02*
X127135000Y-61450000D01*
X127135000Y-62450000D01*
X128735000Y-62450000D01*
X128735000Y-61450000D01*
X128735000Y-65050000D02*
X127135000Y-65050000D01*
X127135000Y-66050000D01*
X128735000Y-66050000D01*
X128735000Y-65050000D01*
%TO.C,U1*%
X151250000Y-64260000D02*
X151250000Y-71010000D01*
X151250000Y-64260000D02*
X169250000Y-64260000D01*
X151250000Y-89010000D02*
X151250000Y-89760000D01*
X151250000Y-89760000D02*
X152250000Y-89760000D01*
X169250000Y-64260000D02*
X169250000Y-71010000D01*
X169250000Y-70260000D02*
X151250000Y-70260000D01*
X169250000Y-89010000D02*
X169250000Y-89760000D01*
X169250000Y-89760000D02*
X168250000Y-89760000D01*
%TO.C,C6*%
X130811252Y-81765000D02*
X130288748Y-81765000D01*
X130811252Y-83235000D02*
X130288748Y-83235000D01*
%TO.C,C1*%
X136011252Y-65015000D02*
X135488748Y-65015000D01*
X136011252Y-66485000D02*
X135488748Y-66485000D01*
%TO.C,C8*%
X131011252Y-92765000D02*
X130488748Y-92765000D01*
X131011252Y-94235000D02*
X130488748Y-94235000D01*
D13*
%TO.C,U7*%
X137750000Y-71500000D02*
X139750000Y-71500000D01*
X137750000Y-74500000D02*
X139750000Y-74500000D01*
D14*
X137100000Y-71750000D02*
G75*
G02*
X136900000Y-71750000I-100000J0D01*
G01*
X136900000Y-71750000D02*
G75*
G02*
X137100000Y-71750000I100000J0D01*
G01*
D12*
%TO.C,C11*%
X141761252Y-90265000D02*
X141238748Y-90265000D01*
X141761252Y-91735000D02*
X141238748Y-91735000D01*
%TO.C,L1*%
X138675000Y-75240000D02*
X143195000Y-75240000D01*
X138675000Y-79760000D02*
X138675000Y-75240000D01*
X143195000Y-75240000D02*
X143195000Y-79760000D01*
X143195000Y-79760000D02*
X138675000Y-79760000D01*
%TO.C,Q2*%
X171302500Y-95490000D02*
X172822500Y-95490000D01*
X171302500Y-96490000D02*
X171302500Y-95490000D01*
X171302500Y-98610000D02*
X171302500Y-97610000D01*
X172822500Y-95490000D02*
X172822500Y-95540000D01*
X172822500Y-96660000D02*
X172822500Y-97440000D01*
X172822500Y-98560000D02*
X172822500Y-98610000D01*
X172822500Y-98610000D02*
X171302500Y-98610000D01*
X173362500Y-97430000D02*
X173122500Y-97100000D01*
X173602500Y-97100000D01*
X173362500Y-97430000D01*
G36*
X173362500Y-97430000D02*
G01*
X173122500Y-97100000D01*
X173602500Y-97100000D01*
X173362500Y-97430000D01*
G37*
%TO.C,R21*%
X172643641Y-93120000D02*
X172336359Y-93120000D01*
X172643641Y-93880000D02*
X172336359Y-93880000D01*
%TO.C,R26*%
X159620000Y-94663641D02*
X159620000Y-94356359D01*
X160380000Y-94663641D02*
X160380000Y-94356359D01*
%TO.C,R3*%
X136346359Y-79120000D02*
X136653641Y-79120000D01*
X136346359Y-79880000D02*
X136653641Y-79880000D01*
%TO.C,U2*%
X134590000Y-76710000D02*
X134590000Y-74290000D01*
X136910000Y-74690748D02*
X136910000Y-76710000D01*
X137110000Y-74540000D02*
X136920000Y-74400000D01*
X137110000Y-74260000D01*
X137110000Y-74540000D01*
G36*
X137110000Y-74540000D02*
G01*
X136920000Y-74400000D01*
X137110000Y-74260000D01*
X137110000Y-74540000D01*
G37*
%TO.C,R1*%
X137370000Y-76163641D02*
X137370000Y-75856359D01*
X138130000Y-76163641D02*
X138130000Y-75856359D01*
%TO.C,R25*%
X161120000Y-94663641D02*
X161120000Y-94356359D01*
X161880000Y-94663641D02*
X161880000Y-94356359D01*
%TO.C,JP1*%
X154040000Y-63450000D02*
X154040000Y-62070000D01*
X155420000Y-63450000D02*
X154040000Y-63450000D01*
X156690000Y-60690000D02*
X161880000Y-60690000D01*
X156690000Y-63450000D02*
X156690000Y-60690000D01*
X156690000Y-63450000D02*
X161880000Y-63450000D01*
X161880000Y-63450000D02*
X161880000Y-60690000D01*
%TO.C,CPT1*%
X125130000Y-84130000D02*
X132970000Y-84130000D01*
X125130000Y-85700000D02*
X125130000Y-84130000D01*
X125130000Y-91370000D02*
X125130000Y-86300000D01*
X125650000Y-84130000D02*
X125650000Y-91370000D01*
X126750000Y-84130000D02*
X126750000Y-91370000D01*
X132970000Y-84130000D02*
X132970000Y-91370000D01*
X132970000Y-91370000D02*
X125130000Y-91370000D01*
X125130000Y-86000000D02*
X124520000Y-86440000D01*
X124520000Y-85560000D01*
X125130000Y-86000000D01*
G36*
X125130000Y-86000000D02*
G01*
X124520000Y-86440000D01*
X124520000Y-85560000D01*
X125130000Y-86000000D01*
G37*
%TO.C,Moteur1*%
X140130000Y-94030000D02*
X147370000Y-94030000D01*
X140130000Y-100250000D02*
X147370000Y-100250000D01*
X140130000Y-101350000D02*
X147370000Y-101350000D01*
X140130000Y-101870000D02*
X140130000Y-94030000D01*
X141700000Y-101870000D02*
X140130000Y-101870000D01*
X147370000Y-94030000D02*
X147370000Y-101870000D01*
X147370000Y-101870000D02*
X142300000Y-101870000D01*
X142440000Y-102480000D02*
X141560000Y-102480000D01*
X142000000Y-101870000D01*
X142440000Y-102480000D01*
G36*
X142440000Y-102480000D02*
G01*
X141560000Y-102480000D01*
X142000000Y-101870000D01*
X142440000Y-102480000D01*
G37*
%TO.C,R2*%
X133120000Y-80163641D02*
X133120000Y-79856359D01*
X133880000Y-80163641D02*
X133880000Y-79856359D01*
%TO.C,R14*%
X136653641Y-92620000D02*
X136346359Y-92620000D01*
X136653641Y-93380000D02*
X136346359Y-93380000D01*
%TO.C,R27*%
X158120000Y-94663641D02*
X158120000Y-94356359D01*
X158880000Y-94663641D02*
X158880000Y-94356359D01*
%TO.C,R18*%
X171643641Y-99120000D02*
X171336359Y-99120000D01*
X171643641Y-99880000D02*
X171336359Y-99880000D01*
%TO.C,U5*%
X134325000Y-86415000D02*
X134420000Y-86415000D01*
X134325000Y-90535000D02*
X134325000Y-86415000D01*
X134420000Y-90535000D02*
X134325000Y-90535000D01*
X139350000Y-86415000D02*
X139445000Y-86415000D01*
X139445000Y-86415000D02*
X139445000Y-90535000D01*
X139445000Y-90535000D02*
X139350000Y-90535000D01*
X139685000Y-86115000D02*
X139355000Y-85875000D01*
X139685000Y-85635000D01*
X139685000Y-86115000D01*
G36*
X139685000Y-86115000D02*
G01*
X139355000Y-85875000D01*
X139685000Y-85635000D01*
X139685000Y-86115000D01*
G37*
%TO.C,R23*%
X155120000Y-94663641D02*
X155120000Y-94356359D01*
X155880000Y-94663641D02*
X155880000Y-94356359D01*
%TO.C,R24*%
X153620000Y-94663641D02*
X153620000Y-94356359D01*
X154380000Y-94663641D02*
X154380000Y-94356359D01*
%TO.C,R22*%
X156620000Y-94663641D02*
X156620000Y-94356359D01*
X157380000Y-94663641D02*
X157380000Y-94356359D01*
%TO.C,J2*%
X128735000Y-70205000D02*
X130435000Y-70205000D01*
X128735000Y-79545000D02*
X130435000Y-79545000D01*
%TO.C,R4*%
X147120000Y-76653641D02*
X147120000Y-76346359D01*
X147880000Y-76653641D02*
X147880000Y-76346359D01*
%TO.C,C13*%
X141761252Y-87515000D02*
X141238748Y-87515000D01*
X141761252Y-88985000D02*
X141238748Y-88985000D01*
%TO.C,C14*%
X138688748Y-69265000D02*
X139211252Y-69265000D01*
X138688748Y-70735000D02*
X139211252Y-70735000D01*
%TO.C,R9*%
X133120000Y-74346359D02*
X133120000Y-74653641D01*
X133880000Y-74346359D02*
X133880000Y-74653641D01*
%TO.C,R5*%
X145120000Y-77153641D02*
X145120000Y-76846359D01*
X145880000Y-77153641D02*
X145880000Y-76846359D01*
%TO.C,R11*%
X137163641Y-83620000D02*
X136856359Y-83620000D01*
X137163641Y-84380000D02*
X136856359Y-84380000D01*
%TO.C,R19*%
X148846359Y-92130000D02*
X149153641Y-92130000D01*
X148846359Y-92890000D02*
X149153641Y-92890000D01*
%TO.C,J3*%
X171595000Y-70840000D02*
X172865000Y-70840000D01*
X171595000Y-72110000D02*
X171595000Y-70840000D01*
X173942358Y-74220000D02*
X174255000Y-74220000D01*
X173942358Y-75080000D02*
X174255000Y-75080000D01*
X173942358Y-76760000D02*
X174255000Y-76760000D01*
X173942358Y-77620000D02*
X174255000Y-77620000D01*
X173942358Y-79300000D02*
X174255000Y-79300000D01*
X173942358Y-80160000D02*
X174255000Y-80160000D01*
X173942358Y-81840000D02*
X174255000Y-81840000D01*
X173942358Y-82700000D02*
X174255000Y-82700000D01*
X173942358Y-84380000D02*
X174255000Y-84380000D01*
X173942358Y-85240000D02*
X174255000Y-85240000D01*
X173942358Y-86920000D02*
X174255000Y-86920000D01*
X173942358Y-87780000D02*
X174255000Y-87780000D01*
X173942358Y-89460000D02*
X174255000Y-89460000D01*
X173942358Y-90320000D02*
X174255000Y-90320000D01*
X174025000Y-71680000D02*
X174255000Y-71680000D01*
X174025000Y-72540000D02*
X174255000Y-72540000D01*
X174255000Y-73380000D02*
X177015000Y-73380000D01*
X174255000Y-75920000D02*
X177015000Y-75920000D01*
X174255000Y-78460000D02*
X177015000Y-78460000D01*
X174255000Y-81000000D02*
X177015000Y-81000000D01*
X174255000Y-83540000D02*
X177015000Y-83540000D01*
X174255000Y-86080000D02*
X177015000Y-86080000D01*
X174255000Y-88620000D02*
X177015000Y-88620000D01*
X177015000Y-74220000D02*
X183015000Y-74220000D01*
X177015000Y-76760000D02*
X183015000Y-76760000D01*
X177015000Y-79300000D02*
X183015000Y-79300000D01*
X177015000Y-81840000D02*
X183015000Y-81840000D01*
X177015000Y-84380000D02*
X183015000Y-84380000D01*
X177015000Y-86920000D02*
X183015000Y-86920000D01*
X177015000Y-89460000D02*
X183015000Y-89460000D01*
X183015000Y-74220000D02*
X183015000Y-75080000D01*
X183015000Y-75080000D02*
X177015000Y-75080000D01*
X183015000Y-76760000D02*
X183015000Y-77620000D01*
X183015000Y-77620000D02*
X177015000Y-77620000D01*
X183015000Y-79300000D02*
X183015000Y-80160000D01*
X183015000Y-80160000D02*
X177015000Y-80160000D01*
X183015000Y-81840000D02*
X183015000Y-82700000D01*
X183015000Y-82700000D02*
X177015000Y-82700000D01*
X183015000Y-84380000D02*
X183015000Y-85240000D01*
X183015000Y-85240000D02*
X177015000Y-85240000D01*
X183015000Y-86920000D02*
X183015000Y-87780000D01*
X183015000Y-87780000D02*
X177015000Y-87780000D01*
X183015000Y-89460000D02*
X183015000Y-90320000D01*
X183015000Y-90320000D02*
X177015000Y-90320000D01*
X174255000Y-70730000D02*
X177015000Y-70730000D01*
X177015000Y-91270000D01*
X174255000Y-91270000D01*
X174255000Y-70730000D01*
X177015000Y-71680000D02*
X183015000Y-71680000D01*
X183015000Y-72540000D01*
X177015000Y-72540000D01*
X177015000Y-71680000D01*
G36*
X177015000Y-71680000D02*
G01*
X183015000Y-71680000D01*
X183015000Y-72540000D01*
X177015000Y-72540000D01*
X177015000Y-71680000D01*
G37*
D13*
%TO.C,U3*%
X139950000Y-64295000D02*
X142050000Y-64295000D01*
X139950000Y-66705000D02*
X142050000Y-66705000D01*
D14*
X139155000Y-64750000D02*
G75*
G02*
X138955000Y-64750000I-100000J0D01*
G01*
X138955000Y-64750000D02*
G75*
G02*
X139155000Y-64750000I100000J0D01*
G01*
D12*
%TO.C,R13*%
X138620000Y-83346359D02*
X138620000Y-83653641D01*
X139380000Y-83346359D02*
X139380000Y-83653641D01*
%TO.C,SW1*%
X163000000Y-94000000D02*
X163000000Y-98500000D01*
X165500000Y-99750000D02*
X167000000Y-99750000D01*
X167000000Y-92750000D02*
X165500000Y-92750000D01*
X169500000Y-98500000D02*
X169500000Y-94000000D01*
%TO.C,LBAT1*%
X149955000Y-101860000D02*
X150420000Y-101860000D01*
X152580000Y-101860000D02*
X153045000Y-101860000D01*
X149955170Y-101860000D02*
G75*
G02*
X150420000Y-96511864I1544830J2560000D01*
G01*
X150420000Y-101554684D02*
G75*
G02*
X150420000Y-97045316I1080000J2254684D01*
G01*
X152580000Y-96511864D02*
G75*
G02*
X153044830Y-101860000I-1080000J-2788136D01*
G01*
X152580000Y-97045316D02*
G75*
G02*
X152580000Y-101554684I-1080000J-2254684D01*
G01*
%TO.C,R10*%
X133120000Y-76903641D02*
X133120000Y-76596359D01*
X133880000Y-76903641D02*
X133880000Y-76596359D01*
%TO.C,R6*%
X141120000Y-70163641D02*
X141120000Y-69856359D01*
X141880000Y-70163641D02*
X141880000Y-69856359D01*
%TD*%
%LPC*%
D15*
%TO.C,U7*%
X138113000Y-71806000D02*
X138119000Y-71806000D01*
X138125000Y-71808000D01*
X138131000Y-71809000D01*
X138137000Y-71811000D01*
X138143000Y-71813000D01*
X138149000Y-71815000D01*
X138154000Y-71818000D01*
X138160000Y-71821000D01*
X138165000Y-71824000D01*
X138171000Y-71828000D01*
X138176000Y-71832000D01*
X138180000Y-71836000D01*
X138185000Y-71840000D01*
X138189000Y-71845000D01*
X138193000Y-71849000D01*
X138197000Y-71854000D01*
X138201000Y-71860000D01*
X138204000Y-71865000D01*
X138207000Y-71871000D01*
X138210000Y-71876000D01*
X138212000Y-71882000D01*
X138214000Y-71888000D01*
X138216000Y-71894000D01*
X138217000Y-71900000D01*
X138219000Y-71906000D01*
X138219000Y-71912000D01*
X138220000Y-71919000D01*
X138220000Y-71925000D01*
X138220000Y-72075000D01*
X138220000Y-72081000D01*
X138219000Y-72088000D01*
X138219000Y-72094000D01*
X138217000Y-72100000D01*
X138216000Y-72106000D01*
X138214000Y-72112000D01*
X138212000Y-72118000D01*
X138210000Y-72124000D01*
X138207000Y-72129000D01*
X138204000Y-72135000D01*
X138201000Y-72140000D01*
X138197000Y-72146000D01*
X138193000Y-72151000D01*
X138189000Y-72155000D01*
X138185000Y-72160000D01*
X138180000Y-72164000D01*
X138176000Y-72168000D01*
X138171000Y-72172000D01*
X138165000Y-72176000D01*
X138160000Y-72179000D01*
X138154000Y-72182000D01*
X138149000Y-72185000D01*
X138143000Y-72187000D01*
X138137000Y-72189000D01*
X138131000Y-72191000D01*
X138125000Y-72192000D01*
X138119000Y-72194000D01*
X138113000Y-72194000D01*
X138106000Y-72195000D01*
X138100000Y-72195000D01*
X137600000Y-72195000D01*
X137594000Y-72195000D01*
X137587000Y-72194000D01*
X137581000Y-72194000D01*
X137575000Y-72192000D01*
X137569000Y-72191000D01*
X137563000Y-72189000D01*
X137557000Y-72187000D01*
X137551000Y-72185000D01*
X137546000Y-72182000D01*
X137540000Y-72179000D01*
X137535000Y-72176000D01*
X137529000Y-72172000D01*
X137524000Y-72168000D01*
X137520000Y-72164000D01*
X137515000Y-72160000D01*
X137511000Y-72155000D01*
X137507000Y-72151000D01*
X137503000Y-72146000D01*
X137499000Y-72140000D01*
X137496000Y-72135000D01*
X137493000Y-72129000D01*
X137490000Y-72124000D01*
X137488000Y-72118000D01*
X137486000Y-72112000D01*
X137484000Y-72106000D01*
X137483000Y-72100000D01*
X137481000Y-72094000D01*
X137481000Y-72088000D01*
X137480000Y-72081000D01*
X137480000Y-72075000D01*
X137480000Y-71925000D01*
X137480000Y-71919000D01*
X137481000Y-71912000D01*
X137481000Y-71906000D01*
X137483000Y-71900000D01*
X137484000Y-71894000D01*
X137486000Y-71888000D01*
X137488000Y-71882000D01*
X137490000Y-71876000D01*
X137493000Y-71871000D01*
X137496000Y-71865000D01*
X137499000Y-71860000D01*
X137503000Y-71854000D01*
X137507000Y-71849000D01*
X137511000Y-71845000D01*
X137515000Y-71840000D01*
X137520000Y-71836000D01*
X137524000Y-71832000D01*
X137529000Y-71828000D01*
X137535000Y-71824000D01*
X137540000Y-71821000D01*
X137546000Y-71818000D01*
X137551000Y-71815000D01*
X137557000Y-71813000D01*
X137563000Y-71811000D01*
X137569000Y-71809000D01*
X137575000Y-71808000D01*
X137581000Y-71806000D01*
X137587000Y-71806000D01*
X137594000Y-71805000D01*
X137600000Y-71805000D01*
X138100000Y-71805000D01*
X138106000Y-71805000D01*
X138113000Y-71806000D01*
G36*
X138113000Y-71806000D02*
G01*
X138119000Y-71806000D01*
X138125000Y-71808000D01*
X138131000Y-71809000D01*
X138137000Y-71811000D01*
X138143000Y-71813000D01*
X138149000Y-71815000D01*
X138154000Y-71818000D01*
X138160000Y-71821000D01*
X138165000Y-71824000D01*
X138171000Y-71828000D01*
X138176000Y-71832000D01*
X138180000Y-71836000D01*
X138185000Y-71840000D01*
X138189000Y-71845000D01*
X138193000Y-71849000D01*
X138197000Y-71854000D01*
X138201000Y-71860000D01*
X138204000Y-71865000D01*
X138207000Y-71871000D01*
X138210000Y-71876000D01*
X138212000Y-71882000D01*
X138214000Y-71888000D01*
X138216000Y-71894000D01*
X138217000Y-71900000D01*
X138219000Y-71906000D01*
X138219000Y-71912000D01*
X138220000Y-71919000D01*
X138220000Y-71925000D01*
X138220000Y-72075000D01*
X138220000Y-72081000D01*
X138219000Y-72088000D01*
X138219000Y-72094000D01*
X138217000Y-72100000D01*
X138216000Y-72106000D01*
X138214000Y-72112000D01*
X138212000Y-72118000D01*
X138210000Y-72124000D01*
X138207000Y-72129000D01*
X138204000Y-72135000D01*
X138201000Y-72140000D01*
X138197000Y-72146000D01*
X138193000Y-72151000D01*
X138189000Y-72155000D01*
X138185000Y-72160000D01*
X138180000Y-72164000D01*
X138176000Y-72168000D01*
X138171000Y-72172000D01*
X138165000Y-72176000D01*
X138160000Y-72179000D01*
X138154000Y-72182000D01*
X138149000Y-72185000D01*
X138143000Y-72187000D01*
X138137000Y-72189000D01*
X138131000Y-72191000D01*
X138125000Y-72192000D01*
X138119000Y-72194000D01*
X138113000Y-72194000D01*
X138106000Y-72195000D01*
X138100000Y-72195000D01*
X137600000Y-72195000D01*
X137594000Y-72195000D01*
X137587000Y-72194000D01*
X137581000Y-72194000D01*
X137575000Y-72192000D01*
X137569000Y-72191000D01*
X137563000Y-72189000D01*
X137557000Y-72187000D01*
X137551000Y-72185000D01*
X137546000Y-72182000D01*
X137540000Y-72179000D01*
X137535000Y-72176000D01*
X137529000Y-72172000D01*
X137524000Y-72168000D01*
X137520000Y-72164000D01*
X137515000Y-72160000D01*
X137511000Y-72155000D01*
X137507000Y-72151000D01*
X137503000Y-72146000D01*
X137499000Y-72140000D01*
X137496000Y-72135000D01*
X137493000Y-72129000D01*
X137490000Y-72124000D01*
X137488000Y-72118000D01*
X137486000Y-72112000D01*
X137484000Y-72106000D01*
X137483000Y-72100000D01*
X137481000Y-72094000D01*
X137481000Y-72088000D01*
X137480000Y-72081000D01*
X137480000Y-72075000D01*
X137480000Y-71925000D01*
X137480000Y-71919000D01*
X137481000Y-71912000D01*
X137481000Y-71906000D01*
X137483000Y-71900000D01*
X137484000Y-71894000D01*
X137486000Y-71888000D01*
X137488000Y-71882000D01*
X137490000Y-71876000D01*
X137493000Y-71871000D01*
X137496000Y-71865000D01*
X137499000Y-71860000D01*
X137503000Y-71854000D01*
X137507000Y-71849000D01*
X137511000Y-71845000D01*
X137515000Y-71840000D01*
X137520000Y-71836000D01*
X137524000Y-71832000D01*
X137529000Y-71828000D01*
X137535000Y-71824000D01*
X137540000Y-71821000D01*
X137546000Y-71818000D01*
X137551000Y-71815000D01*
X137557000Y-71813000D01*
X137563000Y-71811000D01*
X137569000Y-71809000D01*
X137575000Y-71808000D01*
X137581000Y-71806000D01*
X137587000Y-71806000D01*
X137594000Y-71805000D01*
X137600000Y-71805000D01*
X138100000Y-71805000D01*
X138106000Y-71805000D01*
X138113000Y-71806000D01*
G37*
X138113000Y-72306000D02*
X138119000Y-72306000D01*
X138125000Y-72308000D01*
X138131000Y-72309000D01*
X138137000Y-72311000D01*
X138143000Y-72313000D01*
X138149000Y-72315000D01*
X138154000Y-72318000D01*
X138160000Y-72321000D01*
X138165000Y-72324000D01*
X138171000Y-72328000D01*
X138176000Y-72332000D01*
X138180000Y-72336000D01*
X138185000Y-72340000D01*
X138189000Y-72345000D01*
X138193000Y-72349000D01*
X138197000Y-72354000D01*
X138201000Y-72360000D01*
X138204000Y-72365000D01*
X138207000Y-72371000D01*
X138210000Y-72376000D01*
X138212000Y-72382000D01*
X138214000Y-72388000D01*
X138216000Y-72394000D01*
X138217000Y-72400000D01*
X138219000Y-72406000D01*
X138219000Y-72412000D01*
X138220000Y-72419000D01*
X138220000Y-72425000D01*
X138220000Y-72575000D01*
X138220000Y-72581000D01*
X138219000Y-72588000D01*
X138219000Y-72594000D01*
X138217000Y-72600000D01*
X138216000Y-72606000D01*
X138214000Y-72612000D01*
X138212000Y-72618000D01*
X138210000Y-72624000D01*
X138207000Y-72629000D01*
X138204000Y-72635000D01*
X138201000Y-72640000D01*
X138197000Y-72646000D01*
X138193000Y-72651000D01*
X138189000Y-72655000D01*
X138185000Y-72660000D01*
X138180000Y-72664000D01*
X138176000Y-72668000D01*
X138171000Y-72672000D01*
X138165000Y-72676000D01*
X138160000Y-72679000D01*
X138154000Y-72682000D01*
X138149000Y-72685000D01*
X138143000Y-72687000D01*
X138137000Y-72689000D01*
X138131000Y-72691000D01*
X138125000Y-72692000D01*
X138119000Y-72694000D01*
X138113000Y-72694000D01*
X138106000Y-72695000D01*
X138100000Y-72695000D01*
X137600000Y-72695000D01*
X137594000Y-72695000D01*
X137587000Y-72694000D01*
X137581000Y-72694000D01*
X137575000Y-72692000D01*
X137569000Y-72691000D01*
X137563000Y-72689000D01*
X137557000Y-72687000D01*
X137551000Y-72685000D01*
X137546000Y-72682000D01*
X137540000Y-72679000D01*
X137535000Y-72676000D01*
X137529000Y-72672000D01*
X137524000Y-72668000D01*
X137520000Y-72664000D01*
X137515000Y-72660000D01*
X137511000Y-72655000D01*
X137507000Y-72651000D01*
X137503000Y-72646000D01*
X137499000Y-72640000D01*
X137496000Y-72635000D01*
X137493000Y-72629000D01*
X137490000Y-72624000D01*
X137488000Y-72618000D01*
X137486000Y-72612000D01*
X137484000Y-72606000D01*
X137483000Y-72600000D01*
X137481000Y-72594000D01*
X137481000Y-72588000D01*
X137480000Y-72581000D01*
X137480000Y-72575000D01*
X137480000Y-72425000D01*
X137480000Y-72419000D01*
X137481000Y-72412000D01*
X137481000Y-72406000D01*
X137483000Y-72400000D01*
X137484000Y-72394000D01*
X137486000Y-72388000D01*
X137488000Y-72382000D01*
X137490000Y-72376000D01*
X137493000Y-72371000D01*
X137496000Y-72365000D01*
X137499000Y-72360000D01*
X137503000Y-72354000D01*
X137507000Y-72349000D01*
X137511000Y-72345000D01*
X137515000Y-72340000D01*
X137520000Y-72336000D01*
X137524000Y-72332000D01*
X137529000Y-72328000D01*
X137535000Y-72324000D01*
X137540000Y-72321000D01*
X137546000Y-72318000D01*
X137551000Y-72315000D01*
X137557000Y-72313000D01*
X137563000Y-72311000D01*
X137569000Y-72309000D01*
X137575000Y-72308000D01*
X137581000Y-72306000D01*
X137587000Y-72306000D01*
X137594000Y-72305000D01*
X137600000Y-72305000D01*
X138100000Y-72305000D01*
X138106000Y-72305000D01*
X138113000Y-72306000D01*
G36*
X138113000Y-72306000D02*
G01*
X138119000Y-72306000D01*
X138125000Y-72308000D01*
X138131000Y-72309000D01*
X138137000Y-72311000D01*
X138143000Y-72313000D01*
X138149000Y-72315000D01*
X138154000Y-72318000D01*
X138160000Y-72321000D01*
X138165000Y-72324000D01*
X138171000Y-72328000D01*
X138176000Y-72332000D01*
X138180000Y-72336000D01*
X138185000Y-72340000D01*
X138189000Y-72345000D01*
X138193000Y-72349000D01*
X138197000Y-72354000D01*
X138201000Y-72360000D01*
X138204000Y-72365000D01*
X138207000Y-72371000D01*
X138210000Y-72376000D01*
X138212000Y-72382000D01*
X138214000Y-72388000D01*
X138216000Y-72394000D01*
X138217000Y-72400000D01*
X138219000Y-72406000D01*
X138219000Y-72412000D01*
X138220000Y-72419000D01*
X138220000Y-72425000D01*
X138220000Y-72575000D01*
X138220000Y-72581000D01*
X138219000Y-72588000D01*
X138219000Y-72594000D01*
X138217000Y-72600000D01*
X138216000Y-72606000D01*
X138214000Y-72612000D01*
X138212000Y-72618000D01*
X138210000Y-72624000D01*
X138207000Y-72629000D01*
X138204000Y-72635000D01*
X138201000Y-72640000D01*
X138197000Y-72646000D01*
X138193000Y-72651000D01*
X138189000Y-72655000D01*
X138185000Y-72660000D01*
X138180000Y-72664000D01*
X138176000Y-72668000D01*
X138171000Y-72672000D01*
X138165000Y-72676000D01*
X138160000Y-72679000D01*
X138154000Y-72682000D01*
X138149000Y-72685000D01*
X138143000Y-72687000D01*
X138137000Y-72689000D01*
X138131000Y-72691000D01*
X138125000Y-72692000D01*
X138119000Y-72694000D01*
X138113000Y-72694000D01*
X138106000Y-72695000D01*
X138100000Y-72695000D01*
X137600000Y-72695000D01*
X137594000Y-72695000D01*
X137587000Y-72694000D01*
X137581000Y-72694000D01*
X137575000Y-72692000D01*
X137569000Y-72691000D01*
X137563000Y-72689000D01*
X137557000Y-72687000D01*
X137551000Y-72685000D01*
X137546000Y-72682000D01*
X137540000Y-72679000D01*
X137535000Y-72676000D01*
X137529000Y-72672000D01*
X137524000Y-72668000D01*
X137520000Y-72664000D01*
X137515000Y-72660000D01*
X137511000Y-72655000D01*
X137507000Y-72651000D01*
X137503000Y-72646000D01*
X137499000Y-72640000D01*
X137496000Y-72635000D01*
X137493000Y-72629000D01*
X137490000Y-72624000D01*
X137488000Y-72618000D01*
X137486000Y-72612000D01*
X137484000Y-72606000D01*
X137483000Y-72600000D01*
X137481000Y-72594000D01*
X137481000Y-72588000D01*
X137480000Y-72581000D01*
X137480000Y-72575000D01*
X137480000Y-72425000D01*
X137480000Y-72419000D01*
X137481000Y-72412000D01*
X137481000Y-72406000D01*
X137483000Y-72400000D01*
X137484000Y-72394000D01*
X137486000Y-72388000D01*
X137488000Y-72382000D01*
X137490000Y-72376000D01*
X137493000Y-72371000D01*
X137496000Y-72365000D01*
X137499000Y-72360000D01*
X137503000Y-72354000D01*
X137507000Y-72349000D01*
X137511000Y-72345000D01*
X137515000Y-72340000D01*
X137520000Y-72336000D01*
X137524000Y-72332000D01*
X137529000Y-72328000D01*
X137535000Y-72324000D01*
X137540000Y-72321000D01*
X137546000Y-72318000D01*
X137551000Y-72315000D01*
X137557000Y-72313000D01*
X137563000Y-72311000D01*
X137569000Y-72309000D01*
X137575000Y-72308000D01*
X137581000Y-72306000D01*
X137587000Y-72306000D01*
X137594000Y-72305000D01*
X137600000Y-72305000D01*
X138100000Y-72305000D01*
X138106000Y-72305000D01*
X138113000Y-72306000D01*
G37*
X138113000Y-72806000D02*
X138119000Y-72806000D01*
X138125000Y-72808000D01*
X138131000Y-72809000D01*
X138137000Y-72811000D01*
X138143000Y-72813000D01*
X138149000Y-72815000D01*
X138154000Y-72818000D01*
X138160000Y-72821000D01*
X138165000Y-72824000D01*
X138171000Y-72828000D01*
X138176000Y-72832000D01*
X138180000Y-72836000D01*
X138185000Y-72840000D01*
X138189000Y-72845000D01*
X138193000Y-72849000D01*
X138197000Y-72854000D01*
X138201000Y-72860000D01*
X138204000Y-72865000D01*
X138207000Y-72871000D01*
X138210000Y-72876000D01*
X138212000Y-72882000D01*
X138214000Y-72888000D01*
X138216000Y-72894000D01*
X138217000Y-72900000D01*
X138219000Y-72906000D01*
X138219000Y-72912000D01*
X138220000Y-72919000D01*
X138220000Y-72925000D01*
X138220000Y-73075000D01*
X138220000Y-73081000D01*
X138219000Y-73088000D01*
X138219000Y-73094000D01*
X138217000Y-73100000D01*
X138216000Y-73106000D01*
X138214000Y-73112000D01*
X138212000Y-73118000D01*
X138210000Y-73124000D01*
X138207000Y-73129000D01*
X138204000Y-73135000D01*
X138201000Y-73140000D01*
X138197000Y-73146000D01*
X138193000Y-73151000D01*
X138189000Y-73155000D01*
X138185000Y-73160000D01*
X138180000Y-73164000D01*
X138176000Y-73168000D01*
X138171000Y-73172000D01*
X138165000Y-73176000D01*
X138160000Y-73179000D01*
X138154000Y-73182000D01*
X138149000Y-73185000D01*
X138143000Y-73187000D01*
X138137000Y-73189000D01*
X138131000Y-73191000D01*
X138125000Y-73192000D01*
X138119000Y-73194000D01*
X138113000Y-73194000D01*
X138106000Y-73195000D01*
X138100000Y-73195000D01*
X137600000Y-73195000D01*
X137594000Y-73195000D01*
X137587000Y-73194000D01*
X137581000Y-73194000D01*
X137575000Y-73192000D01*
X137569000Y-73191000D01*
X137563000Y-73189000D01*
X137557000Y-73187000D01*
X137551000Y-73185000D01*
X137546000Y-73182000D01*
X137540000Y-73179000D01*
X137535000Y-73176000D01*
X137529000Y-73172000D01*
X137524000Y-73168000D01*
X137520000Y-73164000D01*
X137515000Y-73160000D01*
X137511000Y-73155000D01*
X137507000Y-73151000D01*
X137503000Y-73146000D01*
X137499000Y-73140000D01*
X137496000Y-73135000D01*
X137493000Y-73129000D01*
X137490000Y-73124000D01*
X137488000Y-73118000D01*
X137486000Y-73112000D01*
X137484000Y-73106000D01*
X137483000Y-73100000D01*
X137481000Y-73094000D01*
X137481000Y-73088000D01*
X137480000Y-73081000D01*
X137480000Y-73075000D01*
X137480000Y-72925000D01*
X137480000Y-72919000D01*
X137481000Y-72912000D01*
X137481000Y-72906000D01*
X137483000Y-72900000D01*
X137484000Y-72894000D01*
X137486000Y-72888000D01*
X137488000Y-72882000D01*
X137490000Y-72876000D01*
X137493000Y-72871000D01*
X137496000Y-72865000D01*
X137499000Y-72860000D01*
X137503000Y-72854000D01*
X137507000Y-72849000D01*
X137511000Y-72845000D01*
X137515000Y-72840000D01*
X137520000Y-72836000D01*
X137524000Y-72832000D01*
X137529000Y-72828000D01*
X137535000Y-72824000D01*
X137540000Y-72821000D01*
X137546000Y-72818000D01*
X137551000Y-72815000D01*
X137557000Y-72813000D01*
X137563000Y-72811000D01*
X137569000Y-72809000D01*
X137575000Y-72808000D01*
X137581000Y-72806000D01*
X137587000Y-72806000D01*
X137594000Y-72805000D01*
X137600000Y-72805000D01*
X138100000Y-72805000D01*
X138106000Y-72805000D01*
X138113000Y-72806000D01*
G36*
X138113000Y-72806000D02*
G01*
X138119000Y-72806000D01*
X138125000Y-72808000D01*
X138131000Y-72809000D01*
X138137000Y-72811000D01*
X138143000Y-72813000D01*
X138149000Y-72815000D01*
X138154000Y-72818000D01*
X138160000Y-72821000D01*
X138165000Y-72824000D01*
X138171000Y-72828000D01*
X138176000Y-72832000D01*
X138180000Y-72836000D01*
X138185000Y-72840000D01*
X138189000Y-72845000D01*
X138193000Y-72849000D01*
X138197000Y-72854000D01*
X138201000Y-72860000D01*
X138204000Y-72865000D01*
X138207000Y-72871000D01*
X138210000Y-72876000D01*
X138212000Y-72882000D01*
X138214000Y-72888000D01*
X138216000Y-72894000D01*
X138217000Y-72900000D01*
X138219000Y-72906000D01*
X138219000Y-72912000D01*
X138220000Y-72919000D01*
X138220000Y-72925000D01*
X138220000Y-73075000D01*
X138220000Y-73081000D01*
X138219000Y-73088000D01*
X138219000Y-73094000D01*
X138217000Y-73100000D01*
X138216000Y-73106000D01*
X138214000Y-73112000D01*
X138212000Y-73118000D01*
X138210000Y-73124000D01*
X138207000Y-73129000D01*
X138204000Y-73135000D01*
X138201000Y-73140000D01*
X138197000Y-73146000D01*
X138193000Y-73151000D01*
X138189000Y-73155000D01*
X138185000Y-73160000D01*
X138180000Y-73164000D01*
X138176000Y-73168000D01*
X138171000Y-73172000D01*
X138165000Y-73176000D01*
X138160000Y-73179000D01*
X138154000Y-73182000D01*
X138149000Y-73185000D01*
X138143000Y-73187000D01*
X138137000Y-73189000D01*
X138131000Y-73191000D01*
X138125000Y-73192000D01*
X138119000Y-73194000D01*
X138113000Y-73194000D01*
X138106000Y-73195000D01*
X138100000Y-73195000D01*
X137600000Y-73195000D01*
X137594000Y-73195000D01*
X137587000Y-73194000D01*
X137581000Y-73194000D01*
X137575000Y-73192000D01*
X137569000Y-73191000D01*
X137563000Y-73189000D01*
X137557000Y-73187000D01*
X137551000Y-73185000D01*
X137546000Y-73182000D01*
X137540000Y-73179000D01*
X137535000Y-73176000D01*
X137529000Y-73172000D01*
X137524000Y-73168000D01*
X137520000Y-73164000D01*
X137515000Y-73160000D01*
X137511000Y-73155000D01*
X137507000Y-73151000D01*
X137503000Y-73146000D01*
X137499000Y-73140000D01*
X137496000Y-73135000D01*
X137493000Y-73129000D01*
X137490000Y-73124000D01*
X137488000Y-73118000D01*
X137486000Y-73112000D01*
X137484000Y-73106000D01*
X137483000Y-73100000D01*
X137481000Y-73094000D01*
X137481000Y-73088000D01*
X137480000Y-73081000D01*
X137480000Y-73075000D01*
X137480000Y-72925000D01*
X137480000Y-72919000D01*
X137481000Y-72912000D01*
X137481000Y-72906000D01*
X137483000Y-72900000D01*
X137484000Y-72894000D01*
X137486000Y-72888000D01*
X137488000Y-72882000D01*
X137490000Y-72876000D01*
X137493000Y-72871000D01*
X137496000Y-72865000D01*
X137499000Y-72860000D01*
X137503000Y-72854000D01*
X137507000Y-72849000D01*
X137511000Y-72845000D01*
X137515000Y-72840000D01*
X137520000Y-72836000D01*
X137524000Y-72832000D01*
X137529000Y-72828000D01*
X137535000Y-72824000D01*
X137540000Y-72821000D01*
X137546000Y-72818000D01*
X137551000Y-72815000D01*
X137557000Y-72813000D01*
X137563000Y-72811000D01*
X137569000Y-72809000D01*
X137575000Y-72808000D01*
X137581000Y-72806000D01*
X137587000Y-72806000D01*
X137594000Y-72805000D01*
X137600000Y-72805000D01*
X138100000Y-72805000D01*
X138106000Y-72805000D01*
X138113000Y-72806000D01*
G37*
X138113000Y-73306000D02*
X138119000Y-73306000D01*
X138125000Y-73308000D01*
X138131000Y-73309000D01*
X138137000Y-73311000D01*
X138143000Y-73313000D01*
X138149000Y-73315000D01*
X138154000Y-73318000D01*
X138160000Y-73321000D01*
X138165000Y-73324000D01*
X138171000Y-73328000D01*
X138176000Y-73332000D01*
X138180000Y-73336000D01*
X138185000Y-73340000D01*
X138189000Y-73345000D01*
X138193000Y-73349000D01*
X138197000Y-73354000D01*
X138201000Y-73360000D01*
X138204000Y-73365000D01*
X138207000Y-73371000D01*
X138210000Y-73376000D01*
X138212000Y-73382000D01*
X138214000Y-73388000D01*
X138216000Y-73394000D01*
X138217000Y-73400000D01*
X138219000Y-73406000D01*
X138219000Y-73412000D01*
X138220000Y-73419000D01*
X138220000Y-73425000D01*
X138220000Y-73575000D01*
X138220000Y-73581000D01*
X138219000Y-73588000D01*
X138219000Y-73594000D01*
X138217000Y-73600000D01*
X138216000Y-73606000D01*
X138214000Y-73612000D01*
X138212000Y-73618000D01*
X138210000Y-73624000D01*
X138207000Y-73629000D01*
X138204000Y-73635000D01*
X138201000Y-73640000D01*
X138197000Y-73646000D01*
X138193000Y-73651000D01*
X138189000Y-73655000D01*
X138185000Y-73660000D01*
X138180000Y-73664000D01*
X138176000Y-73668000D01*
X138171000Y-73672000D01*
X138165000Y-73676000D01*
X138160000Y-73679000D01*
X138154000Y-73682000D01*
X138149000Y-73685000D01*
X138143000Y-73687000D01*
X138137000Y-73689000D01*
X138131000Y-73691000D01*
X138125000Y-73692000D01*
X138119000Y-73694000D01*
X138113000Y-73694000D01*
X138106000Y-73695000D01*
X138100000Y-73695000D01*
X137600000Y-73695000D01*
X137594000Y-73695000D01*
X137587000Y-73694000D01*
X137581000Y-73694000D01*
X137575000Y-73692000D01*
X137569000Y-73691000D01*
X137563000Y-73689000D01*
X137557000Y-73687000D01*
X137551000Y-73685000D01*
X137546000Y-73682000D01*
X137540000Y-73679000D01*
X137535000Y-73676000D01*
X137529000Y-73672000D01*
X137524000Y-73668000D01*
X137520000Y-73664000D01*
X137515000Y-73660000D01*
X137511000Y-73655000D01*
X137507000Y-73651000D01*
X137503000Y-73646000D01*
X137499000Y-73640000D01*
X137496000Y-73635000D01*
X137493000Y-73629000D01*
X137490000Y-73624000D01*
X137488000Y-73618000D01*
X137486000Y-73612000D01*
X137484000Y-73606000D01*
X137483000Y-73600000D01*
X137481000Y-73594000D01*
X137481000Y-73588000D01*
X137480000Y-73581000D01*
X137480000Y-73575000D01*
X137480000Y-73425000D01*
X137480000Y-73419000D01*
X137481000Y-73412000D01*
X137481000Y-73406000D01*
X137483000Y-73400000D01*
X137484000Y-73394000D01*
X137486000Y-73388000D01*
X137488000Y-73382000D01*
X137490000Y-73376000D01*
X137493000Y-73371000D01*
X137496000Y-73365000D01*
X137499000Y-73360000D01*
X137503000Y-73354000D01*
X137507000Y-73349000D01*
X137511000Y-73345000D01*
X137515000Y-73340000D01*
X137520000Y-73336000D01*
X137524000Y-73332000D01*
X137529000Y-73328000D01*
X137535000Y-73324000D01*
X137540000Y-73321000D01*
X137546000Y-73318000D01*
X137551000Y-73315000D01*
X137557000Y-73313000D01*
X137563000Y-73311000D01*
X137569000Y-73309000D01*
X137575000Y-73308000D01*
X137581000Y-73306000D01*
X137587000Y-73306000D01*
X137594000Y-73305000D01*
X137600000Y-73305000D01*
X138100000Y-73305000D01*
X138106000Y-73305000D01*
X138113000Y-73306000D01*
G36*
X138113000Y-73306000D02*
G01*
X138119000Y-73306000D01*
X138125000Y-73308000D01*
X138131000Y-73309000D01*
X138137000Y-73311000D01*
X138143000Y-73313000D01*
X138149000Y-73315000D01*
X138154000Y-73318000D01*
X138160000Y-73321000D01*
X138165000Y-73324000D01*
X138171000Y-73328000D01*
X138176000Y-73332000D01*
X138180000Y-73336000D01*
X138185000Y-73340000D01*
X138189000Y-73345000D01*
X138193000Y-73349000D01*
X138197000Y-73354000D01*
X138201000Y-73360000D01*
X138204000Y-73365000D01*
X138207000Y-73371000D01*
X138210000Y-73376000D01*
X138212000Y-73382000D01*
X138214000Y-73388000D01*
X138216000Y-73394000D01*
X138217000Y-73400000D01*
X138219000Y-73406000D01*
X138219000Y-73412000D01*
X138220000Y-73419000D01*
X138220000Y-73425000D01*
X138220000Y-73575000D01*
X138220000Y-73581000D01*
X138219000Y-73588000D01*
X138219000Y-73594000D01*
X138217000Y-73600000D01*
X138216000Y-73606000D01*
X138214000Y-73612000D01*
X138212000Y-73618000D01*
X138210000Y-73624000D01*
X138207000Y-73629000D01*
X138204000Y-73635000D01*
X138201000Y-73640000D01*
X138197000Y-73646000D01*
X138193000Y-73651000D01*
X138189000Y-73655000D01*
X138185000Y-73660000D01*
X138180000Y-73664000D01*
X138176000Y-73668000D01*
X138171000Y-73672000D01*
X138165000Y-73676000D01*
X138160000Y-73679000D01*
X138154000Y-73682000D01*
X138149000Y-73685000D01*
X138143000Y-73687000D01*
X138137000Y-73689000D01*
X138131000Y-73691000D01*
X138125000Y-73692000D01*
X138119000Y-73694000D01*
X138113000Y-73694000D01*
X138106000Y-73695000D01*
X138100000Y-73695000D01*
X137600000Y-73695000D01*
X137594000Y-73695000D01*
X137587000Y-73694000D01*
X137581000Y-73694000D01*
X137575000Y-73692000D01*
X137569000Y-73691000D01*
X137563000Y-73689000D01*
X137557000Y-73687000D01*
X137551000Y-73685000D01*
X137546000Y-73682000D01*
X137540000Y-73679000D01*
X137535000Y-73676000D01*
X137529000Y-73672000D01*
X137524000Y-73668000D01*
X137520000Y-73664000D01*
X137515000Y-73660000D01*
X137511000Y-73655000D01*
X137507000Y-73651000D01*
X137503000Y-73646000D01*
X137499000Y-73640000D01*
X137496000Y-73635000D01*
X137493000Y-73629000D01*
X137490000Y-73624000D01*
X137488000Y-73618000D01*
X137486000Y-73612000D01*
X137484000Y-73606000D01*
X137483000Y-73600000D01*
X137481000Y-73594000D01*
X137481000Y-73588000D01*
X137480000Y-73581000D01*
X137480000Y-73575000D01*
X137480000Y-73425000D01*
X137480000Y-73419000D01*
X137481000Y-73412000D01*
X137481000Y-73406000D01*
X137483000Y-73400000D01*
X137484000Y-73394000D01*
X137486000Y-73388000D01*
X137488000Y-73382000D01*
X137490000Y-73376000D01*
X137493000Y-73371000D01*
X137496000Y-73365000D01*
X137499000Y-73360000D01*
X137503000Y-73354000D01*
X137507000Y-73349000D01*
X137511000Y-73345000D01*
X137515000Y-73340000D01*
X137520000Y-73336000D01*
X137524000Y-73332000D01*
X137529000Y-73328000D01*
X137535000Y-73324000D01*
X137540000Y-73321000D01*
X137546000Y-73318000D01*
X137551000Y-73315000D01*
X137557000Y-73313000D01*
X137563000Y-73311000D01*
X137569000Y-73309000D01*
X137575000Y-73308000D01*
X137581000Y-73306000D01*
X137587000Y-73306000D01*
X137594000Y-73305000D01*
X137600000Y-73305000D01*
X138100000Y-73305000D01*
X138106000Y-73305000D01*
X138113000Y-73306000D01*
G37*
X138113000Y-73806000D02*
X138119000Y-73806000D01*
X138125000Y-73808000D01*
X138131000Y-73809000D01*
X138137000Y-73811000D01*
X138143000Y-73813000D01*
X138149000Y-73815000D01*
X138154000Y-73818000D01*
X138160000Y-73821000D01*
X138165000Y-73824000D01*
X138171000Y-73828000D01*
X138176000Y-73832000D01*
X138180000Y-73836000D01*
X138185000Y-73840000D01*
X138189000Y-73845000D01*
X138193000Y-73849000D01*
X138197000Y-73854000D01*
X138201000Y-73860000D01*
X138204000Y-73865000D01*
X138207000Y-73871000D01*
X138210000Y-73876000D01*
X138212000Y-73882000D01*
X138214000Y-73888000D01*
X138216000Y-73894000D01*
X138217000Y-73900000D01*
X138219000Y-73906000D01*
X138219000Y-73912000D01*
X138220000Y-73919000D01*
X138220000Y-73925000D01*
X138220000Y-74075000D01*
X138220000Y-74081000D01*
X138219000Y-74088000D01*
X138219000Y-74094000D01*
X138217000Y-74100000D01*
X138216000Y-74106000D01*
X138214000Y-74112000D01*
X138212000Y-74118000D01*
X138210000Y-74124000D01*
X138207000Y-74129000D01*
X138204000Y-74135000D01*
X138201000Y-74140000D01*
X138197000Y-74146000D01*
X138193000Y-74151000D01*
X138189000Y-74155000D01*
X138185000Y-74160000D01*
X138180000Y-74164000D01*
X138176000Y-74168000D01*
X138171000Y-74172000D01*
X138165000Y-74176000D01*
X138160000Y-74179000D01*
X138154000Y-74182000D01*
X138149000Y-74185000D01*
X138143000Y-74187000D01*
X138137000Y-74189000D01*
X138131000Y-74191000D01*
X138125000Y-74192000D01*
X138119000Y-74194000D01*
X138113000Y-74194000D01*
X138106000Y-74195000D01*
X138100000Y-74195000D01*
X137600000Y-74195000D01*
X137594000Y-74195000D01*
X137587000Y-74194000D01*
X137581000Y-74194000D01*
X137575000Y-74192000D01*
X137569000Y-74191000D01*
X137563000Y-74189000D01*
X137557000Y-74187000D01*
X137551000Y-74185000D01*
X137546000Y-74182000D01*
X137540000Y-74179000D01*
X137535000Y-74176000D01*
X137529000Y-74172000D01*
X137524000Y-74168000D01*
X137520000Y-74164000D01*
X137515000Y-74160000D01*
X137511000Y-74155000D01*
X137507000Y-74151000D01*
X137503000Y-74146000D01*
X137499000Y-74140000D01*
X137496000Y-74135000D01*
X137493000Y-74129000D01*
X137490000Y-74124000D01*
X137488000Y-74118000D01*
X137486000Y-74112000D01*
X137484000Y-74106000D01*
X137483000Y-74100000D01*
X137481000Y-74094000D01*
X137481000Y-74088000D01*
X137480000Y-74081000D01*
X137480000Y-74075000D01*
X137480000Y-73925000D01*
X137480000Y-73919000D01*
X137481000Y-73912000D01*
X137481000Y-73906000D01*
X137483000Y-73900000D01*
X137484000Y-73894000D01*
X137486000Y-73888000D01*
X137488000Y-73882000D01*
X137490000Y-73876000D01*
X137493000Y-73871000D01*
X137496000Y-73865000D01*
X137499000Y-73860000D01*
X137503000Y-73854000D01*
X137507000Y-73849000D01*
X137511000Y-73845000D01*
X137515000Y-73840000D01*
X137520000Y-73836000D01*
X137524000Y-73832000D01*
X137529000Y-73828000D01*
X137535000Y-73824000D01*
X137540000Y-73821000D01*
X137546000Y-73818000D01*
X137551000Y-73815000D01*
X137557000Y-73813000D01*
X137563000Y-73811000D01*
X137569000Y-73809000D01*
X137575000Y-73808000D01*
X137581000Y-73806000D01*
X137587000Y-73806000D01*
X137594000Y-73805000D01*
X137600000Y-73805000D01*
X138100000Y-73805000D01*
X138106000Y-73805000D01*
X138113000Y-73806000D01*
G36*
X138113000Y-73806000D02*
G01*
X138119000Y-73806000D01*
X138125000Y-73808000D01*
X138131000Y-73809000D01*
X138137000Y-73811000D01*
X138143000Y-73813000D01*
X138149000Y-73815000D01*
X138154000Y-73818000D01*
X138160000Y-73821000D01*
X138165000Y-73824000D01*
X138171000Y-73828000D01*
X138176000Y-73832000D01*
X138180000Y-73836000D01*
X138185000Y-73840000D01*
X138189000Y-73845000D01*
X138193000Y-73849000D01*
X138197000Y-73854000D01*
X138201000Y-73860000D01*
X138204000Y-73865000D01*
X138207000Y-73871000D01*
X138210000Y-73876000D01*
X138212000Y-73882000D01*
X138214000Y-73888000D01*
X138216000Y-73894000D01*
X138217000Y-73900000D01*
X138219000Y-73906000D01*
X138219000Y-73912000D01*
X138220000Y-73919000D01*
X138220000Y-73925000D01*
X138220000Y-74075000D01*
X138220000Y-74081000D01*
X138219000Y-74088000D01*
X138219000Y-74094000D01*
X138217000Y-74100000D01*
X138216000Y-74106000D01*
X138214000Y-74112000D01*
X138212000Y-74118000D01*
X138210000Y-74124000D01*
X138207000Y-74129000D01*
X138204000Y-74135000D01*
X138201000Y-74140000D01*
X138197000Y-74146000D01*
X138193000Y-74151000D01*
X138189000Y-74155000D01*
X138185000Y-74160000D01*
X138180000Y-74164000D01*
X138176000Y-74168000D01*
X138171000Y-74172000D01*
X138165000Y-74176000D01*
X138160000Y-74179000D01*
X138154000Y-74182000D01*
X138149000Y-74185000D01*
X138143000Y-74187000D01*
X138137000Y-74189000D01*
X138131000Y-74191000D01*
X138125000Y-74192000D01*
X138119000Y-74194000D01*
X138113000Y-74194000D01*
X138106000Y-74195000D01*
X138100000Y-74195000D01*
X137600000Y-74195000D01*
X137594000Y-74195000D01*
X137587000Y-74194000D01*
X137581000Y-74194000D01*
X137575000Y-74192000D01*
X137569000Y-74191000D01*
X137563000Y-74189000D01*
X137557000Y-74187000D01*
X137551000Y-74185000D01*
X137546000Y-74182000D01*
X137540000Y-74179000D01*
X137535000Y-74176000D01*
X137529000Y-74172000D01*
X137524000Y-74168000D01*
X137520000Y-74164000D01*
X137515000Y-74160000D01*
X137511000Y-74155000D01*
X137507000Y-74151000D01*
X137503000Y-74146000D01*
X137499000Y-74140000D01*
X137496000Y-74135000D01*
X137493000Y-74129000D01*
X137490000Y-74124000D01*
X137488000Y-74118000D01*
X137486000Y-74112000D01*
X137484000Y-74106000D01*
X137483000Y-74100000D01*
X137481000Y-74094000D01*
X137481000Y-74088000D01*
X137480000Y-74081000D01*
X137480000Y-74075000D01*
X137480000Y-73925000D01*
X137480000Y-73919000D01*
X137481000Y-73912000D01*
X137481000Y-73906000D01*
X137483000Y-73900000D01*
X137484000Y-73894000D01*
X137486000Y-73888000D01*
X137488000Y-73882000D01*
X137490000Y-73876000D01*
X137493000Y-73871000D01*
X137496000Y-73865000D01*
X137499000Y-73860000D01*
X137503000Y-73854000D01*
X137507000Y-73849000D01*
X137511000Y-73845000D01*
X137515000Y-73840000D01*
X137520000Y-73836000D01*
X137524000Y-73832000D01*
X137529000Y-73828000D01*
X137535000Y-73824000D01*
X137540000Y-73821000D01*
X137546000Y-73818000D01*
X137551000Y-73815000D01*
X137557000Y-73813000D01*
X137563000Y-73811000D01*
X137569000Y-73809000D01*
X137575000Y-73808000D01*
X137581000Y-73806000D01*
X137587000Y-73806000D01*
X137594000Y-73805000D01*
X137600000Y-73805000D01*
X138100000Y-73805000D01*
X138106000Y-73805000D01*
X138113000Y-73806000D01*
G37*
X139913000Y-71806000D02*
X139919000Y-71806000D01*
X139925000Y-71808000D01*
X139931000Y-71809000D01*
X139937000Y-71811000D01*
X139943000Y-71813000D01*
X139949000Y-71815000D01*
X139954000Y-71818000D01*
X139960000Y-71821000D01*
X139965000Y-71824000D01*
X139971000Y-71828000D01*
X139976000Y-71832000D01*
X139980000Y-71836000D01*
X139985000Y-71840000D01*
X139989000Y-71845000D01*
X139993000Y-71849000D01*
X139997000Y-71854000D01*
X140001000Y-71860000D01*
X140004000Y-71865000D01*
X140007000Y-71871000D01*
X140010000Y-71876000D01*
X140012000Y-71882000D01*
X140014000Y-71888000D01*
X140016000Y-71894000D01*
X140017000Y-71900000D01*
X140019000Y-71906000D01*
X140019000Y-71912000D01*
X140020000Y-71919000D01*
X140020000Y-71925000D01*
X140020000Y-72075000D01*
X140020000Y-72081000D01*
X140019000Y-72088000D01*
X140019000Y-72094000D01*
X140017000Y-72100000D01*
X140016000Y-72106000D01*
X140014000Y-72112000D01*
X140012000Y-72118000D01*
X140010000Y-72124000D01*
X140007000Y-72129000D01*
X140004000Y-72135000D01*
X140001000Y-72140000D01*
X139997000Y-72146000D01*
X139993000Y-72151000D01*
X139989000Y-72155000D01*
X139985000Y-72160000D01*
X139980000Y-72164000D01*
X139976000Y-72168000D01*
X139971000Y-72172000D01*
X139965000Y-72176000D01*
X139960000Y-72179000D01*
X139954000Y-72182000D01*
X139949000Y-72185000D01*
X139943000Y-72187000D01*
X139937000Y-72189000D01*
X139931000Y-72191000D01*
X139925000Y-72192000D01*
X139919000Y-72194000D01*
X139913000Y-72194000D01*
X139906000Y-72195000D01*
X139900000Y-72195000D01*
X139100000Y-72195000D01*
X139094000Y-72195000D01*
X139087000Y-72194000D01*
X139081000Y-72194000D01*
X139075000Y-72192000D01*
X139069000Y-72191000D01*
X139063000Y-72189000D01*
X139057000Y-72187000D01*
X139051000Y-72185000D01*
X139046000Y-72182000D01*
X139040000Y-72179000D01*
X139035000Y-72176000D01*
X139029000Y-72172000D01*
X139024000Y-72168000D01*
X139020000Y-72164000D01*
X139015000Y-72160000D01*
X139011000Y-72155000D01*
X139007000Y-72151000D01*
X139003000Y-72146000D01*
X138999000Y-72140000D01*
X138996000Y-72135000D01*
X138993000Y-72129000D01*
X138990000Y-72124000D01*
X138988000Y-72118000D01*
X138986000Y-72112000D01*
X138984000Y-72106000D01*
X138983000Y-72100000D01*
X138981000Y-72094000D01*
X138981000Y-72088000D01*
X138980000Y-72081000D01*
X138980000Y-72075000D01*
X138980000Y-71925000D01*
X138980000Y-71919000D01*
X138981000Y-71912000D01*
X138981000Y-71906000D01*
X138983000Y-71900000D01*
X138984000Y-71894000D01*
X138986000Y-71888000D01*
X138988000Y-71882000D01*
X138990000Y-71876000D01*
X138993000Y-71871000D01*
X138996000Y-71865000D01*
X138999000Y-71860000D01*
X139003000Y-71854000D01*
X139007000Y-71849000D01*
X139011000Y-71845000D01*
X139015000Y-71840000D01*
X139020000Y-71836000D01*
X139024000Y-71832000D01*
X139029000Y-71828000D01*
X139035000Y-71824000D01*
X139040000Y-71821000D01*
X139046000Y-71818000D01*
X139051000Y-71815000D01*
X139057000Y-71813000D01*
X139063000Y-71811000D01*
X139069000Y-71809000D01*
X139075000Y-71808000D01*
X139081000Y-71806000D01*
X139087000Y-71806000D01*
X139094000Y-71805000D01*
X139100000Y-71805000D01*
X139900000Y-71805000D01*
X139906000Y-71805000D01*
X139913000Y-71806000D01*
G36*
X139913000Y-71806000D02*
G01*
X139919000Y-71806000D01*
X139925000Y-71808000D01*
X139931000Y-71809000D01*
X139937000Y-71811000D01*
X139943000Y-71813000D01*
X139949000Y-71815000D01*
X139954000Y-71818000D01*
X139960000Y-71821000D01*
X139965000Y-71824000D01*
X139971000Y-71828000D01*
X139976000Y-71832000D01*
X139980000Y-71836000D01*
X139985000Y-71840000D01*
X139989000Y-71845000D01*
X139993000Y-71849000D01*
X139997000Y-71854000D01*
X140001000Y-71860000D01*
X140004000Y-71865000D01*
X140007000Y-71871000D01*
X140010000Y-71876000D01*
X140012000Y-71882000D01*
X140014000Y-71888000D01*
X140016000Y-71894000D01*
X140017000Y-71900000D01*
X140019000Y-71906000D01*
X140019000Y-71912000D01*
X140020000Y-71919000D01*
X140020000Y-71925000D01*
X140020000Y-72075000D01*
X140020000Y-72081000D01*
X140019000Y-72088000D01*
X140019000Y-72094000D01*
X140017000Y-72100000D01*
X140016000Y-72106000D01*
X140014000Y-72112000D01*
X140012000Y-72118000D01*
X140010000Y-72124000D01*
X140007000Y-72129000D01*
X140004000Y-72135000D01*
X140001000Y-72140000D01*
X139997000Y-72146000D01*
X139993000Y-72151000D01*
X139989000Y-72155000D01*
X139985000Y-72160000D01*
X139980000Y-72164000D01*
X139976000Y-72168000D01*
X139971000Y-72172000D01*
X139965000Y-72176000D01*
X139960000Y-72179000D01*
X139954000Y-72182000D01*
X139949000Y-72185000D01*
X139943000Y-72187000D01*
X139937000Y-72189000D01*
X139931000Y-72191000D01*
X139925000Y-72192000D01*
X139919000Y-72194000D01*
X139913000Y-72194000D01*
X139906000Y-72195000D01*
X139900000Y-72195000D01*
X139100000Y-72195000D01*
X139094000Y-72195000D01*
X139087000Y-72194000D01*
X139081000Y-72194000D01*
X139075000Y-72192000D01*
X139069000Y-72191000D01*
X139063000Y-72189000D01*
X139057000Y-72187000D01*
X139051000Y-72185000D01*
X139046000Y-72182000D01*
X139040000Y-72179000D01*
X139035000Y-72176000D01*
X139029000Y-72172000D01*
X139024000Y-72168000D01*
X139020000Y-72164000D01*
X139015000Y-72160000D01*
X139011000Y-72155000D01*
X139007000Y-72151000D01*
X139003000Y-72146000D01*
X138999000Y-72140000D01*
X138996000Y-72135000D01*
X138993000Y-72129000D01*
X138990000Y-72124000D01*
X138988000Y-72118000D01*
X138986000Y-72112000D01*
X138984000Y-72106000D01*
X138983000Y-72100000D01*
X138981000Y-72094000D01*
X138981000Y-72088000D01*
X138980000Y-72081000D01*
X138980000Y-72075000D01*
X138980000Y-71925000D01*
X138980000Y-71919000D01*
X138981000Y-71912000D01*
X138981000Y-71906000D01*
X138983000Y-71900000D01*
X138984000Y-71894000D01*
X138986000Y-71888000D01*
X138988000Y-71882000D01*
X138990000Y-71876000D01*
X138993000Y-71871000D01*
X138996000Y-71865000D01*
X138999000Y-71860000D01*
X139003000Y-71854000D01*
X139007000Y-71849000D01*
X139011000Y-71845000D01*
X139015000Y-71840000D01*
X139020000Y-71836000D01*
X139024000Y-71832000D01*
X139029000Y-71828000D01*
X139035000Y-71824000D01*
X139040000Y-71821000D01*
X139046000Y-71818000D01*
X139051000Y-71815000D01*
X139057000Y-71813000D01*
X139063000Y-71811000D01*
X139069000Y-71809000D01*
X139075000Y-71808000D01*
X139081000Y-71806000D01*
X139087000Y-71806000D01*
X139094000Y-71805000D01*
X139100000Y-71805000D01*
X139900000Y-71805000D01*
X139906000Y-71805000D01*
X139913000Y-71806000D01*
G37*
X139913000Y-72306000D02*
X139919000Y-72306000D01*
X139925000Y-72308000D01*
X139931000Y-72309000D01*
X139937000Y-72311000D01*
X139943000Y-72313000D01*
X139949000Y-72315000D01*
X139954000Y-72318000D01*
X139960000Y-72321000D01*
X139965000Y-72324000D01*
X139971000Y-72328000D01*
X139976000Y-72332000D01*
X139980000Y-72336000D01*
X139985000Y-72340000D01*
X139989000Y-72345000D01*
X139993000Y-72349000D01*
X139997000Y-72354000D01*
X140001000Y-72360000D01*
X140004000Y-72365000D01*
X140007000Y-72371000D01*
X140010000Y-72376000D01*
X140012000Y-72382000D01*
X140014000Y-72388000D01*
X140016000Y-72394000D01*
X140017000Y-72400000D01*
X140019000Y-72406000D01*
X140019000Y-72412000D01*
X140020000Y-72419000D01*
X140020000Y-72425000D01*
X140020000Y-72575000D01*
X140020000Y-72581000D01*
X140019000Y-72588000D01*
X140019000Y-72594000D01*
X140017000Y-72600000D01*
X140016000Y-72606000D01*
X140014000Y-72612000D01*
X140012000Y-72618000D01*
X140010000Y-72624000D01*
X140007000Y-72629000D01*
X140004000Y-72635000D01*
X140001000Y-72640000D01*
X139997000Y-72646000D01*
X139993000Y-72651000D01*
X139989000Y-72655000D01*
X139985000Y-72660000D01*
X139980000Y-72664000D01*
X139976000Y-72668000D01*
X139971000Y-72672000D01*
X139965000Y-72676000D01*
X139960000Y-72679000D01*
X139954000Y-72682000D01*
X139949000Y-72685000D01*
X139943000Y-72687000D01*
X139937000Y-72689000D01*
X139931000Y-72691000D01*
X139925000Y-72692000D01*
X139919000Y-72694000D01*
X139913000Y-72694000D01*
X139906000Y-72695000D01*
X139900000Y-72695000D01*
X139100000Y-72695000D01*
X139094000Y-72695000D01*
X139087000Y-72694000D01*
X139081000Y-72694000D01*
X139075000Y-72692000D01*
X139069000Y-72691000D01*
X139063000Y-72689000D01*
X139057000Y-72687000D01*
X139051000Y-72685000D01*
X139046000Y-72682000D01*
X139040000Y-72679000D01*
X139035000Y-72676000D01*
X139029000Y-72672000D01*
X139024000Y-72668000D01*
X139020000Y-72664000D01*
X139015000Y-72660000D01*
X139011000Y-72655000D01*
X139007000Y-72651000D01*
X139003000Y-72646000D01*
X138999000Y-72640000D01*
X138996000Y-72635000D01*
X138993000Y-72629000D01*
X138990000Y-72624000D01*
X138988000Y-72618000D01*
X138986000Y-72612000D01*
X138984000Y-72606000D01*
X138983000Y-72600000D01*
X138981000Y-72594000D01*
X138981000Y-72588000D01*
X138980000Y-72581000D01*
X138980000Y-72575000D01*
X138980000Y-72425000D01*
X138980000Y-72419000D01*
X138981000Y-72412000D01*
X138981000Y-72406000D01*
X138983000Y-72400000D01*
X138984000Y-72394000D01*
X138986000Y-72388000D01*
X138988000Y-72382000D01*
X138990000Y-72376000D01*
X138993000Y-72371000D01*
X138996000Y-72365000D01*
X138999000Y-72360000D01*
X139003000Y-72354000D01*
X139007000Y-72349000D01*
X139011000Y-72345000D01*
X139015000Y-72340000D01*
X139020000Y-72336000D01*
X139024000Y-72332000D01*
X139029000Y-72328000D01*
X139035000Y-72324000D01*
X139040000Y-72321000D01*
X139046000Y-72318000D01*
X139051000Y-72315000D01*
X139057000Y-72313000D01*
X139063000Y-72311000D01*
X139069000Y-72309000D01*
X139075000Y-72308000D01*
X139081000Y-72306000D01*
X139087000Y-72306000D01*
X139094000Y-72305000D01*
X139100000Y-72305000D01*
X139900000Y-72305000D01*
X139906000Y-72305000D01*
X139913000Y-72306000D01*
G36*
X139913000Y-72306000D02*
G01*
X139919000Y-72306000D01*
X139925000Y-72308000D01*
X139931000Y-72309000D01*
X139937000Y-72311000D01*
X139943000Y-72313000D01*
X139949000Y-72315000D01*
X139954000Y-72318000D01*
X139960000Y-72321000D01*
X139965000Y-72324000D01*
X139971000Y-72328000D01*
X139976000Y-72332000D01*
X139980000Y-72336000D01*
X139985000Y-72340000D01*
X139989000Y-72345000D01*
X139993000Y-72349000D01*
X139997000Y-72354000D01*
X140001000Y-72360000D01*
X140004000Y-72365000D01*
X140007000Y-72371000D01*
X140010000Y-72376000D01*
X140012000Y-72382000D01*
X140014000Y-72388000D01*
X140016000Y-72394000D01*
X140017000Y-72400000D01*
X140019000Y-72406000D01*
X140019000Y-72412000D01*
X140020000Y-72419000D01*
X140020000Y-72425000D01*
X140020000Y-72575000D01*
X140020000Y-72581000D01*
X140019000Y-72588000D01*
X140019000Y-72594000D01*
X140017000Y-72600000D01*
X140016000Y-72606000D01*
X140014000Y-72612000D01*
X140012000Y-72618000D01*
X140010000Y-72624000D01*
X140007000Y-72629000D01*
X140004000Y-72635000D01*
X140001000Y-72640000D01*
X139997000Y-72646000D01*
X139993000Y-72651000D01*
X139989000Y-72655000D01*
X139985000Y-72660000D01*
X139980000Y-72664000D01*
X139976000Y-72668000D01*
X139971000Y-72672000D01*
X139965000Y-72676000D01*
X139960000Y-72679000D01*
X139954000Y-72682000D01*
X139949000Y-72685000D01*
X139943000Y-72687000D01*
X139937000Y-72689000D01*
X139931000Y-72691000D01*
X139925000Y-72692000D01*
X139919000Y-72694000D01*
X139913000Y-72694000D01*
X139906000Y-72695000D01*
X139900000Y-72695000D01*
X139100000Y-72695000D01*
X139094000Y-72695000D01*
X139087000Y-72694000D01*
X139081000Y-72694000D01*
X139075000Y-72692000D01*
X139069000Y-72691000D01*
X139063000Y-72689000D01*
X139057000Y-72687000D01*
X139051000Y-72685000D01*
X139046000Y-72682000D01*
X139040000Y-72679000D01*
X139035000Y-72676000D01*
X139029000Y-72672000D01*
X139024000Y-72668000D01*
X139020000Y-72664000D01*
X139015000Y-72660000D01*
X139011000Y-72655000D01*
X139007000Y-72651000D01*
X139003000Y-72646000D01*
X138999000Y-72640000D01*
X138996000Y-72635000D01*
X138993000Y-72629000D01*
X138990000Y-72624000D01*
X138988000Y-72618000D01*
X138986000Y-72612000D01*
X138984000Y-72606000D01*
X138983000Y-72600000D01*
X138981000Y-72594000D01*
X138981000Y-72588000D01*
X138980000Y-72581000D01*
X138980000Y-72575000D01*
X138980000Y-72425000D01*
X138980000Y-72419000D01*
X138981000Y-72412000D01*
X138981000Y-72406000D01*
X138983000Y-72400000D01*
X138984000Y-72394000D01*
X138986000Y-72388000D01*
X138988000Y-72382000D01*
X138990000Y-72376000D01*
X138993000Y-72371000D01*
X138996000Y-72365000D01*
X138999000Y-72360000D01*
X139003000Y-72354000D01*
X139007000Y-72349000D01*
X139011000Y-72345000D01*
X139015000Y-72340000D01*
X139020000Y-72336000D01*
X139024000Y-72332000D01*
X139029000Y-72328000D01*
X139035000Y-72324000D01*
X139040000Y-72321000D01*
X139046000Y-72318000D01*
X139051000Y-72315000D01*
X139057000Y-72313000D01*
X139063000Y-72311000D01*
X139069000Y-72309000D01*
X139075000Y-72308000D01*
X139081000Y-72306000D01*
X139087000Y-72306000D01*
X139094000Y-72305000D01*
X139100000Y-72305000D01*
X139900000Y-72305000D01*
X139906000Y-72305000D01*
X139913000Y-72306000D01*
G37*
X139913000Y-72806000D02*
X139919000Y-72806000D01*
X139925000Y-72808000D01*
X139931000Y-72809000D01*
X139937000Y-72811000D01*
X139943000Y-72813000D01*
X139949000Y-72815000D01*
X139954000Y-72818000D01*
X139960000Y-72821000D01*
X139965000Y-72824000D01*
X139971000Y-72828000D01*
X139976000Y-72832000D01*
X139980000Y-72836000D01*
X139985000Y-72840000D01*
X139989000Y-72845000D01*
X139993000Y-72849000D01*
X139997000Y-72854000D01*
X140001000Y-72860000D01*
X140004000Y-72865000D01*
X140007000Y-72871000D01*
X140010000Y-72876000D01*
X140012000Y-72882000D01*
X140014000Y-72888000D01*
X140016000Y-72894000D01*
X140017000Y-72900000D01*
X140019000Y-72906000D01*
X140019000Y-72912000D01*
X140020000Y-72919000D01*
X140020000Y-72925000D01*
X140020000Y-73075000D01*
X140020000Y-73081000D01*
X140019000Y-73088000D01*
X140019000Y-73094000D01*
X140017000Y-73100000D01*
X140016000Y-73106000D01*
X140014000Y-73112000D01*
X140012000Y-73118000D01*
X140010000Y-73124000D01*
X140007000Y-73129000D01*
X140004000Y-73135000D01*
X140001000Y-73140000D01*
X139997000Y-73146000D01*
X139993000Y-73151000D01*
X139989000Y-73155000D01*
X139985000Y-73160000D01*
X139980000Y-73164000D01*
X139976000Y-73168000D01*
X139971000Y-73172000D01*
X139965000Y-73176000D01*
X139960000Y-73179000D01*
X139954000Y-73182000D01*
X139949000Y-73185000D01*
X139943000Y-73187000D01*
X139937000Y-73189000D01*
X139931000Y-73191000D01*
X139925000Y-73192000D01*
X139919000Y-73194000D01*
X139913000Y-73194000D01*
X139906000Y-73195000D01*
X139900000Y-73195000D01*
X138700000Y-73195000D01*
X138694000Y-73195000D01*
X138687000Y-73194000D01*
X138681000Y-73194000D01*
X138675000Y-73192000D01*
X138669000Y-73191000D01*
X138663000Y-73189000D01*
X138657000Y-73187000D01*
X138651000Y-73185000D01*
X138646000Y-73182000D01*
X138640000Y-73179000D01*
X138635000Y-73176000D01*
X138629000Y-73172000D01*
X138624000Y-73168000D01*
X138620000Y-73164000D01*
X138615000Y-73160000D01*
X138611000Y-73155000D01*
X138607000Y-73151000D01*
X138603000Y-73146000D01*
X138599000Y-73140000D01*
X138596000Y-73135000D01*
X138593000Y-73129000D01*
X138590000Y-73124000D01*
X138588000Y-73118000D01*
X138586000Y-73112000D01*
X138584000Y-73106000D01*
X138583000Y-73100000D01*
X138581000Y-73094000D01*
X138581000Y-73088000D01*
X138580000Y-73081000D01*
X138580000Y-73075000D01*
X138580000Y-72925000D01*
X138580000Y-72919000D01*
X138581000Y-72912000D01*
X138581000Y-72906000D01*
X138583000Y-72900000D01*
X138584000Y-72894000D01*
X138586000Y-72888000D01*
X138588000Y-72882000D01*
X138590000Y-72876000D01*
X138593000Y-72871000D01*
X138596000Y-72865000D01*
X138599000Y-72860000D01*
X138603000Y-72854000D01*
X138607000Y-72849000D01*
X138611000Y-72845000D01*
X138615000Y-72840000D01*
X138620000Y-72836000D01*
X138624000Y-72832000D01*
X138629000Y-72828000D01*
X138635000Y-72824000D01*
X138640000Y-72821000D01*
X138646000Y-72818000D01*
X138651000Y-72815000D01*
X138657000Y-72813000D01*
X138663000Y-72811000D01*
X138669000Y-72809000D01*
X138675000Y-72808000D01*
X138681000Y-72806000D01*
X138687000Y-72806000D01*
X138694000Y-72805000D01*
X138700000Y-72805000D01*
X139900000Y-72805000D01*
X139906000Y-72805000D01*
X139913000Y-72806000D01*
G36*
X139913000Y-72806000D02*
G01*
X139919000Y-72806000D01*
X139925000Y-72808000D01*
X139931000Y-72809000D01*
X139937000Y-72811000D01*
X139943000Y-72813000D01*
X139949000Y-72815000D01*
X139954000Y-72818000D01*
X139960000Y-72821000D01*
X139965000Y-72824000D01*
X139971000Y-72828000D01*
X139976000Y-72832000D01*
X139980000Y-72836000D01*
X139985000Y-72840000D01*
X139989000Y-72845000D01*
X139993000Y-72849000D01*
X139997000Y-72854000D01*
X140001000Y-72860000D01*
X140004000Y-72865000D01*
X140007000Y-72871000D01*
X140010000Y-72876000D01*
X140012000Y-72882000D01*
X140014000Y-72888000D01*
X140016000Y-72894000D01*
X140017000Y-72900000D01*
X140019000Y-72906000D01*
X140019000Y-72912000D01*
X140020000Y-72919000D01*
X140020000Y-72925000D01*
X140020000Y-73075000D01*
X140020000Y-73081000D01*
X140019000Y-73088000D01*
X140019000Y-73094000D01*
X140017000Y-73100000D01*
X140016000Y-73106000D01*
X140014000Y-73112000D01*
X140012000Y-73118000D01*
X140010000Y-73124000D01*
X140007000Y-73129000D01*
X140004000Y-73135000D01*
X140001000Y-73140000D01*
X139997000Y-73146000D01*
X139993000Y-73151000D01*
X139989000Y-73155000D01*
X139985000Y-73160000D01*
X139980000Y-73164000D01*
X139976000Y-73168000D01*
X139971000Y-73172000D01*
X139965000Y-73176000D01*
X139960000Y-73179000D01*
X139954000Y-73182000D01*
X139949000Y-73185000D01*
X139943000Y-73187000D01*
X139937000Y-73189000D01*
X139931000Y-73191000D01*
X139925000Y-73192000D01*
X139919000Y-73194000D01*
X139913000Y-73194000D01*
X139906000Y-73195000D01*
X139900000Y-73195000D01*
X138700000Y-73195000D01*
X138694000Y-73195000D01*
X138687000Y-73194000D01*
X138681000Y-73194000D01*
X138675000Y-73192000D01*
X138669000Y-73191000D01*
X138663000Y-73189000D01*
X138657000Y-73187000D01*
X138651000Y-73185000D01*
X138646000Y-73182000D01*
X138640000Y-73179000D01*
X138635000Y-73176000D01*
X138629000Y-73172000D01*
X138624000Y-73168000D01*
X138620000Y-73164000D01*
X138615000Y-73160000D01*
X138611000Y-73155000D01*
X138607000Y-73151000D01*
X138603000Y-73146000D01*
X138599000Y-73140000D01*
X138596000Y-73135000D01*
X138593000Y-73129000D01*
X138590000Y-73124000D01*
X138588000Y-73118000D01*
X138586000Y-73112000D01*
X138584000Y-73106000D01*
X138583000Y-73100000D01*
X138581000Y-73094000D01*
X138581000Y-73088000D01*
X138580000Y-73081000D01*
X138580000Y-73075000D01*
X138580000Y-72925000D01*
X138580000Y-72919000D01*
X138581000Y-72912000D01*
X138581000Y-72906000D01*
X138583000Y-72900000D01*
X138584000Y-72894000D01*
X138586000Y-72888000D01*
X138588000Y-72882000D01*
X138590000Y-72876000D01*
X138593000Y-72871000D01*
X138596000Y-72865000D01*
X138599000Y-72860000D01*
X138603000Y-72854000D01*
X138607000Y-72849000D01*
X138611000Y-72845000D01*
X138615000Y-72840000D01*
X138620000Y-72836000D01*
X138624000Y-72832000D01*
X138629000Y-72828000D01*
X138635000Y-72824000D01*
X138640000Y-72821000D01*
X138646000Y-72818000D01*
X138651000Y-72815000D01*
X138657000Y-72813000D01*
X138663000Y-72811000D01*
X138669000Y-72809000D01*
X138675000Y-72808000D01*
X138681000Y-72806000D01*
X138687000Y-72806000D01*
X138694000Y-72805000D01*
X138700000Y-72805000D01*
X139900000Y-72805000D01*
X139906000Y-72805000D01*
X139913000Y-72806000D01*
G37*
X139913000Y-73306000D02*
X139919000Y-73306000D01*
X139925000Y-73308000D01*
X139931000Y-73309000D01*
X139937000Y-73311000D01*
X139943000Y-73313000D01*
X139949000Y-73315000D01*
X139954000Y-73318000D01*
X139960000Y-73321000D01*
X139965000Y-73324000D01*
X139971000Y-73328000D01*
X139976000Y-73332000D01*
X139980000Y-73336000D01*
X139985000Y-73340000D01*
X139989000Y-73345000D01*
X139993000Y-73349000D01*
X139997000Y-73354000D01*
X140001000Y-73360000D01*
X140004000Y-73365000D01*
X140007000Y-73371000D01*
X140010000Y-73376000D01*
X140012000Y-73382000D01*
X140014000Y-73388000D01*
X140016000Y-73394000D01*
X140017000Y-73400000D01*
X140019000Y-73406000D01*
X140019000Y-73412000D01*
X140020000Y-73419000D01*
X140020000Y-73425000D01*
X140020000Y-73575000D01*
X140020000Y-73581000D01*
X140019000Y-73588000D01*
X140019000Y-73594000D01*
X140017000Y-73600000D01*
X140016000Y-73606000D01*
X140014000Y-73612000D01*
X140012000Y-73618000D01*
X140010000Y-73624000D01*
X140007000Y-73629000D01*
X140004000Y-73635000D01*
X140001000Y-73640000D01*
X139997000Y-73646000D01*
X139993000Y-73651000D01*
X139989000Y-73655000D01*
X139985000Y-73660000D01*
X139980000Y-73664000D01*
X139976000Y-73668000D01*
X139971000Y-73672000D01*
X139965000Y-73676000D01*
X139960000Y-73679000D01*
X139954000Y-73682000D01*
X139949000Y-73685000D01*
X139943000Y-73687000D01*
X139937000Y-73689000D01*
X139931000Y-73691000D01*
X139925000Y-73692000D01*
X139919000Y-73694000D01*
X139913000Y-73694000D01*
X139906000Y-73695000D01*
X139900000Y-73695000D01*
X139100000Y-73695000D01*
X139094000Y-73695000D01*
X139087000Y-73694000D01*
X139081000Y-73694000D01*
X139075000Y-73692000D01*
X139069000Y-73691000D01*
X139063000Y-73689000D01*
X139057000Y-73687000D01*
X139051000Y-73685000D01*
X139046000Y-73682000D01*
X139040000Y-73679000D01*
X139035000Y-73676000D01*
X139029000Y-73672000D01*
X139024000Y-73668000D01*
X139020000Y-73664000D01*
X139015000Y-73660000D01*
X139011000Y-73655000D01*
X139007000Y-73651000D01*
X139003000Y-73646000D01*
X138999000Y-73640000D01*
X138996000Y-73635000D01*
X138993000Y-73629000D01*
X138990000Y-73624000D01*
X138988000Y-73618000D01*
X138986000Y-73612000D01*
X138984000Y-73606000D01*
X138983000Y-73600000D01*
X138981000Y-73594000D01*
X138981000Y-73588000D01*
X138980000Y-73581000D01*
X138980000Y-73575000D01*
X138980000Y-73425000D01*
X138980000Y-73419000D01*
X138981000Y-73412000D01*
X138981000Y-73406000D01*
X138983000Y-73400000D01*
X138984000Y-73394000D01*
X138986000Y-73388000D01*
X138988000Y-73382000D01*
X138990000Y-73376000D01*
X138993000Y-73371000D01*
X138996000Y-73365000D01*
X138999000Y-73360000D01*
X139003000Y-73354000D01*
X139007000Y-73349000D01*
X139011000Y-73345000D01*
X139015000Y-73340000D01*
X139020000Y-73336000D01*
X139024000Y-73332000D01*
X139029000Y-73328000D01*
X139035000Y-73324000D01*
X139040000Y-73321000D01*
X139046000Y-73318000D01*
X139051000Y-73315000D01*
X139057000Y-73313000D01*
X139063000Y-73311000D01*
X139069000Y-73309000D01*
X139075000Y-73308000D01*
X139081000Y-73306000D01*
X139087000Y-73306000D01*
X139094000Y-73305000D01*
X139100000Y-73305000D01*
X139900000Y-73305000D01*
X139906000Y-73305000D01*
X139913000Y-73306000D01*
G36*
X139913000Y-73306000D02*
G01*
X139919000Y-73306000D01*
X139925000Y-73308000D01*
X139931000Y-73309000D01*
X139937000Y-73311000D01*
X139943000Y-73313000D01*
X139949000Y-73315000D01*
X139954000Y-73318000D01*
X139960000Y-73321000D01*
X139965000Y-73324000D01*
X139971000Y-73328000D01*
X139976000Y-73332000D01*
X139980000Y-73336000D01*
X139985000Y-73340000D01*
X139989000Y-73345000D01*
X139993000Y-73349000D01*
X139997000Y-73354000D01*
X140001000Y-73360000D01*
X140004000Y-73365000D01*
X140007000Y-73371000D01*
X140010000Y-73376000D01*
X140012000Y-73382000D01*
X140014000Y-73388000D01*
X140016000Y-73394000D01*
X140017000Y-73400000D01*
X140019000Y-73406000D01*
X140019000Y-73412000D01*
X140020000Y-73419000D01*
X140020000Y-73425000D01*
X140020000Y-73575000D01*
X140020000Y-73581000D01*
X140019000Y-73588000D01*
X140019000Y-73594000D01*
X140017000Y-73600000D01*
X140016000Y-73606000D01*
X140014000Y-73612000D01*
X140012000Y-73618000D01*
X140010000Y-73624000D01*
X140007000Y-73629000D01*
X140004000Y-73635000D01*
X140001000Y-73640000D01*
X139997000Y-73646000D01*
X139993000Y-73651000D01*
X139989000Y-73655000D01*
X139985000Y-73660000D01*
X139980000Y-73664000D01*
X139976000Y-73668000D01*
X139971000Y-73672000D01*
X139965000Y-73676000D01*
X139960000Y-73679000D01*
X139954000Y-73682000D01*
X139949000Y-73685000D01*
X139943000Y-73687000D01*
X139937000Y-73689000D01*
X139931000Y-73691000D01*
X139925000Y-73692000D01*
X139919000Y-73694000D01*
X139913000Y-73694000D01*
X139906000Y-73695000D01*
X139900000Y-73695000D01*
X139100000Y-73695000D01*
X139094000Y-73695000D01*
X139087000Y-73694000D01*
X139081000Y-73694000D01*
X139075000Y-73692000D01*
X139069000Y-73691000D01*
X139063000Y-73689000D01*
X139057000Y-73687000D01*
X139051000Y-73685000D01*
X139046000Y-73682000D01*
X139040000Y-73679000D01*
X139035000Y-73676000D01*
X139029000Y-73672000D01*
X139024000Y-73668000D01*
X139020000Y-73664000D01*
X139015000Y-73660000D01*
X139011000Y-73655000D01*
X139007000Y-73651000D01*
X139003000Y-73646000D01*
X138999000Y-73640000D01*
X138996000Y-73635000D01*
X138993000Y-73629000D01*
X138990000Y-73624000D01*
X138988000Y-73618000D01*
X138986000Y-73612000D01*
X138984000Y-73606000D01*
X138983000Y-73600000D01*
X138981000Y-73594000D01*
X138981000Y-73588000D01*
X138980000Y-73581000D01*
X138980000Y-73575000D01*
X138980000Y-73425000D01*
X138980000Y-73419000D01*
X138981000Y-73412000D01*
X138981000Y-73406000D01*
X138983000Y-73400000D01*
X138984000Y-73394000D01*
X138986000Y-73388000D01*
X138988000Y-73382000D01*
X138990000Y-73376000D01*
X138993000Y-73371000D01*
X138996000Y-73365000D01*
X138999000Y-73360000D01*
X139003000Y-73354000D01*
X139007000Y-73349000D01*
X139011000Y-73345000D01*
X139015000Y-73340000D01*
X139020000Y-73336000D01*
X139024000Y-73332000D01*
X139029000Y-73328000D01*
X139035000Y-73324000D01*
X139040000Y-73321000D01*
X139046000Y-73318000D01*
X139051000Y-73315000D01*
X139057000Y-73313000D01*
X139063000Y-73311000D01*
X139069000Y-73309000D01*
X139075000Y-73308000D01*
X139081000Y-73306000D01*
X139087000Y-73306000D01*
X139094000Y-73305000D01*
X139100000Y-73305000D01*
X139900000Y-73305000D01*
X139906000Y-73305000D01*
X139913000Y-73306000D01*
G37*
X139913000Y-73806000D02*
X139919000Y-73806000D01*
X139925000Y-73808000D01*
X139931000Y-73809000D01*
X139937000Y-73811000D01*
X139943000Y-73813000D01*
X139949000Y-73815000D01*
X139954000Y-73818000D01*
X139960000Y-73821000D01*
X139965000Y-73824000D01*
X139971000Y-73828000D01*
X139976000Y-73832000D01*
X139980000Y-73836000D01*
X139985000Y-73840000D01*
X139989000Y-73845000D01*
X139993000Y-73849000D01*
X139997000Y-73854000D01*
X140001000Y-73860000D01*
X140004000Y-73865000D01*
X140007000Y-73871000D01*
X140010000Y-73876000D01*
X140012000Y-73882000D01*
X140014000Y-73888000D01*
X140016000Y-73894000D01*
X140017000Y-73900000D01*
X140019000Y-73906000D01*
X140019000Y-73912000D01*
X140020000Y-73919000D01*
X140020000Y-73925000D01*
X140020000Y-74075000D01*
X140020000Y-74081000D01*
X140019000Y-74088000D01*
X140019000Y-74094000D01*
X140017000Y-74100000D01*
X140016000Y-74106000D01*
X140014000Y-74112000D01*
X140012000Y-74118000D01*
X140010000Y-74124000D01*
X140007000Y-74129000D01*
X140004000Y-74135000D01*
X140001000Y-74140000D01*
X139997000Y-74146000D01*
X139993000Y-74151000D01*
X139989000Y-74155000D01*
X139985000Y-74160000D01*
X139980000Y-74164000D01*
X139976000Y-74168000D01*
X139971000Y-74172000D01*
X139965000Y-74176000D01*
X139960000Y-74179000D01*
X139954000Y-74182000D01*
X139949000Y-74185000D01*
X139943000Y-74187000D01*
X139937000Y-74189000D01*
X139931000Y-74191000D01*
X139925000Y-74192000D01*
X139919000Y-74194000D01*
X139913000Y-74194000D01*
X139906000Y-74195000D01*
X139900000Y-74195000D01*
X139100000Y-74195000D01*
X139094000Y-74195000D01*
X139087000Y-74194000D01*
X139081000Y-74194000D01*
X139075000Y-74192000D01*
X139069000Y-74191000D01*
X139063000Y-74189000D01*
X139057000Y-74187000D01*
X139051000Y-74185000D01*
X139046000Y-74182000D01*
X139040000Y-74179000D01*
X139035000Y-74176000D01*
X139029000Y-74172000D01*
X139024000Y-74168000D01*
X139020000Y-74164000D01*
X139015000Y-74160000D01*
X139011000Y-74155000D01*
X139007000Y-74151000D01*
X139003000Y-74146000D01*
X138999000Y-74140000D01*
X138996000Y-74135000D01*
X138993000Y-74129000D01*
X138990000Y-74124000D01*
X138988000Y-74118000D01*
X138986000Y-74112000D01*
X138984000Y-74106000D01*
X138983000Y-74100000D01*
X138981000Y-74094000D01*
X138981000Y-74088000D01*
X138980000Y-74081000D01*
X138980000Y-74075000D01*
X138980000Y-73925000D01*
X138980000Y-73919000D01*
X138981000Y-73912000D01*
X138981000Y-73906000D01*
X138983000Y-73900000D01*
X138984000Y-73894000D01*
X138986000Y-73888000D01*
X138988000Y-73882000D01*
X138990000Y-73876000D01*
X138993000Y-73871000D01*
X138996000Y-73865000D01*
X138999000Y-73860000D01*
X139003000Y-73854000D01*
X139007000Y-73849000D01*
X139011000Y-73845000D01*
X139015000Y-73840000D01*
X139020000Y-73836000D01*
X139024000Y-73832000D01*
X139029000Y-73828000D01*
X139035000Y-73824000D01*
X139040000Y-73821000D01*
X139046000Y-73818000D01*
X139051000Y-73815000D01*
X139057000Y-73813000D01*
X139063000Y-73811000D01*
X139069000Y-73809000D01*
X139075000Y-73808000D01*
X139081000Y-73806000D01*
X139087000Y-73806000D01*
X139094000Y-73805000D01*
X139100000Y-73805000D01*
X139900000Y-73805000D01*
X139906000Y-73805000D01*
X139913000Y-73806000D01*
G36*
X139913000Y-73806000D02*
G01*
X139919000Y-73806000D01*
X139925000Y-73808000D01*
X139931000Y-73809000D01*
X139937000Y-73811000D01*
X139943000Y-73813000D01*
X139949000Y-73815000D01*
X139954000Y-73818000D01*
X139960000Y-73821000D01*
X139965000Y-73824000D01*
X139971000Y-73828000D01*
X139976000Y-73832000D01*
X139980000Y-73836000D01*
X139985000Y-73840000D01*
X139989000Y-73845000D01*
X139993000Y-73849000D01*
X139997000Y-73854000D01*
X140001000Y-73860000D01*
X140004000Y-73865000D01*
X140007000Y-73871000D01*
X140010000Y-73876000D01*
X140012000Y-73882000D01*
X140014000Y-73888000D01*
X140016000Y-73894000D01*
X140017000Y-73900000D01*
X140019000Y-73906000D01*
X140019000Y-73912000D01*
X140020000Y-73919000D01*
X140020000Y-73925000D01*
X140020000Y-74075000D01*
X140020000Y-74081000D01*
X140019000Y-74088000D01*
X140019000Y-74094000D01*
X140017000Y-74100000D01*
X140016000Y-74106000D01*
X140014000Y-74112000D01*
X140012000Y-74118000D01*
X140010000Y-74124000D01*
X140007000Y-74129000D01*
X140004000Y-74135000D01*
X140001000Y-74140000D01*
X139997000Y-74146000D01*
X139993000Y-74151000D01*
X139989000Y-74155000D01*
X139985000Y-74160000D01*
X139980000Y-74164000D01*
X139976000Y-74168000D01*
X139971000Y-74172000D01*
X139965000Y-74176000D01*
X139960000Y-74179000D01*
X139954000Y-74182000D01*
X139949000Y-74185000D01*
X139943000Y-74187000D01*
X139937000Y-74189000D01*
X139931000Y-74191000D01*
X139925000Y-74192000D01*
X139919000Y-74194000D01*
X139913000Y-74194000D01*
X139906000Y-74195000D01*
X139900000Y-74195000D01*
X139100000Y-74195000D01*
X139094000Y-74195000D01*
X139087000Y-74194000D01*
X139081000Y-74194000D01*
X139075000Y-74192000D01*
X139069000Y-74191000D01*
X139063000Y-74189000D01*
X139057000Y-74187000D01*
X139051000Y-74185000D01*
X139046000Y-74182000D01*
X139040000Y-74179000D01*
X139035000Y-74176000D01*
X139029000Y-74172000D01*
X139024000Y-74168000D01*
X139020000Y-74164000D01*
X139015000Y-74160000D01*
X139011000Y-74155000D01*
X139007000Y-74151000D01*
X139003000Y-74146000D01*
X138999000Y-74140000D01*
X138996000Y-74135000D01*
X138993000Y-74129000D01*
X138990000Y-74124000D01*
X138988000Y-74118000D01*
X138986000Y-74112000D01*
X138984000Y-74106000D01*
X138983000Y-74100000D01*
X138981000Y-74094000D01*
X138981000Y-74088000D01*
X138980000Y-74081000D01*
X138980000Y-74075000D01*
X138980000Y-73925000D01*
X138980000Y-73919000D01*
X138981000Y-73912000D01*
X138981000Y-73906000D01*
X138983000Y-73900000D01*
X138984000Y-73894000D01*
X138986000Y-73888000D01*
X138988000Y-73882000D01*
X138990000Y-73876000D01*
X138993000Y-73871000D01*
X138996000Y-73865000D01*
X138999000Y-73860000D01*
X139003000Y-73854000D01*
X139007000Y-73849000D01*
X139011000Y-73845000D01*
X139015000Y-73840000D01*
X139020000Y-73836000D01*
X139024000Y-73832000D01*
X139029000Y-73828000D01*
X139035000Y-73824000D01*
X139040000Y-73821000D01*
X139046000Y-73818000D01*
X139051000Y-73815000D01*
X139057000Y-73813000D01*
X139063000Y-73811000D01*
X139069000Y-73809000D01*
X139075000Y-73808000D01*
X139081000Y-73806000D01*
X139087000Y-73806000D01*
X139094000Y-73805000D01*
X139100000Y-73805000D01*
X139900000Y-73805000D01*
X139906000Y-73805000D01*
X139913000Y-73806000D01*
G37*
%TD*%
D16*
%TO.C,R29*%
X130500000Y-97020000D03*
X130500000Y-96000000D03*
%TD*%
D17*
%TO.C,D2*%
X127000000Y-97500000D03*
X127000000Y-100800000D03*
%TD*%
D18*
%TO.C,C4*%
X147000000Y-66600000D03*
X147000000Y-68500000D03*
%TD*%
%TO.C,C12*%
X149000000Y-81500000D03*
X149000000Y-83400000D03*
%TD*%
D19*
%TO.C,R16*%
X140500000Y-81500000D03*
X140500000Y-82520000D03*
%TD*%
D20*
%TO.C,C9*%
X135750000Y-94750000D03*
X137650000Y-94750000D03*
%TD*%
%TO.C,C7*%
X134050000Y-70000000D03*
X135950000Y-70000000D03*
%TD*%
D21*
%TO.C,L_INST1*%
X158750000Y-101205000D03*
D22*
X158750000Y-99935000D03*
X158750000Y-98665000D03*
X158750000Y-97395000D03*
%TD*%
D23*
%TO.C,U6*%
X148250000Y-85200000D03*
X147250000Y-85200000D03*
X146250000Y-85200000D03*
X145250000Y-85200000D03*
X144250000Y-85200000D03*
X144250000Y-90300000D03*
X145250000Y-90300000D03*
X146250000Y-90300000D03*
X147250000Y-90300000D03*
X148250000Y-90300000D03*
%TD*%
D24*
%TO.C,CBAT1*%
X131235000Y-62750000D03*
D25*
X131235000Y-64750000D03*
%TD*%
D26*
%TO.C,U1*%
X151500000Y-71750000D03*
X151500000Y-73020000D03*
X151500000Y-74290000D03*
X151500000Y-75560000D03*
X151500000Y-76830000D03*
X151500000Y-78100000D03*
X151500000Y-79370000D03*
X151500000Y-80640000D03*
X151500000Y-81910000D03*
X151500000Y-83180000D03*
X151500000Y-84450000D03*
X151500000Y-85720000D03*
X151500000Y-86990000D03*
X151500000Y-88260000D03*
X169000000Y-88260000D03*
X169000000Y-86990000D03*
X169000000Y-85720000D03*
X169000000Y-84450000D03*
X169000000Y-83180000D03*
X169000000Y-81910000D03*
X169000000Y-80640000D03*
X169000000Y-79370000D03*
X169000000Y-78100000D03*
X169000000Y-76830000D03*
X169000000Y-75560000D03*
X169000000Y-74290000D03*
X169000000Y-73020000D03*
X169000000Y-71750000D03*
D27*
X157495000Y-76220000D03*
X157495000Y-77470000D03*
X157495000Y-78720000D03*
X158745000Y-76220000D03*
X158745000Y-77470000D03*
X158745000Y-78720000D03*
X159995000Y-76220000D03*
X159995000Y-77470000D03*
X159995000Y-78720000D03*
%TD*%
D28*
%TO.C,C6*%
X131500000Y-82500000D03*
X129600000Y-82500000D03*
%TD*%
%TO.C,C1*%
X136700000Y-65750000D03*
X134800000Y-65750000D03*
%TD*%
%TO.C,C8*%
X131700000Y-93500000D03*
X129800000Y-93500000D03*
%TD*%
%TO.C,C11*%
X142450000Y-91000000D03*
X140550000Y-91000000D03*
%TD*%
D29*
%TO.C,L1*%
X139750000Y-77500000D03*
X142120000Y-77500000D03*
%TD*%
D30*
%TO.C,Q2*%
X173000000Y-98000000D03*
X173000000Y-96100000D03*
X171125000Y-97050000D03*
%TD*%
D31*
%TO.C,R21*%
X173000000Y-93500000D03*
X171980000Y-93500000D03*
%TD*%
D16*
%TO.C,R26*%
X160000000Y-95020000D03*
X160000000Y-94000000D03*
%TD*%
D32*
%TO.C,R3*%
X135990000Y-79500000D03*
X137010000Y-79500000D03*
%TD*%
D33*
%TO.C,REF\u002A\u002A*%
X174000000Y-67000000D03*
%TD*%
D34*
%TO.C,U2*%
X136550000Y-74400000D03*
X136150000Y-74400000D03*
X135750000Y-74400000D03*
X135350000Y-74400000D03*
X134950000Y-74400000D03*
X134950000Y-76600000D03*
X135350000Y-76600000D03*
X135750000Y-76600000D03*
X136150000Y-76600000D03*
X136550000Y-76600000D03*
D26*
X135750000Y-75500000D03*
%TD*%
D16*
%TO.C,R1*%
X137750000Y-76520000D03*
X137750000Y-75500000D03*
%TD*%
%TO.C,R25*%
X161500000Y-95020000D03*
X161500000Y-94000000D03*
%TD*%
D35*
%TO.C,JP1*%
X155420000Y-62070000D03*
D36*
X157960000Y-62070000D03*
X160500000Y-62070000D03*
%TD*%
D37*
%TO.C,CPT1*%
X129750000Y-86000000D03*
D38*
X129750000Y-89500000D03*
%TD*%
D39*
%TO.C,Moteur1*%
X142000000Y-97250000D03*
D38*
X145500000Y-97250000D03*
%TD*%
D16*
%TO.C,R2*%
X133500000Y-80520000D03*
X133500000Y-79500000D03*
%TD*%
D31*
%TO.C,R14*%
X137010000Y-93000000D03*
X135990000Y-93000000D03*
%TD*%
D16*
%TO.C,R27*%
X158500000Y-95020000D03*
X158500000Y-94000000D03*
%TD*%
D31*
%TO.C,R18*%
X172000000Y-99500000D03*
X170980000Y-99500000D03*
%TD*%
D40*
%TO.C,U5*%
X138790000Y-86000000D03*
X137520000Y-86000000D03*
X136250000Y-86000000D03*
X134980000Y-86000000D03*
X134980000Y-90950000D03*
X136250000Y-90950000D03*
X137520000Y-90950000D03*
X138790000Y-90950000D03*
%TD*%
D16*
%TO.C,R23*%
X155500000Y-95020000D03*
X155500000Y-94000000D03*
%TD*%
%TO.C,R24*%
X154000000Y-95020000D03*
X154000000Y-94000000D03*
%TD*%
%TO.C,R22*%
X157000000Y-95020000D03*
X157000000Y-94000000D03*
%TD*%
D41*
%TO.C,J2*%
X131565000Y-74375000D03*
D42*
X131565000Y-76395000D03*
D43*
X131565000Y-77625000D03*
D44*
X131565000Y-75375000D03*
D45*
X131565000Y-73355000D03*
D46*
X131565000Y-72125000D03*
D47*
X131485000Y-70555000D03*
X127685000Y-70555000D03*
X131485000Y-79195000D03*
X127685000Y-79195000D03*
%TD*%
D16*
%TO.C,R4*%
X147500000Y-77010000D03*
X147500000Y-75990000D03*
%TD*%
D28*
%TO.C,C13*%
X142450000Y-88250000D03*
X140550000Y-88250000D03*
%TD*%
D20*
%TO.C,C14*%
X138000000Y-70000000D03*
X139900000Y-70000000D03*
%TD*%
D19*
%TO.C,R9*%
X133500000Y-73990000D03*
X133500000Y-75010000D03*
%TD*%
D16*
%TO.C,R5*%
X145500000Y-77510000D03*
X145500000Y-76490000D03*
%TD*%
D31*
%TO.C,R11*%
X137520000Y-84000000D03*
X136500000Y-84000000D03*
%TD*%
D33*
%TO.C,REF\u002A\u002A*%
X133000000Y-100000000D03*
%TD*%
D32*
%TO.C,R19*%
X148490000Y-92510000D03*
X149510000Y-92510000D03*
%TD*%
D35*
%TO.C,J3*%
X172865000Y-72110000D03*
D36*
X172865000Y-74650000D03*
X172865000Y-77190000D03*
X172865000Y-79730000D03*
X172865000Y-82270000D03*
X172865000Y-84810000D03*
X172865000Y-87350000D03*
X172865000Y-89890000D03*
%TD*%
D48*
%TO.C,U3*%
X140015000Y-64750000D03*
X140015000Y-65250000D03*
X140015000Y-65750000D03*
X140015000Y-66250000D03*
X141985000Y-66250000D03*
X141985000Y-65750000D03*
X141985000Y-65250000D03*
X141985000Y-64750000D03*
D49*
X141000000Y-65500000D03*
%TD*%
D19*
%TO.C,R13*%
X139000000Y-82990000D03*
X139000000Y-84010000D03*
%TD*%
D50*
%TO.C,SW1*%
X164000000Y-99500000D03*
X164000000Y-93000000D03*
X168500000Y-99500000D03*
X168500000Y-93000000D03*
%TD*%
D21*
%TO.C,LBAT1*%
X151500000Y-101205000D03*
D22*
X151500000Y-99935000D03*
X151500000Y-98665000D03*
X151500000Y-97395000D03*
%TD*%
D33*
%TO.C,REF\u002A\u002A*%
X178000000Y-95500000D03*
%TD*%
D16*
%TO.C,R10*%
X133500000Y-77260000D03*
X133500000Y-76240000D03*
%TD*%
%TO.C,R6*%
X141500000Y-70520000D03*
X141500000Y-69500000D03*
%TD*%
%LPD*%
M02*
