%TF.GenerationSoftware,KiCad,Pcbnew,9.0.7*%
%TF.CreationDate,2026-02-20T23:50:41+01:00*%
%TF.ProjectId,Accordeur,4163636f-7264-4657-9572-2e6b69636164,rev?*%
%TF.SameCoordinates,Original*%
%TF.FileFunction,Copper,L1,Top*%
%TF.FilePolarity,Positive*%
%FSLAX46Y46*%
G04 Gerber Fmt 4.6, Leading zero omitted, Abs format (unit mm)*
G04 Created by KiCad (PCBNEW 9.0.7) date 2026-02-20 23:50:41*
%MOMM*%
%LPD*%
G01*
G04 APERTURE LIST*
G04 Aperture macros list*
%AMRoundRect*
0 Rectangle with rounded corners*
0 $1 Rounding radius*
0 $2 $3 $4 $5 $6 $7 $8 $9 X,Y pos of 4 corners*
0 Add a 4 corners polygon primitive as box body*
4,1,4,$2,$3,$4,$5,$6,$7,$8,$9,$2,$3,0*
0 Add four circle primitives for the rounded corners*
1,1,$1+$1,$2,$3*
1,1,$1+$1,$4,$5*
1,1,$1+$1,$6,$7*
1,1,$1+$1,$8,$9*
0 Add four rect primitives between the rounded corners*
20,1,$1+$1,$2,$3,$4,$5,0*
20,1,$1+$1,$4,$5,$6,$7,0*
20,1,$1+$1,$6,$7,$8,$9,0*
20,1,$1+$1,$8,$9,$2,$3,0*%
G04 Aperture macros list end*
%TA.AperFunction,SMDPad,CuDef*%
%ADD10RoundRect,0.135000X0.185000X-0.135000X0.185000X0.135000X-0.185000X0.135000X-0.185000X-0.135000X0*%
%TD*%
%TA.AperFunction,SMDPad,CuDef*%
%ADD11RoundRect,0.225000X-0.375000X0.225000X-0.375000X-0.225000X0.375000X-0.225000X0.375000X0.225000X0*%
%TD*%
%TA.AperFunction,SMDPad,CuDef*%
%ADD12RoundRect,0.250000X-0.475000X0.250000X-0.475000X-0.250000X0.475000X-0.250000X0.475000X0.250000X0*%
%TD*%
%TA.AperFunction,SMDPad,CuDef*%
%ADD13RoundRect,0.135000X-0.185000X0.135000X-0.185000X-0.135000X0.185000X-0.135000X0.185000X0.135000X0*%
%TD*%
%TA.AperFunction,SMDPad,CuDef*%
%ADD14RoundRect,0.250000X-0.250000X-0.475000X0.250000X-0.475000X0.250000X0.475000X-0.250000X0.475000X0*%
%TD*%
%TA.AperFunction,ComponentPad*%
%ADD15R,1.800000X1.070000*%
%TD*%
%TA.AperFunction,ComponentPad*%
%ADD16O,1.800000X1.070000*%
%TD*%
%TA.AperFunction,SMDPad,CuDef*%
%ADD17R,0.510000X1.100000*%
%TD*%
%TA.AperFunction,ComponentPad*%
%ADD18RoundRect,0.250000X-0.625000X0.350000X-0.625000X-0.350000X0.625000X-0.350000X0.625000X0.350000X0*%
%TD*%
%TA.AperFunction,ComponentPad*%
%ADD19O,1.750000X1.200000*%
%TD*%
%TA.AperFunction,SMDPad,CuDef*%
%ADD20R,1.500000X0.900000*%
%TD*%
%TA.AperFunction,SMDPad,CuDef*%
%ADD21R,0.800000X0.800000*%
%TD*%
%TA.AperFunction,SMDPad,CuDef*%
%ADD22RoundRect,0.250000X0.250000X0.475000X-0.250000X0.475000X-0.250000X-0.475000X0.250000X-0.475000X0*%
%TD*%
%TA.AperFunction,SMDPad,CuDef*%
%ADD23RoundRect,0.050000X-0.250000X-0.075000X0.250000X-0.075000X0.250000X0.075000X-0.250000X0.075000X0*%
%TD*%
%TA.AperFunction,SMDPad,CuDef*%
%ADD24RoundRect,0.050000X-0.400000X-0.075000X0.400000X-0.075000X0.400000X0.075000X-0.400000X0.075000X0*%
%TD*%
%TA.AperFunction,SMDPad,CuDef*%
%ADD25RoundRect,0.050000X-0.600000X-0.075000X0.600000X-0.075000X0.600000X0.075000X-0.600000X0.075000X0*%
%TD*%
%TA.AperFunction,SMDPad,CuDef*%
%ADD26RoundRect,0.245000X-0.245000X-1.455000X0.245000X-1.455000X0.245000X1.455000X-0.245000X1.455000X0*%
%TD*%
%TA.AperFunction,SMDPad,CuDef*%
%ADD27RoundRect,0.150000X0.587500X0.150000X-0.587500X0.150000X-0.587500X-0.150000X0.587500X-0.150000X0*%
%TD*%
%TA.AperFunction,SMDPad,CuDef*%
%ADD28RoundRect,0.135000X0.135000X0.185000X-0.135000X0.185000X-0.135000X-0.185000X0.135000X-0.185000X0*%
%TD*%
%TA.AperFunction,SMDPad,CuDef*%
%ADD29RoundRect,0.135000X-0.135000X-0.185000X0.135000X-0.185000X0.135000X0.185000X-0.135000X0.185000X0*%
%TD*%
%TA.AperFunction,SMDPad,CuDef*%
%ADD30RoundRect,0.050000X-0.050000X0.325000X-0.050000X-0.325000X0.050000X-0.325000X0.050000X0.325000X0*%
%TD*%
%TA.AperFunction,HeatsinkPad*%
%ADD31C,0.500000*%
%TD*%
%TA.AperFunction,HeatsinkPad*%
%ADD32R,1.500000X0.900000*%
%TD*%
%TA.AperFunction,ComponentPad*%
%ADD33R,1.700000X1.700000*%
%TD*%
%TA.AperFunction,ComponentPad*%
%ADD34C,1.700000*%
%TD*%
%TA.AperFunction,ComponentPad*%
%ADD35RoundRect,0.250001X-0.949999X0.949999X-0.949999X-0.949999X0.949999X-0.949999X0.949999X0.949999X0*%
%TD*%
%TA.AperFunction,ComponentPad*%
%ADD36C,2.400000*%
%TD*%
%TA.AperFunction,ComponentPad*%
%ADD37RoundRect,0.250001X-0.949999X-0.949999X0.949999X-0.949999X0.949999X0.949999X-0.949999X0.949999X0*%
%TD*%
%TA.AperFunction,SMDPad,CuDef*%
%ADD38RoundRect,0.150000X-0.150000X0.825000X-0.150000X-0.825000X0.150000X-0.825000X0.150000X0.825000X0*%
%TD*%
%TA.AperFunction,SMDPad,CuDef*%
%ADD39RoundRect,0.175000X-0.425000X0.175000X-0.425000X-0.175000X0.425000X-0.175000X0.425000X0.175000X0*%
%TD*%
%TA.AperFunction,SMDPad,CuDef*%
%ADD40RoundRect,0.190000X0.410000X-0.190000X0.410000X0.190000X-0.410000X0.190000X-0.410000X-0.190000X0*%
%TD*%
%TA.AperFunction,SMDPad,CuDef*%
%ADD41RoundRect,0.200000X0.400000X-0.200000X0.400000X0.200000X-0.400000X0.200000X-0.400000X-0.200000X0*%
%TD*%
%TA.AperFunction,SMDPad,CuDef*%
%ADD42RoundRect,0.175000X0.425000X-0.175000X0.425000X0.175000X-0.425000X0.175000X-0.425000X-0.175000X0*%
%TD*%
%TA.AperFunction,SMDPad,CuDef*%
%ADD43RoundRect,0.190000X-0.410000X0.190000X-0.410000X-0.190000X0.410000X-0.190000X0.410000X0.190000X0*%
%TD*%
%TA.AperFunction,SMDPad,CuDef*%
%ADD44RoundRect,0.200000X-0.400000X0.200000X-0.400000X-0.200000X0.400000X-0.200000X0.400000X0.200000X0*%
%TD*%
%TA.AperFunction,HeatsinkPad*%
%ADD45O,1.700000X1.100000*%
%TD*%
%TA.AperFunction,SMDPad,CuDef*%
%ADD46RoundRect,0.033750X-0.346250X-0.101250X0.346250X-0.101250X0.346250X0.101250X-0.346250X0.101250X0*%
%TD*%
%TA.AperFunction,SMDPad,CuDef*%
%ADD47R,0.900000X1.300000*%
%TD*%
%TA.AperFunction,ComponentPad*%
%ADD48C,2.000000*%
%TD*%
%TA.AperFunction,ViaPad*%
%ADD49C,0.800000*%
%TD*%
%TA.AperFunction,ViaPad*%
%ADD50C,0.600000*%
%TD*%
%TA.AperFunction,Conductor*%
%ADD51C,0.200000*%
%TD*%
%TA.AperFunction,Conductor*%
%ADD52C,0.250000*%
%TD*%
%TA.AperFunction,Conductor*%
%ADD53C,0.254000*%
%TD*%
G04 APERTURE END LIST*
D10*
%TO.P,R29,1*%
%TO.N,GND*%
X130500000Y-97020000D03*
%TO.P,R29,2*%
%TO.N,Net-(CPT1-Pin_2)*%
X130500000Y-96000000D03*
%TD*%
D11*
%TO.P,D2,1,K*%
%TO.N,Net-(CPT1-Pin_2)*%
X127000000Y-97500000D03*
%TO.P,D2,2,A*%
%TO.N,GND*%
X127000000Y-100800000D03*
%TD*%
D12*
%TO.P,C4,1*%
%TO.N,GND*%
X147000000Y-66600000D03*
%TO.P,C4,2*%
%TO.N,3V3_MCU*%
X147000000Y-68500000D03*
%TD*%
%TO.P,C12,1*%
%TO.N,GND*%
X149000000Y-81500000D03*
%TO.P,C12,2*%
%TO.N,Net-(U6-REG)*%
X149000000Y-83400000D03*
%TD*%
D13*
%TO.P,R16,1*%
%TO.N,Net-(U7-FB)*%
X140500000Y-81500000D03*
%TO.P,R16,2*%
%TO.N,ALM_3.3V*%
X140500000Y-82520000D03*
%TD*%
D14*
%TO.P,C9,1*%
%TO.N,SORTI_PASSE_BANDE_ENTREE_CAN_ESP32*%
X135750000Y-94750000D03*
%TO.P,C9,2*%
%TO.N,GND*%
X137650000Y-94750000D03*
%TD*%
%TO.P,C7,1*%
%TO.N,GND*%
X134050000Y-70000000D03*
%TO.P,C7,2*%
%TO.N,LOAD+*%
X135950000Y-70000000D03*
%TD*%
D15*
%TO.P,L_INST1,1,RA*%
%TO.N,Net-(L_INST1-RA)*%
X158750000Y-101205000D03*
D16*
%TO.P,L_INST1,2,GA*%
%TO.N,Net-(L_INST1-GA)*%
X158750000Y-99935000D03*
%TO.P,L_INST1,3,BA*%
%TO.N,Net-(L_INST1-BA)*%
X158750000Y-98665000D03*
%TO.P,L_INST1,4,K*%
%TO.N,GND*%
X158750000Y-97395000D03*
%TD*%
D17*
%TO.P,U6,1,REG*%
%TO.N,Net-(U6-REG)*%
X148250000Y-85200000D03*
%TO.P,U6,2,SCL*%
%TO.N,SCL*%
X147250000Y-85200000D03*
%TO.P,U6,3,SDA*%
%TO.N,SDA*%
X146250000Y-85200000D03*
%TO.P,U6,4,IN/TRIG*%
%TO.N,PWM_MOTEUR*%
X145250000Y-85200000D03*
%TO.P,U6,5,EN*%
%TO.N,ALM_3.3V*%
X144250000Y-85200000D03*
%TO.P,U6,6,VDD/NC*%
%TO.N,unconnected-(U6-VDD{slash}NC-Pad6)*%
X144250000Y-90300000D03*
%TO.P,U6,7,OUT+*%
%TO.N,Net-(Moteur1-Pin_1)*%
X145250000Y-90300000D03*
%TO.P,U6,8,GND*%
%TO.N,GND*%
X146250000Y-90300000D03*
%TO.P,U6,9,OUT-*%
%TO.N,Net-(Moteur1-Pin_2)*%
X147250000Y-90300000D03*
%TO.P,U6,10,VDD*%
%TO.N,ALM_3.3V*%
X148250000Y-90300000D03*
%TD*%
D18*
%TO.P,CBAT1,1,Pin_1*%
%TO.N,GND*%
X131235000Y-62750000D03*
D19*
%TO.P,CBAT1,2,Pin_2*%
%TO.N,/Circuit_batterie/BAT*%
X131235000Y-64750000D03*
%TD*%
D20*
%TO.P,U1,1,GND*%
%TO.N,GND*%
X151500000Y-71750000D03*
%TO.P,U1,2,3V3*%
%TO.N,3V3_MCU*%
X151500000Y-73020000D03*
%TO.P,U1,3,EN/CHIP_PU*%
%TO.N,EN*%
X151500000Y-74290000D03*
%TO.P,U1,4,MTMS/GPIO4/ADC1_CH4*%
%TO.N,MODE*%
X151500000Y-75560000D03*
%TO.P,U1,5,MTDI/GPIO5/ADC1_CH5*%
%TO.N,PWM_MOTEUR*%
X151500000Y-76830000D03*
%TO.P,U1,6,MTCK/GPIO6/ADC1_CH6*%
%TO.N,SDA*%
X151500000Y-78100000D03*
%TO.P,U1,7,MTDO/GPIO7*%
%TO.N,SCL*%
X151500000Y-79370000D03*
%TO.P,U1,8,GPIO0/ADC1_CH0/XTAL_32K_P*%
%TO.N,unconnected-(U1-GPIO0{slash}ADC1_CH0{slash}XTAL_32K_P-Pad8)*%
X151500000Y-80640000D03*
%TO.P,U1,9,GPIO1/ADC1_CH1/XTAL_32K_N*%
%TO.N,unconnected-(U1-GPIO1{slash}ADC1_CH1{slash}XTAL_32K_N-Pad9)*%
X151500000Y-81910000D03*
%TO.P,U1,10,GPIO8*%
%TO.N,BOOT1*%
X151500000Y-83180000D03*
%TO.P,U1,11,GPIO10*%
%TO.N,unconnected-(U1-GPIO10-Pad11)*%
X151500000Y-84450000D03*
%TO.P,U1,12,GPIO11*%
%TO.N,unconnected-(U1-GPIO11-Pad12)*%
X151500000Y-85720000D03*
%TO.P,U1,13,GPIO12/USB_D-*%
%TO.N,unconnected-(U1-GPIO12{slash}USB_D--Pad13)*%
X151500000Y-86990000D03*
%TO.P,U1,14,GPIO13/USB_D+*%
%TO.N,unconnected-(U1-GPIO13{slash}USB_D+-Pad14)*%
X151500000Y-88260000D03*
%TO.P,U1,15,GPIO9*%
%TO.N,BOOT0*%
X169000000Y-88260000D03*
%TO.P,U1,16,GPIO18*%
%TO.N,LEDR_INSTRU*%
X169000000Y-86990000D03*
%TO.P,U1,17,GPIO19*%
%TO.N,LEDG_INSTRU*%
X169000000Y-85720000D03*
%TO.P,U1,18,GPIO20*%
%TO.N,LEDB_INSTRU*%
X169000000Y-84450000D03*
%TO.P,U1,19,GPIO21*%
%TO.N,LEDR_BAT*%
X169000000Y-83180000D03*
%TO.P,U1,20,GPIO22*%
%TO.N,LEDG_BAT*%
X169000000Y-81910000D03*
%TO.P,U1,21,GPIO23*%
%TO.N,LEDB_BAT*%
X169000000Y-80640000D03*
%TO.P,U1,22,NC*%
%TO.N,unconnected-(U1-NC-Pad22)*%
X169000000Y-79370000D03*
%TO.P,U1,23,GPIO15*%
%TO.N,Push_Button*%
X169000000Y-78100000D03*
%TO.P,U1,24,U0RXD/GPIO17*%
%TO.N,U0RXD*%
X169000000Y-76830000D03*
%TO.P,U1,25,U0TXD/GPIO16*%
%TO.N,U0TXD*%
X169000000Y-75560000D03*
%TO.P,U1,26,GPIO3/ADC1_CH3*%
%TO.N,SORTI_PASSE_BANDE_ENTREE_CAN_ESP32*%
X169000000Y-74290000D03*
%TO.P,U1,27,GPIO2/ADC1_CH2*%
%TO.N,unconnected-(U1-GPIO2{slash}ADC1_CH2-Pad27)*%
X169000000Y-73020000D03*
%TO.P,U1,28,GND*%
%TO.N,GND*%
X169000000Y-71750000D03*
D21*
%TO.P,U1,29,GND*%
X157495000Y-76220000D03*
X157495000Y-77470000D03*
X157495000Y-78720000D03*
X158745000Y-76220000D03*
X158745000Y-77470000D03*
X158745000Y-78720000D03*
X159995000Y-76220000D03*
X159995000Y-77470000D03*
X159995000Y-78720000D03*
%TD*%
D22*
%TO.P,C6,1*%
%TO.N,GND*%
X131500000Y-82500000D03*
%TO.P,C6,2*%
%TO.N,Net-(J2-Pin_6)*%
X129600000Y-82500000D03*
%TD*%
%TO.P,C1,1*%
%TO.N,GND*%
X136700000Y-65750000D03*
%TO.P,C1,2*%
%TO.N,/Circuit_batterie/BAT*%
X134800000Y-65750000D03*
%TD*%
%TO.P,C8,1*%
%TO.N,Net-(U5-+)*%
X131700000Y-93500000D03*
%TO.P,C8,2*%
%TO.N,Net-(CPT1-Pin_2)*%
X129800000Y-93500000D03*
%TD*%
D23*
%TO.P,U7,1,EN*%
%TO.N,LOAD+*%
X137850000Y-72000000D03*
%TO.P,U7,2,MODE*%
%TO.N,MODE*%
X137850000Y-72500000D03*
%TO.P,U7,3,AGND*%
%TO.N,GND*%
X137850000Y-73000000D03*
%TO.P,U7,4,FB*%
%TO.N,Net-(U7-FB)*%
X137850000Y-73500000D03*
%TO.P,U7,5,PG*%
%TO.N,unconnected-(U7-PG-Pad5)*%
X137850000Y-74000000D03*
D24*
%TO.P,U7,6,VOUT*%
%TO.N,ALM_3.3V*%
X139500000Y-74000000D03*
%TO.P,U7,7,L2*%
%TO.N,Net-(U7-L2)*%
X139500000Y-73500000D03*
D25*
%TO.P,U7,8,GND*%
%TO.N,GND*%
X139300000Y-73000000D03*
D24*
%TO.P,U7,9,L1*%
%TO.N,Net-(U7-L1)*%
X139500000Y-72500000D03*
%TO.P,U7,10,VIN*%
%TO.N,LOAD+*%
X139500000Y-72000000D03*
%TD*%
D22*
%TO.P,C11,1*%
%TO.N,GND*%
X142450000Y-91000000D03*
%TO.P,C11,2*%
%TO.N,ALM_3.3V*%
X140550000Y-91000000D03*
%TD*%
D26*
%TO.P,L1,1,1*%
%TO.N,Net-(U7-L2)*%
X139750000Y-77500000D03*
%TO.P,L1,2,2*%
%TO.N,Net-(U7-L1)*%
X142120000Y-77500000D03*
%TD*%
D27*
%TO.P,Q2,1,B*%
%TO.N,Net-(Q2-B)*%
X173000000Y-98000000D03*
%TO.P,Q2,2,E*%
%TO.N,BOOT0*%
X173000000Y-96100000D03*
%TO.P,Q2,3,C*%
%TO.N,GND*%
X171125000Y-97050000D03*
%TD*%
D28*
%TO.P,R21,1*%
%TO.N,DTR*%
X173000000Y-93500000D03*
%TO.P,R21,2*%
%TO.N,GND*%
X171980000Y-93500000D03*
%TD*%
D10*
%TO.P,R26,1*%
%TO.N,Net-(L_INST1-GA)*%
X160000000Y-95020000D03*
%TO.P,R26,2*%
%TO.N,LEDG_INSTRU*%
X160000000Y-94000000D03*
%TD*%
D29*
%TO.P,R3,1*%
%TO.N,GND*%
X135990000Y-79500000D03*
%TO.P,R3,2*%
%TO.N,Net-(U2-ILIM{slash}VSET)*%
X137010000Y-79500000D03*
%TD*%
D30*
%TO.P,U2,1,SYS*%
%TO.N,LOAD+*%
X136550000Y-74400000D03*
%TO.P,U2,2,BAT*%
%TO.N,/Circuit_batterie/BAT*%
X136150000Y-74400000D03*
%TO.P,U2,3,STAT2*%
%TO.N,unconnected-(U2-STAT2-Pad3)*%
X135750000Y-74400000D03*
%TO.P,U2,4,~{CE}*%
%TO.N,GND*%
X135350000Y-74400000D03*
%TO.P,U2,5,GND*%
X134950000Y-74400000D03*
%TO.P,U2,6,TS/MR*%
%TO.N,Net-(U2-TS{slash}MR)*%
X134950000Y-76600000D03*
%TO.P,U2,7,ILIM/VSET*%
%TO.N,Net-(U2-ILIM{slash}VSET)*%
X135350000Y-76600000D03*
%TO.P,U2,8,ISET*%
%TO.N,Net-(U2-ISET)*%
X135750000Y-76600000D03*
%TO.P,U2,9,STAT1*%
%TO.N,unconnected-(U2-STAT1-Pad9)*%
X136150000Y-76600000D03*
%TO.P,U2,10,IN*%
%TO.N,Net-(J2-Pin_6)*%
X136550000Y-76600000D03*
D31*
%TO.P,U2,11,THERMAL_PAD*%
%TO.N,GND*%
X136250000Y-75500000D03*
D32*
X135750000Y-75500000D03*
D31*
X135250000Y-75500000D03*
%TD*%
D10*
%TO.P,R1,1*%
%TO.N,Net-(U2-TS{slash}MR)*%
X137750000Y-76520000D03*
%TO.P,R1,2*%
%TO.N,GND*%
X137750000Y-75500000D03*
%TD*%
%TO.P,R25,1*%
%TO.N,Net-(L_INST1-RA)*%
X161500000Y-95020000D03*
%TO.P,R25,2*%
%TO.N,LEDR_INSTRU*%
X161500000Y-94000000D03*
%TD*%
D33*
%TO.P,JP1,1,A*%
%TO.N,ALM_3.3V*%
X155420000Y-62070000D03*
D34*
%TO.P,JP1,2,C*%
%TO.N,3V3_MCU*%
X157960000Y-62070000D03*
%TO.P,JP1,3,B*%
%TO.N,3V3_PROG*%
X160500000Y-62070000D03*
%TD*%
D35*
%TO.P,CPT1,1,Pin_1*%
%TO.N,GND*%
X129750000Y-86000000D03*
D36*
%TO.P,CPT1,2,Pin_2*%
%TO.N,Net-(CPT1-Pin_2)*%
X129750000Y-89500000D03*
%TD*%
D37*
%TO.P,Moteur1,1,Pin_1*%
%TO.N,Net-(Moteur1-Pin_1)*%
X142000000Y-97250000D03*
D36*
%TO.P,Moteur1,2,Pin_2*%
%TO.N,Net-(Moteur1-Pin_2)*%
X145500000Y-97250000D03*
%TD*%
D10*
%TO.P,R2,1*%
%TO.N,GND*%
X133500000Y-80520000D03*
%TO.P,R2,2*%
%TO.N,Net-(U2-ISET)*%
X133500000Y-79500000D03*
%TD*%
D28*
%TO.P,R14,1*%
%TO.N,SORTI_PASSE_BANDE_ENTREE_CAN_ESP32*%
X137010000Y-93000000D03*
%TO.P,R14,2*%
%TO.N,Net-(R14-Pad2)*%
X135990000Y-93000000D03*
%TD*%
D10*
%TO.P,R27,1*%
%TO.N,Net-(L_INST1-BA)*%
X158500000Y-95020000D03*
%TO.P,R27,2*%
%TO.N,LEDB_INSTRU*%
X158500000Y-94000000D03*
%TD*%
D28*
%TO.P,R18,1*%
%TO.N,Net-(Q2-B)*%
X172000000Y-99500000D03*
%TO.P,R18,2*%
%TO.N,DTR*%
X170980000Y-99500000D03*
%TD*%
D38*
%TO.P,U5,1,Rg*%
%TO.N,Net-(R30-Pad2)*%
X138790000Y-86000000D03*
%TO.P,U5,2,-*%
%TO.N,VREF_1.65V*%
X137520000Y-86000000D03*
%TO.P,U5,3,+*%
%TO.N,Net-(U5-+)*%
X136250000Y-86000000D03*
%TO.P,U5,4,Vs-*%
%TO.N,GND*%
X134980000Y-86000000D03*
%TO.P,U5,5,Ref*%
%TO.N,VREF_1.65V*%
X134980000Y-90950000D03*
%TO.P,U5,6*%
%TO.N,Net-(R14-Pad2)*%
X136250000Y-90950000D03*
%TO.P,U5,7,Vs+*%
%TO.N,ALM_3.3V*%
X137520000Y-90950000D03*
%TO.P,U5,8,Rg*%
%TO.N,Net-(R30-Pad1)*%
X138790000Y-90950000D03*
%TD*%
D10*
%TO.P,R23,1*%
%TO.N,Net-(LBAT1-GA)*%
X155500000Y-95020000D03*
%TO.P,R23,2*%
%TO.N,LEDG_BAT*%
X155500000Y-94000000D03*
%TD*%
%TO.P,R24,1*%
%TO.N,Net-(LBAT1-BA)*%
X154000000Y-95020000D03*
%TO.P,R24,2*%
%TO.N,LEDB_BAT*%
X154000000Y-94000000D03*
%TD*%
%TO.P,R22,1*%
%TO.N,Net-(LBAT1-RA)*%
X157000000Y-95020000D03*
%TO.P,R22,2*%
%TO.N,LEDR_BAT*%
X157000000Y-94000000D03*
%TD*%
D39*
%TO.P,J2,A5,Pin_3*%
%TO.N,Net-(J2-Pin_3)*%
X131565000Y-74375000D03*
D40*
%TO.P,J2,A9,Pin_7*%
%TO.N,Net-(J2-Pin_6)*%
X131565000Y-76395000D03*
D41*
%TO.P,J2,A12,Pin_5*%
%TO.N,GND*%
X131565000Y-77625000D03*
D42*
%TO.P,J2,B5,Pin_2*%
%TO.N,Net-(J2-Pin_2)*%
X131565000Y-75375000D03*
D43*
%TO.P,J2,B9,Pin_6*%
%TO.N,Net-(J2-Pin_6)*%
X131565000Y-73355000D03*
D44*
%TO.P,J2,B12,Pin_4*%
%TO.N,GND*%
X131565000Y-72125000D03*
D45*
%TO.P,J2,S1,Pin_1*%
X131485000Y-70555000D03*
X127685000Y-70555000D03*
X131485000Y-79195000D03*
X127685000Y-79195000D03*
%TD*%
D10*
%TO.P,R4,1*%
%TO.N,ALM_3.3V*%
X147500000Y-77010000D03*
%TO.P,R4,2*%
%TO.N,SDA*%
X147500000Y-75990000D03*
%TD*%
D22*
%TO.P,C13,1*%
%TO.N,GND*%
X142450000Y-88250000D03*
%TO.P,C13,2*%
%TO.N,ALM_3.3V*%
X140550000Y-88250000D03*
%TD*%
D14*
%TO.P,C14,1*%
%TO.N,LOAD+*%
X138000000Y-70000000D03*
%TO.P,C14,2*%
%TO.N,GND*%
X139900000Y-70000000D03*
%TD*%
D13*
%TO.P,R9,1*%
%TO.N,GND*%
X133500000Y-73990000D03*
%TO.P,R9,2*%
%TO.N,Net-(J2-Pin_3)*%
X133500000Y-75010000D03*
%TD*%
D10*
%TO.P,R5,1*%
%TO.N,ALM_3.3V*%
X145500000Y-77510000D03*
%TO.P,R5,2*%
%TO.N,SCL*%
X145500000Y-76490000D03*
%TD*%
D28*
%TO.P,R11,1*%
%TO.N,VREF_1.65V*%
X137520000Y-84000000D03*
%TO.P,R11,2*%
%TO.N,Net-(U5-+)*%
X136500000Y-84000000D03*
%TD*%
D29*
%TO.P,R19,1*%
%TO.N,ALM_3.3V*%
X148490000Y-92510000D03*
%TO.P,R19,2*%
%TO.N,BOOT1*%
X149510000Y-92510000D03*
%TD*%
D33*
%TO.P,J3,1,Pin_1*%
%TO.N,GND*%
X172865000Y-72110000D03*
D34*
%TO.P,J3,2,Pin_2*%
%TO.N,3V3_PROG*%
X172865000Y-74650000D03*
%TO.P,J3,3,Pin_3*%
%TO.N,U0RXD*%
X172865000Y-77190000D03*
%TO.P,J3,4,Pin_4*%
%TO.N,U0TXD*%
X172865000Y-79730000D03*
%TO.P,J3,5,Pin_5*%
%TO.N,EN*%
X172865000Y-82270000D03*
%TO.P,J3,6,Pin_6*%
%TO.N,BOOT0*%
X172865000Y-84810000D03*
%TO.P,J3,7,Pin_7*%
%TO.N,RTS*%
X172865000Y-87350000D03*
%TO.P,J3,8,Pin_8*%
%TO.N,DTR*%
X172865000Y-89890000D03*
%TD*%
D46*
%TO.P,U3,1,CTG*%
%TO.N,GND*%
X140015000Y-64750000D03*
%TO.P,U3,2,CELL*%
%TO.N,/Circuit_batterie/BAT*%
X140015000Y-65250000D03*
%TO.P,U3,3,VDD*%
X140015000Y-65750000D03*
%TO.P,U3,4,GND*%
%TO.N,GND*%
X140015000Y-66250000D03*
%TO.P,U3,5,~{ALERT}*%
%TO.N,unconnected-(U3-~{ALERT}-Pad5)*%
X141985000Y-66250000D03*
%TO.P,U3,6,QSTRT*%
%TO.N,GND*%
X141985000Y-65750000D03*
%TO.P,U3,7,SCL*%
%TO.N,SCL*%
X141985000Y-65250000D03*
%TO.P,U3,8,SDA*%
%TO.N,SDA*%
X141985000Y-64750000D03*
D47*
%TO.P,U3,9,EP*%
%TO.N,GND*%
X141000000Y-65500000D03*
%TD*%
D13*
%TO.P,R13,1*%
%TO.N,VREF_1.65V*%
X139000000Y-82990000D03*
%TO.P,R13,2*%
%TO.N,ALM_3.3V*%
X139000000Y-84010000D03*
%TD*%
D48*
%TO.P,SW1,1,1*%
%TO.N,GND*%
X164000000Y-99500000D03*
X164000000Y-93000000D03*
%TO.P,SW1,2,2*%
%TO.N,Push_Button*%
X168500000Y-99500000D03*
X168500000Y-93000000D03*
%TD*%
D15*
%TO.P,LBAT1,1,RA*%
%TO.N,Net-(LBAT1-RA)*%
X151500000Y-101205000D03*
D16*
%TO.P,LBAT1,2,GA*%
%TO.N,Net-(LBAT1-GA)*%
X151500000Y-99935000D03*
%TO.P,LBAT1,3,BA*%
%TO.N,Net-(LBAT1-BA)*%
X151500000Y-98665000D03*
%TO.P,LBAT1,4,K*%
%TO.N,GND*%
X151500000Y-97395000D03*
%TD*%
D10*
%TO.P,R10,1*%
%TO.N,GND*%
X133500000Y-77260000D03*
%TO.P,R10,2*%
%TO.N,Net-(J2-Pin_2)*%
X133500000Y-76240000D03*
%TD*%
%TO.P,R6,1*%
%TO.N,MODE*%
X141500000Y-70520000D03*
%TO.P,R6,2*%
%TO.N,LOAD+*%
X141500000Y-69500000D03*
%TD*%
D49*
%TO.N,Net-(R30-Pad1)*%
X140000000Y-92500000D03*
D50*
%TO.N,Net-(R30-Pad2)*%
X139000000Y-87500000D03*
%TO.N,GND*%
X141000000Y-72000000D03*
X138501337Y-72997957D03*
X144000000Y-77500000D03*
%TO.N,ALM_3.3V*%
X155309000Y-84000000D03*
%TO.N,Net-(J2-Pin_6)*%
X137494877Y-78656595D03*
X129500000Y-77500000D03*
%TO.N,EN*%
X155000000Y-73500000D03*
%TO.N,BOOT0*%
X167000000Y-90000000D03*
%TO.N,Net-(U2-TS{slash}MR)*%
X137900000Y-77500000D03*
X134500000Y-77500000D03*
%TO.N,Net-(U2-ISET)*%
X136000000Y-78279000D03*
X134127000Y-78373000D03*
%TO.N,SDA*%
X150000000Y-78100000D03*
X146000000Y-82500000D03*
%TO.N,SCL*%
X147500000Y-79500000D03*
X146500000Y-76500000D03*
%TO.N,MODE*%
X141500000Y-70520000D03*
X151500000Y-75560000D03*
X136898528Y-72600000D03*
%TO.N,Net-(U7-FB)*%
X138599999Y-74306360D03*
X139500000Y-81500000D03*
%TO.N,VREF_1.65V*%
X137428794Y-87857276D03*
%TO.N,PWM_MOTEUR*%
X143836391Y-82336391D03*
X150000000Y-76500000D03*
D49*
%TO.N,Push_Button*%
X167000000Y-79500000D03*
%TD*%
D51*
%TO.N,SORTI_PASSE_BANDE_ENTREE_CAN_ESP32*%
X135750000Y-96105283D02*
X135750000Y-94750000D01*
X169758388Y-103500000D02*
X143144717Y-103500000D01*
X175000000Y-98258388D02*
X169758388Y-103500000D01*
X172388240Y-73499000D02*
X173341760Y-73499000D01*
X171597240Y-74290000D02*
X172388240Y-73499000D01*
X173341760Y-73499000D02*
X175000000Y-75157240D01*
X175000000Y-75157240D02*
X175000000Y-98258388D01*
X143144717Y-103500000D02*
X135750000Y-96105283D01*
X169000000Y-74290000D02*
X171597240Y-74290000D01*
D52*
%TO.N,Net-(R30-Pad1)*%
X139000000Y-92500000D02*
X138790000Y-92290000D01*
X140000000Y-92500000D02*
X139000000Y-92500000D01*
X138790000Y-92290000D02*
X138790000Y-90950000D01*
%TO.N,Net-(R30-Pad2)*%
X139000000Y-87500000D02*
X138790000Y-87290000D01*
X138790000Y-87290000D02*
X138790000Y-86000000D01*
D53*
%TO.N,GND*%
X125500000Y-102000000D02*
X127000000Y-102000000D01*
X125500000Y-88500000D02*
X125500000Y-102000000D01*
X129750000Y-86000000D02*
X128000000Y-86000000D01*
X128000000Y-86000000D02*
X125500000Y-88500000D01*
D52*
X129500000Y-99000000D02*
X130500000Y-98000000D01*
X130500000Y-98000000D02*
X130500000Y-97020000D01*
X129500000Y-102000000D02*
X129500000Y-99000000D01*
X127000000Y-102000000D02*
X129500000Y-102000000D01*
X127000000Y-100800000D02*
X127000000Y-102000000D01*
%TO.N,Net-(CPT1-Pin_2)*%
X128800000Y-94700000D02*
X129800000Y-94700000D01*
X127000000Y-96500000D02*
X128800000Y-94700000D01*
X127000000Y-97500000D02*
X127000000Y-96500000D01*
X129800000Y-94800000D02*
X129800000Y-94700000D01*
X130500000Y-95500000D02*
X129800000Y-94800000D01*
X130500000Y-96000000D02*
X130500000Y-95500000D01*
D53*
X129800000Y-93500000D02*
X129800000Y-94700000D01*
%TO.N,GND*%
X136700000Y-61200000D02*
X136700000Y-65750000D01*
D51*
X137021320Y-66460160D02*
X133311160Y-62750000D01*
X131635000Y-72125000D02*
X131517500Y-72125000D01*
X133500000Y-73990000D02*
X131635000Y-72125000D01*
X141250000Y-65750000D02*
X141000000Y-65500000D01*
D53*
X143200000Y-89000000D02*
X142450000Y-89750000D01*
D51*
X151500000Y-70500000D02*
X151347164Y-70500000D01*
X158745000Y-78720000D02*
X157495000Y-78720000D01*
D53*
X151500000Y-95750000D02*
X151500000Y-97395000D01*
X149750000Y-95750000D02*
X151500000Y-95750000D01*
D51*
X149000000Y-81500000D02*
X149000000Y-80500000D01*
D53*
X131982500Y-80520000D02*
X131462500Y-80000000D01*
X134980000Y-86000000D02*
X129750000Y-86000000D01*
D51*
X131712500Y-70000000D02*
X131462500Y-69750000D01*
X144081000Y-60919000D02*
X141000000Y-64000000D01*
D53*
X136500000Y-61000000D02*
X136700000Y-61200000D01*
X151500000Y-95750000D02*
X151500000Y-95375000D01*
X135980000Y-80520000D02*
X134000000Y-80520000D01*
X149750000Y-98746834D02*
X149750000Y-95750000D01*
X141500000Y-93250000D02*
X137750000Y-93250000D01*
D52*
X164000000Y-93000000D02*
X164000000Y-99500000D01*
D51*
X136900000Y-67000000D02*
X136700000Y-66800000D01*
D53*
X151500000Y-95375000D02*
X155936000Y-90939000D01*
D51*
X134950000Y-75446447D02*
X134896447Y-75500000D01*
X134121000Y-76639000D02*
X133500000Y-77260000D01*
X140015000Y-66250000D02*
X140015000Y-66985000D01*
X139900000Y-67100000D02*
X139900000Y-70000000D01*
D53*
X137650000Y-97250000D02*
X137650000Y-97400000D01*
D51*
X134121000Y-76275447D02*
X134121000Y-76639000D01*
X141000000Y-65500000D02*
X141000000Y-67000000D01*
X158436760Y-60919000D02*
X144081000Y-60919000D01*
D53*
X131462500Y-80000000D02*
X131462500Y-82462500D01*
D51*
X151500000Y-70500000D02*
X151500000Y-71750000D01*
D53*
X131235000Y-62750000D02*
X131235000Y-61265000D01*
D51*
X139300000Y-73000000D02*
X137850000Y-73000000D01*
D53*
X131517500Y-79945000D02*
X131462500Y-80000000D01*
D52*
X174063500Y-95583500D02*
X174063500Y-96936500D01*
D51*
X133311160Y-62750000D02*
X131235000Y-62750000D01*
X147599000Y-63901000D02*
X158126100Y-63901000D01*
D53*
X163500000Y-102250000D02*
X163500000Y-100690000D01*
D51*
X157495000Y-76220000D02*
X157495000Y-77470000D01*
X137249000Y-73278226D02*
X137249000Y-74999000D01*
D53*
X142450000Y-89750000D02*
X142450000Y-91000000D01*
D51*
X141985000Y-65750000D02*
X141250000Y-65750000D01*
X169500000Y-70500000D02*
X172865000Y-70500000D01*
D53*
X136000000Y-81500000D02*
X136000000Y-83250000D01*
X136000000Y-83250000D02*
X134980000Y-84270000D01*
D51*
X159995000Y-76220000D02*
X159995000Y-77470000D01*
D52*
X171125000Y-97050000D02*
X169826000Y-98349000D01*
D53*
X128490000Y-80000000D02*
X127685000Y-79195000D01*
X137650000Y-94750000D02*
X137650000Y-97250000D01*
D51*
X158745000Y-77470000D02*
X157495000Y-77470000D01*
D53*
X134000000Y-80520000D02*
X131982500Y-80520000D01*
D51*
X169000000Y-71750000D02*
X169000000Y-71000000D01*
X159995000Y-76220000D02*
X159995000Y-71005000D01*
X159995000Y-78720000D02*
X158745000Y-78720000D01*
D53*
X131517500Y-77625000D02*
X131517500Y-78500000D01*
X142500000Y-92250000D02*
X141500000Y-93250000D01*
D51*
X134050000Y-70000000D02*
X131712500Y-70000000D01*
X157495000Y-76220000D02*
X157495000Y-70995000D01*
X147000000Y-80500000D02*
X144000000Y-77500000D01*
D53*
X133500000Y-78500000D02*
X133500000Y-77260000D01*
D51*
X136700000Y-66800000D02*
X136700000Y-65750000D01*
D53*
X137750000Y-93250000D02*
X137650000Y-93350000D01*
X137650000Y-93350000D02*
X137650000Y-94750000D01*
D51*
X135350000Y-74400000D02*
X134950000Y-74400000D01*
D53*
X142450000Y-91000000D02*
X142450000Y-92200000D01*
X134980000Y-84270000D02*
X134980000Y-86000000D01*
D52*
X171980000Y-93500000D02*
X174063500Y-95583500D01*
D51*
X159111000Y-62916100D02*
X159111000Y-61593240D01*
X137249000Y-74999000D02*
X137750000Y-75500000D01*
X134950000Y-74400000D02*
X133910000Y-74400000D01*
D53*
X131500000Y-61000000D02*
X136500000Y-61000000D01*
D51*
X141000000Y-67000000D02*
X142121000Y-68121000D01*
X149000000Y-80500000D02*
X147000000Y-80500000D01*
X140015000Y-66985000D02*
X139900000Y-67100000D01*
X134896447Y-75500000D02*
X134121000Y-76275447D01*
X141000000Y-67000000D02*
X140000000Y-67000000D01*
D53*
X155936000Y-73112296D02*
X153323704Y-70500000D01*
D51*
X131462500Y-69750000D02*
X131462500Y-72070000D01*
D53*
X163806500Y-100383500D02*
X163806500Y-99500000D01*
X136000000Y-80500000D02*
X135980000Y-80520000D01*
D51*
X159111000Y-61593240D02*
X158436760Y-60919000D01*
D53*
X131517500Y-78500000D02*
X133500000Y-78500000D01*
X131235000Y-61265000D02*
X131500000Y-61000000D01*
X148746834Y-99750000D02*
X149750000Y-98746834D01*
X142900000Y-102500000D02*
X163250000Y-102500000D01*
D52*
X169826000Y-98349000D02*
X169826000Y-100049248D01*
D51*
X151347164Y-70500000D02*
X150000000Y-69152836D01*
X140015000Y-66985000D02*
X140000000Y-67000000D01*
D53*
X142450000Y-92200000D02*
X142500000Y-92250000D01*
X131517500Y-78500000D02*
X131517500Y-79945000D01*
D51*
X157495000Y-70995000D02*
X157000000Y-70500000D01*
D53*
X131462500Y-82462500D02*
X131500000Y-82500000D01*
D51*
X172865000Y-70500000D02*
X172865000Y-72110000D01*
D52*
X169826000Y-100049248D02*
X167375248Y-102500000D01*
D51*
X140015000Y-64750000D02*
X140015000Y-64015000D01*
D53*
X155936000Y-90939000D02*
X155936000Y-73112296D01*
D51*
X158745000Y-76220000D02*
X158745000Y-77470000D01*
X131462500Y-72070000D02*
X131517500Y-72125000D01*
X133910000Y-74400000D02*
X133500000Y-73990000D01*
X127685000Y-70555000D02*
X128490000Y-69750000D01*
X141000000Y-64000000D02*
X141000000Y-65500000D01*
D53*
X163500000Y-100690000D02*
X163806500Y-100383500D01*
D51*
X134950000Y-74400000D02*
X134950000Y-75446447D01*
X137850000Y-73000000D02*
X137527226Y-73000000D01*
X140015000Y-64015000D02*
X140000000Y-64000000D01*
D53*
X142450000Y-88250000D02*
X142450000Y-89750000D01*
D52*
X173950000Y-97050000D02*
X171125000Y-97050000D01*
D53*
X140000000Y-99750000D02*
X148746834Y-99750000D01*
X137650000Y-97250000D02*
X142900000Y-102500000D01*
X163250000Y-102500000D02*
X163500000Y-102250000D01*
D51*
X128490000Y-69750000D02*
X131462500Y-69750000D01*
X142121000Y-68121000D02*
X142121000Y-70879000D01*
X159995000Y-71005000D02*
X160000000Y-71000000D01*
X160000000Y-71000000D02*
X169000000Y-71000000D01*
X158745000Y-77470000D02*
X158745000Y-78720000D01*
X135250000Y-75500000D02*
X134896447Y-75500000D01*
X142121000Y-70879000D02*
X141000000Y-72000000D01*
X147000000Y-64500000D02*
X147599000Y-63901000D01*
D53*
X136700000Y-65750000D02*
X136700000Y-66300000D01*
X131462500Y-80000000D02*
X128490000Y-80000000D01*
X146250000Y-90300000D02*
X146250000Y-89000000D01*
X136000000Y-79510000D02*
X135990000Y-79500000D01*
D51*
X169000000Y-71000000D02*
X169500000Y-70500000D01*
D53*
X137650000Y-97400000D02*
X140000000Y-99750000D01*
D51*
X147000000Y-64500000D02*
X147000000Y-66600000D01*
D52*
X167375248Y-102500000D02*
X163250000Y-102500000D01*
D53*
X146250000Y-89000000D02*
X143200000Y-89000000D01*
D51*
X140000000Y-67000000D02*
X136900000Y-67000000D01*
X137527226Y-73000000D02*
X137249000Y-73278226D01*
D52*
X174063500Y-96936500D02*
X173950000Y-97050000D01*
D51*
X150000000Y-64500000D02*
X147000000Y-64500000D01*
X159995000Y-77470000D02*
X159995000Y-78720000D01*
D53*
X147000000Y-67000000D02*
X147000000Y-66600000D01*
X136000000Y-81500000D02*
X136000000Y-80500000D01*
D51*
X141000000Y-64000000D02*
X141000000Y-65794842D01*
X158126100Y-63901000D02*
X159111000Y-62916100D01*
X140000000Y-64000000D02*
X141000000Y-64000000D01*
X157000000Y-70500000D02*
X151500000Y-70500000D01*
X150000000Y-69152836D02*
X150000000Y-64500000D01*
D53*
X153323704Y-70500000D02*
X153000000Y-70500000D01*
X136000000Y-80500000D02*
X136000000Y-79510000D01*
D51*
X140334682Y-66460160D02*
X137021320Y-66460160D01*
X136250000Y-75500000D02*
X137750000Y-75500000D01*
X141000000Y-65794842D02*
X140334682Y-66460160D01*
D53*
%TO.N,/Circuit_batterie/BAT*%
X131000000Y-66500000D02*
X128000000Y-66500000D01*
D51*
X136150000Y-74400000D02*
X136150000Y-73650000D01*
D53*
X136143467Y-60000000D02*
X138500000Y-62356533D01*
X138500000Y-62356533D02*
X138500000Y-65000000D01*
X131235000Y-64750000D02*
X131235000Y-66265000D01*
X138750000Y-65250000D02*
X140015000Y-65250000D01*
X127000000Y-65500000D02*
X127000000Y-60000000D01*
X140015000Y-65250000D02*
X140015000Y-65750000D01*
X131250000Y-63750000D02*
X131235000Y-63765000D01*
X128000000Y-66500000D02*
X127000000Y-65500000D01*
X132800000Y-63750000D02*
X131250000Y-63750000D01*
D51*
X134851000Y-72351000D02*
X134851000Y-65801000D01*
D53*
X127000000Y-60000000D02*
X136143467Y-60000000D01*
X138500000Y-65000000D02*
X138750000Y-65250000D01*
X131235000Y-63765000D02*
X131235000Y-64750000D01*
D51*
X134851000Y-65801000D02*
X134800000Y-65750000D01*
X136150000Y-73650000D02*
X134851000Y-72351000D01*
D53*
X131235000Y-66265000D02*
X131000000Y-66500000D01*
X134800000Y-65750000D02*
X132800000Y-63750000D01*
%TO.N,ALM_3.3V*%
X140500000Y-84500000D02*
X140550000Y-84550000D01*
D51*
X143751057Y-76899000D02*
X143000000Y-77650057D01*
D53*
X138000000Y-80500000D02*
X141500000Y-80500000D01*
X152842000Y-93158000D02*
X154000000Y-92000000D01*
D51*
X148250000Y-91750000D02*
X148250000Y-90300000D01*
X144889000Y-76899000D02*
X143751057Y-76899000D01*
D53*
X140550000Y-88600658D02*
X141953658Y-87197000D01*
X137500000Y-89500000D02*
X140550000Y-89500000D01*
D51*
X147500000Y-78000000D02*
X147500000Y-77010000D01*
X145500000Y-77510000D02*
X144889000Y-76899000D01*
X139500000Y-74500000D02*
X138500000Y-75500000D01*
D53*
X140550000Y-84550000D02*
X140550000Y-88250000D01*
D51*
X140500000Y-82520000D02*
X140500000Y-84500000D01*
D53*
X141953658Y-87197000D02*
X146765000Y-87197000D01*
D51*
X139500000Y-74000000D02*
X139500000Y-74500000D01*
D53*
X137520000Y-90950000D02*
X137520000Y-89520000D01*
X141250000Y-83750000D02*
X140500000Y-84500000D01*
D51*
X143000000Y-77650057D02*
X143000000Y-79098950D01*
D53*
X141500000Y-80500000D02*
X141500000Y-83750000D01*
X141500000Y-83750000D02*
X141250000Y-83750000D01*
X140550000Y-89500000D02*
X140550000Y-91000000D01*
X148912000Y-92890522D02*
X149179478Y-93158000D01*
D51*
X137900000Y-79100000D02*
X137900000Y-80400000D01*
D53*
X144250000Y-85200000D02*
X144250000Y-83750000D01*
X154000000Y-92000000D02*
X155309000Y-90691000D01*
X137520000Y-89520000D02*
X137500000Y-89500000D01*
D51*
X141598950Y-80500000D02*
X141500000Y-80500000D01*
D53*
X155309000Y-90691000D02*
X155309000Y-84000000D01*
X148912000Y-89344000D02*
X148912000Y-92890522D01*
D51*
X139000000Y-84010000D02*
X139000000Y-84500000D01*
X138500000Y-75500000D02*
X138500000Y-78500000D01*
D53*
X146765000Y-87197000D02*
X148912000Y-89344000D01*
D51*
X148490000Y-92510000D02*
X148490000Y-92010000D01*
D53*
X149179478Y-93158000D02*
X152842000Y-93158000D01*
D51*
X138500000Y-78500000D02*
X137900000Y-79100000D01*
D53*
X144250000Y-83750000D02*
X141500000Y-83750000D01*
D51*
X148500000Y-92000000D02*
X148250000Y-91750000D01*
D53*
X140550000Y-91000000D02*
X140550000Y-88600658D01*
D51*
X139000000Y-84500000D02*
X140500000Y-84500000D01*
X148490000Y-92010000D02*
X148500000Y-92000000D01*
X145500000Y-77510000D02*
X145500000Y-78000000D01*
D53*
X144250000Y-85200000D02*
X144250000Y-85750000D01*
D51*
X137900000Y-80400000D02*
X138000000Y-80500000D01*
X143000000Y-79098950D02*
X141598950Y-80500000D01*
D53*
X144250000Y-85750000D02*
X148250000Y-89750000D01*
X148250000Y-89750000D02*
X148250000Y-90300000D01*
X140550000Y-88250000D02*
X140550000Y-89500000D01*
D51*
X145500000Y-78000000D02*
X147500000Y-78000000D01*
%TO.N,Net-(J2-Pin_6)*%
X126000000Y-82000000D02*
X126500000Y-82500000D01*
X126000000Y-77000000D02*
X126000000Y-82000000D01*
D53*
X136578000Y-77578000D02*
X136578000Y-76600000D01*
X131517500Y-76395000D02*
X126605000Y-76395000D01*
D51*
X131517500Y-73355000D02*
X131456500Y-73416000D01*
X131456500Y-73416000D02*
X130762906Y-73416000D01*
X131517500Y-73355000D02*
X126145000Y-73355000D01*
D53*
X137494877Y-78656595D02*
X137494877Y-78494877D01*
D51*
X126500000Y-82500000D02*
X129600000Y-82500000D01*
X126145000Y-73355000D02*
X126000000Y-73500000D01*
D53*
X126605000Y-76395000D02*
X126000000Y-77000000D01*
D51*
X126000000Y-73500000D02*
X126000000Y-77000000D01*
D53*
X137494877Y-78494877D02*
X136578000Y-77578000D01*
X131517500Y-76395000D02*
X130605000Y-76395000D01*
X130605000Y-76395000D02*
X129500000Y-77500000D01*
%TO.N,Net-(U5-+)*%
X136250000Y-84250000D02*
X136500000Y-84000000D01*
X136250000Y-87000000D02*
X131700000Y-91550000D01*
X136250000Y-86000000D02*
X136250000Y-84250000D01*
X131700000Y-91550000D02*
X131700000Y-93500000D01*
X136250000Y-86000000D02*
X136250000Y-87000000D01*
%TO.N,Net-(CPT1-Pin_2)*%
X129800000Y-93500000D02*
X129800000Y-89550000D01*
X129800000Y-89550000D02*
X129750000Y-89500000D01*
%TO.N,SORTI_PASSE_BANDE_ENTREE_CAN_ESP32*%
X137010000Y-93490000D02*
X136798000Y-93702000D01*
X135750000Y-93702000D02*
X135750000Y-94750000D01*
X136798000Y-93702000D02*
X135750000Y-93702000D01*
X137010000Y-93000000D02*
X137010000Y-93490000D01*
D51*
%TO.N,EN*%
X154210000Y-74290000D02*
X155000000Y-73500000D01*
X151500000Y-74290000D02*
X154210000Y-74290000D01*
%TO.N,Net-(U6-REG)*%
X149000000Y-83400000D02*
X149000000Y-85000000D01*
X148800000Y-85200000D02*
X148250000Y-85200000D01*
X149000000Y-85000000D02*
X148800000Y-85200000D01*
%TO.N,Net-(J2-Pin_3)*%
X133500000Y-75010000D02*
X133500000Y-75500000D01*
X131875000Y-74375000D02*
X131517500Y-74375000D01*
X133500000Y-75500000D02*
X133000000Y-75500000D01*
X133000000Y-75500000D02*
X131875000Y-74375000D01*
%TO.N,Net-(J2-Pin_2)*%
X131565000Y-75375000D02*
X131517500Y-75375000D01*
X132902142Y-76240000D02*
X132037142Y-75375000D01*
X132037142Y-75375000D02*
X131565000Y-75375000D01*
X133500000Y-76240000D02*
X132902142Y-76240000D01*
%TO.N,U0TXD*%
X169241000Y-75801000D02*
X173103760Y-75801000D01*
X169000000Y-75560000D02*
X169241000Y-75801000D01*
X174016000Y-76713240D02*
X174016000Y-78579000D01*
X173103760Y-75801000D02*
X174016000Y-76713240D01*
X174016000Y-78579000D02*
X172865000Y-79730000D01*
D52*
%TO.N,DTR*%
X171000000Y-100500000D02*
X170980000Y-100480000D01*
X171475694Y-101000000D02*
X171000000Y-101000000D01*
X170980000Y-100480000D02*
X170980000Y-99500000D01*
X174500000Y-97975694D02*
X171475694Y-101000000D01*
X174000000Y-93500000D02*
X174500000Y-94000000D01*
X172865000Y-89890000D02*
X174000000Y-91025000D01*
X174000000Y-93500000D02*
X173000000Y-93500000D01*
X174000000Y-91025000D02*
X174000000Y-93500000D01*
X174500000Y-94000000D02*
X174500000Y-97975694D01*
X171000000Y-101000000D02*
X171000000Y-100500000D01*
D51*
%TO.N,U0RXD*%
X172505000Y-76830000D02*
X172865000Y-77190000D01*
X169000000Y-76830000D02*
X172505000Y-76830000D01*
%TO.N,BOOT0*%
X167000000Y-90000000D02*
X169000000Y-90000000D01*
D52*
X171600000Y-96100000D02*
X171000000Y-95500000D01*
D51*
X169000000Y-90000000D02*
X169000000Y-88260000D01*
D53*
X169000000Y-88260000D02*
X169990000Y-88260000D01*
X171500000Y-84750000D02*
X172805000Y-84750000D01*
X172805000Y-84750000D02*
X172865000Y-84810000D01*
X171500000Y-86750000D02*
X171500000Y-84750000D01*
D52*
X171000000Y-95500000D02*
X171000000Y-92000000D01*
X171000000Y-92000000D02*
X169000000Y-90000000D01*
D53*
X169990000Y-88260000D02*
X171500000Y-86750000D01*
D52*
X173000000Y-96100000D02*
X171600000Y-96100000D01*
D51*
%TO.N,Net-(U7-L2)*%
X140251000Y-73778226D02*
X140251000Y-76999000D01*
X139972774Y-73500000D02*
X140251000Y-73778226D01*
X139500000Y-73500000D02*
X139972774Y-73500000D01*
X140251000Y-76999000D02*
X139750000Y-77500000D01*
%TO.N,Net-(U7-L1)*%
X140000000Y-72500000D02*
X142120000Y-74620000D01*
X139500000Y-72500000D02*
X140000000Y-72500000D01*
X142120000Y-74620000D02*
X142120000Y-77500000D01*
D53*
%TO.N,LEDB_BAT*%
X167000000Y-81000000D02*
X154500000Y-93500000D01*
X169000000Y-81000000D02*
X167000000Y-81000000D01*
X169000000Y-80640000D02*
X169000000Y-81000000D01*
D52*
X154000000Y-94000000D02*
X154500000Y-93500000D01*
D53*
%TO.N,LEDR_BAT*%
X157000000Y-93000000D02*
X157000000Y-94000000D01*
X166500000Y-83500000D02*
X157000000Y-93000000D01*
X169000000Y-83180000D02*
X169000000Y-83500000D01*
X169000000Y-83500000D02*
X166500000Y-83500000D01*
%TO.N,LEDG_BAT*%
X155500000Y-93500000D02*
X155500000Y-94000000D01*
X169000000Y-81910000D02*
X169000000Y-82250000D01*
X169000000Y-82250000D02*
X166750000Y-82250000D01*
X166750000Y-82250000D02*
X155500000Y-93500000D01*
D52*
%TO.N,LEDR_INSTRU*%
X169000000Y-86990000D02*
X166510000Y-86990000D01*
X161500000Y-92000000D02*
X161500000Y-94000000D01*
X166510000Y-86990000D02*
X161500000Y-92000000D01*
D53*
%TO.N,LEDG_INSTRU*%
X169000000Y-85720000D02*
X166280000Y-85720000D01*
X166280000Y-85720000D02*
X160000000Y-92000000D01*
X160000000Y-92000000D02*
X160000000Y-94000000D01*
D51*
%TO.N,LEDB_INSTRU*%
X166550000Y-84450000D02*
X158500000Y-92500000D01*
X169000000Y-84450000D02*
X166550000Y-84450000D01*
X158500000Y-92500000D02*
X158500000Y-94000000D01*
X169050000Y-84500000D02*
X169000000Y-84450000D01*
D53*
%TO.N,Net-(Moteur1-Pin_2)*%
X145500000Y-94750000D02*
X145500000Y-97250000D01*
X147250000Y-93000000D02*
X145500000Y-94750000D01*
X147250000Y-90300000D02*
X147250000Y-93000000D01*
%TO.N,Net-(Moteur1-Pin_1)*%
X145250000Y-90300000D02*
X145250000Y-91104000D01*
X145250000Y-91104000D02*
X142000000Y-94354000D01*
X142000000Y-94354000D02*
X142000000Y-97250000D01*
D52*
%TO.N,Net-(Q2-B)*%
X173000000Y-98000000D02*
X173000000Y-98500000D01*
X173000000Y-98500000D02*
X172000000Y-99500000D01*
D51*
%TO.N,Net-(U2-TS{slash}MR)*%
X134500000Y-77500000D02*
X134500000Y-77050000D01*
X137750000Y-76520000D02*
X137750000Y-77350000D01*
X137750000Y-77350000D02*
X137900000Y-77500000D01*
X134500000Y-77050000D02*
X134950000Y-76600000D01*
%TO.N,Net-(U2-ISET)*%
X134127000Y-78373000D02*
X134127000Y-78873000D01*
X135750000Y-78029000D02*
X136000000Y-78279000D01*
X134127000Y-78873000D02*
X133500000Y-79500000D01*
X135750000Y-76600000D02*
X135750000Y-78029000D01*
%TO.N,Net-(U2-ILIM{slash}VSET)*%
X135000000Y-78758000D02*
X135121000Y-78879000D01*
X136389000Y-78879000D02*
X137010000Y-79500000D01*
X135121000Y-78879000D02*
X136389000Y-78879000D01*
X135350000Y-77650000D02*
X135000000Y-78000000D01*
X135350000Y-76600000D02*
X135350000Y-77650000D01*
X135000000Y-78000000D02*
X135000000Y-78758000D01*
%TO.N,SDA*%
X146250000Y-82750000D02*
X146000000Y-82500000D01*
X144000000Y-66276058D02*
X144000000Y-75000000D01*
X149610000Y-78100000D02*
X150000000Y-78100000D01*
X147500000Y-75990000D02*
X147500000Y-75000000D01*
X147500000Y-75000000D02*
X144000000Y-75000000D01*
X142473942Y-64750000D02*
X144000000Y-66276058D01*
X147500000Y-75990000D02*
X149610000Y-78100000D01*
X146250000Y-85200000D02*
X146250000Y-82750000D01*
X150000000Y-78100000D02*
X151500000Y-78100000D01*
X141985000Y-64750000D02*
X142473942Y-64750000D01*
%TO.N,SCL*%
X145500000Y-75500000D02*
X143000000Y-75500000D01*
X150026000Y-81985160D02*
X150026000Y-79894000D01*
X150550000Y-79370000D02*
X151500000Y-79370000D01*
X145500000Y-76490000D02*
X145500000Y-75500000D01*
X143000000Y-65843158D02*
X143000000Y-75500000D01*
X145510000Y-76500000D02*
X145500000Y-76490000D01*
X148587840Y-82301000D02*
X149710160Y-82301000D01*
X146500000Y-76500000D02*
X145510000Y-76500000D01*
X147250000Y-83638840D02*
X148587840Y-82301000D01*
X149710160Y-82301000D02*
X150026000Y-81985160D01*
X150026000Y-79894000D02*
X149632000Y-79500000D01*
X142406842Y-65250000D02*
X143000000Y-65843158D01*
X150026000Y-79894000D02*
X150550000Y-79370000D01*
X147250000Y-85200000D02*
X147250000Y-83638840D01*
X141985000Y-65250000D02*
X142406842Y-65250000D01*
X149632000Y-79500000D02*
X147500000Y-79500000D01*
%TO.N,MODE*%
X136998528Y-72500000D02*
X136898528Y-72600000D01*
X137850000Y-72500000D02*
X136998528Y-72500000D01*
%TO.N,Net-(U7-FB)*%
X139500000Y-81500000D02*
X140500000Y-81500000D01*
X138172774Y-73500000D02*
X137850000Y-73500000D01*
X138599999Y-74306360D02*
X138599999Y-73927225D01*
X138599999Y-73927225D02*
X138172774Y-73500000D01*
D53*
%TO.N,VREF_1.65V*%
X137520000Y-87948482D02*
X134980000Y-90488482D01*
X139000000Y-82990000D02*
X137510000Y-82990000D01*
X137520000Y-86000000D02*
X137520000Y-84000000D01*
X137520000Y-86000000D02*
X137520000Y-87948482D01*
X137520000Y-83020000D02*
X137520000Y-84000000D01*
X134980000Y-90488482D02*
X134980000Y-90950000D01*
%TO.N,Net-(R14-Pad2)*%
X136250000Y-90950000D02*
X136250000Y-92000000D01*
X135990000Y-92260000D02*
X135990000Y-93000000D01*
X136250000Y-92000000D02*
X135990000Y-92260000D01*
D51*
%TO.N,BOOT1*%
X149510000Y-84638000D02*
X150968000Y-83180000D01*
X149510000Y-92510000D02*
X149510000Y-84638000D01*
X150968000Y-83180000D02*
X151500000Y-83180000D01*
%TO.N,PWM_MOTEUR*%
X150000000Y-76500000D02*
X151170000Y-76500000D01*
X145250000Y-83750000D02*
X143836391Y-82336391D01*
X145250000Y-85200000D02*
X145250000Y-83750000D01*
X151170000Y-76500000D02*
X151500000Y-76830000D01*
%TO.N,LOAD+*%
X138000000Y-70000000D02*
X138000000Y-71850000D01*
X140474000Y-71026000D02*
X140879000Y-70621000D01*
X136550000Y-73100000D02*
X135450000Y-72000000D01*
X136550000Y-74400000D02*
X136550000Y-73100000D01*
X140879000Y-70121000D02*
X141500000Y-69500000D01*
X138000000Y-70000000D02*
X139026000Y-71026000D01*
X135450000Y-72000000D02*
X137850000Y-72000000D01*
X137850000Y-72000000D02*
X139500000Y-72000000D01*
X140879000Y-70621000D02*
X140879000Y-70121000D01*
X139026000Y-71026000D02*
X140474000Y-71026000D01*
X138000000Y-70000000D02*
X135950000Y-70000000D01*
X138000000Y-71850000D02*
X137850000Y-72000000D01*
%TO.N,3V3_MCU*%
X145500000Y-63500000D02*
X157960000Y-63500000D01*
X147000000Y-70500000D02*
X145500000Y-69000000D01*
X147000000Y-73000000D02*
X147020000Y-73020000D01*
X157960000Y-63500000D02*
X157960000Y-62070000D01*
X147000000Y-70500000D02*
X147000000Y-73000000D01*
X147000000Y-68500000D02*
X147000000Y-70500000D01*
X147020000Y-73020000D02*
X151500000Y-73020000D01*
X145500000Y-69000000D02*
X145500000Y-63500000D01*
D52*
%TO.N,Net-(LBAT1-RA)*%
X151921402Y-101205000D02*
X151500000Y-101205000D01*
D53*
X152103834Y-101205000D02*
X151500000Y-101205000D01*
D52*
X157000000Y-96126402D02*
X151921402Y-101205000D01*
X157000000Y-95020000D02*
X157000000Y-96126402D01*
%TO.N,Net-(LBAT1-GA)*%
X155500000Y-96356401D02*
X151921401Y-99935000D01*
X155500000Y-95020000D02*
X155500000Y-96356401D01*
X151921401Y-99935000D02*
X151500000Y-99935000D01*
%TO.N,Net-(LBAT1-BA)*%
X154000000Y-95020000D02*
X154000000Y-96530000D01*
X151865000Y-98665000D02*
X151500000Y-98665000D01*
X154000000Y-96530000D02*
X151865000Y-98665000D01*
%TO.N,Net-(L_INST1-RA)*%
X161500000Y-99500000D02*
X159795000Y-101205000D01*
X161500000Y-95020000D02*
X161500000Y-99500000D01*
X159795000Y-101205000D02*
X158750000Y-101205000D01*
%TO.N,Net-(L_INST1-BA)*%
X157000000Y-98665000D02*
X158750000Y-98665000D01*
X157000000Y-97000000D02*
X157000000Y-98665000D01*
X158500000Y-95020000D02*
X158500000Y-95500000D01*
X158500000Y-95500000D02*
X157000000Y-97000000D01*
%TO.N,Net-(L_INST1-GA)*%
X159115000Y-99935000D02*
X158750000Y-99935000D01*
X160000000Y-95020000D02*
X160000000Y-99050000D01*
X160000000Y-99050000D02*
X159115000Y-99935000D01*
%TO.N,Push_Button*%
X169000000Y-78100000D02*
X168400000Y-78100000D01*
X168500000Y-93000000D02*
X168500000Y-99500000D01*
X168400000Y-78100000D02*
X167000000Y-79500000D01*
%TD*%
%TA.AperFunction,Conductor*%
%TO.N,GND*%
G36*
X167694258Y-87635185D02*
G01*
X167740013Y-87687989D01*
X167750507Y-87752756D01*
X167749500Y-87762127D01*
X167749500Y-87762129D01*
X167749500Y-88757870D01*
X167749501Y-88757876D01*
X167755908Y-88817483D01*
X167806202Y-88952328D01*
X167806206Y-88952335D01*
X167892452Y-89067544D01*
X167892455Y-89067547D01*
X168007664Y-89153793D01*
X168007671Y-89153797D01*
X168022473Y-89159318D01*
X168078407Y-89201189D01*
X168102824Y-89266654D01*
X168087972Y-89334927D01*
X168038567Y-89384332D01*
X167979140Y-89399500D01*
X167579766Y-89399500D01*
X167512727Y-89379815D01*
X167510875Y-89378602D01*
X167379185Y-89290609D01*
X167379172Y-89290602D01*
X167233501Y-89230264D01*
X167233489Y-89230261D01*
X167078845Y-89199500D01*
X167078842Y-89199500D01*
X166921158Y-89199500D01*
X166921155Y-89199500D01*
X166766510Y-89230261D01*
X166766498Y-89230264D01*
X166620827Y-89290602D01*
X166620814Y-89290609D01*
X166489711Y-89378210D01*
X166489707Y-89378213D01*
X166378213Y-89489707D01*
X166378210Y-89489711D01*
X166290609Y-89620814D01*
X166290602Y-89620827D01*
X166230264Y-89766498D01*
X166230261Y-89766510D01*
X166199500Y-89921153D01*
X166199500Y-90078846D01*
X166230261Y-90233489D01*
X166230264Y-90233501D01*
X166290602Y-90379172D01*
X166290609Y-90379185D01*
X166378210Y-90510288D01*
X166378213Y-90510292D01*
X166489707Y-90621786D01*
X166489711Y-90621789D01*
X166620814Y-90709390D01*
X166620827Y-90709397D01*
X166725630Y-90752807D01*
X166766503Y-90769737D01*
X166921153Y-90800499D01*
X166921156Y-90800500D01*
X166921158Y-90800500D01*
X167078844Y-90800500D01*
X167078845Y-90800499D01*
X167233497Y-90769737D01*
X167379179Y-90709394D01*
X167379185Y-90709390D01*
X167510875Y-90621398D01*
X167577553Y-90600520D01*
X167579766Y-90600500D01*
X168664548Y-90600500D01*
X168731587Y-90620185D01*
X168752229Y-90636819D01*
X170338181Y-92222771D01*
X170371666Y-92284094D01*
X170374500Y-92310452D01*
X170374500Y-95561610D01*
X170377878Y-95578595D01*
X170398535Y-95682444D01*
X170398537Y-95682452D01*
X170406226Y-95701016D01*
X170408825Y-95707289D01*
X170445688Y-95796286D01*
X170470255Y-95833052D01*
X170474716Y-95839729D01*
X170474717Y-95839730D01*
X170514141Y-95898732D01*
X170514144Y-95898736D01*
X170605586Y-95990178D01*
X170605608Y-95990198D01*
X170653729Y-96038319D01*
X170687214Y-96099642D01*
X170682230Y-96169334D01*
X170640358Y-96225267D01*
X170574894Y-96249684D01*
X170566048Y-96250000D01*
X170471850Y-96250000D01*
X170435010Y-96252899D01*
X170435004Y-96252900D01*
X170277306Y-96298716D01*
X170277303Y-96298717D01*
X170135947Y-96382314D01*
X170135938Y-96382321D01*
X170019821Y-96498438D01*
X170019814Y-96498447D01*
X169936218Y-96639801D01*
X169890399Y-96797513D01*
X169890204Y-96799998D01*
X169890205Y-96800000D01*
X172030685Y-96800000D01*
X172093806Y-96817268D01*
X172152102Y-96851744D01*
X172193724Y-96863836D01*
X172309926Y-96897597D01*
X172309929Y-96897597D01*
X172309931Y-96897598D01*
X172346806Y-96900500D01*
X172346814Y-96900500D01*
X173653186Y-96900500D01*
X173653194Y-96900500D01*
X173690069Y-96897598D01*
X173715904Y-96890092D01*
X173742158Y-96890166D01*
X173768147Y-96886430D01*
X173776543Y-96890264D01*
X173785773Y-96890291D01*
X173807818Y-96904547D01*
X173831703Y-96915455D01*
X173836692Y-96923219D01*
X173844444Y-96928232D01*
X173855283Y-96952148D01*
X173869477Y-96974233D01*
X173871420Y-96987749D01*
X173873288Y-96991870D01*
X173874500Y-97009168D01*
X173874500Y-97090831D01*
X173854815Y-97157870D01*
X173802011Y-97203625D01*
X173732853Y-97213569D01*
X173715907Y-97209908D01*
X173690070Y-97202402D01*
X173690067Y-97202401D01*
X173653201Y-97199500D01*
X173653194Y-97199500D01*
X172346806Y-97199500D01*
X172346798Y-97199500D01*
X172309932Y-97202401D01*
X172309926Y-97202402D01*
X172152106Y-97248254D01*
X172152103Y-97248255D01*
X172093806Y-97282732D01*
X172030685Y-97300000D01*
X171375000Y-97300000D01*
X171375000Y-97850000D01*
X171638000Y-97850000D01*
X171705039Y-97869685D01*
X171750794Y-97922489D01*
X171762000Y-97974000D01*
X171762000Y-98215701D01*
X171764901Y-98252567D01*
X171764902Y-98252573D01*
X171810754Y-98410393D01*
X171810755Y-98410396D01*
X171810756Y-98410398D01*
X171828468Y-98440348D01*
X171861171Y-98495645D01*
X171878354Y-98563369D01*
X171856194Y-98629632D01*
X171801728Y-98673395D01*
X171770951Y-98680762D01*
X171771031Y-98681196D01*
X171764797Y-98682334D01*
X171610611Y-98727129D01*
X171610604Y-98727132D01*
X171553119Y-98761128D01*
X171485395Y-98778309D01*
X171426881Y-98761128D01*
X171369395Y-98727132D01*
X171369388Y-98727129D01*
X171215208Y-98682335D01*
X171215202Y-98682334D01*
X171179181Y-98679500D01*
X170780830Y-98679500D01*
X170780808Y-98679501D01*
X170744794Y-98682335D01*
X170590611Y-98727129D01*
X170590606Y-98727131D01*
X170452404Y-98808863D01*
X170452396Y-98808869D01*
X170338869Y-98922396D01*
X170338863Y-98922404D01*
X170257131Y-99060606D01*
X170257129Y-99060612D01*
X170212878Y-99212924D01*
X170175272Y-99271810D01*
X170111799Y-99301016D01*
X170042613Y-99291270D01*
X169989678Y-99245666D01*
X169971329Y-99197727D01*
X169969979Y-99189209D01*
X169963553Y-99148632D01*
X169890568Y-98924008D01*
X169890566Y-98924005D01*
X169890566Y-98924003D01*
X169816380Y-98778406D01*
X169783343Y-98713567D01*
X169644517Y-98522490D01*
X169477510Y-98355483D01*
X169286433Y-98216657D01*
X169286432Y-98216656D01*
X169286430Y-98216655D01*
X169193204Y-98169153D01*
X169142409Y-98121178D01*
X169125500Y-98058669D01*
X169125500Y-97300001D01*
X169890204Y-97300001D01*
X169890399Y-97302486D01*
X169936218Y-97460198D01*
X170019814Y-97601552D01*
X170019821Y-97601561D01*
X170135938Y-97717678D01*
X170135947Y-97717685D01*
X170277303Y-97801282D01*
X170277306Y-97801283D01*
X170435004Y-97847099D01*
X170435010Y-97847100D01*
X170471850Y-97849999D01*
X170471866Y-97850000D01*
X170875000Y-97850000D01*
X170875000Y-97300000D01*
X169890205Y-97300000D01*
X169890204Y-97300001D01*
X169125500Y-97300001D01*
X169125500Y-94441329D01*
X169145185Y-94374290D01*
X169193205Y-94330844D01*
X169286433Y-94283343D01*
X169477510Y-94144517D01*
X169644517Y-93977510D01*
X169783343Y-93786433D01*
X169890568Y-93575992D01*
X169963553Y-93351368D01*
X169972996Y-93291746D01*
X170000500Y-93118097D01*
X170000500Y-92881902D01*
X169963553Y-92648631D01*
X169912175Y-92490508D01*
X169890568Y-92424008D01*
X169890566Y-92424005D01*
X169890566Y-92424003D01*
X169815663Y-92276998D01*
X169783343Y-92213567D01*
X169644517Y-92022490D01*
X169477510Y-91855483D01*
X169286433Y-91716657D01*
X169261029Y-91703713D01*
X169075996Y-91609433D01*
X168851368Y-91536446D01*
X168618097Y-91499500D01*
X168618092Y-91499500D01*
X168381908Y-91499500D01*
X168381903Y-91499500D01*
X168148631Y-91536446D01*
X167924003Y-91609433D01*
X167713566Y-91716657D01*
X167636586Y-91772587D01*
X167522490Y-91855483D01*
X167522488Y-91855485D01*
X167522487Y-91855485D01*
X167355485Y-92022487D01*
X167355485Y-92022488D01*
X167355483Y-92022490D01*
X167346105Y-92035398D01*
X167216657Y-92213566D01*
X167109433Y-92424003D01*
X167036446Y-92648631D01*
X166999500Y-92881902D01*
X166999500Y-93118097D01*
X167036446Y-93351368D01*
X167109433Y-93575996D01*
X167203389Y-93760393D01*
X167216657Y-93786433D01*
X167355483Y-93977510D01*
X167522490Y-94144517D01*
X167630042Y-94222658D01*
X167713568Y-94283344D01*
X167756829Y-94305386D01*
X167806794Y-94330844D01*
X167857590Y-94378818D01*
X167874500Y-94441329D01*
X167874500Y-98058669D01*
X167854815Y-98125708D01*
X167806796Y-98169153D01*
X167713569Y-98216655D01*
X167664133Y-98252573D01*
X167522490Y-98355483D01*
X167522488Y-98355485D01*
X167522487Y-98355485D01*
X167355485Y-98522487D01*
X167355485Y-98522488D01*
X167355483Y-98522490D01*
X167349121Y-98531247D01*
X167216657Y-98713566D01*
X167109433Y-98924003D01*
X167036446Y-99148631D01*
X166999500Y-99381902D01*
X166999500Y-99618097D01*
X167036446Y-99851368D01*
X167109433Y-100075996D01*
X167133012Y-100122271D01*
X167216657Y-100286433D01*
X167355483Y-100477510D01*
X167522490Y-100644517D01*
X167713567Y-100783343D01*
X167812991Y-100834002D01*
X167924003Y-100890566D01*
X167924005Y-100890566D01*
X167924008Y-100890568D01*
X168044412Y-100929689D01*
X168148631Y-100963553D01*
X168381903Y-101000500D01*
X168381908Y-101000500D01*
X168618097Y-101000500D01*
X168851368Y-100963553D01*
X168852870Y-100963065D01*
X169075992Y-100890568D01*
X169286433Y-100783343D01*
X169477510Y-100644517D01*
X169644517Y-100477510D01*
X169783343Y-100286433D01*
X169890568Y-100075992D01*
X169963553Y-99851368D01*
X169971329Y-99802272D01*
X170001258Y-99739137D01*
X170060569Y-99702205D01*
X170130431Y-99703203D01*
X170188664Y-99741812D01*
X170212878Y-99787074D01*
X170257129Y-99939388D01*
X170257131Y-99939393D01*
X170337232Y-100074837D01*
X170354500Y-100137958D01*
X170354500Y-100541610D01*
X170356169Y-100550000D01*
X170362037Y-100579500D01*
X170370516Y-100622127D01*
X170372117Y-100630173D01*
X170374500Y-100654365D01*
X170374500Y-101061610D01*
X170398535Y-101182444D01*
X170398538Y-101182454D01*
X170445687Y-101296283D01*
X170445692Y-101296292D01*
X170514141Y-101398732D01*
X170514144Y-101398736D01*
X170601263Y-101485855D01*
X170601267Y-101485858D01*
X170668677Y-101530901D01*
X170713482Y-101584514D01*
X170722189Y-101653839D01*
X170692034Y-101716866D01*
X170687467Y-101721684D01*
X169545972Y-102863181D01*
X169484649Y-102896666D01*
X169458291Y-102899500D01*
X143444814Y-102899500D01*
X143377775Y-102879815D01*
X143357133Y-102863181D01*
X136477841Y-95983889D01*
X136474154Y-95977137D01*
X136467895Y-95972661D01*
X136457642Y-95946897D01*
X136444356Y-95922566D01*
X136444904Y-95914891D01*
X136442060Y-95907743D01*
X136447362Y-95880529D01*
X136449340Y-95852874D01*
X136454286Y-95844989D01*
X136455422Y-95839163D01*
X136473092Y-95815016D01*
X136475954Y-95810455D01*
X136476875Y-95809492D01*
X136592712Y-95693656D01*
X136601648Y-95679167D01*
X136610725Y-95669687D01*
X136630090Y-95658559D01*
X136646694Y-95643623D01*
X136659795Y-95641489D01*
X136671305Y-95634876D01*
X136693611Y-95635984D01*
X136715656Y-95632395D01*
X136727831Y-95637684D01*
X136741088Y-95638343D01*
X136759253Y-95651334D01*
X136779740Y-95660234D01*
X136792847Y-95675359D01*
X136797920Y-95678987D01*
X136799557Y-95683102D01*
X136805829Y-95690339D01*
X136807681Y-95693341D01*
X136807683Y-95693344D01*
X136931654Y-95817315D01*
X137080875Y-95909356D01*
X137080880Y-95909358D01*
X137247302Y-95964505D01*
X137247309Y-95964506D01*
X137350019Y-95974999D01*
X137900000Y-95974999D01*
X137949972Y-95974999D01*
X137949986Y-95974998D01*
X138052697Y-95964505D01*
X138219119Y-95909358D01*
X138219124Y-95909356D01*
X138368345Y-95817315D01*
X138492315Y-95693345D01*
X138584356Y-95544124D01*
X138584358Y-95544119D01*
X138639505Y-95377697D01*
X138639506Y-95377690D01*
X138649999Y-95274986D01*
X138650000Y-95274973D01*
X138650000Y-95000000D01*
X137900000Y-95000000D01*
X137900000Y-95974999D01*
X137350019Y-95974999D01*
X137399999Y-95974998D01*
X137400000Y-95974998D01*
X137400000Y-94874000D01*
X137419685Y-94806961D01*
X137472489Y-94761206D01*
X137524000Y-94750000D01*
X137650000Y-94750000D01*
X137650000Y-94624000D01*
X137669685Y-94556961D01*
X137722489Y-94511206D01*
X137774000Y-94500000D01*
X138649999Y-94500000D01*
X138649999Y-94225028D01*
X138649998Y-94225013D01*
X138639505Y-94122302D01*
X138584358Y-93955880D01*
X138584356Y-93955875D01*
X138492315Y-93806654D01*
X138368345Y-93682684D01*
X138219124Y-93590643D01*
X138219119Y-93590641D01*
X138052697Y-93535494D01*
X138052690Y-93535493D01*
X137949986Y-93525000D01*
X137873150Y-93525000D01*
X137806111Y-93505315D01*
X137760356Y-93452511D01*
X137750412Y-93383353D01*
X137754074Y-93366405D01*
X137777664Y-93285208D01*
X137777665Y-93285202D01*
X137780499Y-93249188D01*
X137780500Y-93249181D01*
X137780499Y-92750820D01*
X137777665Y-92714796D01*
X137733579Y-92563050D01*
X137733586Y-92560363D01*
X137732237Y-92558041D01*
X137733686Y-92525643D01*
X137733779Y-92493182D01*
X137735238Y-92490924D01*
X137735359Y-92488241D01*
X137754104Y-92461753D01*
X137771722Y-92434512D01*
X137774643Y-92432730D01*
X137775721Y-92431209D01*
X137784927Y-92426462D01*
X137806236Y-92413474D01*
X137812042Y-92411129D01*
X137930398Y-92376744D01*
X138001773Y-92334532D01*
X138010430Y-92331038D01*
X138036276Y-92328494D01*
X138061452Y-92322106D01*
X138070485Y-92325126D01*
X138079963Y-92324194D01*
X138103081Y-92336027D01*
X138127714Y-92344265D01*
X138133679Y-92351689D01*
X138142159Y-92356030D01*
X138155211Y-92378486D01*
X138171478Y-92398731D01*
X138176364Y-92414881D01*
X138177269Y-92416437D01*
X138177213Y-92417685D01*
X138178467Y-92421829D01*
X138188535Y-92472447D01*
X138188539Y-92472460D01*
X138196016Y-92490508D01*
X138196017Y-92490514D01*
X138196018Y-92490514D01*
X138235685Y-92586281D01*
X138235690Y-92586290D01*
X138261891Y-92625501D01*
X138261892Y-92625502D01*
X138304141Y-92688732D01*
X138304144Y-92688736D01*
X138395586Y-92780178D01*
X138395608Y-92780198D01*
X138511016Y-92895606D01*
X138511045Y-92895637D01*
X138601264Y-92985856D01*
X138601267Y-92985858D01*
X138678190Y-93037256D01*
X138703715Y-93054312D01*
X138752454Y-93074500D01*
X138817548Y-93101463D01*
X138841414Y-93106210D01*
X138862940Y-93110492D01*
X138862960Y-93110495D01*
X138862982Y-93110500D01*
X138938391Y-93125499D01*
X138938392Y-93125500D01*
X138938393Y-93125500D01*
X138938394Y-93125500D01*
X139300639Y-93125500D01*
X139367678Y-93145185D01*
X139388321Y-93161820D01*
X139425961Y-93199461D01*
X139425965Y-93199464D01*
X139573446Y-93298009D01*
X139573459Y-93298016D01*
X139677318Y-93341035D01*
X139737334Y-93365894D01*
X139737336Y-93365894D01*
X139737341Y-93365896D01*
X139911304Y-93400499D01*
X139911307Y-93400500D01*
X139911309Y-93400500D01*
X140088693Y-93400500D01*
X140088694Y-93400499D01*
X140146682Y-93388964D01*
X140262658Y-93365896D01*
X140262661Y-93365894D01*
X140262666Y-93365894D01*
X140426547Y-93298013D01*
X140574035Y-93199464D01*
X140699464Y-93074035D01*
X140798013Y-92926547D01*
X140865894Y-92762666D01*
X140868117Y-92751494D01*
X140900499Y-92588695D01*
X140900500Y-92588693D01*
X140900500Y-92411307D01*
X140893625Y-92376745D01*
X140888471Y-92350836D01*
X140894698Y-92281246D01*
X140937560Y-92226068D01*
X140971082Y-92208939D01*
X141119334Y-92159814D01*
X141268656Y-92067712D01*
X141392712Y-91943656D01*
X141394752Y-91940347D01*
X141396745Y-91938555D01*
X141397193Y-91937989D01*
X141397289Y-91938065D01*
X141446694Y-91893623D01*
X141515656Y-91882395D01*
X141579740Y-91910234D01*
X141605829Y-91940339D01*
X141607681Y-91943341D01*
X141607683Y-91943344D01*
X141731654Y-92067315D01*
X141880875Y-92159356D01*
X141880880Y-92159358D01*
X142047302Y-92214505D01*
X142047309Y-92214506D01*
X142150019Y-92224999D01*
X142199999Y-92224998D01*
X142200000Y-92224998D01*
X142200000Y-89775000D01*
X142199999Y-89774999D01*
X142150029Y-89775000D01*
X142150011Y-89775001D01*
X142047302Y-89785494D01*
X141880880Y-89840641D01*
X141880875Y-89840643D01*
X141731654Y-89932684D01*
X141607683Y-90056655D01*
X141607679Y-90056660D01*
X141605826Y-90059665D01*
X141604018Y-90061290D01*
X141603202Y-90062323D01*
X141603025Y-90062183D01*
X141553874Y-90106385D01*
X141484911Y-90117601D01*
X141420831Y-90089752D01*
X141394753Y-90059653D01*
X141394539Y-90059306D01*
X141392712Y-90056344D01*
X141268656Y-89932288D01*
X141268655Y-89932287D01*
X141236402Y-89912393D01*
X141189678Y-89860444D01*
X141177500Y-89806855D01*
X141177500Y-89443143D01*
X141197185Y-89376104D01*
X141236401Y-89337606D01*
X141268656Y-89317712D01*
X141392712Y-89193656D01*
X141394752Y-89190347D01*
X141396745Y-89188555D01*
X141397193Y-89187989D01*
X141397289Y-89188065D01*
X141446694Y-89143623D01*
X141515656Y-89132395D01*
X141579740Y-89160234D01*
X141605829Y-89190339D01*
X141607681Y-89193341D01*
X141607683Y-89193344D01*
X141731654Y-89317315D01*
X141880875Y-89409356D01*
X141880880Y-89409358D01*
X142047302Y-89464505D01*
X142047309Y-89464506D01*
X142150019Y-89474999D01*
X142700000Y-89474999D01*
X142749972Y-89474999D01*
X142749986Y-89474998D01*
X142852697Y-89464505D01*
X143019119Y-89409358D01*
X143019124Y-89409356D01*
X143168345Y-89317315D01*
X143292315Y-89193345D01*
X143384356Y-89044124D01*
X143384358Y-89044119D01*
X143439505Y-88877697D01*
X143439506Y-88877690D01*
X143449999Y-88774986D01*
X143450000Y-88774973D01*
X143450000Y-88500000D01*
X142700000Y-88500000D01*
X142700000Y-89474999D01*
X142150019Y-89474999D01*
X142199999Y-89474998D01*
X142200000Y-89474998D01*
X142200000Y-88374000D01*
X142219685Y-88306961D01*
X142272489Y-88261206D01*
X142324000Y-88250000D01*
X142450000Y-88250000D01*
X142450000Y-88124000D01*
X142469685Y-88056961D01*
X142522489Y-88011206D01*
X142574000Y-88000000D01*
X143449999Y-88000000D01*
X143449999Y-87948500D01*
X143469684Y-87881461D01*
X143522488Y-87835706D01*
X143573999Y-87824500D01*
X145385719Y-87824500D01*
X145452758Y-87844185D01*
X145473400Y-87860819D01*
X146651350Y-89038769D01*
X146684835Y-89100092D01*
X146679851Y-89169784D01*
X146637979Y-89225717D01*
X146572515Y-89250134D01*
X146556170Y-89249846D01*
X146556153Y-89250178D01*
X146552828Y-89250000D01*
X146500000Y-89250000D01*
X146500000Y-89644329D01*
X146499289Y-89657584D01*
X146494500Y-89702127D01*
X146494500Y-90294106D01*
X146494501Y-90300000D01*
X146494501Y-90897874D01*
X146499290Y-90942421D01*
X146500000Y-90955675D01*
X146500000Y-91350000D01*
X146500623Y-91350623D01*
X146565539Y-91369685D01*
X146611294Y-91422489D01*
X146622500Y-91474000D01*
X146622500Y-92688719D01*
X146602815Y-92755758D01*
X146586181Y-92776400D01*
X145099992Y-94262589D01*
X145070390Y-94292191D01*
X145012586Y-94349994D01*
X145012585Y-94349996D01*
X144943920Y-94452760D01*
X144943916Y-94452768D01*
X144940517Y-94460975D01*
X144938565Y-94465689D01*
X144896614Y-94566965D01*
X144881861Y-94641135D01*
X144880479Y-94648082D01*
X144880478Y-94648086D01*
X144872500Y-94688195D01*
X144872500Y-95586456D01*
X144852815Y-95653495D01*
X144800011Y-95699250D01*
X144795955Y-95701016D01*
X144746271Y-95721596D01*
X144553226Y-95833052D01*
X144553217Y-95833058D01*
X144376377Y-95968751D01*
X144376370Y-95968757D01*
X144218757Y-96126370D01*
X144218751Y-96126377D01*
X144083058Y-96303217D01*
X144083052Y-96303226D01*
X143971595Y-96496273D01*
X143971593Y-96496277D01*
X143939061Y-96574817D01*
X143895220Y-96629220D01*
X143828926Y-96651285D01*
X143761226Y-96634006D01*
X143713616Y-96582868D01*
X143700500Y-96527364D01*
X143700500Y-96249997D01*
X143700499Y-96249984D01*
X143700468Y-96249684D01*
X143689999Y-96147203D01*
X143634814Y-95980666D01*
X143632637Y-95977137D01*
X143542713Y-95831348D01*
X143542710Y-95831344D01*
X143418655Y-95707289D01*
X143418651Y-95707286D01*
X143269337Y-95615187D01*
X143269335Y-95615186D01*
X143186065Y-95587593D01*
X143102797Y-95560001D01*
X143102795Y-95560000D01*
X143000015Y-95549500D01*
X143000008Y-95549500D01*
X142751500Y-95549500D01*
X142684461Y-95529815D01*
X142638706Y-95477011D01*
X142627500Y-95425500D01*
X142627500Y-94665281D01*
X142647185Y-94598242D01*
X142663819Y-94577600D01*
X144187107Y-93054312D01*
X145737411Y-91504008D01*
X145740422Y-91499501D01*
X145740423Y-91499501D01*
X145805767Y-91401706D01*
X145859379Y-91356900D01*
X145922129Y-91347307D01*
X145947165Y-91349999D01*
X145947172Y-91350000D01*
X146000000Y-91350000D01*
X146000000Y-90955671D01*
X146000711Y-90942415D01*
X146005499Y-90897881D01*
X146005500Y-90897873D01*
X146005499Y-89702128D01*
X146000710Y-89657577D01*
X146000000Y-89644324D01*
X146000000Y-89250000D01*
X145947155Y-89250000D01*
X145887627Y-89256401D01*
X145887616Y-89256403D01*
X145794046Y-89291303D01*
X145724355Y-89296287D01*
X145707381Y-89291303D01*
X145612486Y-89255910D01*
X145612485Y-89255909D01*
X145612483Y-89255909D01*
X145552873Y-89249500D01*
X145552863Y-89249500D01*
X144947129Y-89249500D01*
X144947123Y-89249501D01*
X144887514Y-89255909D01*
X144793332Y-89291036D01*
X144723640Y-89296020D01*
X144706668Y-89291036D01*
X144612488Y-89255910D01*
X144612484Y-89255909D01*
X144612483Y-89255909D01*
X144552873Y-89249500D01*
X144552863Y-89249500D01*
X143947129Y-89249500D01*
X143947123Y-89249501D01*
X143887516Y-89255908D01*
X143752671Y-89306202D01*
X143752664Y-89306206D01*
X143637455Y-89392452D01*
X143637452Y-89392455D01*
X143551206Y-89507664D01*
X143551202Y-89507671D01*
X143500908Y-89642517D01*
X143498776Y-89662352D01*
X143494501Y-89702123D01*
X143494500Y-89702135D01*
X143494500Y-89959477D01*
X143474815Y-90026516D01*
X143422011Y-90072271D01*
X143352853Y-90082215D01*
X143289297Y-90053190D01*
X143282819Y-90047158D01*
X143168345Y-89932684D01*
X143019124Y-89840643D01*
X143019119Y-89840641D01*
X142852697Y-89785494D01*
X142852690Y-89785493D01*
X142749986Y-89775000D01*
X142700000Y-89775000D01*
X142700000Y-92224999D01*
X142749972Y-92224999D01*
X142749986Y-92224998D01*
X142852695Y-92214506D01*
X142953357Y-92181149D01*
X143023185Y-92178747D01*
X143083227Y-92214478D01*
X143114421Y-92276998D01*
X143106861Y-92346458D01*
X143080043Y-92386536D01*
X141966581Y-93500000D01*
X141599992Y-93866589D01*
X141576573Y-93890008D01*
X141512587Y-93953993D01*
X141443920Y-94056760D01*
X141443916Y-94056767D01*
X141441832Y-94061801D01*
X141441831Y-94061803D01*
X141396614Y-94170964D01*
X141396612Y-94170972D01*
X141374260Y-94283338D01*
X141374261Y-94283339D01*
X141372500Y-94292191D01*
X141372500Y-95425500D01*
X141352815Y-95492539D01*
X141300011Y-95538294D01*
X141248500Y-95549500D01*
X140999984Y-95549500D01*
X140897204Y-95560000D01*
X140897203Y-95560001D01*
X140730664Y-95615186D01*
X140730662Y-95615187D01*
X140581348Y-95707286D01*
X140581344Y-95707289D01*
X140457289Y-95831344D01*
X140457286Y-95831348D01*
X140365187Y-95980662D01*
X140365186Y-95980664D01*
X140310001Y-96147203D01*
X140310000Y-96147204D01*
X140299500Y-96249984D01*
X140299500Y-98250015D01*
X140310000Y-98352795D01*
X140310001Y-98352797D01*
X140329088Y-98410398D01*
X140365186Y-98519335D01*
X140365187Y-98519337D01*
X140457286Y-98668651D01*
X140457289Y-98668655D01*
X140581344Y-98792710D01*
X140581348Y-98792713D01*
X140730662Y-98884812D01*
X140730664Y-98884813D01*
X140730666Y-98884814D01*
X140897203Y-98939999D01*
X140999992Y-98950500D01*
X140999997Y-98950500D01*
X143000003Y-98950500D01*
X143000008Y-98950500D01*
X143102797Y-98939999D01*
X143269334Y-98884814D01*
X143418655Y-98792711D01*
X143542711Y-98668655D01*
X143634814Y-98519334D01*
X143689999Y-98352797D01*
X143700500Y-98250008D01*
X143700500Y-97972635D01*
X143720185Y-97905596D01*
X143772989Y-97859841D01*
X143842147Y-97849897D01*
X143905703Y-97878922D01*
X143939061Y-97925183D01*
X143971590Y-98003717D01*
X143971593Y-98003722D01*
X143971595Y-98003726D01*
X144083052Y-98196774D01*
X144083057Y-98196780D01*
X144083058Y-98196782D01*
X144218751Y-98373622D01*
X144218757Y-98373629D01*
X144376370Y-98531242D01*
X144376376Y-98531247D01*
X144553226Y-98666948D01*
X144746274Y-98778405D01*
X144819811Y-98808865D01*
X144912968Y-98847452D01*
X144952219Y-98863710D01*
X145167537Y-98921404D01*
X145388543Y-98950500D01*
X145388550Y-98950500D01*
X145611450Y-98950500D01*
X145611457Y-98950500D01*
X145832463Y-98921404D01*
X146047781Y-98863710D01*
X146253726Y-98778405D01*
X146446774Y-98666948D01*
X146623624Y-98531247D01*
X146781247Y-98373624D01*
X146916948Y-98196774D01*
X147028405Y-98003726D01*
X147113710Y-97797781D01*
X147171404Y-97582463D01*
X147200500Y-97361457D01*
X147200500Y-97138543D01*
X147171404Y-96917537D01*
X147113710Y-96702219D01*
X147092612Y-96651285D01*
X147068765Y-96593712D01*
X147028405Y-96496274D01*
X146916948Y-96303226D01*
X146794164Y-96143210D01*
X146781248Y-96126377D01*
X146781242Y-96126370D01*
X146623629Y-95968757D01*
X146623622Y-95968751D01*
X146446782Y-95833058D01*
X146446780Y-95833057D01*
X146446774Y-95833052D01*
X146253726Y-95721595D01*
X146219189Y-95707289D01*
X146204045Y-95701016D01*
X146149643Y-95657174D01*
X146127579Y-95590880D01*
X146127500Y-95586456D01*
X146127500Y-95061281D01*
X146147185Y-94994242D01*
X146163819Y-94973600D01*
X147737409Y-93400010D01*
X147737411Y-93400008D01*
X147776815Y-93341035D01*
X147806083Y-93297233D01*
X147817220Y-93270344D01*
X147821243Y-93263362D01*
X147840907Y-93244576D01*
X147857966Y-93223406D01*
X147865795Y-93220799D01*
X147871764Y-93215098D01*
X147898460Y-93209926D01*
X147924259Y-93201338D01*
X147932268Y-93203376D01*
X147940358Y-93201809D01*
X147965400Y-93211806D01*
X147991809Y-93218526D01*
X148100607Y-93282869D01*
X148108658Y-93285208D01*
X148254791Y-93327664D01*
X148254794Y-93327664D01*
X148254796Y-93327665D01*
X148290819Y-93330500D01*
X148413196Y-93330499D01*
X148480235Y-93350183D01*
X148500877Y-93366818D01*
X148692067Y-93558008D01*
X148744665Y-93610606D01*
X148779472Y-93645413D01*
X148779474Y-93645414D01*
X148882234Y-93714076D01*
X148882238Y-93714078D01*
X148882245Y-93714083D01*
X148912221Y-93726499D01*
X148912222Y-93726500D01*
X148947108Y-93740950D01*
X148996443Y-93761386D01*
X149116187Y-93785204D01*
X149117670Y-93785499D01*
X149117674Y-93785500D01*
X149117675Y-93785500D01*
X152903804Y-93785500D01*
X152903805Y-93785499D01*
X152942096Y-93777883D01*
X153031010Y-93760198D01*
X153031562Y-93762976D01*
X153089262Y-93762409D01*
X153148409Y-93799603D01*
X153178058Y-93862870D01*
X153179500Y-93881724D01*
X153179500Y-94199169D01*
X153179500Y-94199177D01*
X153179501Y-94199180D01*
X153181249Y-94221398D01*
X153182335Y-94235205D01*
X153227129Y-94389388D01*
X153227132Y-94389395D01*
X153261128Y-94446881D01*
X153278309Y-94514605D01*
X153261128Y-94573119D01*
X153227132Y-94630604D01*
X153227129Y-94630611D01*
X153182335Y-94784791D01*
X153182334Y-94784797D01*
X153179500Y-94820811D01*
X153179500Y-95219169D01*
X153179501Y-95219191D01*
X153182335Y-95255205D01*
X153227129Y-95409388D01*
X153227131Y-95409393D01*
X153308863Y-95547595D01*
X153308869Y-95547603D01*
X153338180Y-95576913D01*
X153371666Y-95638235D01*
X153374500Y-95664595D01*
X153374500Y-96219547D01*
X153354815Y-96286586D01*
X153338181Y-96307228D01*
X152872406Y-96773002D01*
X152811083Y-96806487D01*
X152741391Y-96801503D01*
X152685458Y-96759631D01*
X152681622Y-96754211D01*
X152668935Y-96735223D01*
X152524777Y-96591065D01*
X152524773Y-96591062D01*
X152355262Y-96477798D01*
X152355252Y-96477793D01*
X152166898Y-96399774D01*
X152166890Y-96399772D01*
X151966943Y-96360000D01*
X151750000Y-96360000D01*
X151750000Y-97019722D01*
X151673694Y-96975667D01*
X151559244Y-96945000D01*
X151440756Y-96945000D01*
X151326306Y-96975667D01*
X151250000Y-97019722D01*
X151250000Y-96360000D01*
X151033056Y-96360000D01*
X150833109Y-96399772D01*
X150833101Y-96399774D01*
X150644747Y-96477793D01*
X150644737Y-96477798D01*
X150475226Y-96591062D01*
X150475222Y-96591065D01*
X150331065Y-96735222D01*
X150331062Y-96735226D01*
X150217798Y-96904737D01*
X150217793Y-96904747D01*
X150139774Y-97093101D01*
X150139772Y-97093109D01*
X150129450Y-97144999D01*
X150129450Y-97145000D01*
X151124722Y-97145000D01*
X151080667Y-97221306D01*
X151050000Y-97335756D01*
X151050000Y-97454244D01*
X151080667Y-97568694D01*
X151115773Y-97629500D01*
X151033011Y-97629500D01*
X151023691Y-97631354D01*
X150967067Y-97642617D01*
X150942878Y-97645000D01*
X150129450Y-97645000D01*
X150139772Y-97696890D01*
X150139774Y-97696898D01*
X150217794Y-97885254D01*
X150268177Y-97960659D01*
X150289054Y-98027337D01*
X150270569Y-98094717D01*
X150268178Y-98098438D01*
X150217349Y-98174511D01*
X150139295Y-98362951D01*
X150139292Y-98362961D01*
X150099500Y-98563009D01*
X150099500Y-98563012D01*
X150099500Y-98766988D01*
X150099500Y-98766990D01*
X150099499Y-98766990D01*
X150139292Y-98967038D01*
X150139295Y-98967048D01*
X150217350Y-99155490D01*
X150267877Y-99231109D01*
X150288755Y-99297787D01*
X150270270Y-99365167D01*
X150267877Y-99368891D01*
X150217350Y-99444509D01*
X150139295Y-99632951D01*
X150139292Y-99632961D01*
X150099500Y-99833009D01*
X150099500Y-99833012D01*
X150099500Y-100036988D01*
X150099500Y-100036990D01*
X150099499Y-100036990D01*
X150139292Y-100237038D01*
X150139295Y-100237048D01*
X150169128Y-100309072D01*
X150176597Y-100378542D01*
X150158956Y-100419073D01*
X150160452Y-100419890D01*
X150156202Y-100427671D01*
X150105908Y-100562517D01*
X150099501Y-100622116D01*
X150099500Y-100622135D01*
X150099500Y-101787870D01*
X150099501Y-101787876D01*
X150105908Y-101847483D01*
X150156202Y-101982328D01*
X150156206Y-101982335D01*
X150242452Y-102097544D01*
X150242455Y-102097547D01*
X150357664Y-102183793D01*
X150357671Y-102183797D01*
X150492517Y-102234091D01*
X150492516Y-102234091D01*
X150499444Y-102234835D01*
X150552127Y-102240500D01*
X152447872Y-102240499D01*
X152507483Y-102234091D01*
X152642331Y-102183796D01*
X152757546Y-102097546D01*
X152843796Y-101982331D01*
X152894091Y-101847483D01*
X152900500Y-101787873D01*
X152900499Y-101161852D01*
X152920183Y-101094814D01*
X152936813Y-101074177D01*
X156162821Y-97848170D01*
X156224142Y-97814687D01*
X156293834Y-97819671D01*
X156349767Y-97861543D01*
X156374184Y-97927007D01*
X156374500Y-97935853D01*
X156374500Y-98726610D01*
X156398535Y-98847444D01*
X156398538Y-98847454D01*
X156445687Y-98961283D01*
X156445692Y-98961292D01*
X156514141Y-99063732D01*
X156514144Y-99063736D01*
X156601263Y-99150855D01*
X156601267Y-99150858D01*
X156703707Y-99219307D01*
X156703713Y-99219310D01*
X156703714Y-99219311D01*
X156817548Y-99266463D01*
X156924357Y-99287708D01*
X156938389Y-99290499D01*
X156938393Y-99290500D01*
X156938394Y-99290500D01*
X157061606Y-99290500D01*
X157345564Y-99290500D01*
X157412603Y-99310185D01*
X157458358Y-99362989D01*
X157468302Y-99432147D01*
X157460125Y-99461952D01*
X157389295Y-99632951D01*
X157389292Y-99632961D01*
X157349500Y-99833009D01*
X157349500Y-99833012D01*
X157349500Y-100036988D01*
X157349500Y-100036990D01*
X157349499Y-100036990D01*
X157389292Y-100237038D01*
X157389295Y-100237048D01*
X157419128Y-100309072D01*
X157426597Y-100378542D01*
X157408956Y-100419073D01*
X157410452Y-100419890D01*
X157406202Y-100427671D01*
X157355908Y-100562517D01*
X157349501Y-100622116D01*
X157349500Y-100622135D01*
X157349500Y-101787870D01*
X157349501Y-101787876D01*
X157355908Y-101847483D01*
X157406202Y-101982328D01*
X157406206Y-101982335D01*
X157492452Y-102097544D01*
X157492455Y-102097547D01*
X157607664Y-102183793D01*
X157607671Y-102183797D01*
X157742517Y-102234091D01*
X157742516Y-102234091D01*
X157749444Y-102234835D01*
X157802127Y-102240500D01*
X159697872Y-102240499D01*
X159757483Y-102234091D01*
X159892331Y-102183796D01*
X160007546Y-102097546D01*
X160093796Y-101982331D01*
X160144091Y-101847483D01*
X160150500Y-101787873D01*
X160150499Y-101785001D01*
X160159180Y-101755422D01*
X160165804Y-101725307D01*
X160169227Y-101721184D01*
X160170173Y-101717962D01*
X160187021Y-101697101D01*
X160192394Y-101691752D01*
X160193733Y-101690858D01*
X160280858Y-101603733D01*
X160280860Y-101603729D01*
X161898729Y-99985860D01*
X161898733Y-99985858D01*
X161985858Y-99898733D01*
X162020084Y-99847509D01*
X162054312Y-99796286D01*
X162101463Y-99682451D01*
X162101464Y-99682444D01*
X162101465Y-99682444D01*
X162103931Y-99670042D01*
X162106377Y-99657749D01*
X162125500Y-99561606D01*
X162125500Y-99381947D01*
X162500000Y-99381947D01*
X162500000Y-99618052D01*
X162536934Y-99851247D01*
X162609897Y-100075802D01*
X162717087Y-100286174D01*
X162777338Y-100369104D01*
X162777340Y-100369105D01*
X163476212Y-99670233D01*
X163487482Y-99712292D01*
X163559890Y-99837708D01*
X163662292Y-99940110D01*
X163787708Y-100012518D01*
X163829765Y-100023787D01*
X163130893Y-100722658D01*
X163213828Y-100782914D01*
X163424197Y-100890102D01*
X163648752Y-100963065D01*
X163648751Y-100963065D01*
X163881948Y-101000000D01*
X164118052Y-101000000D01*
X164351247Y-100963065D01*
X164575802Y-100890102D01*
X164786163Y-100782918D01*
X164786169Y-100782914D01*
X164869104Y-100722658D01*
X164869105Y-100722658D01*
X164170233Y-100023787D01*
X164212292Y-100012518D01*
X164337708Y-99940110D01*
X164440110Y-99837708D01*
X164512518Y-99712292D01*
X164523787Y-99670234D01*
X165222658Y-100369105D01*
X165222658Y-100369104D01*
X165282914Y-100286169D01*
X165282918Y-100286163D01*
X165390102Y-100075802D01*
X165463065Y-99851247D01*
X165500000Y-99618052D01*
X165500000Y-99381947D01*
X165463065Y-99148752D01*
X165390102Y-98924197D01*
X165282914Y-98713828D01*
X165222658Y-98630894D01*
X165222658Y-98630893D01*
X164523787Y-99329765D01*
X164512518Y-99287708D01*
X164440110Y-99162292D01*
X164337708Y-99059890D01*
X164212292Y-98987482D01*
X164170234Y-98976212D01*
X164869105Y-98277340D01*
X164869104Y-98277338D01*
X164786174Y-98217087D01*
X164575802Y-98109897D01*
X164351247Y-98036934D01*
X164351248Y-98036934D01*
X164118052Y-98000000D01*
X163881948Y-98000000D01*
X163648752Y-98036934D01*
X163424197Y-98109897D01*
X163213830Y-98217084D01*
X163130894Y-98277340D01*
X163829766Y-98976212D01*
X163787708Y-98987482D01*
X163662292Y-99059890D01*
X163559890Y-99162292D01*
X163487482Y-99287708D01*
X163476212Y-99329765D01*
X162777340Y-98630894D01*
X162717084Y-98713830D01*
X162609897Y-98924197D01*
X162536934Y-99148752D01*
X162500000Y-99381947D01*
X162125500Y-99381947D01*
X162125500Y-95664595D01*
X162145185Y-95597556D01*
X162161820Y-95576913D01*
X162191130Y-95547603D01*
X162191135Y-95547598D01*
X162272869Y-95409393D01*
X162311911Y-95275008D01*
X162317664Y-95255208D01*
X162317664Y-95255206D01*
X162317665Y-95255204D01*
X162320500Y-95219181D01*
X162320499Y-94820820D01*
X162317665Y-94784796D01*
X162272869Y-94630607D01*
X162238869Y-94573117D01*
X162221688Y-94505398D01*
X162238869Y-94446882D01*
X162272869Y-94389393D01*
X162275425Y-94380597D01*
X162317664Y-94235208D01*
X162317664Y-94235206D01*
X162317665Y-94235204D01*
X162320500Y-94199181D01*
X162320499Y-93800820D01*
X162317665Y-93764796D01*
X162272869Y-93610607D01*
X162191135Y-93472402D01*
X162191133Y-93472400D01*
X162191130Y-93472396D01*
X162161819Y-93443085D01*
X162128334Y-93381762D01*
X162125500Y-93355404D01*
X162125500Y-92881947D01*
X162500000Y-92881947D01*
X162500000Y-93118052D01*
X162536934Y-93351247D01*
X162609897Y-93575802D01*
X162717087Y-93786174D01*
X162777338Y-93869104D01*
X162777340Y-93869105D01*
X163476212Y-93170233D01*
X163487482Y-93212292D01*
X163559890Y-93337708D01*
X163662292Y-93440110D01*
X163787708Y-93512518D01*
X163829765Y-93523787D01*
X163130893Y-94222658D01*
X163213828Y-94282914D01*
X163424197Y-94390102D01*
X163648752Y-94463065D01*
X163648751Y-94463065D01*
X163881948Y-94500000D01*
X164118052Y-94500000D01*
X164351247Y-94463065D01*
X164575802Y-94390102D01*
X164786163Y-94282918D01*
X164786169Y-94282914D01*
X164869104Y-94222658D01*
X164869105Y-94222658D01*
X164170233Y-93523787D01*
X164212292Y-93512518D01*
X164337708Y-93440110D01*
X164440110Y-93337708D01*
X164512518Y-93212292D01*
X164523787Y-93170234D01*
X165222658Y-93869105D01*
X165222658Y-93869104D01*
X165282914Y-93786169D01*
X165282918Y-93786163D01*
X165390102Y-93575802D01*
X165463065Y-93351247D01*
X165500000Y-93118052D01*
X165500000Y-92881947D01*
X165463065Y-92648752D01*
X165390102Y-92424197D01*
X165282914Y-92213828D01*
X165222658Y-92130894D01*
X165222658Y-92130893D01*
X164523787Y-92829765D01*
X164512518Y-92787708D01*
X164440110Y-92662292D01*
X164337708Y-92559890D01*
X164212292Y-92487482D01*
X164170234Y-92476212D01*
X164869105Y-91777340D01*
X164869104Y-91777338D01*
X164786174Y-91717087D01*
X164575802Y-91609897D01*
X164351247Y-91536934D01*
X164351248Y-91536934D01*
X164118052Y-91500000D01*
X163881948Y-91500000D01*
X163648752Y-91536934D01*
X163424197Y-91609897D01*
X163213830Y-91717084D01*
X163130894Y-91777340D01*
X163829766Y-92476212D01*
X163787708Y-92487482D01*
X163662292Y-92559890D01*
X163559890Y-92662292D01*
X163487482Y-92787708D01*
X163476212Y-92829765D01*
X162777340Y-92130894D01*
X162717084Y-92213830D01*
X162609897Y-92424197D01*
X162536934Y-92648752D01*
X162500000Y-92881947D01*
X162125500Y-92881947D01*
X162125500Y-92310452D01*
X162145185Y-92243413D01*
X162161819Y-92222771D01*
X166732771Y-87651819D01*
X166794094Y-87618334D01*
X166820452Y-87615500D01*
X167627219Y-87615500D01*
X167694258Y-87635185D01*
G37*
%TD.AperFunction*%
%TA.AperFunction,Conductor*%
G36*
X159293333Y-95547913D02*
G01*
X159337593Y-95576326D01*
X159338095Y-95576828D01*
X159342355Y-95584611D01*
X159349266Y-95589785D01*
X159357992Y-95613181D01*
X159371640Y-95638116D01*
X159373412Y-95654522D01*
X159373683Y-95655249D01*
X159373554Y-95655840D01*
X159374500Y-95664595D01*
X159374500Y-97509736D01*
X159354815Y-97576775D01*
X159302011Y-97622530D01*
X159232853Y-97632474D01*
X159226313Y-97631354D01*
X159216992Y-97629500D01*
X159216988Y-97629500D01*
X158283012Y-97629500D01*
X158283010Y-97629500D01*
X158082961Y-97669292D01*
X158082951Y-97669295D01*
X157894513Y-97747348D01*
X157894495Y-97747358D01*
X157818390Y-97798210D01*
X157751713Y-97819088D01*
X157684333Y-97800603D01*
X157637643Y-97748624D01*
X157625500Y-97695108D01*
X157625500Y-97310452D01*
X157645185Y-97243413D01*
X157661819Y-97222771D01*
X158301722Y-96582868D01*
X158985857Y-95898734D01*
X159002720Y-95873498D01*
X159006854Y-95867312D01*
X159021769Y-95844989D01*
X159054311Y-95796286D01*
X159101463Y-95682452D01*
X159105342Y-95662945D01*
X159114107Y-95646188D01*
X159118128Y-95627707D01*
X159136867Y-95602674D01*
X159137725Y-95601035D01*
X159139279Y-95599453D01*
X159148947Y-95589785D01*
X159162319Y-95576413D01*
X159223641Y-95542929D01*
X159293333Y-95547913D01*
G37*
%TD.AperFunction*%
%TA.AperFunction,Conductor*%
G36*
X171516905Y-87723025D02*
G01*
X171572839Y-87764896D01*
X171591503Y-87800888D01*
X171613444Y-87868416D01*
X171709951Y-88057820D01*
X171834890Y-88229786D01*
X171985213Y-88380109D01*
X172157182Y-88505050D01*
X172165946Y-88509516D01*
X172216742Y-88557491D01*
X172233536Y-88625312D01*
X172210998Y-88691447D01*
X172165946Y-88730484D01*
X172157182Y-88734949D01*
X171985213Y-88859890D01*
X171834890Y-89010213D01*
X171709951Y-89182179D01*
X171613444Y-89371585D01*
X171547753Y-89573760D01*
X171514500Y-89783713D01*
X171514500Y-89996286D01*
X171547662Y-90205666D01*
X171547754Y-90206243D01*
X171603942Y-90379172D01*
X171613444Y-90408414D01*
X171709951Y-90597820D01*
X171834890Y-90769786D01*
X171985213Y-90920109D01*
X172157179Y-91045048D01*
X172157181Y-91045049D01*
X172157184Y-91045051D01*
X172346588Y-91141557D01*
X172548757Y-91207246D01*
X172758713Y-91240500D01*
X172758714Y-91240500D01*
X172971286Y-91240500D01*
X172971287Y-91240500D01*
X173181243Y-91207246D01*
X173196837Y-91202178D01*
X173212049Y-91201743D01*
X173226310Y-91196425D01*
X173246263Y-91200765D01*
X173266676Y-91200182D01*
X173280763Y-91208270D01*
X173294583Y-91211277D01*
X173322837Y-91232428D01*
X173338181Y-91247772D01*
X173371666Y-91309095D01*
X173374500Y-91335453D01*
X173374500Y-92559155D01*
X173354815Y-92626194D01*
X173302011Y-92671949D01*
X173240772Y-92682773D01*
X173199181Y-92679500D01*
X172800830Y-92679500D01*
X172800808Y-92679501D01*
X172764794Y-92682335D01*
X172610611Y-92727129D01*
X172610607Y-92727130D01*
X172552628Y-92761419D01*
X172484903Y-92778600D01*
X172426388Y-92761419D01*
X172369189Y-92727592D01*
X172369188Y-92727591D01*
X172230001Y-92687153D01*
X172230000Y-92687154D01*
X172230000Y-93239591D01*
X172229618Y-93249316D01*
X172229500Y-93250804D01*
X172229500Y-93250819D01*
X172229500Y-93478088D01*
X172229501Y-93500000D01*
X172229501Y-93749181D01*
X172229618Y-93750663D01*
X172230000Y-93760393D01*
X172230000Y-94312844D01*
X172369194Y-94272405D01*
X172369196Y-94272404D01*
X172426386Y-94238582D01*
X172494109Y-94221398D01*
X172552629Y-94238581D01*
X172610607Y-94272869D01*
X172645182Y-94282914D01*
X172764791Y-94317664D01*
X172764794Y-94317664D01*
X172764796Y-94317665D01*
X172800819Y-94320500D01*
X173199180Y-94320499D01*
X173235204Y-94317665D01*
X173389393Y-94272869D01*
X173527598Y-94191135D01*
X173529322Y-94189411D01*
X173556915Y-94161819D01*
X173583842Y-94147115D01*
X173609661Y-94130523D01*
X173615861Y-94129631D01*
X173618238Y-94128334D01*
X173644596Y-94125500D01*
X173689548Y-94125500D01*
X173756587Y-94145185D01*
X173777229Y-94161819D01*
X173838181Y-94222771D01*
X173871666Y-94284094D01*
X173874500Y-94310452D01*
X173874500Y-95190831D01*
X173854815Y-95257870D01*
X173802011Y-95303625D01*
X173732853Y-95313569D01*
X173715907Y-95309908D01*
X173690070Y-95302402D01*
X173690067Y-95302401D01*
X173653201Y-95299500D01*
X173653194Y-95299500D01*
X172346806Y-95299500D01*
X172346798Y-95299500D01*
X172309932Y-95302401D01*
X172309926Y-95302402D01*
X172152106Y-95348254D01*
X172152103Y-95348255D01*
X172010637Y-95431917D01*
X172010629Y-95431923D01*
X172004372Y-95438181D01*
X171977444Y-95452884D01*
X171951626Y-95469477D01*
X171945425Y-95470368D01*
X171943049Y-95471666D01*
X171916691Y-95474500D01*
X171910452Y-95474500D01*
X171843413Y-95454815D01*
X171822771Y-95438181D01*
X171661819Y-95277229D01*
X171628334Y-95215906D01*
X171625500Y-95189548D01*
X171625500Y-94447636D01*
X171645185Y-94380597D01*
X171697989Y-94334842D01*
X171701344Y-94334359D01*
X171730000Y-94312844D01*
X171730000Y-92687154D01*
X171680452Y-92649953D01*
X171680732Y-92649579D01*
X171655555Y-92633297D01*
X171626712Y-92569658D01*
X171625500Y-92552362D01*
X171625500Y-91938396D01*
X171625500Y-91938394D01*
X171601463Y-91817548D01*
X171598303Y-91809919D01*
X171582840Y-91772587D01*
X171554313Y-91703716D01*
X171554311Y-91703713D01*
X171523237Y-91657209D01*
X171518754Y-91650500D01*
X171485858Y-91601267D01*
X171398733Y-91514142D01*
X171398729Y-91514139D01*
X169636819Y-89752229D01*
X169603334Y-89690906D01*
X169600500Y-89664548D01*
X169600500Y-89334499D01*
X169620185Y-89267460D01*
X169672989Y-89221705D01*
X169724500Y-89210499D01*
X169797871Y-89210499D01*
X169797872Y-89210499D01*
X169857483Y-89204091D01*
X169992331Y-89153796D01*
X170107546Y-89067546D01*
X170193796Y-88952331D01*
X170217963Y-88887534D01*
X170259831Y-88831602D01*
X170281900Y-88819036D01*
X170281858Y-88818956D01*
X170284863Y-88817349D01*
X170286700Y-88816303D01*
X170287233Y-88816083D01*
X170390008Y-88747411D01*
X170477411Y-88660008D01*
X171385893Y-87751524D01*
X171447214Y-87718041D01*
X171516905Y-87723025D01*
G37*
%TD.AperFunction*%
%TA.AperFunction,Conductor*%
G36*
X144622539Y-77519185D02*
G01*
X144668294Y-77571989D01*
X144679500Y-77623499D01*
X144679500Y-77709168D01*
X144679501Y-77709192D01*
X144682335Y-77745205D01*
X144727129Y-77899388D01*
X144727131Y-77899393D01*
X144802695Y-78027166D01*
X144808865Y-78037598D01*
X144894005Y-78122738D01*
X144926097Y-78178323D01*
X144940421Y-78231779D01*
X144940426Y-78231790D01*
X145019475Y-78368709D01*
X145019479Y-78368714D01*
X145019480Y-78368716D01*
X145131284Y-78480520D01*
X145131286Y-78480521D01*
X145131290Y-78480524D01*
X145219493Y-78531447D01*
X145268216Y-78559577D01*
X145420943Y-78600500D01*
X145420945Y-78600500D01*
X146996561Y-78600500D01*
X147063600Y-78620185D01*
X147109355Y-78672989D01*
X147119299Y-78742147D01*
X147090274Y-78805703D01*
X147065452Y-78827602D01*
X146989711Y-78878210D01*
X146989707Y-78878213D01*
X146878213Y-78989707D01*
X146878210Y-78989711D01*
X146790609Y-79120814D01*
X146790602Y-79120827D01*
X146730264Y-79266498D01*
X146730261Y-79266510D01*
X146699500Y-79421153D01*
X146699500Y-79578846D01*
X146730261Y-79733489D01*
X146730264Y-79733501D01*
X146790602Y-79879172D01*
X146790609Y-79879185D01*
X146878210Y-80010288D01*
X146878213Y-80010292D01*
X146989707Y-80121786D01*
X146989711Y-80121789D01*
X147120814Y-80209390D01*
X147120827Y-80209397D01*
X147215024Y-80248414D01*
X147266503Y-80269737D01*
X147408630Y-80298008D01*
X147421153Y-80300499D01*
X147421156Y-80300500D01*
X147421158Y-80300500D01*
X147578844Y-80300500D01*
X147578845Y-80300499D01*
X147733497Y-80269737D01*
X147879179Y-80209394D01*
X147894045Y-80199461D01*
X148010875Y-80121398D01*
X148077553Y-80100520D01*
X148079766Y-80100500D01*
X149301500Y-80100500D01*
X149310185Y-80103050D01*
X149319147Y-80101762D01*
X149343187Y-80112740D01*
X149368539Y-80120185D01*
X149374466Y-80127025D01*
X149382703Y-80130787D01*
X149396992Y-80153021D01*
X149414294Y-80172989D01*
X149416581Y-80183503D01*
X149420477Y-80189565D01*
X149425500Y-80224500D01*
X149425500Y-80376000D01*
X149405815Y-80443039D01*
X149353011Y-80488794D01*
X149301500Y-80500000D01*
X149250000Y-80500000D01*
X149250000Y-81376000D01*
X149230315Y-81443039D01*
X149177511Y-81488794D01*
X149126000Y-81500000D01*
X149000000Y-81500000D01*
X149000000Y-81576500D01*
X148980315Y-81643539D01*
X148927511Y-81689294D01*
X148876000Y-81700500D01*
X148508781Y-81700500D01*
X148489502Y-81705665D01*
X148489503Y-81705666D01*
X148356056Y-81741423D01*
X148356054Y-81741424D01*
X148348206Y-81743527D01*
X148347954Y-81742586D01*
X148310685Y-81750000D01*
X147775001Y-81750000D01*
X147775001Y-81799986D01*
X147785494Y-81902697D01*
X147840641Y-82069119D01*
X147843696Y-82075670D01*
X147841624Y-82076636D01*
X147857142Y-82133398D01*
X147836206Y-82200057D01*
X147820845Y-82218757D01*
X147062181Y-82977422D01*
X147000858Y-83010907D01*
X146931167Y-83005923D01*
X146875233Y-82964051D01*
X146850816Y-82898587D01*
X146850500Y-82889741D01*
X146850500Y-82670944D01*
X146848558Y-82663697D01*
X146844890Y-82650008D01*
X146836848Y-82619992D01*
X146809577Y-82518216D01*
X146807905Y-82515321D01*
X146804926Y-82504469D01*
X146805097Y-82494751D01*
X146800500Y-82471637D01*
X146800500Y-82421155D01*
X146800499Y-82421153D01*
X146793629Y-82386615D01*
X146769737Y-82266503D01*
X146762901Y-82250000D01*
X146709397Y-82120827D01*
X146709390Y-82120814D01*
X146621789Y-81989711D01*
X146621786Y-81989707D01*
X146510292Y-81878213D01*
X146510288Y-81878210D01*
X146379185Y-81790609D01*
X146379172Y-81790602D01*
X146233501Y-81730264D01*
X146233489Y-81730261D01*
X146078845Y-81699500D01*
X146078842Y-81699500D01*
X145921158Y-81699500D01*
X145921155Y-81699500D01*
X145766510Y-81730261D01*
X145766498Y-81730264D01*
X145620827Y-81790602D01*
X145620814Y-81790609D01*
X145489711Y-81878210D01*
X145489707Y-81878213D01*
X145378213Y-81989707D01*
X145378210Y-81989711D01*
X145290609Y-82120814D01*
X145290602Y-82120827D01*
X145230264Y-82266498D01*
X145230261Y-82266510D01*
X145199500Y-82421153D01*
X145199500Y-82550903D01*
X145179815Y-82617942D01*
X145127011Y-82663697D01*
X145057853Y-82673641D01*
X144994297Y-82644616D01*
X144987819Y-82638584D01*
X144670965Y-82321730D01*
X144637480Y-82260407D01*
X144637029Y-82258240D01*
X144613277Y-82138834D01*
X144606128Y-82102894D01*
X144606126Y-82102889D01*
X144545788Y-81957218D01*
X144545781Y-81957205D01*
X144458180Y-81826102D01*
X144458177Y-81826098D01*
X144346683Y-81714604D01*
X144346679Y-81714601D01*
X144215576Y-81627000D01*
X144215563Y-81626993D01*
X144069892Y-81566655D01*
X144069880Y-81566652D01*
X143915236Y-81535891D01*
X143915233Y-81535891D01*
X143757549Y-81535891D01*
X143757546Y-81535891D01*
X143602901Y-81566652D01*
X143602889Y-81566655D01*
X143457218Y-81626993D01*
X143457205Y-81627000D01*
X143326102Y-81714601D01*
X143326098Y-81714604D01*
X143214604Y-81826098D01*
X143214601Y-81826102D01*
X143127000Y-81957205D01*
X143126993Y-81957218D01*
X143066655Y-82102889D01*
X143066652Y-82102901D01*
X143035891Y-82257544D01*
X143035891Y-82415237D01*
X143066652Y-82569880D01*
X143066655Y-82569892D01*
X143126993Y-82715563D01*
X143127000Y-82715576D01*
X143214601Y-82846679D01*
X143214604Y-82846683D01*
X143278740Y-82910819D01*
X143312225Y-82972142D01*
X143307241Y-83041834D01*
X143265369Y-83097767D01*
X143199905Y-83122184D01*
X143191059Y-83122500D01*
X142251500Y-83122500D01*
X142184461Y-83102815D01*
X142138706Y-83050011D01*
X142127500Y-82998500D01*
X142127500Y-81200013D01*
X147775000Y-81200013D01*
X147775000Y-81250000D01*
X148750000Y-81250000D01*
X148750000Y-80500000D01*
X148475029Y-80500000D01*
X148475012Y-80500001D01*
X148372302Y-80510494D01*
X148205880Y-80565641D01*
X148205875Y-80565643D01*
X148056654Y-80657684D01*
X147932684Y-80781654D01*
X147840643Y-80930875D01*
X147840641Y-80930880D01*
X147785494Y-81097302D01*
X147785493Y-81097309D01*
X147775000Y-81200013D01*
X142127500Y-81200013D01*
X142127500Y-80872046D01*
X142147185Y-80805007D01*
X142163814Y-80784369D01*
X143358506Y-79589677D01*
X143358511Y-79589674D01*
X143368714Y-79579470D01*
X143368716Y-79579470D01*
X143480520Y-79467666D01*
X143542958Y-79359519D01*
X143559577Y-79330735D01*
X143600501Y-79178007D01*
X143600501Y-79019893D01*
X143600501Y-79012298D01*
X143600500Y-79012280D01*
X143600500Y-77950154D01*
X143620185Y-77883115D01*
X143636819Y-77862473D01*
X143963473Y-77535819D01*
X144024796Y-77502334D01*
X144051154Y-77499500D01*
X144555500Y-77499500D01*
X144622539Y-77519185D01*
G37*
%TD.AperFunction*%
%TA.AperFunction,Conductor*%
G36*
X131758039Y-77644685D02*
G01*
X131803794Y-77697489D01*
X131815000Y-77749000D01*
X131815000Y-78531000D01*
X131795315Y-78598039D01*
X131770190Y-78619809D01*
X131735000Y-78655000D01*
X131735000Y-78895000D01*
X131235000Y-78895000D01*
X131235000Y-78139000D01*
X131254685Y-78071961D01*
X131279809Y-78050190D01*
X131315000Y-78015000D01*
X131315000Y-77749000D01*
X131334685Y-77681961D01*
X131387489Y-77636206D01*
X131439000Y-77625000D01*
X131691000Y-77625000D01*
X131758039Y-77644685D01*
G37*
%TD.AperFunction*%
%TA.AperFunction,Conductor*%
G36*
X132872083Y-77850109D02*
G01*
X132922705Y-77900731D01*
X132922714Y-77900738D01*
X133060808Y-77982406D01*
X133060811Y-77982407D01*
X133214870Y-78027166D01*
X133214877Y-78027167D01*
X133237954Y-78028983D01*
X133303243Y-78053865D01*
X133344715Y-78110095D01*
X133349845Y-78176792D01*
X133326500Y-78294153D01*
X133326500Y-78451846D01*
X133352488Y-78582496D01*
X133346261Y-78652087D01*
X133303398Y-78707265D01*
X133240597Y-78730305D01*
X133214795Y-78732335D01*
X133060611Y-78777129D01*
X133060602Y-78777133D01*
X132932848Y-78852686D01*
X132865124Y-78869869D01*
X132798862Y-78847709D01*
X132755167Y-78793407D01*
X132715499Y-78697640D01*
X132715494Y-78697631D01*
X132600589Y-78525664D01*
X132600586Y-78525660D01*
X132515118Y-78440192D01*
X132481633Y-78378869D01*
X132486617Y-78309177D01*
X132515126Y-78264821D01*
X132520075Y-78259872D01*
X132608019Y-78114395D01*
X132658590Y-77952106D01*
X132660911Y-77926569D01*
X132686581Y-77861586D01*
X132743308Y-77820797D01*
X132813083Y-77817153D01*
X132872083Y-77850109D01*
G37*
%TD.AperFunction*%
%TA.AperFunction,Conductor*%
G36*
X134390307Y-75345801D02*
G01*
X134391621Y-75345590D01*
X134422514Y-75359087D01*
X134453668Y-75371939D01*
X134454428Y-75373030D01*
X134455647Y-75373563D01*
X134474338Y-75401618D01*
X134493598Y-75429274D01*
X134493868Y-75430934D01*
X134494385Y-75431710D01*
X134494429Y-75434378D01*
X134500000Y-75468602D01*
X134500000Y-75573873D01*
X134528820Y-75718759D01*
X134528824Y-75718775D01*
X134538579Y-75742326D01*
X134540116Y-75756626D01*
X134546362Y-75769585D01*
X134543775Y-75790672D01*
X134546046Y-75811795D01*
X134539447Y-75825962D01*
X134537856Y-75838935D01*
X134523683Y-75859807D01*
X134519394Y-75869016D01*
X134511034Y-75879077D01*
X134507078Y-75882078D01*
X134491763Y-75902273D01*
X134489984Y-75904415D01*
X134463178Y-75922438D01*
X134437216Y-75941623D01*
X134434371Y-75941808D01*
X134432003Y-75943401D01*
X134399717Y-75944070D01*
X134367495Y-75946174D01*
X134364999Y-75944790D01*
X134362148Y-75944850D01*
X134334633Y-75927963D01*
X134306381Y-75912308D01*
X134304836Y-75909676D01*
X134302599Y-75908304D01*
X134296042Y-75894701D01*
X134275531Y-75859769D01*
X134272869Y-75850607D01*
X134191135Y-75712402D01*
X134191132Y-75712399D01*
X134186352Y-75706236D01*
X134187437Y-75705394D01*
X134157931Y-75651370D01*
X134162909Y-75581678D01*
X134173688Y-75559690D01*
X134181253Y-75547479D01*
X134191135Y-75537598D01*
X134269937Y-75404350D01*
X134270593Y-75403292D01*
X134295707Y-75380794D01*
X134320337Y-75357798D01*
X134321644Y-75357560D01*
X134322636Y-75356672D01*
X134355934Y-75351322D01*
X134389078Y-75345294D01*
X134390307Y-75345801D01*
G37*
%TD.AperFunction*%
%TA.AperFunction,Conductor*%
G36*
X135310908Y-75151093D02*
G01*
X135345398Y-75153560D01*
X135345853Y-75153810D01*
X135346118Y-75153831D01*
X135376989Y-75170938D01*
X135427656Y-75209360D01*
X135427657Y-75209360D01*
X135427658Y-75209361D01*
X135568436Y-75264877D01*
X135568443Y-75264877D01*
X135572462Y-75265894D01*
X135575372Y-75267611D01*
X135575832Y-75267793D01*
X135575803Y-75267865D01*
X135632634Y-75301406D01*
X135664055Y-75363812D01*
X135666068Y-75387611D01*
X135663350Y-75612664D01*
X135657068Y-75633137D01*
X135655541Y-75654501D01*
X135647024Y-75665877D01*
X135642857Y-75679461D01*
X135626503Y-75693289D01*
X135613669Y-75710434D01*
X135600355Y-75715399D01*
X135589505Y-75724575D01*
X135568270Y-75727366D01*
X135548205Y-75734851D01*
X135524577Y-75734283D01*
X135466968Y-75727366D01*
X135443102Y-75724500D01*
X135324862Y-75724500D01*
X135257823Y-75704815D01*
X135212068Y-75652011D01*
X135202973Y-75588760D01*
X135230109Y-75600000D01*
X135269891Y-75600000D01*
X135306645Y-75584776D01*
X135334776Y-75556645D01*
X135350000Y-75519891D01*
X135350000Y-75480109D01*
X135334776Y-75443355D01*
X135306645Y-75415224D01*
X135269891Y-75400000D01*
X135230109Y-75400000D01*
X135193355Y-75415224D01*
X135179289Y-75429289D01*
X135160903Y-75410903D01*
X135127418Y-75349580D01*
X135132402Y-75279888D01*
X135160903Y-75235541D01*
X135214383Y-75182061D01*
X135214734Y-75181869D01*
X135214929Y-75181518D01*
X135245397Y-75165125D01*
X135275706Y-75148576D01*
X135276105Y-75148604D01*
X135276458Y-75148415D01*
X135310908Y-75151093D01*
G37*
%TD.AperFunction*%
%TA.AperFunction,Conductor*%
G36*
X142318834Y-71022414D02*
G01*
X142374767Y-71064286D01*
X142399184Y-71129750D01*
X142399500Y-71138596D01*
X142399500Y-73750902D01*
X142379815Y-73817941D01*
X142327011Y-73863696D01*
X142257853Y-73873640D01*
X142194297Y-73844615D01*
X142187819Y-73838583D01*
X140487590Y-72138355D01*
X140487533Y-72138298D01*
X140486762Y-72137526D01*
X140475627Y-72117103D01*
X140472097Y-72119457D01*
X140472095Y-72119454D01*
X140475625Y-72117100D01*
X140469947Y-72106684D01*
X140453334Y-72076260D01*
X140453327Y-72076201D01*
X140453317Y-72076182D01*
X140453320Y-72076134D01*
X140450500Y-72049902D01*
X140450500Y-71881903D01*
X140450500Y-71881898D01*
X140439877Y-71793436D01*
X140439876Y-71793434D01*
X140439876Y-71793432D01*
X140437930Y-71785732D01*
X140439912Y-71785230D01*
X140434603Y-71726403D01*
X140466941Y-71664467D01*
X140527630Y-71629847D01*
X140545029Y-71627811D01*
X140544997Y-71627562D01*
X140553054Y-71626501D01*
X140553057Y-71626501D01*
X140705785Y-71585577D01*
X140755904Y-71556639D01*
X140842716Y-71506520D01*
X140954520Y-71394716D01*
X140954520Y-71394714D01*
X140964728Y-71384507D01*
X140964730Y-71384504D01*
X141044211Y-71305022D01*
X141105532Y-71271539D01*
X141166483Y-71273628D01*
X141214796Y-71287665D01*
X141250819Y-71290500D01*
X141258121Y-71290499D01*
X141282314Y-71292881D01*
X141388596Y-71314022D01*
X141421157Y-71320500D01*
X141421158Y-71320500D01*
X141578844Y-71320500D01*
X141717685Y-71292882D01*
X141741877Y-71290499D01*
X141749168Y-71290499D01*
X141749180Y-71290499D01*
X141785204Y-71287665D01*
X141939393Y-71242869D01*
X142077598Y-71161135D01*
X142126889Y-71111844D01*
X142187819Y-71050915D01*
X142249142Y-71017430D01*
X142318834Y-71022414D01*
G37*
%TD.AperFunction*%
%TA.AperFunction,Conductor*%
G36*
X135899225Y-60647185D02*
G01*
X135919867Y-60663819D01*
X137836181Y-62580133D01*
X137869666Y-62641456D01*
X137872500Y-62667814D01*
X137872500Y-64907248D01*
X137852815Y-64974287D01*
X137800011Y-65020042D01*
X137730853Y-65029986D01*
X137667297Y-65000961D01*
X137636117Y-64959650D01*
X137634360Y-64955882D01*
X137542315Y-64806654D01*
X137418345Y-64682684D01*
X137269124Y-64590643D01*
X137269119Y-64590641D01*
X137102697Y-64535494D01*
X137102690Y-64535493D01*
X136999986Y-64525000D01*
X136950000Y-64525000D01*
X136950000Y-65500000D01*
X137699999Y-65500000D01*
X137699999Y-65331753D01*
X137719684Y-65264714D01*
X137772488Y-65218959D01*
X137841646Y-65209015D01*
X137905202Y-65238040D01*
X137929480Y-65266563D01*
X137934735Y-65275066D01*
X137943917Y-65297233D01*
X138002895Y-65385500D01*
X138004112Y-65387321D01*
X138012590Y-65400010D01*
X138349988Y-65737408D01*
X138349992Y-65737411D01*
X138452760Y-65806079D01*
X138452773Y-65806086D01*
X138565589Y-65852815D01*
X138566965Y-65853385D01*
X138566969Y-65853385D01*
X138566970Y-65853386D01*
X138688193Y-65877500D01*
X138688196Y-65877500D01*
X138688197Y-65877500D01*
X139022629Y-65877500D01*
X139052083Y-65886148D01*
X139082082Y-65892682D01*
X139085301Y-65895902D01*
X139089668Y-65897185D01*
X139109767Y-65920380D01*
X139131475Y-65942099D01*
X139133161Y-65947378D01*
X139135423Y-65949989D01*
X139142589Y-65971528D01*
X139142917Y-65971446D01*
X139142997Y-65971765D01*
X139143074Y-65972985D01*
X139143801Y-65975170D01*
X139143894Y-65975598D01*
X139143578Y-65979996D01*
X139145756Y-65986815D01*
X139145769Y-65986924D01*
X139143968Y-65987138D01*
X139145838Y-66016711D01*
X139135000Y-66106970D01*
X139135000Y-66115000D01*
X139136678Y-66115000D01*
X139140682Y-66116175D01*
X139144756Y-66115263D01*
X139173924Y-66125936D01*
X139203717Y-66134685D01*
X139207568Y-66138248D01*
X139210371Y-66139274D01*
X139235482Y-66164075D01*
X139252165Y-66186075D01*
X139276988Y-66251387D01*
X139262560Y-66319750D01*
X139213462Y-66369461D01*
X139153361Y-66385000D01*
X139135001Y-66385000D01*
X139135001Y-66393027D01*
X139145300Y-66478809D01*
X139199127Y-66615306D01*
X139199128Y-66615308D01*
X139287782Y-66732217D01*
X139404691Y-66820871D01*
X139404693Y-66820872D01*
X139541188Y-66874698D01*
X139541190Y-66874699D01*
X139626964Y-66884999D01*
X139879999Y-66884999D01*
X139880000Y-66884998D01*
X139880000Y-66509500D01*
X139882550Y-66500814D01*
X139881262Y-66491853D01*
X139892240Y-66467812D01*
X139899685Y-66442461D01*
X139906525Y-66436533D01*
X139910287Y-66428297D01*
X139932521Y-66414007D01*
X139952489Y-66396706D01*
X139963003Y-66394418D01*
X139969065Y-66390523D01*
X140004000Y-66385500D01*
X140026000Y-66385500D01*
X140093039Y-66405185D01*
X140138794Y-66457989D01*
X140150000Y-66509500D01*
X140150000Y-66884999D01*
X140403028Y-66884999D01*
X140488809Y-66874699D01*
X140625306Y-66820872D01*
X140625307Y-66820871D01*
X140742217Y-66732216D01*
X140750000Y-66721952D01*
X140750000Y-66264479D01*
X140765526Y-66204401D01*
X140769827Y-66196634D01*
X140831313Y-66115553D01*
X140872302Y-66011612D01*
X140876213Y-66004551D01*
X140895545Y-65985448D01*
X140902239Y-65976845D01*
X140891814Y-65924222D01*
X140892191Y-65920625D01*
X140895500Y-65893078D01*
X140895500Y-65606922D01*
X140892196Y-65579413D01*
X140894249Y-65567161D01*
X140891685Y-65555003D01*
X140899916Y-65533351D01*
X140903745Y-65510508D01*
X140912098Y-65501309D01*
X140916514Y-65489694D01*
X140935144Y-65475930D01*
X140950716Y-65458782D01*
X140962716Y-65455559D01*
X140972711Y-65448176D01*
X140995826Y-65446669D01*
X141018195Y-65440663D01*
X141030030Y-65444439D01*
X141042432Y-65443631D01*
X141062692Y-65454860D01*
X141084759Y-65461901D01*
X141092675Y-65471478D01*
X141103543Y-65477502D01*
X141124516Y-65505889D01*
X141127982Y-65512332D01*
X141168687Y-65615553D01*
X141219655Y-65682765D01*
X141224224Y-65691259D01*
X141238645Y-65759625D01*
X141213824Y-65824922D01*
X141168688Y-65884445D01*
X141168685Y-65884450D01*
X141130666Y-65980860D01*
X141099925Y-66020368D01*
X141101126Y-66021993D01*
X141102902Y-66049110D01*
X141108185Y-66075776D01*
X141107803Y-66079409D01*
X141104851Y-66103994D01*
X141104500Y-66106922D01*
X141104500Y-66393078D01*
X141111099Y-66448029D01*
X141114810Y-66478932D01*
X141168685Y-66615549D01*
X141168688Y-66615555D01*
X141200468Y-66657463D01*
X141257426Y-66732574D01*
X141374447Y-66821313D01*
X141511069Y-66875190D01*
X141596922Y-66885500D01*
X141596928Y-66885500D01*
X142275500Y-66885500D01*
X142342539Y-66905185D01*
X142388294Y-66957989D01*
X142399500Y-67009500D01*
X142399500Y-68881404D01*
X142379815Y-68948443D01*
X142327011Y-68994198D01*
X142257853Y-69004142D01*
X142194297Y-68975117D01*
X142187819Y-68969085D01*
X142077603Y-68858869D01*
X142077595Y-68858863D01*
X141939393Y-68777131D01*
X141939388Y-68777129D01*
X141785208Y-68732335D01*
X141785202Y-68732334D01*
X141749181Y-68729500D01*
X141250830Y-68729500D01*
X141250808Y-68729501D01*
X141214794Y-68732335D01*
X141060611Y-68777129D01*
X141060606Y-68777131D01*
X140922404Y-68858863D01*
X140922400Y-68858866D01*
X140821144Y-68960122D01*
X140759821Y-68993606D01*
X140690129Y-68988622D01*
X140645782Y-68960121D01*
X140618345Y-68932684D01*
X140469124Y-68840643D01*
X140469119Y-68840641D01*
X140302697Y-68785494D01*
X140302690Y-68785493D01*
X140199986Y-68775000D01*
X140150000Y-68775000D01*
X140150000Y-69876000D01*
X140130315Y-69943039D01*
X140077511Y-69988794D01*
X140026000Y-70000000D01*
X139774000Y-70000000D01*
X139706961Y-69980315D01*
X139661206Y-69927511D01*
X139650000Y-69876000D01*
X139650000Y-68775000D01*
X139649999Y-68774999D01*
X139600029Y-68775000D01*
X139600011Y-68775001D01*
X139497302Y-68785494D01*
X139330880Y-68840641D01*
X139330875Y-68840643D01*
X139181654Y-68932684D01*
X139057683Y-69056655D01*
X139057679Y-69056660D01*
X139055826Y-69059665D01*
X139054018Y-69061290D01*
X139053202Y-69062323D01*
X139053025Y-69062183D01*
X139003874Y-69106385D01*
X138934911Y-69117601D01*
X138870831Y-69089752D01*
X138844753Y-69059653D01*
X138844737Y-69059628D01*
X138842712Y-69056344D01*
X138718656Y-68932288D01*
X138599618Y-68858865D01*
X138569336Y-68840187D01*
X138569331Y-68840185D01*
X138567862Y-68839698D01*
X138402797Y-68785001D01*
X138402795Y-68785000D01*
X138300010Y-68774500D01*
X137699998Y-68774500D01*
X137699980Y-68774501D01*
X137597203Y-68785000D01*
X137597200Y-68785001D01*
X137430668Y-68840185D01*
X137430663Y-68840187D01*
X137281342Y-68932289D01*
X137157289Y-69056342D01*
X137080539Y-69180775D01*
X137028591Y-69227499D01*
X136959628Y-69238722D01*
X136895546Y-69210878D01*
X136869461Y-69180775D01*
X136823577Y-69106385D01*
X136792712Y-69056344D01*
X136668656Y-68932288D01*
X136549618Y-68858865D01*
X136519336Y-68840187D01*
X136519331Y-68840185D01*
X136517862Y-68839698D01*
X136352797Y-68785001D01*
X136352795Y-68785000D01*
X136250010Y-68774500D01*
X135649998Y-68774500D01*
X135649980Y-68774501D01*
X135588101Y-68780823D01*
X135519408Y-68768053D01*
X135468524Y-68720172D01*
X135451500Y-68657465D01*
X135451500Y-66928340D01*
X135471185Y-66861301D01*
X135488297Y-66840183D01*
X135498356Y-66830232D01*
X135518656Y-66817712D01*
X135642712Y-66693656D01*
X135652545Y-66677713D01*
X135663090Y-66667283D01*
X135681308Y-66657463D01*
X135696694Y-66643623D01*
X135711440Y-66641221D01*
X135724595Y-66634132D01*
X135745229Y-66635720D01*
X135765656Y-66632395D01*
X135779361Y-66638349D01*
X135794258Y-66639496D01*
X135810756Y-66651987D01*
X135829740Y-66660234D01*
X135845177Y-66678047D01*
X135849963Y-66681671D01*
X135851170Y-66684963D01*
X135855829Y-66690339D01*
X135857681Y-66693341D01*
X135857683Y-66693344D01*
X135981654Y-66817315D01*
X136130875Y-66909356D01*
X136130880Y-66909358D01*
X136297302Y-66964505D01*
X136297309Y-66964506D01*
X136400019Y-66974999D01*
X136950000Y-66974999D01*
X136999972Y-66974999D01*
X136999986Y-66974998D01*
X137102697Y-66964505D01*
X137269119Y-66909358D01*
X137269124Y-66909356D01*
X137418345Y-66817315D01*
X137542315Y-66693345D01*
X137634356Y-66544124D01*
X137634358Y-66544119D01*
X137689505Y-66377697D01*
X137689506Y-66377690D01*
X137699999Y-66274986D01*
X137700000Y-66274973D01*
X137700000Y-66000000D01*
X136950000Y-66000000D01*
X136950000Y-66974999D01*
X136400019Y-66974999D01*
X136449999Y-66974998D01*
X136450000Y-66974998D01*
X136450000Y-64525000D01*
X136449999Y-64524999D01*
X136400029Y-64525000D01*
X136400011Y-64525001D01*
X136297302Y-64535494D01*
X136130880Y-64590641D01*
X136130875Y-64590643D01*
X135981654Y-64682684D01*
X135857683Y-64806655D01*
X135857679Y-64806660D01*
X135855826Y-64809665D01*
X135854018Y-64811290D01*
X135853202Y-64812323D01*
X135853025Y-64812183D01*
X135803874Y-64856385D01*
X135734911Y-64867601D01*
X135670831Y-64839752D01*
X135644753Y-64809653D01*
X135644737Y-64809628D01*
X135642712Y-64806344D01*
X135518656Y-64682288D01*
X135396468Y-64606922D01*
X135369336Y-64590187D01*
X135369331Y-64590185D01*
X135356677Y-64585992D01*
X135202797Y-64535001D01*
X135202795Y-64535000D01*
X135100016Y-64524500D01*
X134513282Y-64524500D01*
X134446243Y-64504815D01*
X134425601Y-64488181D01*
X133200011Y-63262591D01*
X133200006Y-63262587D01*
X133148034Y-63227861D01*
X133148030Y-63227859D01*
X133143828Y-63225051D01*
X133097233Y-63193917D01*
X133063784Y-63180062D01*
X133057197Y-63177333D01*
X133057189Y-63177329D01*
X132983035Y-63146614D01*
X132983027Y-63146612D01*
X132861807Y-63122500D01*
X132861803Y-63122500D01*
X132734000Y-63122500D01*
X132666961Y-63102815D01*
X132621206Y-63050011D01*
X132610417Y-63000417D01*
X132610000Y-63000000D01*
X131515330Y-63000000D01*
X131535075Y-62980255D01*
X131584444Y-62894745D01*
X131610000Y-62799370D01*
X131610000Y-62700630D01*
X131584444Y-62605255D01*
X131535075Y-62519745D01*
X131515330Y-62500000D01*
X132609999Y-62500000D01*
X132609999Y-62350028D01*
X132609998Y-62350013D01*
X132599505Y-62247302D01*
X132544358Y-62080880D01*
X132544356Y-62080875D01*
X132452315Y-61931654D01*
X132328345Y-61807684D01*
X132179124Y-61715643D01*
X132179119Y-61715641D01*
X132012697Y-61660494D01*
X132012690Y-61660493D01*
X131909986Y-61650000D01*
X131485000Y-61650000D01*
X131485000Y-62469670D01*
X131465255Y-62449925D01*
X131379745Y-62400556D01*
X131284370Y-62375000D01*
X131185630Y-62375000D01*
X131090255Y-62400556D01*
X131004745Y-62449925D01*
X130985000Y-62469670D01*
X130985000Y-61650000D01*
X130560028Y-61650000D01*
X130560012Y-61650001D01*
X130457302Y-61660494D01*
X130290880Y-61715641D01*
X130290875Y-61715643D01*
X130141654Y-61807684D01*
X130017684Y-61931654D01*
X129925643Y-62080875D01*
X129925641Y-62080880D01*
X129870494Y-62247302D01*
X129870493Y-62247309D01*
X129860000Y-62350013D01*
X129860000Y-62500000D01*
X130954670Y-62500000D01*
X130934925Y-62519745D01*
X130885556Y-62605255D01*
X130860000Y-62700630D01*
X130860000Y-62799370D01*
X130885556Y-62894745D01*
X130934925Y-62980255D01*
X130954670Y-63000000D01*
X129860001Y-63000000D01*
X129860001Y-63149986D01*
X129870494Y-63252697D01*
X129925641Y-63419119D01*
X129925643Y-63419124D01*
X130017684Y-63568345D01*
X130141656Y-63692317D01*
X130205906Y-63731946D01*
X130252631Y-63783893D01*
X130263854Y-63852856D01*
X130236011Y-63916938D01*
X130228492Y-63925166D01*
X130120585Y-64033073D01*
X130018768Y-64173211D01*
X129940128Y-64327552D01*
X129940127Y-64327554D01*
X129940127Y-64327555D01*
X129921642Y-64384447D01*
X129886597Y-64492302D01*
X129865610Y-64624810D01*
X129859500Y-64663389D01*
X129859500Y-64836611D01*
X129862632Y-64856385D01*
X129881305Y-64974287D01*
X129886598Y-65007701D01*
X129940127Y-65172445D01*
X130018768Y-65326788D01*
X130120586Y-65466928D01*
X130243072Y-65589414D01*
X130308457Y-65636919D01*
X130323959Y-65648182D01*
X130366624Y-65703513D01*
X130372603Y-65773126D01*
X130339997Y-65834921D01*
X130279158Y-65869278D01*
X130251073Y-65872500D01*
X128311281Y-65872500D01*
X128244242Y-65852815D01*
X128223600Y-65836181D01*
X127663819Y-65276400D01*
X127630334Y-65215077D01*
X127627500Y-65188719D01*
X127627500Y-60751500D01*
X127647185Y-60684461D01*
X127699989Y-60638706D01*
X127751500Y-60627500D01*
X135832186Y-60627500D01*
X135899225Y-60647185D01*
G37*
%TD.AperFunction*%
%TA.AperFunction,Conductor*%
G36*
X169030013Y-59019347D02*
G01*
X184941221Y-68963853D01*
X184987636Y-69016075D01*
X184999500Y-69069003D01*
X184999500Y-94930995D01*
X184979815Y-94998034D01*
X184941219Y-95036147D01*
X169115840Y-104927011D01*
X169030014Y-104980652D01*
X168964294Y-104999500D01*
X123624500Y-104999500D01*
X123557461Y-104979815D01*
X123511706Y-104927011D01*
X123500500Y-104875500D01*
X123500500Y-101073322D01*
X125900001Y-101073322D01*
X125910144Y-101172607D01*
X125963452Y-101333481D01*
X125963457Y-101333492D01*
X126052424Y-101477728D01*
X126052427Y-101477732D01*
X126172267Y-101597572D01*
X126172271Y-101597575D01*
X126316507Y-101686542D01*
X126316518Y-101686547D01*
X126477393Y-101739855D01*
X126576683Y-101749999D01*
X126749999Y-101749999D01*
X127250000Y-101749999D01*
X127423308Y-101749999D01*
X127423322Y-101749998D01*
X127522607Y-101739855D01*
X127683481Y-101686547D01*
X127683492Y-101686542D01*
X127827728Y-101597575D01*
X127827732Y-101597572D01*
X127947572Y-101477732D01*
X127947575Y-101477728D01*
X128036542Y-101333492D01*
X128036547Y-101333481D01*
X128089855Y-101172606D01*
X128099999Y-101073322D01*
X128100000Y-101073309D01*
X128100000Y-101050000D01*
X127250000Y-101050000D01*
X127250000Y-101749999D01*
X126749999Y-101749999D01*
X126750000Y-101749998D01*
X126750000Y-101050000D01*
X125900001Y-101050000D01*
X125900001Y-101073322D01*
X123500500Y-101073322D01*
X123500500Y-100526677D01*
X125900000Y-100526677D01*
X125900000Y-100550000D01*
X126750000Y-100550000D01*
X127250000Y-100550000D01*
X128099999Y-100550000D01*
X128099999Y-100526692D01*
X128099998Y-100526677D01*
X128089855Y-100427392D01*
X128036547Y-100266518D01*
X128036542Y-100266507D01*
X127947575Y-100122271D01*
X127947572Y-100122267D01*
X127827736Y-100002431D01*
X127827723Y-100002421D01*
X127683492Y-99913457D01*
X127683481Y-99913452D01*
X127683291Y-99913389D01*
X131899500Y-99913389D01*
X131899500Y-100086611D01*
X131926598Y-100257701D01*
X131980127Y-100422445D01*
X132058768Y-100576788D01*
X132160586Y-100716928D01*
X132283072Y-100839414D01*
X132423212Y-100941232D01*
X132577555Y-101019873D01*
X132742299Y-101073402D01*
X132913389Y-101100500D01*
X132913390Y-101100500D01*
X133086610Y-101100500D01*
X133086611Y-101100500D01*
X133257701Y-101073402D01*
X133422445Y-101019873D01*
X133576788Y-100941232D01*
X133716928Y-100839414D01*
X133839414Y-100716928D01*
X133941232Y-100576788D01*
X134019873Y-100422445D01*
X134073402Y-100257701D01*
X134100500Y-100086611D01*
X134100500Y-99913389D01*
X134073402Y-99742299D01*
X134019873Y-99577555D01*
X133941232Y-99423212D01*
X133839414Y-99283072D01*
X133716928Y-99160586D01*
X133576788Y-99058768D01*
X133422445Y-98980127D01*
X133257701Y-98926598D01*
X133257699Y-98926597D01*
X133257698Y-98926597D01*
X133126271Y-98905781D01*
X133086611Y-98899500D01*
X132913389Y-98899500D01*
X132873728Y-98905781D01*
X132742302Y-98926597D01*
X132742299Y-98926598D01*
X132617839Y-98967038D01*
X132577552Y-98980128D01*
X132423211Y-99058768D01*
X132350486Y-99111607D01*
X132283072Y-99160586D01*
X132283070Y-99160588D01*
X132283069Y-99160588D01*
X132160588Y-99283069D01*
X132160588Y-99283070D01*
X132160586Y-99283072D01*
X132129496Y-99325864D01*
X132058768Y-99423211D01*
X131980128Y-99577552D01*
X131926597Y-99742302D01*
X131909342Y-99851247D01*
X131899500Y-99913389D01*
X127683291Y-99913389D01*
X127522606Y-99860144D01*
X127423322Y-99850000D01*
X127250000Y-99850000D01*
X127250000Y-100550000D01*
X126750000Y-100550000D01*
X126750000Y-99850000D01*
X126576693Y-99850000D01*
X126576676Y-99850001D01*
X126477392Y-99860144D01*
X126316518Y-99913452D01*
X126316507Y-99913457D01*
X126172271Y-100002424D01*
X126172267Y-100002427D01*
X126052427Y-100122267D01*
X126052424Y-100122271D01*
X125963457Y-100266507D01*
X125963452Y-100266518D01*
X125910144Y-100427393D01*
X125900000Y-100526677D01*
X123500500Y-100526677D01*
X123500500Y-76938197D01*
X125372500Y-76938197D01*
X125372500Y-76943798D01*
X125372500Y-77061807D01*
X125397117Y-77185566D01*
X125399500Y-77209757D01*
X125399500Y-81913330D01*
X125399499Y-81913348D01*
X125399499Y-82079054D01*
X125399498Y-82079054D01*
X125437890Y-82222335D01*
X125440423Y-82231785D01*
X125462335Y-82269737D01*
X125519480Y-82368716D01*
X125631284Y-82480520D01*
X125631285Y-82480521D01*
X126131284Y-82980520D01*
X126131286Y-82980521D01*
X126131290Y-82980524D01*
X126237484Y-83041834D01*
X126268216Y-83059577D01*
X126420943Y-83100501D01*
X126420945Y-83100501D01*
X126586654Y-83100501D01*
X126586670Y-83100500D01*
X128511415Y-83100500D01*
X128578454Y-83120185D01*
X128624209Y-83172989D01*
X128629118Y-83185489D01*
X128656950Y-83269478D01*
X128665185Y-83294331D01*
X128665187Y-83294336D01*
X128674149Y-83308865D01*
X128757288Y-83443656D01*
X128881344Y-83567712D01*
X129030666Y-83659814D01*
X129197203Y-83714999D01*
X129299991Y-83725500D01*
X129900008Y-83725499D01*
X129900016Y-83725498D01*
X129900019Y-83725498D01*
X129956302Y-83719748D01*
X130002797Y-83714999D01*
X130169334Y-83659814D01*
X130318656Y-83567712D01*
X130442712Y-83443656D01*
X130444752Y-83440347D01*
X130446745Y-83438555D01*
X130447193Y-83437989D01*
X130447289Y-83438065D01*
X130496694Y-83393623D01*
X130565656Y-83382395D01*
X130629740Y-83410234D01*
X130655829Y-83440339D01*
X130657681Y-83443341D01*
X130657683Y-83443344D01*
X130781654Y-83567315D01*
X130930875Y-83659356D01*
X130930880Y-83659358D01*
X131097302Y-83714505D01*
X131097309Y-83714506D01*
X131200019Y-83724999D01*
X131750000Y-83724999D01*
X131799972Y-83724999D01*
X131799986Y-83724998D01*
X131902697Y-83714505D01*
X132069119Y-83659358D01*
X132069124Y-83659356D01*
X132218345Y-83567315D01*
X132342315Y-83443345D01*
X132434356Y-83294124D01*
X132434358Y-83294119D01*
X132489505Y-83127697D01*
X132489506Y-83127690D01*
X132499999Y-83024986D01*
X132500000Y-83024973D01*
X132500000Y-82750000D01*
X131750000Y-82750000D01*
X131750000Y-83724999D01*
X131200019Y-83724999D01*
X131249999Y-83724998D01*
X131250000Y-83724998D01*
X131250000Y-82250000D01*
X131750000Y-82250000D01*
X132499999Y-82250000D01*
X132499999Y-81975028D01*
X132499998Y-81975013D01*
X132489505Y-81872302D01*
X132434358Y-81705880D01*
X132434356Y-81705875D01*
X132342315Y-81556654D01*
X132218345Y-81432684D01*
X132069124Y-81340643D01*
X132069119Y-81340641D01*
X131902697Y-81285494D01*
X131902690Y-81285493D01*
X131799986Y-81275000D01*
X131750000Y-81275000D01*
X131750000Y-82250000D01*
X131250000Y-82250000D01*
X131250000Y-81275000D01*
X131249999Y-81274999D01*
X131200029Y-81275000D01*
X131200011Y-81275001D01*
X131097302Y-81285494D01*
X130930880Y-81340641D01*
X130930875Y-81340643D01*
X130781654Y-81432684D01*
X130657683Y-81556655D01*
X130657679Y-81556660D01*
X130655826Y-81559665D01*
X130654018Y-81561290D01*
X130653202Y-81562323D01*
X130653025Y-81562183D01*
X130603874Y-81606385D01*
X130534911Y-81617601D01*
X130470831Y-81589752D01*
X130444753Y-81559653D01*
X130444737Y-81559628D01*
X130442712Y-81556344D01*
X130318656Y-81432288D01*
X130225888Y-81375069D01*
X130169336Y-81340187D01*
X130169331Y-81340185D01*
X130167862Y-81339698D01*
X130002797Y-81285001D01*
X130002795Y-81285000D01*
X129900010Y-81274500D01*
X129299998Y-81274500D01*
X129299980Y-81274501D01*
X129197203Y-81285000D01*
X129197200Y-81285001D01*
X129030668Y-81340185D01*
X129030663Y-81340187D01*
X128881342Y-81432289D01*
X128757289Y-81556342D01*
X128665187Y-81705663D01*
X128665185Y-81705668D01*
X128665115Y-81705880D01*
X128633932Y-81799986D01*
X128629121Y-81814504D01*
X128589348Y-81871949D01*
X128524833Y-81898772D01*
X128511415Y-81899500D01*
X126800098Y-81899500D01*
X126770657Y-81890855D01*
X126740671Y-81884332D01*
X126735655Y-81880577D01*
X126733059Y-81879815D01*
X126712417Y-81863181D01*
X126636819Y-81787583D01*
X126603334Y-81726260D01*
X126600500Y-81699902D01*
X126600500Y-80770000D01*
X132687156Y-80770000D01*
X132727595Y-80909194D01*
X132809261Y-81047285D01*
X132809268Y-81047294D01*
X132922705Y-81160731D01*
X132922714Y-81160738D01*
X133060808Y-81242406D01*
X133060811Y-81242407D01*
X133214871Y-81287166D01*
X133214877Y-81287167D01*
X133250000Y-81289931D01*
X133250000Y-81289930D01*
X133750000Y-81289930D01*
X133785122Y-81287167D01*
X133785128Y-81287166D01*
X133939188Y-81242407D01*
X133939191Y-81242406D01*
X134077285Y-81160738D01*
X134077294Y-81160731D01*
X134190731Y-81047294D01*
X134190738Y-81047285D01*
X134272404Y-80909194D01*
X134312844Y-80770000D01*
X133750000Y-80770000D01*
X133750000Y-81289930D01*
X133250000Y-81289930D01*
X133250000Y-80770000D01*
X132687156Y-80770000D01*
X126600500Y-80770000D01*
X126600500Y-80165626D01*
X126620185Y-80098587D01*
X126672989Y-80052832D01*
X126742147Y-80042888D01*
X126793391Y-80062524D01*
X126887632Y-80125494D01*
X126887641Y-80125499D01*
X127078725Y-80204649D01*
X127078733Y-80204651D01*
X127281579Y-80244999D01*
X127281583Y-80245000D01*
X127435000Y-80245000D01*
X127435000Y-79495000D01*
X127935000Y-79495000D01*
X127935000Y-80245000D01*
X128088417Y-80245000D01*
X128088420Y-80244999D01*
X128291266Y-80204651D01*
X128291274Y-80204649D01*
X128482358Y-80125499D01*
X128482368Y-80125494D01*
X128654335Y-80010589D01*
X128654339Y-80010586D01*
X128800586Y-79864339D01*
X128800589Y-79864335D01*
X128915494Y-79692368D01*
X128915499Y-79692358D01*
X128994648Y-79501276D01*
X128994649Y-79501274D01*
X129005843Y-79445000D01*
X128151988Y-79445000D01*
X128169205Y-79435060D01*
X128225060Y-79379205D01*
X128264556Y-79310796D01*
X128285000Y-79234496D01*
X128285000Y-79155504D01*
X128264556Y-79079204D01*
X128225060Y-79010795D01*
X128169205Y-78954940D01*
X128151988Y-78945000D01*
X129005843Y-78945000D01*
X128994649Y-78888725D01*
X128994648Y-78888723D01*
X128915499Y-78697641D01*
X128915494Y-78697631D01*
X128800589Y-78525664D01*
X128800586Y-78525660D01*
X128654339Y-78379413D01*
X128654335Y-78379410D01*
X128482368Y-78264505D01*
X128482358Y-78264500D01*
X128291274Y-78185350D01*
X128291266Y-78185348D01*
X128088420Y-78145000D01*
X127935000Y-78145000D01*
X127935000Y-78895000D01*
X127435000Y-78895000D01*
X127435000Y-78145000D01*
X127281579Y-78145000D01*
X127078733Y-78185348D01*
X127078725Y-78185350D01*
X126887641Y-78264500D01*
X126887631Y-78264505D01*
X126793391Y-78327475D01*
X126726713Y-78348353D01*
X126659333Y-78329868D01*
X126612643Y-78277889D01*
X126600500Y-78224373D01*
X126600500Y-77338281D01*
X126620185Y-77271242D01*
X126636819Y-77250600D01*
X126828600Y-77058819D01*
X126889923Y-77025334D01*
X126916281Y-77022500D01*
X128645753Y-77022500D01*
X128712792Y-77042185D01*
X128758547Y-77094989D01*
X128768491Y-77164147D01*
X128760314Y-77193952D01*
X128730264Y-77266498D01*
X128730261Y-77266510D01*
X128699500Y-77421153D01*
X128699500Y-77578846D01*
X128730261Y-77733489D01*
X128730264Y-77733501D01*
X128790602Y-77879172D01*
X128790609Y-77879185D01*
X128878210Y-78010288D01*
X128878213Y-78010292D01*
X128989707Y-78121786D01*
X128989711Y-78121789D01*
X129120814Y-78209390D01*
X129120827Y-78209397D01*
X129266498Y-78269735D01*
X129266503Y-78269737D01*
X129389250Y-78294153D01*
X129421153Y-78300499D01*
X129421156Y-78300500D01*
X129421158Y-78300500D01*
X129578844Y-78300500D01*
X129578845Y-78300499D01*
X129733497Y-78269737D01*
X129853323Y-78220104D01*
X129879172Y-78209397D01*
X129879172Y-78209396D01*
X129879179Y-78209394D01*
X130010289Y-78121789D01*
X130121789Y-78010289D01*
X130209394Y-77879179D01*
X130226484Y-77837917D01*
X130270322Y-77783516D01*
X130336616Y-77761449D01*
X130404316Y-77778727D01*
X130451927Y-77829862D01*
X130464666Y-77878783D01*
X130464746Y-77878776D01*
X130464789Y-77879258D01*
X130464917Y-77879747D01*
X130464999Y-77881567D01*
X130471408Y-77952102D01*
X130471409Y-77952107D01*
X130521981Y-78114396D01*
X130572969Y-78198741D01*
X130590805Y-78266296D01*
X130569287Y-78332769D01*
X130535746Y-78365991D01*
X130515665Y-78379409D01*
X130515660Y-78379413D01*
X130369413Y-78525660D01*
X130369410Y-78525664D01*
X130254505Y-78697631D01*
X130254500Y-78697641D01*
X130175351Y-78888723D01*
X130175350Y-78888725D01*
X130164157Y-78945000D01*
X131018012Y-78945000D01*
X131000795Y-78954940D01*
X130944940Y-79010795D01*
X130905444Y-79079204D01*
X130885000Y-79155504D01*
X130885000Y-79234496D01*
X130905444Y-79310796D01*
X130944940Y-79379205D01*
X131000795Y-79435060D01*
X131018012Y-79445000D01*
X130164157Y-79445000D01*
X130175350Y-79501274D01*
X130175351Y-79501276D01*
X130254500Y-79692358D01*
X130254505Y-79692368D01*
X130369410Y-79864335D01*
X130369413Y-79864339D01*
X130515660Y-80010586D01*
X130515664Y-80010589D01*
X130687631Y-80125494D01*
X130687641Y-80125499D01*
X130878725Y-80204649D01*
X130878733Y-80204651D01*
X131081579Y-80244999D01*
X131081583Y-80245000D01*
X131235000Y-80245000D01*
X131235000Y-79495000D01*
X131735000Y-79495000D01*
X131735000Y-80245000D01*
X131888417Y-80245000D01*
X131888420Y-80244999D01*
X132091266Y-80204651D01*
X132091274Y-80204649D01*
X132282358Y-80125499D01*
X132282368Y-80125494D01*
X132454334Y-80010590D01*
X132557755Y-79907169D01*
X132579151Y-79895485D01*
X132598154Y-79880219D01*
X132609267Y-79879040D01*
X132619078Y-79873684D01*
X132643393Y-79875422D01*
X132667634Y-79872853D01*
X132677621Y-79877870D01*
X132688770Y-79878668D01*
X132708284Y-79893276D01*
X132730067Y-79904220D01*
X132740875Y-79917672D01*
X132744704Y-79920539D01*
X132752166Y-79931725D01*
X132756701Y-79939393D01*
X132761421Y-79947375D01*
X132778600Y-80015100D01*
X132761419Y-80073611D01*
X132727594Y-80130806D01*
X132687156Y-80270000D01*
X133239591Y-80270000D01*
X133249318Y-80270382D01*
X133249516Y-80270397D01*
X133250819Y-80270500D01*
X133749180Y-80270499D01*
X133749193Y-80270498D01*
X133750668Y-80270382D01*
X133760393Y-80270000D01*
X134312844Y-80270000D01*
X134272404Y-80130805D01*
X134238581Y-80073612D01*
X134221398Y-80005888D01*
X134238582Y-79947369D01*
X134243299Y-79939393D01*
X134272869Y-79889393D01*
X134303161Y-79785128D01*
X134311169Y-79757563D01*
X135220664Y-79757563D01*
X135222832Y-79785122D01*
X135222833Y-79785128D01*
X135267592Y-79939188D01*
X135267593Y-79939191D01*
X135349261Y-80077285D01*
X135349268Y-80077294D01*
X135462705Y-80190731D01*
X135462714Y-80190738D01*
X135600805Y-80272404D01*
X135740000Y-80312844D01*
X135740000Y-79750000D01*
X135229213Y-79750000D01*
X135220664Y-79757563D01*
X134311169Y-79757563D01*
X134317664Y-79735208D01*
X134317665Y-79735202D01*
X134319115Y-79716779D01*
X134320500Y-79699181D01*
X134320499Y-79579938D01*
X134330367Y-79546485D01*
X134340183Y-79513057D01*
X134340255Y-79512966D01*
X134340268Y-79512925D01*
X134340338Y-79512864D01*
X134356813Y-79492420D01*
X134485506Y-79363728D01*
X134485511Y-79363724D01*
X134495714Y-79353520D01*
X134495716Y-79353520D01*
X134533319Y-79315916D01*
X134594640Y-79282432D01*
X134664331Y-79287416D01*
X134708679Y-79315916D01*
X134752282Y-79359518D01*
X134752284Y-79359520D01*
X134839095Y-79409639D01*
X134839097Y-79409641D01*
X134877151Y-79431611D01*
X134889215Y-79438577D01*
X135041943Y-79479501D01*
X135041946Y-79479501D01*
X135207653Y-79479501D01*
X135207669Y-79479500D01*
X135918138Y-79479500D01*
X135985177Y-79499185D01*
X135986188Y-79500000D01*
X136109402Y-79500000D01*
X136138842Y-79508644D01*
X136168829Y-79515168D01*
X136173844Y-79518922D01*
X136176441Y-79519685D01*
X136197083Y-79536319D01*
X136203181Y-79542417D01*
X136236666Y-79603740D01*
X136239500Y-79630097D01*
X136239500Y-79749170D01*
X136239501Y-79749182D01*
X136239618Y-79750663D01*
X136240000Y-79760393D01*
X136240000Y-80312844D01*
X136379194Y-80272405D01*
X136379196Y-80272404D01*
X136436386Y-80238582D01*
X136504109Y-80221398D01*
X136562629Y-80238581D01*
X136620607Y-80272869D01*
X136661268Y-80284682D01*
X136774791Y-80317664D01*
X136774794Y-80317664D01*
X136774796Y-80317665D01*
X136810819Y-80320500D01*
X137175499Y-80320499D01*
X137242538Y-80340183D01*
X137288293Y-80392987D01*
X137299499Y-80444499D01*
X137299499Y-80479054D01*
X137299498Y-80479054D01*
X137322699Y-80565641D01*
X137340423Y-80631785D01*
X137369360Y-80681904D01*
X137419480Y-80768716D01*
X137436428Y-80785664D01*
X137443065Y-80795959D01*
X137512588Y-80900007D01*
X137512591Y-80900011D01*
X137599988Y-80987408D01*
X137599992Y-80987411D01*
X137702760Y-81056079D01*
X137702773Y-81056086D01*
X137802279Y-81097302D01*
X137816965Y-81103385D01*
X137816969Y-81103385D01*
X137816970Y-81103386D01*
X137938194Y-81127500D01*
X137938197Y-81127500D01*
X138606818Y-81127500D01*
X138673857Y-81147185D01*
X138719612Y-81199989D01*
X138729556Y-81269147D01*
X138728435Y-81275692D01*
X138699500Y-81421155D01*
X138699500Y-81578846D01*
X138730261Y-81733489D01*
X138730264Y-81733501D01*
X138790602Y-81879172D01*
X138790609Y-81879185D01*
X138878210Y-82010288D01*
X138882076Y-82014999D01*
X138880408Y-82016367D01*
X138909225Y-82069142D01*
X138904241Y-82138834D01*
X138862369Y-82194767D01*
X138796905Y-82219184D01*
X138788062Y-82219500D01*
X138750831Y-82219500D01*
X138750808Y-82219501D01*
X138714794Y-82222335D01*
X138560611Y-82267129D01*
X138560606Y-82267131D01*
X138428545Y-82345232D01*
X138365424Y-82362500D01*
X137448195Y-82362500D01*
X137326970Y-82386613D01*
X137326960Y-82386616D01*
X137212773Y-82433913D01*
X137212760Y-82433920D01*
X137109992Y-82502588D01*
X137109988Y-82502591D01*
X137022591Y-82589988D01*
X137022588Y-82589992D01*
X136953920Y-82692760D01*
X136953913Y-82692773D01*
X136906616Y-82806960D01*
X136906613Y-82806970D01*
X136882500Y-82928194D01*
X136882500Y-83057895D01*
X136880374Y-83057895D01*
X136869148Y-83117080D01*
X136821083Y-83167789D01*
X136753232Y-83184462D01*
X136736498Y-83182570D01*
X136735214Y-83182335D01*
X136699181Y-83179500D01*
X136300830Y-83179500D01*
X136300808Y-83179501D01*
X136264794Y-83182335D01*
X136110611Y-83227129D01*
X136110606Y-83227131D01*
X135972404Y-83308863D01*
X135972396Y-83308869D01*
X135858869Y-83422396D01*
X135858863Y-83422404D01*
X135777131Y-83560606D01*
X135777129Y-83560611D01*
X135732335Y-83714791D01*
X135732334Y-83714797D01*
X135729500Y-83750811D01*
X135729500Y-83861897D01*
X135709815Y-83928936D01*
X135708604Y-83930785D01*
X135693921Y-83952760D01*
X135693914Y-83952773D01*
X135686993Y-83969479D01*
X135686994Y-83969480D01*
X135646614Y-84066964D01*
X135646612Y-84066972D01*
X135628609Y-84157481D01*
X135622500Y-84188192D01*
X135622500Y-84493706D01*
X135602815Y-84560745D01*
X135550011Y-84606500D01*
X135480853Y-84616444D01*
X135435379Y-84600438D01*
X135390196Y-84573717D01*
X135390193Y-84573716D01*
X135232494Y-84527900D01*
X135232497Y-84527900D01*
X135230000Y-84527703D01*
X135230000Y-85876000D01*
X135210315Y-85943039D01*
X135157511Y-85988794D01*
X135106000Y-86000000D01*
X134980000Y-86000000D01*
X134980000Y-86126000D01*
X134960315Y-86193039D01*
X134907511Y-86238794D01*
X134856000Y-86250000D01*
X134180000Y-86250000D01*
X134180000Y-86890649D01*
X134182899Y-86927489D01*
X134182900Y-86927495D01*
X134228716Y-87085193D01*
X134228717Y-87085196D01*
X134312314Y-87226552D01*
X134312321Y-87226561D01*
X134428438Y-87342678D01*
X134428447Y-87342685D01*
X134569802Y-87426281D01*
X134652443Y-87450291D01*
X134711329Y-87487898D01*
X134740536Y-87551370D01*
X134730790Y-87620557D01*
X134705530Y-87657049D01*
X132129092Y-90233489D01*
X131299992Y-91062589D01*
X131271573Y-91091008D01*
X131212586Y-91149994D01*
X131212585Y-91149996D01*
X131143769Y-91252986D01*
X131143576Y-91253590D01*
X131096614Y-91366965D01*
X131080014Y-91450423D01*
X131078656Y-91457249D01*
X131078653Y-91457259D01*
X131072500Y-91488194D01*
X131072500Y-92306855D01*
X131052815Y-92373894D01*
X131013598Y-92412393D01*
X130981344Y-92432287D01*
X130857285Y-92556346D01*
X130855537Y-92559182D01*
X130853829Y-92560717D01*
X130852807Y-92562011D01*
X130852585Y-92561836D01*
X130803589Y-92605905D01*
X130734626Y-92617126D01*
X130670544Y-92589282D01*
X130644463Y-92559182D01*
X130642714Y-92556346D01*
X130518655Y-92432287D01*
X130486402Y-92412393D01*
X130439678Y-92360444D01*
X130427500Y-92306855D01*
X130427500Y-91142832D01*
X130447185Y-91075793D01*
X130499989Y-91030038D01*
X130503605Y-91028463D01*
X130503716Y-91028409D01*
X130503726Y-91028405D01*
X130696774Y-90916948D01*
X130873624Y-90781247D01*
X131031247Y-90623624D01*
X131166948Y-90446774D01*
X131278405Y-90253726D01*
X131363710Y-90047781D01*
X131421404Y-89832463D01*
X131450500Y-89611457D01*
X131450500Y-89388543D01*
X131421404Y-89167537D01*
X131363710Y-88952219D01*
X131278405Y-88746274D01*
X131166948Y-88553226D01*
X131090872Y-88454081D01*
X131031248Y-88376377D01*
X131031242Y-88376370D01*
X130873629Y-88218757D01*
X130873622Y-88218751D01*
X130696782Y-88083058D01*
X130696780Y-88083057D01*
X130696774Y-88083052D01*
X130503726Y-87971595D01*
X130503716Y-87971590D01*
X130423976Y-87938561D01*
X130369572Y-87894720D01*
X130347507Y-87828426D01*
X130364786Y-87760727D01*
X130415923Y-87713116D01*
X130471428Y-87700000D01*
X130749973Y-87700000D01*
X130749985Y-87699999D01*
X130852689Y-87689506D01*
X130852696Y-87689505D01*
X131019118Y-87634358D01*
X131019123Y-87634356D01*
X131168344Y-87542315D01*
X131292315Y-87418344D01*
X131384356Y-87269123D01*
X131384358Y-87269118D01*
X131439505Y-87102696D01*
X131439506Y-87102689D01*
X131449999Y-86999985D01*
X131450000Y-86999972D01*
X131450000Y-86250000D01*
X130298482Y-86250000D01*
X130309111Y-86231591D01*
X130350000Y-86078991D01*
X130350000Y-85921009D01*
X130309111Y-85768409D01*
X130298482Y-85750000D01*
X131450000Y-85750000D01*
X131450000Y-85109350D01*
X134180000Y-85109350D01*
X134180000Y-85750000D01*
X134730000Y-85750000D01*
X134730000Y-84527703D01*
X134727503Y-84527900D01*
X134569806Y-84573716D01*
X134569803Y-84573717D01*
X134428447Y-84657314D01*
X134428438Y-84657321D01*
X134312321Y-84773438D01*
X134312314Y-84773447D01*
X134228717Y-84914803D01*
X134228716Y-84914806D01*
X134182900Y-85072504D01*
X134182899Y-85072510D01*
X134180000Y-85109350D01*
X131450000Y-85109350D01*
X131450000Y-85000027D01*
X131449999Y-85000014D01*
X131439506Y-84897310D01*
X131439505Y-84897303D01*
X131384358Y-84730881D01*
X131384356Y-84730876D01*
X131292315Y-84581655D01*
X131168344Y-84457684D01*
X131019123Y-84365643D01*
X131019118Y-84365641D01*
X130852696Y-84310494D01*
X130852689Y-84310493D01*
X130749985Y-84300000D01*
X130000000Y-84300000D01*
X130000000Y-85451517D01*
X129981591Y-85440889D01*
X129828991Y-85400000D01*
X129671009Y-85400000D01*
X129518409Y-85440889D01*
X129500000Y-85451517D01*
X129500000Y-84300000D01*
X128750014Y-84300000D01*
X128647310Y-84310493D01*
X128647303Y-84310494D01*
X128480881Y-84365641D01*
X128480876Y-84365643D01*
X128331655Y-84457684D01*
X128207684Y-84581655D01*
X128115643Y-84730876D01*
X128115641Y-84730881D01*
X128060494Y-84897303D01*
X128060493Y-84897310D01*
X128050000Y-85000014D01*
X128050000Y-85750000D01*
X129201518Y-85750000D01*
X129190889Y-85768409D01*
X129150000Y-85921009D01*
X129150000Y-86078991D01*
X129190889Y-86231591D01*
X129201518Y-86250000D01*
X128050000Y-86250000D01*
X128050000Y-86999985D01*
X128060493Y-87102689D01*
X128060494Y-87102696D01*
X128115641Y-87269118D01*
X128115643Y-87269123D01*
X128207684Y-87418344D01*
X128331655Y-87542315D01*
X128480876Y-87634356D01*
X128480881Y-87634358D01*
X128647303Y-87689505D01*
X128647310Y-87689506D01*
X128750014Y-87699999D01*
X128750027Y-87700000D01*
X129028572Y-87700000D01*
X129095611Y-87719685D01*
X129141366Y-87772489D01*
X129151310Y-87841647D01*
X129122285Y-87905203D01*
X129076024Y-87938561D01*
X128996283Y-87971590D01*
X128996273Y-87971595D01*
X128803226Y-88083052D01*
X128803217Y-88083058D01*
X128626377Y-88218751D01*
X128626370Y-88218757D01*
X128468757Y-88376370D01*
X128468751Y-88376377D01*
X128333058Y-88553217D01*
X128333052Y-88553226D01*
X128221595Y-88746273D01*
X128221593Y-88746277D01*
X128136293Y-88952209D01*
X128136290Y-88952219D01*
X128078597Y-89167534D01*
X128078594Y-89167547D01*
X128049501Y-89388533D01*
X128049500Y-89388549D01*
X128049500Y-89611450D01*
X128049501Y-89611466D01*
X128078594Y-89832452D01*
X128078595Y-89832457D01*
X128078596Y-89832463D01*
X128129498Y-90022431D01*
X128136290Y-90047780D01*
X128136293Y-90047790D01*
X128219403Y-90248434D01*
X128221595Y-90253726D01*
X128333052Y-90446774D01*
X128333057Y-90446780D01*
X128333058Y-90446782D01*
X128468751Y-90623622D01*
X128468757Y-90623629D01*
X128626370Y-90781242D01*
X128626376Y-90781247D01*
X128803226Y-90916948D01*
X128996274Y-91028405D01*
X128996277Y-91028406D01*
X128996282Y-91028409D01*
X129095952Y-91069693D01*
X129150356Y-91113533D01*
X129172421Y-91179827D01*
X129172500Y-91184254D01*
X129172500Y-92306855D01*
X129152815Y-92373894D01*
X129113598Y-92412393D01*
X129081344Y-92432287D01*
X128957289Y-92556342D01*
X128865187Y-92705663D01*
X128865185Y-92705668D01*
X128858073Y-92727131D01*
X128810001Y-92872203D01*
X128810001Y-92872204D01*
X128810000Y-92872204D01*
X128799500Y-92974983D01*
X128799500Y-93960580D01*
X128779815Y-94027619D01*
X128727011Y-94073374D01*
X128699692Y-94082197D01*
X128617553Y-94098535D01*
X128617547Y-94098537D01*
X128503716Y-94145687D01*
X128423661Y-94199179D01*
X128401266Y-94214142D01*
X128401260Y-94214147D01*
X127039083Y-95576326D01*
X126601269Y-96014140D01*
X126601267Y-96014142D01*
X126577090Y-96038319D01*
X126514139Y-96101269D01*
X126514138Y-96101271D01*
X126486115Y-96143210D01*
X126486109Y-96143221D01*
X126481914Y-96149500D01*
X126445688Y-96203714D01*
X126413075Y-96282451D01*
X126402139Y-96308854D01*
X126400370Y-96313123D01*
X126400363Y-96313138D01*
X126398539Y-96317542D01*
X126398537Y-96317549D01*
X126384247Y-96389396D01*
X126382876Y-96396287D01*
X126382875Y-96396287D01*
X126374500Y-96438389D01*
X126374500Y-96507893D01*
X126354815Y-96574932D01*
X126315598Y-96613431D01*
X126171956Y-96702031D01*
X126052032Y-96821955D01*
X126052029Y-96821959D01*
X125963001Y-96966294D01*
X125962996Y-96966305D01*
X125909651Y-97127290D01*
X125899500Y-97226647D01*
X125899500Y-97773337D01*
X125899501Y-97773355D01*
X125909650Y-97872707D01*
X125909651Y-97872710D01*
X125962996Y-98033694D01*
X125963001Y-98033705D01*
X126052029Y-98178040D01*
X126052032Y-98178044D01*
X126171955Y-98297967D01*
X126171959Y-98297970D01*
X126316294Y-98386998D01*
X126316297Y-98386999D01*
X126316303Y-98387003D01*
X126477292Y-98440349D01*
X126576655Y-98450500D01*
X127423344Y-98450499D01*
X127423352Y-98450498D01*
X127423355Y-98450498D01*
X127477760Y-98444940D01*
X127522708Y-98440349D01*
X127683697Y-98387003D01*
X127828044Y-98297968D01*
X127947968Y-98178044D01*
X128037003Y-98033697D01*
X128090349Y-97872708D01*
X128100500Y-97773345D01*
X128100499Y-97270000D01*
X129687156Y-97270000D01*
X129727595Y-97409194D01*
X129809261Y-97547285D01*
X129809268Y-97547294D01*
X129922705Y-97660731D01*
X129922714Y-97660738D01*
X130060808Y-97742406D01*
X130060811Y-97742407D01*
X130214871Y-97787166D01*
X130214877Y-97787167D01*
X130250000Y-97789931D01*
X130250000Y-97789930D01*
X130750000Y-97789930D01*
X130785122Y-97787167D01*
X130785128Y-97787166D01*
X130939188Y-97742407D01*
X130939191Y-97742406D01*
X131077285Y-97660738D01*
X131077294Y-97660731D01*
X131190731Y-97547294D01*
X131190738Y-97547285D01*
X131272404Y-97409194D01*
X131312844Y-97270000D01*
X130750000Y-97270000D01*
X130750000Y-97789930D01*
X130250000Y-97789930D01*
X130250000Y-97270000D01*
X129687156Y-97270000D01*
X128100499Y-97270000D01*
X128100499Y-97226656D01*
X128099952Y-97221306D01*
X128090349Y-97127292D01*
X128090348Y-97127289D01*
X128059737Y-97034910D01*
X128037003Y-96966303D01*
X128036999Y-96966297D01*
X128036998Y-96966294D01*
X127947970Y-96821959D01*
X127947967Y-96821955D01*
X127842981Y-96716969D01*
X127809496Y-96655646D01*
X127814480Y-96585954D01*
X127842978Y-96541610D01*
X129022772Y-95361819D01*
X129084095Y-95328334D01*
X129110453Y-95325500D01*
X129389548Y-95325500D01*
X129456587Y-95345185D01*
X129477229Y-95361819D01*
X129675025Y-95559615D01*
X129708510Y-95620938D01*
X129706421Y-95681890D01*
X129682335Y-95764795D01*
X129682334Y-95764802D01*
X129679500Y-95800811D01*
X129679500Y-96199169D01*
X129679501Y-96199191D01*
X129682335Y-96235205D01*
X129727129Y-96389388D01*
X129727130Y-96389391D01*
X129727131Y-96389393D01*
X129731208Y-96396287D01*
X129761419Y-96447371D01*
X129778601Y-96515095D01*
X129761419Y-96573611D01*
X129727594Y-96630806D01*
X129687156Y-96770000D01*
X130239591Y-96770000D01*
X130249318Y-96770382D01*
X130249516Y-96770397D01*
X130250819Y-96770500D01*
X130749180Y-96770499D01*
X130749193Y-96770498D01*
X130750668Y-96770382D01*
X130760393Y-96770000D01*
X131312844Y-96770000D01*
X131272404Y-96630805D01*
X131238581Y-96573612D01*
X131221398Y-96505888D01*
X131238582Y-96447369D01*
X131272869Y-96389393D01*
X131302737Y-96286586D01*
X131317664Y-96235208D01*
X131317664Y-96235206D01*
X131317665Y-96235204D01*
X131320500Y-96199181D01*
X131320499Y-95800820D01*
X131317665Y-95764796D01*
X131272869Y-95610607D01*
X131191135Y-95472402D01*
X131191133Y-95472400D01*
X131191130Y-95472396D01*
X131144246Y-95425513D01*
X131110760Y-95364190D01*
X131110326Y-95362110D01*
X131101463Y-95317548D01*
X131054311Y-95203714D01*
X131031390Y-95169411D01*
X130985857Y-95101265D01*
X130985854Y-95101262D01*
X130573160Y-94688570D01*
X130569767Y-94682356D01*
X130563969Y-94678295D01*
X130553243Y-94652095D01*
X130539675Y-94627247D01*
X130540180Y-94620185D01*
X130537498Y-94613634D01*
X130542639Y-94585797D01*
X130544659Y-94557556D01*
X130549209Y-94550223D01*
X130550188Y-94544926D01*
X130566317Y-94522655D01*
X130570436Y-94516019D01*
X130571770Y-94514597D01*
X130642712Y-94443656D01*
X130651031Y-94430168D01*
X130659595Y-94421046D01*
X130679359Y-94409429D01*
X130696406Y-94394096D01*
X130708909Y-94392060D01*
X130719831Y-94385642D01*
X130742738Y-94386555D01*
X130765368Y-94382872D01*
X130776988Y-94387920D01*
X130789645Y-94388425D01*
X130808419Y-94401575D01*
X130829451Y-94410713D01*
X130841784Y-94424946D01*
X130846872Y-94428510D01*
X130848662Y-94432884D01*
X130855537Y-94440817D01*
X130857288Y-94443656D01*
X130981344Y-94567712D01*
X131130666Y-94659814D01*
X131297203Y-94714999D01*
X131399991Y-94725500D01*
X132000008Y-94725499D01*
X132000016Y-94725498D01*
X132000019Y-94725498D01*
X132056302Y-94719748D01*
X132102797Y-94714999D01*
X132269334Y-94659814D01*
X132418656Y-94567712D01*
X132542712Y-94443656D01*
X132634814Y-94294334D01*
X132689999Y-94127797D01*
X132700500Y-94025009D01*
X132700499Y-92974992D01*
X132689999Y-92872203D01*
X132634814Y-92705666D01*
X132542712Y-92556344D01*
X132418656Y-92432288D01*
X132418655Y-92432287D01*
X132386402Y-92412393D01*
X132339678Y-92360444D01*
X132327500Y-92306855D01*
X132327500Y-91861280D01*
X132347185Y-91794241D01*
X132363814Y-91773604D01*
X133967819Y-90169598D01*
X134029142Y-90136114D01*
X134098834Y-90141098D01*
X134154767Y-90182970D01*
X134179184Y-90248434D01*
X134179500Y-90257280D01*
X134179500Y-91840701D01*
X134182401Y-91877567D01*
X134182402Y-91877573D01*
X134228254Y-92035393D01*
X134228255Y-92035396D01*
X134228256Y-92035398D01*
X134249081Y-92070611D01*
X134311917Y-92176862D01*
X134311923Y-92176870D01*
X134428129Y-92293076D01*
X134428133Y-92293079D01*
X134428135Y-92293081D01*
X134569602Y-92376744D01*
X134603306Y-92386536D01*
X134727426Y-92422597D01*
X134727429Y-92422597D01*
X134727431Y-92422598D01*
X134764306Y-92425500D01*
X134764314Y-92425500D01*
X135141231Y-92425500D01*
X135208270Y-92445185D01*
X135254025Y-92497989D01*
X135263969Y-92567147D01*
X135260307Y-92584095D01*
X135222335Y-92714791D01*
X135222334Y-92714797D01*
X135219500Y-92750811D01*
X135219500Y-93249169D01*
X135219501Y-93249191D01*
X135222334Y-93285202D01*
X135223474Y-93291441D01*
X135221798Y-93291746D01*
X135221613Y-93353318D01*
X135218463Y-93362574D01*
X135213506Y-93375448D01*
X135193917Y-93404767D01*
X135146615Y-93518965D01*
X135134169Y-93581528D01*
X135130347Y-93591458D01*
X135115320Y-93611097D01*
X135103857Y-93633012D01*
X135090043Y-93644136D01*
X135087891Y-93646949D01*
X135085460Y-93647826D01*
X135079724Y-93652446D01*
X135031344Y-93682287D01*
X134907289Y-93806342D01*
X134815187Y-93955663D01*
X134815185Y-93955668D01*
X134807947Y-93977511D01*
X134760001Y-94122203D01*
X134760001Y-94122204D01*
X134760000Y-94122204D01*
X134749500Y-94224983D01*
X134749500Y-95275001D01*
X134749501Y-95275019D01*
X134760000Y-95377796D01*
X134760001Y-95377799D01*
X134815185Y-95544331D01*
X134815187Y-95544336D01*
X134843220Y-95589785D01*
X134907288Y-95693656D01*
X135031344Y-95817712D01*
X135090596Y-95854258D01*
X135097420Y-95861844D01*
X135106703Y-95866084D01*
X135120389Y-95887380D01*
X135137321Y-95906204D01*
X135139965Y-95917842D01*
X135144477Y-95924862D01*
X135149500Y-95959797D01*
X135149500Y-96018613D01*
X135149499Y-96018631D01*
X135149499Y-96184337D01*
X135149498Y-96184337D01*
X135190423Y-96337070D01*
X135199373Y-96352570D01*
X135199372Y-96352570D01*
X135199374Y-96352572D01*
X135269475Y-96473992D01*
X135269481Y-96474000D01*
X135388349Y-96592868D01*
X135388355Y-96592873D01*
X142659856Y-103864374D01*
X142659866Y-103864385D01*
X142664196Y-103868715D01*
X142664197Y-103868716D01*
X142776001Y-103980520D01*
X142862812Y-104030639D01*
X142862814Y-104030641D01*
X142900868Y-104052611D01*
X142912932Y-104059577D01*
X143065660Y-104100500D01*
X143223774Y-104100500D01*
X169671719Y-104100500D01*
X169671735Y-104100501D01*
X169679331Y-104100501D01*
X169837442Y-104100501D01*
X169837445Y-104100501D01*
X169990173Y-104059577D01*
X170040292Y-104030639D01*
X170127104Y-103980520D01*
X170238908Y-103868716D01*
X170238908Y-103868714D01*
X170249116Y-103858507D01*
X170249117Y-103858504D01*
X175480520Y-98627104D01*
X175559577Y-98490172D01*
X175600501Y-98337445D01*
X175600501Y-98179330D01*
X175600501Y-98171735D01*
X175600500Y-98171717D01*
X175600500Y-95413389D01*
X176899500Y-95413389D01*
X176899500Y-95586611D01*
X176903301Y-95610607D01*
X176920879Y-95721596D01*
X176926598Y-95757701D01*
X176978631Y-95917842D01*
X176980128Y-95922447D01*
X176992586Y-95946897D01*
X177058768Y-96076788D01*
X177160586Y-96216928D01*
X177283072Y-96339414D01*
X177423212Y-96441232D01*
X177577555Y-96519873D01*
X177742299Y-96573402D01*
X177913389Y-96600500D01*
X177913390Y-96600500D01*
X178086610Y-96600500D01*
X178086611Y-96600500D01*
X178257701Y-96573402D01*
X178422445Y-96519873D01*
X178576788Y-96441232D01*
X178716928Y-96339414D01*
X178839414Y-96216928D01*
X178941232Y-96076788D01*
X179019873Y-95922445D01*
X179073402Y-95757701D01*
X179100500Y-95586611D01*
X179100500Y-95413389D01*
X179073402Y-95242299D01*
X179019873Y-95077555D01*
X178941232Y-94923212D01*
X178839414Y-94783072D01*
X178716928Y-94660586D01*
X178576788Y-94558768D01*
X178422445Y-94480127D01*
X178257701Y-94426598D01*
X178257699Y-94426597D01*
X178257698Y-94426597D01*
X178126271Y-94405781D01*
X178086611Y-94399500D01*
X177913389Y-94399500D01*
X177873728Y-94405781D01*
X177742302Y-94426597D01*
X177577552Y-94480128D01*
X177423211Y-94558768D01*
X177377559Y-94591937D01*
X177283072Y-94660586D01*
X177283070Y-94660588D01*
X177283069Y-94660588D01*
X177160588Y-94783069D01*
X177160588Y-94783070D01*
X177160586Y-94783072D01*
X177133153Y-94820830D01*
X177058768Y-94923211D01*
X176980128Y-95077552D01*
X176926597Y-95242302D01*
X176913420Y-95325500D01*
X176899500Y-95413389D01*
X175600500Y-95413389D01*
X175600500Y-75078185D01*
X175600500Y-75078183D01*
X175559577Y-74925456D01*
X175556971Y-74920943D01*
X175480524Y-74788530D01*
X175480521Y-74788526D01*
X175480520Y-74788524D01*
X175368716Y-74676720D01*
X175368715Y-74676719D01*
X175364385Y-74672389D01*
X175364374Y-74672379D01*
X173829350Y-73137355D01*
X173829348Y-73137352D01*
X173710477Y-73018481D01*
X173710476Y-73018480D01*
X173622906Y-72967922D01*
X173573545Y-72939423D01*
X173420817Y-72898499D01*
X173262703Y-72898499D01*
X173255107Y-72898499D01*
X173255091Y-72898500D01*
X172474909Y-72898500D01*
X172474893Y-72898499D01*
X172467297Y-72898499D01*
X172309183Y-72898499D01*
X172194637Y-72929192D01*
X172156454Y-72939423D01*
X172107094Y-72967922D01*
X172107093Y-72967922D01*
X172019527Y-73018477D01*
X172019522Y-73018481D01*
X171958950Y-73079054D01*
X171907720Y-73130284D01*
X171907718Y-73130286D01*
X171643211Y-73394794D01*
X171384824Y-73653181D01*
X171323501Y-73686666D01*
X171297143Y-73689500D01*
X170370094Y-73689500D01*
X170303055Y-73669815D01*
X170257300Y-73617011D01*
X170246804Y-73552246D01*
X170250500Y-73517873D01*
X170250499Y-72522128D01*
X170244091Y-72462517D01*
X170231073Y-72427616D01*
X170226090Y-72357926D01*
X170231075Y-72340949D01*
X170243597Y-72307375D01*
X170243598Y-72307372D01*
X170249999Y-72247844D01*
X170250000Y-72247827D01*
X170250000Y-72000000D01*
X167750000Y-72000000D01*
X167750000Y-72247844D01*
X167756401Y-72307372D01*
X167756403Y-72307379D01*
X167768925Y-72340952D01*
X167773909Y-72410643D01*
X167768925Y-72427617D01*
X167755909Y-72462514D01*
X167755908Y-72462516D01*
X167749501Y-72522116D01*
X167749501Y-72522123D01*
X167749500Y-72522135D01*
X167749500Y-73517870D01*
X167749501Y-73517876D01*
X167755908Y-73577481D01*
X167768659Y-73611669D01*
X167773642Y-73681361D01*
X167768659Y-73698331D01*
X167755908Y-73732518D01*
X167749501Y-73792116D01*
X167749500Y-73792135D01*
X167749500Y-74787870D01*
X167749501Y-74787876D01*
X167755908Y-74847481D01*
X167768659Y-74881669D01*
X167773642Y-74951361D01*
X167768659Y-74968331D01*
X167755908Y-75002518D01*
X167752074Y-75038182D01*
X167749501Y-75062123D01*
X167749500Y-75062135D01*
X167749500Y-76057870D01*
X167749501Y-76057876D01*
X167755908Y-76117481D01*
X167768659Y-76151669D01*
X167773642Y-76221361D01*
X167768659Y-76238331D01*
X167755908Y-76272518D01*
X167749501Y-76332116D01*
X167749500Y-76332135D01*
X167749500Y-77327870D01*
X167749501Y-77327876D01*
X167755908Y-77387481D01*
X167768659Y-77421669D01*
X167773642Y-77491361D01*
X167768659Y-77508331D01*
X167755908Y-77542518D01*
X167749501Y-77602116D01*
X167749501Y-77602123D01*
X167749500Y-77602135D01*
X167749500Y-77814547D01*
X167729815Y-77881586D01*
X167713181Y-77902228D01*
X167052229Y-78563181D01*
X166990906Y-78596666D01*
X166964548Y-78599500D01*
X166911306Y-78599500D01*
X166737341Y-78634103D01*
X166737332Y-78634106D01*
X166573459Y-78701983D01*
X166573446Y-78701990D01*
X166425965Y-78800535D01*
X166425961Y-78800538D01*
X166300538Y-78925961D01*
X166300535Y-78925965D01*
X166201990Y-79073446D01*
X166201983Y-79073459D01*
X166134106Y-79237332D01*
X166134103Y-79237341D01*
X166099500Y-79411304D01*
X166099500Y-79588695D01*
X166134103Y-79762658D01*
X166134106Y-79762667D01*
X166201983Y-79926540D01*
X166201990Y-79926553D01*
X166300535Y-80074034D01*
X166300538Y-80074038D01*
X166425961Y-80199461D01*
X166425965Y-80199464D01*
X166573445Y-80298008D01*
X166573446Y-80298008D01*
X166573453Y-80298013D01*
X166573739Y-80298131D01*
X166573865Y-80298233D01*
X166578823Y-80300883D01*
X166578320Y-80301822D01*
X166628144Y-80341964D01*
X166650216Y-80408256D01*
X166632945Y-80475957D01*
X166603442Y-80507192D01*
X166604700Y-80508725D01*
X166599988Y-80512591D01*
X156120407Y-90992173D01*
X156059084Y-91025658D01*
X155989392Y-91020674D01*
X155933459Y-90978802D01*
X155909042Y-90913338D01*
X155912762Y-90880320D01*
X155911198Y-90880009D01*
X155936499Y-90752807D01*
X155936500Y-90752804D01*
X155936500Y-84539356D01*
X155956185Y-84472317D01*
X155957398Y-84470465D01*
X155965938Y-84457684D01*
X156018394Y-84379179D01*
X156078737Y-84233497D01*
X156109500Y-84078842D01*
X156109500Y-83921158D01*
X156109500Y-83921155D01*
X156109499Y-83921153D01*
X156097003Y-83858334D01*
X156078737Y-83766503D01*
X156057320Y-83714797D01*
X156018397Y-83620827D01*
X156018390Y-83620814D01*
X155930789Y-83489711D01*
X155930786Y-83489707D01*
X155819292Y-83378213D01*
X155819288Y-83378210D01*
X155688185Y-83290609D01*
X155688172Y-83290602D01*
X155542501Y-83230264D01*
X155542489Y-83230261D01*
X155387845Y-83199500D01*
X155387842Y-83199500D01*
X155230158Y-83199500D01*
X155230155Y-83199500D01*
X155075510Y-83230261D01*
X155075498Y-83230264D01*
X154929827Y-83290602D01*
X154929814Y-83290609D01*
X154798711Y-83378210D01*
X154798707Y-83378213D01*
X154687213Y-83489707D01*
X154687210Y-83489711D01*
X154599609Y-83620814D01*
X154599602Y-83620827D01*
X154539264Y-83766498D01*
X154539261Y-83766510D01*
X154508500Y-83921153D01*
X154508500Y-84078846D01*
X154539261Y-84233489D01*
X154539264Y-84233501D01*
X154599603Y-84379174D01*
X154599604Y-84379175D01*
X154599606Y-84379179D01*
X154652062Y-84457684D01*
X154660602Y-84470465D01*
X154681480Y-84537142D01*
X154681500Y-84539356D01*
X154681500Y-90379719D01*
X154661815Y-90446758D01*
X154645181Y-90467400D01*
X152618400Y-92494181D01*
X152557077Y-92527666D01*
X152530719Y-92530500D01*
X150404500Y-92530500D01*
X150337461Y-92510815D01*
X150291706Y-92458011D01*
X150280500Y-92406501D01*
X150280499Y-92260830D01*
X150280498Y-92260808D01*
X150280363Y-92259090D01*
X150277665Y-92224796D01*
X150232869Y-92070607D01*
X150151135Y-91932402D01*
X150151133Y-91932400D01*
X150151130Y-91932396D01*
X150146819Y-91928085D01*
X150113334Y-91866762D01*
X150110500Y-91840404D01*
X150110500Y-89063461D01*
X150130185Y-88996422D01*
X150182989Y-88950667D01*
X150252147Y-88940723D01*
X150315703Y-88969748D01*
X150333766Y-88989150D01*
X150392452Y-89067544D01*
X150392455Y-89067547D01*
X150507664Y-89153793D01*
X150507671Y-89153797D01*
X150642517Y-89204091D01*
X150642516Y-89204091D01*
X150649444Y-89204835D01*
X150702127Y-89210500D01*
X152297872Y-89210499D01*
X152357483Y-89204091D01*
X152492331Y-89153796D01*
X152607546Y-89067546D01*
X152693796Y-88952331D01*
X152744091Y-88817483D01*
X152750500Y-88757873D01*
X152750499Y-87762128D01*
X152744091Y-87702517D01*
X152731340Y-87668332D01*
X152726357Y-87598642D01*
X152731338Y-87581672D01*
X152744091Y-87547483D01*
X152750500Y-87487873D01*
X152750499Y-86492128D01*
X152744091Y-86432517D01*
X152731340Y-86398332D01*
X152726357Y-86328642D01*
X152731338Y-86311672D01*
X152744091Y-86277483D01*
X152750500Y-86217873D01*
X152750499Y-85222128D01*
X152744091Y-85162517D01*
X152731340Y-85128332D01*
X152726357Y-85058642D01*
X152731338Y-85041672D01*
X152744091Y-85007483D01*
X152750500Y-84947873D01*
X152750499Y-83952128D01*
X152744091Y-83892517D01*
X152731340Y-83858332D01*
X152726357Y-83788642D01*
X152731338Y-83771672D01*
X152744091Y-83737483D01*
X152750500Y-83677873D01*
X152750499Y-82682128D01*
X152744091Y-82622517D01*
X152731340Y-82588332D01*
X152726357Y-82518642D01*
X152731338Y-82501672D01*
X152744091Y-82467483D01*
X152750500Y-82407873D01*
X152750499Y-81412128D01*
X152744091Y-81352517D01*
X152731340Y-81318332D01*
X152726357Y-81248642D01*
X152731338Y-81231672D01*
X152744091Y-81197483D01*
X152750500Y-81137873D01*
X152750499Y-80142128D01*
X152744091Y-80082517D01*
X152731340Y-80048332D01*
X152726357Y-79978642D01*
X152731338Y-79961672D01*
X152744091Y-79927483D01*
X152750500Y-79867873D01*
X152750499Y-79167844D01*
X156595000Y-79167844D01*
X156601401Y-79227372D01*
X156601403Y-79227379D01*
X156651645Y-79362086D01*
X156651649Y-79362093D01*
X156737809Y-79477187D01*
X156737812Y-79477190D01*
X156852906Y-79563350D01*
X156852913Y-79563354D01*
X156987620Y-79613596D01*
X156987627Y-79613598D01*
X157047155Y-79619999D01*
X157047172Y-79620000D01*
X157245000Y-79620000D01*
X157745000Y-79620000D01*
X157942828Y-79620000D01*
X157942844Y-79619999D01*
X158002371Y-79613598D01*
X158076666Y-79585888D01*
X158146358Y-79580904D01*
X158163334Y-79585888D01*
X158237628Y-79613598D01*
X158237627Y-79613598D01*
X158297155Y-79619999D01*
X158297172Y-79620000D01*
X158495000Y-79620000D01*
X158995000Y-79620000D01*
X159192828Y-79620000D01*
X159192844Y-79619999D01*
X159252371Y-79613598D01*
X159326666Y-79585888D01*
X159396358Y-79580904D01*
X159413334Y-79585888D01*
X159487628Y-79613598D01*
X159487627Y-79613598D01*
X159547155Y-79619999D01*
X159547172Y-79620000D01*
X159745000Y-79620000D01*
X160245000Y-79620000D01*
X160442828Y-79620000D01*
X160442844Y-79619999D01*
X160502372Y-79613598D01*
X160502379Y-79613596D01*
X160637086Y-79563354D01*
X160637093Y-79563350D01*
X160752187Y-79477190D01*
X160752190Y-79477187D01*
X160838350Y-79362093D01*
X160838354Y-79362086D01*
X160888596Y-79227379D01*
X160888598Y-79227372D01*
X160894999Y-79167844D01*
X160895000Y-79167827D01*
X160895000Y-78970000D01*
X160245000Y-78970000D01*
X160245000Y-79620000D01*
X159745000Y-79620000D01*
X159745000Y-78970000D01*
X158995000Y-78970000D01*
X158995000Y-79620000D01*
X158495000Y-79620000D01*
X158495000Y-78970000D01*
X157745000Y-78970000D01*
X157745000Y-79620000D01*
X157245000Y-79620000D01*
X157245000Y-78970000D01*
X156595000Y-78970000D01*
X156595000Y-79167844D01*
X152750499Y-79167844D01*
X152750499Y-78872128D01*
X152744091Y-78812517D01*
X152726749Y-78766022D01*
X152724840Y-78753022D01*
X152727949Y-78730913D01*
X152726357Y-78708642D01*
X152731338Y-78691672D01*
X152744091Y-78657483D01*
X152750500Y-78597873D01*
X152750499Y-77917844D01*
X156595000Y-77917844D01*
X156601401Y-77977372D01*
X156601403Y-77977382D01*
X156629110Y-78051668D01*
X156634094Y-78121359D01*
X156629110Y-78138332D01*
X156601403Y-78212617D01*
X156601401Y-78212627D01*
X156595000Y-78272155D01*
X156595000Y-78470000D01*
X157245000Y-78470000D01*
X157745000Y-78470000D01*
X158495000Y-78470000D01*
X158995000Y-78470000D01*
X159745000Y-78470000D01*
X160245000Y-78470000D01*
X160895000Y-78470000D01*
X160895000Y-78272172D01*
X160894999Y-78272155D01*
X160888598Y-78212628D01*
X160860888Y-78138334D01*
X160855904Y-78068642D01*
X160860888Y-78051666D01*
X160888598Y-77977371D01*
X160894999Y-77917844D01*
X160895000Y-77917827D01*
X160895000Y-77720000D01*
X160245000Y-77720000D01*
X160245000Y-78470000D01*
X159745000Y-78470000D01*
X159745000Y-77720000D01*
X158995000Y-77720000D01*
X158995000Y-78470000D01*
X158495000Y-78470000D01*
X158495000Y-77720000D01*
X157745000Y-77720000D01*
X157745000Y-78470000D01*
X157245000Y-78470000D01*
X157245000Y-77720000D01*
X156595000Y-77720000D01*
X156595000Y-77917844D01*
X152750499Y-77917844D01*
X152750499Y-77602128D01*
X152744091Y-77542517D01*
X152726439Y-77495189D01*
X152724597Y-77481284D01*
X152727888Y-77460062D01*
X152726357Y-77438642D01*
X152731340Y-77421669D01*
X152744091Y-77387483D01*
X152750500Y-77327873D01*
X152750499Y-76667844D01*
X156595000Y-76667844D01*
X156601401Y-76727372D01*
X156601403Y-76727382D01*
X156629110Y-76801668D01*
X156634094Y-76871359D01*
X156629110Y-76888332D01*
X156601403Y-76962617D01*
X156601401Y-76962627D01*
X156595000Y-77022155D01*
X156595000Y-77220000D01*
X157245000Y-77220000D01*
X157745000Y-77220000D01*
X158495000Y-77220000D01*
X158995000Y-77220000D01*
X159745000Y-77220000D01*
X160245000Y-77220000D01*
X160895000Y-77220000D01*
X160895000Y-77022172D01*
X160894999Y-77022155D01*
X160888598Y-76962628D01*
X160860888Y-76888334D01*
X160855904Y-76818642D01*
X160860888Y-76801666D01*
X160888598Y-76727371D01*
X160894999Y-76667844D01*
X160895000Y-76667827D01*
X160895000Y-76470000D01*
X160245000Y-76470000D01*
X160245000Y-77220000D01*
X159745000Y-77220000D01*
X159745000Y-76470000D01*
X158995000Y-76470000D01*
X158995000Y-77220000D01*
X158495000Y-77220000D01*
X158495000Y-76470000D01*
X157745000Y-76470000D01*
X157745000Y-77220000D01*
X157245000Y-77220000D01*
X157245000Y-76470000D01*
X156595000Y-76470000D01*
X156595000Y-76667844D01*
X152750499Y-76667844D01*
X152750499Y-76332128D01*
X152744091Y-76272517D01*
X152726182Y-76224501D01*
X152724415Y-76209850D01*
X152727838Y-76189360D01*
X152726357Y-76168642D01*
X152731340Y-76151669D01*
X152744091Y-76117483D01*
X152750500Y-76057873D01*
X152750499Y-75772155D01*
X156595000Y-75772155D01*
X156595000Y-75970000D01*
X157245000Y-75970000D01*
X157745000Y-75970000D01*
X158495000Y-75970000D01*
X158995000Y-75970000D01*
X159745000Y-75970000D01*
X160245000Y-75970000D01*
X160895000Y-75970000D01*
X160895000Y-75772172D01*
X160894999Y-75772155D01*
X160888598Y-75712627D01*
X160888596Y-75712620D01*
X160838354Y-75577913D01*
X160838350Y-75577906D01*
X160752190Y-75462812D01*
X160752187Y-75462809D01*
X160637093Y-75376649D01*
X160637086Y-75376645D01*
X160502379Y-75326403D01*
X160502372Y-75326401D01*
X160442844Y-75320000D01*
X160245000Y-75320000D01*
X160245000Y-75970000D01*
X159745000Y-75970000D01*
X159745000Y-75320000D01*
X159547155Y-75320000D01*
X159487627Y-75326401D01*
X159487617Y-75326403D01*
X159413332Y-75354110D01*
X159343641Y-75359094D01*
X159326668Y-75354110D01*
X159252382Y-75326403D01*
X159252372Y-75326401D01*
X159192844Y-75320000D01*
X158995000Y-75320000D01*
X158995000Y-75970000D01*
X158495000Y-75970000D01*
X158495000Y-75320000D01*
X158297155Y-75320000D01*
X158237627Y-75326401D01*
X158237617Y-75326403D01*
X158163332Y-75354110D01*
X158093641Y-75359094D01*
X158076668Y-75354110D01*
X158002382Y-75326403D01*
X158002372Y-75326401D01*
X157942844Y-75320000D01*
X157745000Y-75320000D01*
X157745000Y-75970000D01*
X157245000Y-75970000D01*
X157245000Y-75320000D01*
X157047155Y-75320000D01*
X156987627Y-75326401D01*
X156987620Y-75326403D01*
X156852913Y-75376645D01*
X156852906Y-75376649D01*
X156737812Y-75462809D01*
X156737809Y-75462812D01*
X156651649Y-75577906D01*
X156651645Y-75577913D01*
X156601403Y-75712620D01*
X156601401Y-75712627D01*
X156595000Y-75772155D01*
X152750499Y-75772155D01*
X152750499Y-75559690D01*
X152750499Y-75062129D01*
X152750498Y-75062123D01*
X152750497Y-75062116D01*
X152746804Y-75027753D01*
X152759211Y-74958994D01*
X152806822Y-74907857D01*
X152870094Y-74890500D01*
X154123331Y-74890500D01*
X154123347Y-74890501D01*
X154130943Y-74890501D01*
X154289054Y-74890501D01*
X154289057Y-74890501D01*
X154441785Y-74849577D01*
X154507500Y-74811636D01*
X154578716Y-74770520D01*
X154690520Y-74658716D01*
X154690520Y-74658714D01*
X154700724Y-74648511D01*
X154700727Y-74648506D01*
X155014664Y-74334570D01*
X155075984Y-74301088D01*
X155078151Y-74300637D01*
X155078840Y-74300500D01*
X155078842Y-74300500D01*
X155233497Y-74269737D01*
X155379179Y-74209394D01*
X155510289Y-74121789D01*
X155621789Y-74010289D01*
X155709394Y-73879179D01*
X155769737Y-73733497D01*
X155800500Y-73578842D01*
X155800500Y-73421158D01*
X155800500Y-73421155D01*
X155800499Y-73421153D01*
X155790069Y-73368717D01*
X155769737Y-73266503D01*
X155769735Y-73266498D01*
X155709397Y-73120827D01*
X155709390Y-73120814D01*
X155621789Y-72989711D01*
X155621786Y-72989707D01*
X155510292Y-72878213D01*
X155510288Y-72878210D01*
X155379185Y-72790609D01*
X155379172Y-72790602D01*
X155233501Y-72730264D01*
X155233489Y-72730261D01*
X155078845Y-72699500D01*
X155078842Y-72699500D01*
X154921158Y-72699500D01*
X154921155Y-72699500D01*
X154766510Y-72730261D01*
X154766498Y-72730264D01*
X154620827Y-72790602D01*
X154620814Y-72790609D01*
X154489711Y-72878210D01*
X154489707Y-72878213D01*
X154378213Y-72989707D01*
X154378210Y-72989711D01*
X154290609Y-73120814D01*
X154290602Y-73120827D01*
X154230264Y-73266498D01*
X154230261Y-73266508D01*
X154199362Y-73421849D01*
X154190596Y-73438605D01*
X154186577Y-73457084D01*
X154167830Y-73482126D01*
X154166977Y-73483759D01*
X154165472Y-73485291D01*
X153997582Y-73653182D01*
X153936261Y-73686666D01*
X153909903Y-73689500D01*
X152870094Y-73689500D01*
X152803055Y-73669815D01*
X152757300Y-73617011D01*
X152746804Y-73552246D01*
X152750500Y-73517873D01*
X152750499Y-72522128D01*
X152744091Y-72462517D01*
X152731073Y-72427616D01*
X152726090Y-72357926D01*
X152731075Y-72340949D01*
X152743597Y-72307375D01*
X152743598Y-72307372D01*
X152749999Y-72247844D01*
X152750000Y-72247827D01*
X152750000Y-72000000D01*
X150250000Y-72000000D01*
X150250000Y-72247839D01*
X150253700Y-72282242D01*
X150241296Y-72351002D01*
X150193687Y-72402140D01*
X150130411Y-72419500D01*
X147724500Y-72419500D01*
X147657461Y-72399815D01*
X147611706Y-72347011D01*
X147600500Y-72295500D01*
X147600500Y-71252155D01*
X150250000Y-71252155D01*
X150250000Y-71500000D01*
X151250000Y-71500000D01*
X151750000Y-71500000D01*
X152750000Y-71500000D01*
X152750000Y-71252172D01*
X152749999Y-71252155D01*
X167750000Y-71252155D01*
X167750000Y-71500000D01*
X168750000Y-71500000D01*
X169250000Y-71500000D01*
X170250000Y-71500000D01*
X170250000Y-71252172D01*
X170249999Y-71252155D01*
X170243598Y-71192627D01*
X170243596Y-71192620D01*
X170193354Y-71057913D01*
X170193350Y-71057906D01*
X170107190Y-70942812D01*
X170107187Y-70942809D01*
X169992093Y-70856649D01*
X169992086Y-70856645D01*
X169857379Y-70806403D01*
X169857372Y-70806401D01*
X169797844Y-70800000D01*
X169250000Y-70800000D01*
X169250000Y-71500000D01*
X168750000Y-71500000D01*
X168750000Y-70800000D01*
X168202155Y-70800000D01*
X168142627Y-70806401D01*
X168142620Y-70806403D01*
X168007913Y-70856645D01*
X168007906Y-70856649D01*
X167892812Y-70942809D01*
X167892809Y-70942812D01*
X167806649Y-71057906D01*
X167806645Y-71057913D01*
X167756403Y-71192620D01*
X167756401Y-71192627D01*
X167750000Y-71252155D01*
X152749999Y-71252155D01*
X152743598Y-71192627D01*
X152743596Y-71192620D01*
X152693354Y-71057913D01*
X152693350Y-71057906D01*
X152607190Y-70942812D01*
X152607187Y-70942809D01*
X152492093Y-70856649D01*
X152492086Y-70856645D01*
X152357379Y-70806403D01*
X152357372Y-70806401D01*
X152297844Y-70800000D01*
X151750000Y-70800000D01*
X151750000Y-71500000D01*
X151250000Y-71500000D01*
X151250000Y-70800000D01*
X150702155Y-70800000D01*
X150642627Y-70806401D01*
X150642620Y-70806403D01*
X150507913Y-70856645D01*
X150507906Y-70856649D01*
X150392812Y-70942809D01*
X150392809Y-70942812D01*
X150306649Y-71057906D01*
X150306645Y-71057913D01*
X150256403Y-71192620D01*
X150256401Y-71192627D01*
X150250000Y-71252155D01*
X147600500Y-71252155D01*
X147600500Y-69588585D01*
X147620185Y-69521546D01*
X147672989Y-69475791D01*
X147685489Y-69470881D01*
X147794334Y-69434814D01*
X147943656Y-69342712D01*
X148067712Y-69218656D01*
X148159814Y-69069334D01*
X148214999Y-68902797D01*
X148225500Y-68800009D01*
X148225499Y-68199992D01*
X148214999Y-68097203D01*
X148159814Y-67930666D01*
X148067712Y-67781344D01*
X147943656Y-67657288D01*
X147940342Y-67655243D01*
X147938546Y-67653248D01*
X147937989Y-67652807D01*
X147938064Y-67652711D01*
X147893618Y-67603297D01*
X147882397Y-67534334D01*
X147910240Y-67470252D01*
X147940348Y-67444165D01*
X147943342Y-67442318D01*
X148067315Y-67318345D01*
X148159356Y-67169124D01*
X148159358Y-67169119D01*
X148214505Y-67002697D01*
X148214506Y-67002690D01*
X148224999Y-66899986D01*
X148225000Y-66899973D01*
X148225000Y-66850000D01*
X147124000Y-66850000D01*
X147056961Y-66830315D01*
X147011206Y-66777511D01*
X147000000Y-66726000D01*
X147000000Y-66600000D01*
X146874000Y-66600000D01*
X146806961Y-66580315D01*
X146761206Y-66527511D01*
X146750000Y-66476000D01*
X146750000Y-66350000D01*
X147250000Y-66350000D01*
X148224999Y-66350000D01*
X148224999Y-66300028D01*
X148224998Y-66300013D01*
X148214505Y-66197302D01*
X148159358Y-66030880D01*
X148159356Y-66030875D01*
X148067315Y-65881654D01*
X147943345Y-65757684D01*
X147794124Y-65665643D01*
X147794119Y-65665641D01*
X147627697Y-65610494D01*
X147627690Y-65610493D01*
X147524986Y-65600000D01*
X147250000Y-65600000D01*
X147250000Y-66350000D01*
X146750000Y-66350000D01*
X146750000Y-65600000D01*
X146475029Y-65600000D01*
X146475012Y-65600001D01*
X146372301Y-65610494D01*
X146263503Y-65646546D01*
X146193675Y-65648948D01*
X146133633Y-65613216D01*
X146102441Y-65550695D01*
X146100500Y-65528840D01*
X146100500Y-64224500D01*
X146120185Y-64157461D01*
X146172989Y-64111706D01*
X146224500Y-64100500D01*
X151126000Y-64100500D01*
X151193039Y-64120185D01*
X151238794Y-64172989D01*
X151250000Y-64224500D01*
X151250000Y-64260000D01*
X151250000Y-70260000D01*
X169250000Y-70260000D01*
X169250000Y-66913389D01*
X172899500Y-66913389D01*
X172899500Y-67086611D01*
X172926598Y-67257701D01*
X172980127Y-67422445D01*
X173058768Y-67576788D01*
X173160586Y-67716928D01*
X173283072Y-67839414D01*
X173423212Y-67941232D01*
X173577555Y-68019873D01*
X173742299Y-68073402D01*
X173913389Y-68100500D01*
X173913390Y-68100500D01*
X174086610Y-68100500D01*
X174086611Y-68100500D01*
X174257701Y-68073402D01*
X174422445Y-68019873D01*
X174576788Y-67941232D01*
X174716928Y-67839414D01*
X174839414Y-67716928D01*
X174941232Y-67576788D01*
X175019873Y-67422445D01*
X175073402Y-67257701D01*
X175100500Y-67086611D01*
X175100500Y-66913389D01*
X175073402Y-66742299D01*
X175019873Y-66577555D01*
X174941232Y-66423212D01*
X174839414Y-66283072D01*
X174716928Y-66160586D01*
X174576788Y-66058768D01*
X174422445Y-65980127D01*
X174257701Y-65926598D01*
X174257699Y-65926597D01*
X174257698Y-65926597D01*
X174126271Y-65905781D01*
X174086611Y-65899500D01*
X173913389Y-65899500D01*
X173873728Y-65905781D01*
X173742302Y-65926597D01*
X173577552Y-65980128D01*
X173423211Y-66058768D01*
X173356868Y-66106970D01*
X173283072Y-66160586D01*
X173283070Y-66160588D01*
X173283069Y-66160588D01*
X173160588Y-66283069D01*
X173160588Y-66283070D01*
X173160586Y-66283072D01*
X173128812Y-66326805D01*
X173058768Y-66423211D01*
X172980128Y-66577552D01*
X172980127Y-66577554D01*
X172980127Y-66577555D01*
X172958660Y-66643623D01*
X172926597Y-66742302D01*
X172903917Y-66885500D01*
X172899500Y-66913389D01*
X169250000Y-66913389D01*
X169250000Y-64260000D01*
X158307416Y-64260000D01*
X158240377Y-64240315D01*
X158194622Y-64187511D01*
X158184678Y-64118353D01*
X158213703Y-64054797D01*
X158245417Y-64028613D01*
X158328709Y-63980524D01*
X158328708Y-63980524D01*
X158328716Y-63980520D01*
X158440520Y-63868716D01*
X158519577Y-63731784D01*
X158560500Y-63579057D01*
X158560500Y-63355718D01*
X158580185Y-63288679D01*
X158628207Y-63245233D01*
X158667815Y-63225052D01*
X158667815Y-63225051D01*
X158667816Y-63225051D01*
X158796868Y-63131290D01*
X158839786Y-63100109D01*
X158839788Y-63100106D01*
X158839792Y-63100104D01*
X158990104Y-62949792D01*
X158990106Y-62949788D01*
X158990109Y-62949786D01*
X159115048Y-62777820D01*
X159115047Y-62777820D01*
X159115051Y-62777816D01*
X159119514Y-62769054D01*
X159167488Y-62718259D01*
X159235308Y-62701463D01*
X159301444Y-62723999D01*
X159340486Y-62769056D01*
X159344951Y-62777820D01*
X159469890Y-62949786D01*
X159620213Y-63100109D01*
X159792179Y-63225048D01*
X159792181Y-63225049D01*
X159792184Y-63225051D01*
X159981588Y-63321557D01*
X160183757Y-63387246D01*
X160393713Y-63420500D01*
X160393714Y-63420500D01*
X160606286Y-63420500D01*
X160606287Y-63420500D01*
X160816243Y-63387246D01*
X161018412Y-63321557D01*
X161207816Y-63225051D01*
X161250669Y-63193917D01*
X161379786Y-63100109D01*
X161379788Y-63100106D01*
X161379792Y-63100104D01*
X161530104Y-62949792D01*
X161530106Y-62949788D01*
X161530109Y-62949786D01*
X161655048Y-62777820D01*
X161655047Y-62777820D01*
X161655051Y-62777816D01*
X161751557Y-62588412D01*
X161817246Y-62386243D01*
X161850500Y-62176287D01*
X161850500Y-61963713D01*
X161817246Y-61753757D01*
X161751557Y-61551588D01*
X161655051Y-61362184D01*
X161655049Y-61362181D01*
X161655048Y-61362179D01*
X161530109Y-61190213D01*
X161379786Y-61039890D01*
X161207820Y-60914951D01*
X161018414Y-60818444D01*
X161018413Y-60818443D01*
X161018412Y-60818443D01*
X160816243Y-60752754D01*
X160816241Y-60752753D01*
X160816240Y-60752753D01*
X160654957Y-60727208D01*
X160606287Y-60719500D01*
X160393713Y-60719500D01*
X160345042Y-60727208D01*
X160183760Y-60752753D01*
X159981585Y-60818444D01*
X159792179Y-60914951D01*
X159620213Y-61039890D01*
X159469890Y-61190213D01*
X159344949Y-61362182D01*
X159340484Y-61370946D01*
X159292509Y-61421742D01*
X159224688Y-61438536D01*
X159158553Y-61415998D01*
X159119516Y-61370946D01*
X159115050Y-61362182D01*
X158990109Y-61190213D01*
X158839786Y-61039890D01*
X158667820Y-60914951D01*
X158478414Y-60818444D01*
X158478413Y-60818443D01*
X158478412Y-60818443D01*
X158276243Y-60752754D01*
X158276241Y-60752753D01*
X158276240Y-60752753D01*
X158114957Y-60727208D01*
X158066287Y-60719500D01*
X157853713Y-60719500D01*
X157805042Y-60727208D01*
X157643760Y-60752753D01*
X157441585Y-60818444D01*
X157252179Y-60914951D01*
X157080215Y-61039889D01*
X156966673Y-61153431D01*
X156905350Y-61186915D01*
X156835658Y-61181931D01*
X156779725Y-61140059D01*
X156762810Y-61109082D01*
X156713797Y-60977671D01*
X156713793Y-60977664D01*
X156627547Y-60862455D01*
X156627544Y-60862452D01*
X156512335Y-60776206D01*
X156512328Y-60776202D01*
X156377482Y-60725908D01*
X156377483Y-60725908D01*
X156317883Y-60719501D01*
X156317881Y-60719500D01*
X156317873Y-60719500D01*
X156317864Y-60719500D01*
X154522129Y-60719500D01*
X154522123Y-60719501D01*
X154462516Y-60725908D01*
X154327671Y-60776202D01*
X154327664Y-60776206D01*
X154212455Y-60862452D01*
X154212452Y-60862455D01*
X154126206Y-60977664D01*
X154126202Y-60977671D01*
X154075908Y-61112517D01*
X154069501Y-61172116D01*
X154069500Y-61172135D01*
X154069501Y-62775500D01*
X154049816Y-62842539D01*
X153997013Y-62888294D01*
X153945501Y-62899500D01*
X145420943Y-62899500D01*
X145268216Y-62940423D01*
X145268209Y-62940426D01*
X145131290Y-63019475D01*
X145131282Y-63019481D01*
X145019481Y-63131282D01*
X145019475Y-63131290D01*
X144940426Y-63268209D01*
X144940423Y-63268216D01*
X144899500Y-63420943D01*
X144899500Y-68913330D01*
X144899499Y-68913348D01*
X144899499Y-69079054D01*
X144899498Y-69079054D01*
X144940424Y-69231789D01*
X144940425Y-69231790D01*
X144959481Y-69264795D01*
X144959482Y-69264796D01*
X145019477Y-69368712D01*
X145019481Y-69368717D01*
X145138349Y-69487585D01*
X145138355Y-69487590D01*
X146363181Y-70712416D01*
X146396666Y-70773739D01*
X146399500Y-70800097D01*
X146399500Y-72913330D01*
X146399499Y-72913348D01*
X146399499Y-73079054D01*
X146399498Y-73079054D01*
X146407576Y-73109200D01*
X146440423Y-73231785D01*
X146451970Y-73251784D01*
X146519480Y-73368716D01*
X146539480Y-73388716D01*
X146651284Y-73500520D01*
X146651285Y-73500521D01*
X146651287Y-73500522D01*
X146703531Y-73530685D01*
X146703534Y-73530686D01*
X146788209Y-73579574D01*
X146788210Y-73579574D01*
X146788215Y-73579577D01*
X146940942Y-73620500D01*
X146940943Y-73620500D01*
X150129906Y-73620500D01*
X150196945Y-73640185D01*
X150242700Y-73692989D01*
X150253195Y-73757752D01*
X150249500Y-73792127D01*
X150249500Y-73792131D01*
X150249500Y-73792132D01*
X150249500Y-74787870D01*
X150249501Y-74787876D01*
X150255908Y-74847481D01*
X150268659Y-74881669D01*
X150273642Y-74951361D01*
X150268659Y-74968331D01*
X150255908Y-75002518D01*
X150252074Y-75038182D01*
X150249501Y-75062123D01*
X150249500Y-75062135D01*
X150249500Y-75582351D01*
X150229815Y-75649390D01*
X150177011Y-75695145D01*
X150107853Y-75705089D01*
X150101310Y-75703969D01*
X150078842Y-75699500D01*
X149921158Y-75699500D01*
X149921155Y-75699500D01*
X149766510Y-75730261D01*
X149766498Y-75730264D01*
X149620827Y-75790602D01*
X149620814Y-75790609D01*
X149489711Y-75878210D01*
X149489707Y-75878213D01*
X149378213Y-75989707D01*
X149378210Y-75989711D01*
X149290609Y-76120814D01*
X149290602Y-76120827D01*
X149230264Y-76266498D01*
X149230261Y-76266510D01*
X149199500Y-76421153D01*
X149199500Y-76540902D01*
X149179815Y-76607941D01*
X149127011Y-76653696D01*
X149057853Y-76663640D01*
X148994297Y-76634615D01*
X148987819Y-76628583D01*
X148356818Y-75997582D01*
X148323333Y-75936259D01*
X148320499Y-75909901D01*
X148320499Y-75790831D01*
X148320498Y-75790806D01*
X148319032Y-75772172D01*
X148317665Y-75754796D01*
X148272869Y-75600607D01*
X148191135Y-75462402D01*
X148191133Y-75462400D01*
X148191130Y-75462396D01*
X148136819Y-75408085D01*
X148103334Y-75346762D01*
X148100500Y-75320404D01*
X148100500Y-74920945D01*
X148100500Y-74920943D01*
X148059577Y-74768216D01*
X148011844Y-74685539D01*
X147980524Y-74631290D01*
X147980518Y-74631282D01*
X147868717Y-74519481D01*
X147868709Y-74519475D01*
X147731790Y-74440426D01*
X147731786Y-74440424D01*
X147731784Y-74440423D01*
X147579057Y-74399500D01*
X147579056Y-74399500D01*
X144724500Y-74399500D01*
X144657461Y-74379815D01*
X144611706Y-74327011D01*
X144600500Y-74275500D01*
X144600500Y-66365117D01*
X144600501Y-66365104D01*
X144600501Y-66197003D01*
X144600501Y-66197001D01*
X144559577Y-66044273D01*
X144522542Y-65980127D01*
X144480520Y-65907342D01*
X144368716Y-65795538D01*
X144368715Y-65795537D01*
X144364385Y-65791207D01*
X144364374Y-65791197D01*
X142961532Y-64388355D01*
X142961530Y-64388352D01*
X142842659Y-64269481D01*
X142842658Y-64269480D01*
X142755846Y-64219360D01*
X142755846Y-64219359D01*
X142755842Y-64219358D01*
X142705727Y-64190423D01*
X142552999Y-64149499D01*
X142552996Y-64149499D01*
X142545105Y-64149499D01*
X142499616Y-64140854D01*
X142492473Y-64138037D01*
X142458931Y-64124810D01*
X142373078Y-64114500D01*
X141596922Y-64114500D01*
X141532532Y-64122232D01*
X141511067Y-64124810D01*
X141374450Y-64178685D01*
X141374444Y-64178688D01*
X141257426Y-64267426D01*
X141168688Y-64384444D01*
X141168685Y-64384450D01*
X141114810Y-64521067D01*
X141114810Y-64521069D01*
X141104500Y-64606922D01*
X141104500Y-64606928D01*
X141104500Y-64893076D01*
X141107803Y-64920590D01*
X141105874Y-64932092D01*
X141108422Y-64943475D01*
X141100201Y-64965924D01*
X141096249Y-64989498D01*
X141088408Y-64998131D01*
X141084398Y-65009084D01*
X141065346Y-65023524D01*
X141049276Y-65041220D01*
X141038011Y-65044244D01*
X141028716Y-65051290D01*
X141004880Y-65053138D01*
X140981795Y-65059336D01*
X140970684Y-65055790D01*
X140959056Y-65056692D01*
X140938008Y-65045362D01*
X140915233Y-65038094D01*
X140906233Y-65028258D01*
X140897533Y-65023575D01*
X140886091Y-65006244D01*
X140876213Y-64995448D01*
X140872300Y-64988384D01*
X140831313Y-64884447D01*
X140769831Y-64803370D01*
X140765526Y-64795597D01*
X140759757Y-64769822D01*
X140750373Y-64745131D01*
X140750000Y-64735519D01*
X140750000Y-64278045D01*
X140749999Y-64278044D01*
X140742222Y-64267789D01*
X140742215Y-64267782D01*
X140625308Y-64179128D01*
X140625306Y-64179127D01*
X140488811Y-64125301D01*
X140488809Y-64125300D01*
X140403035Y-64115000D01*
X140150000Y-64115000D01*
X140150000Y-64490500D01*
X140147449Y-64499185D01*
X140148738Y-64508147D01*
X140137759Y-64532187D01*
X140130315Y-64557539D01*
X140123474Y-64563466D01*
X140119713Y-64571703D01*
X140097478Y-64585992D01*
X140077511Y-64603294D01*
X140066996Y-64605581D01*
X140060935Y-64609477D01*
X140026000Y-64614500D01*
X140004000Y-64614500D01*
X139936961Y-64594815D01*
X139891206Y-64542011D01*
X139880000Y-64490500D01*
X139880000Y-64115000D01*
X139626972Y-64115000D01*
X139541190Y-64125300D01*
X139404693Y-64179127D01*
X139404691Y-64179128D01*
X139326425Y-64238479D01*
X139261113Y-64263302D01*
X139192749Y-64248874D01*
X139143038Y-64199776D01*
X139127500Y-64139675D01*
X139127500Y-62294729D01*
X139127499Y-62294725D01*
X139103386Y-62173498D01*
X139058412Y-62064925D01*
X139056764Y-62060319D01*
X138987414Y-61956529D01*
X138987413Y-61956527D01*
X138962540Y-61931654D01*
X138900008Y-61869122D01*
X137750386Y-60719500D01*
X136543478Y-59512591D01*
X136543474Y-59512588D01*
X136440706Y-59443920D01*
X136440693Y-59443913D01*
X136407252Y-59430062D01*
X136326502Y-59396614D01*
X136326494Y-59396612D01*
X136205274Y-59372500D01*
X136205270Y-59372500D01*
X127061803Y-59372500D01*
X126938197Y-59372500D01*
X126938195Y-59372500D01*
X126816970Y-59396613D01*
X126816960Y-59396616D01*
X126702773Y-59443913D01*
X126702760Y-59443920D01*
X126599992Y-59512588D01*
X126599988Y-59512591D01*
X126512591Y-59599988D01*
X126512588Y-59599992D01*
X126443920Y-59702760D01*
X126443913Y-59702773D01*
X126396616Y-59816960D01*
X126396613Y-59816970D01*
X126372500Y-59938194D01*
X126372500Y-65561807D01*
X126396612Y-65683028D01*
X126396613Y-65683032D01*
X126396614Y-65683035D01*
X126400010Y-65691233D01*
X126416312Y-65730590D01*
X126416314Y-65730593D01*
X126419138Y-65737411D01*
X126443917Y-65797233D01*
X126502895Y-65885500D01*
X126505554Y-65889480D01*
X126505555Y-65889481D01*
X126512590Y-65900010D01*
X126512591Y-65900011D01*
X127512589Y-66900008D01*
X127570570Y-66957989D01*
X127599994Y-66987413D01*
X127599996Y-66987414D01*
X127702756Y-67056076D01*
X127702758Y-67056077D01*
X127702767Y-67056083D01*
X127727772Y-67066440D01*
X127750071Y-67075677D01*
X127792254Y-67093149D01*
X127816966Y-67103386D01*
X127938192Y-67127499D01*
X127938196Y-67127500D01*
X127938197Y-67127500D01*
X131061804Y-67127500D01*
X131061805Y-67127499D01*
X131183035Y-67103386D01*
X131263784Y-67069937D01*
X131297233Y-67056083D01*
X131400008Y-66987411D01*
X131487411Y-66900008D01*
X131722411Y-66665008D01*
X131735931Y-66644774D01*
X131791083Y-66562233D01*
X131838385Y-66448035D01*
X131852356Y-66377799D01*
X131862500Y-66326805D01*
X131862500Y-65881498D01*
X131882185Y-65814459D01*
X131930206Y-65771013D01*
X131932440Y-65769874D01*
X131932445Y-65769873D01*
X132086788Y-65691232D01*
X132226928Y-65589414D01*
X132349414Y-65466928D01*
X132451232Y-65326788D01*
X132529873Y-65172445D01*
X132583402Y-65007701D01*
X132610500Y-64836611D01*
X132610500Y-64747281D01*
X132630185Y-64680242D01*
X132682989Y-64634487D01*
X132752147Y-64624543D01*
X132815703Y-64653568D01*
X132822181Y-64659600D01*
X133763181Y-65600600D01*
X133796666Y-65661923D01*
X133799500Y-65688281D01*
X133799500Y-66275001D01*
X133799501Y-66275019D01*
X133810000Y-66377796D01*
X133810001Y-66377799D01*
X133843514Y-66478932D01*
X133865186Y-66544334D01*
X133957288Y-66693656D01*
X134081344Y-66817712D01*
X134191597Y-66885716D01*
X134238321Y-66937662D01*
X134250500Y-66991254D01*
X134250500Y-72264330D01*
X134250499Y-72264348D01*
X134250499Y-72430054D01*
X134250498Y-72430054D01*
X134291424Y-72582789D01*
X134291425Y-72582790D01*
X134312608Y-72619479D01*
X134312609Y-72619481D01*
X134370475Y-72719709D01*
X134370481Y-72719717D01*
X134489349Y-72838585D01*
X134489355Y-72838590D01*
X134964084Y-73313319D01*
X134997569Y-73374642D01*
X134992585Y-73444334D01*
X134950713Y-73500267D01*
X134885249Y-73524684D01*
X134876403Y-73525000D01*
X134856946Y-73525000D01*
X134768556Y-73535613D01*
X134627904Y-73591079D01*
X134507431Y-73682437D01*
X134503707Y-73687349D01*
X134447513Y-73728870D01*
X134377791Y-73733418D01*
X134316679Y-73699550D01*
X134285831Y-73647014D01*
X134272407Y-73600811D01*
X134272406Y-73600808D01*
X134190738Y-73462714D01*
X134190731Y-73462705D01*
X134077294Y-73349268D01*
X134077285Y-73349261D01*
X133939191Y-73267593D01*
X133939188Y-73267592D01*
X133785130Y-73222834D01*
X133750000Y-73220068D01*
X133750000Y-73866000D01*
X133730315Y-73933039D01*
X133677511Y-73978794D01*
X133626000Y-73990000D01*
X133374000Y-73990000D01*
X133306961Y-73970315D01*
X133261206Y-73917511D01*
X133250000Y-73866000D01*
X133250000Y-73220068D01*
X133249999Y-73220068D01*
X133214869Y-73222834D01*
X133214868Y-73222834D01*
X133060811Y-73267592D01*
X133060808Y-73267593D01*
X132922714Y-73349261D01*
X132922704Y-73349269D01*
X132877179Y-73394794D01*
X132815856Y-73428278D01*
X132746164Y-73423293D01*
X132690231Y-73381421D01*
X132665815Y-73315957D01*
X132665499Y-73307112D01*
X132665499Y-73109191D01*
X132659178Y-73039623D01*
X132659176Y-73039616D01*
X132636835Y-72967922D01*
X132609291Y-72879529D01*
X132567294Y-72810057D01*
X132549459Y-72742505D01*
X132567296Y-72681759D01*
X132608018Y-72614398D01*
X132608020Y-72614393D01*
X132658590Y-72452106D01*
X132665000Y-72381572D01*
X132665000Y-72375000D01*
X130465001Y-72375000D01*
X130465001Y-72381582D01*
X130471408Y-72452102D01*
X130471409Y-72452107D01*
X130515503Y-72593609D01*
X130516655Y-72663470D01*
X130479854Y-72722862D01*
X130416785Y-72752930D01*
X130397118Y-72754500D01*
X126231669Y-72754500D01*
X126231653Y-72754499D01*
X126224057Y-72754499D01*
X126065943Y-72754499D01*
X125989579Y-72774961D01*
X125913212Y-72795423D01*
X125913211Y-72795424D01*
X125878440Y-72815500D01*
X125776287Y-72874477D01*
X125776282Y-72874481D01*
X125519481Y-73131282D01*
X125519479Y-73131285D01*
X125515975Y-73137355D01*
X125479518Y-73200501D01*
X125468221Y-73220068D01*
X125441409Y-73266508D01*
X125440423Y-73268215D01*
X125399499Y-73420943D01*
X125399499Y-73420945D01*
X125399499Y-73589046D01*
X125399500Y-73589059D01*
X125399500Y-76790243D01*
X125397395Y-76811606D01*
X125397313Y-76813427D01*
X125396661Y-76816850D01*
X125396614Y-76816965D01*
X125372500Y-76938197D01*
X123500500Y-76938197D01*
X123500500Y-70305000D01*
X126364157Y-70305000D01*
X127218012Y-70305000D01*
X127200795Y-70314940D01*
X127144940Y-70370795D01*
X127105444Y-70439204D01*
X127085000Y-70515504D01*
X127085000Y-70594496D01*
X127105444Y-70670796D01*
X127144940Y-70739205D01*
X127200795Y-70795060D01*
X127218012Y-70805000D01*
X126364157Y-70805000D01*
X126375350Y-70861274D01*
X126375351Y-70861276D01*
X126454500Y-71052358D01*
X126454505Y-71052368D01*
X126569410Y-71224335D01*
X126569413Y-71224339D01*
X126715660Y-71370586D01*
X126715664Y-71370589D01*
X126887631Y-71485494D01*
X126887641Y-71485499D01*
X127078725Y-71564649D01*
X127078733Y-71564651D01*
X127281579Y-71604999D01*
X127281583Y-71605000D01*
X127435000Y-71605000D01*
X127435000Y-70855000D01*
X127935000Y-70855000D01*
X127935000Y-71605000D01*
X128088417Y-71605000D01*
X128088420Y-71604999D01*
X128291266Y-71564651D01*
X128291274Y-71564649D01*
X128482358Y-71485499D01*
X128482368Y-71485494D01*
X128654335Y-71370589D01*
X128654339Y-71370586D01*
X128800586Y-71224339D01*
X128800589Y-71224335D01*
X128915494Y-71052368D01*
X128915499Y-71052358D01*
X128994648Y-70861276D01*
X128994649Y-70861274D01*
X129005843Y-70805000D01*
X128151988Y-70805000D01*
X128169205Y-70795060D01*
X128225060Y-70739205D01*
X128264556Y-70670796D01*
X128285000Y-70594496D01*
X128285000Y-70515504D01*
X128264556Y-70439204D01*
X128225060Y-70370795D01*
X128169205Y-70314940D01*
X128151988Y-70305000D01*
X129005843Y-70305000D01*
X130164157Y-70305000D01*
X131018012Y-70305000D01*
X131000795Y-70314940D01*
X130944940Y-70370795D01*
X130905444Y-70439204D01*
X130885000Y-70515504D01*
X130885000Y-70594496D01*
X130905444Y-70670796D01*
X130944940Y-70739205D01*
X131000795Y-70795060D01*
X131018012Y-70805000D01*
X130164157Y-70805000D01*
X130175350Y-70861274D01*
X130175351Y-70861276D01*
X130254500Y-71052358D01*
X130254505Y-71052368D01*
X130369410Y-71224335D01*
X130369413Y-71224339D01*
X130515659Y-71370585D01*
X130535741Y-71384003D01*
X130580547Y-71437615D01*
X130589256Y-71506940D01*
X130572969Y-71551256D01*
X130521982Y-71635599D01*
X130521980Y-71635603D01*
X130471409Y-71797893D01*
X130465000Y-71868427D01*
X130465000Y-71875000D01*
X131315000Y-71875000D01*
X131315000Y-71735000D01*
X131296709Y-71716709D01*
X131291961Y-71715315D01*
X131246206Y-71662511D01*
X131235000Y-71611000D01*
X131235000Y-70855000D01*
X131735000Y-70855000D01*
X131735000Y-71095000D01*
X131753290Y-71113290D01*
X131758039Y-71114685D01*
X131803794Y-71167489D01*
X131815000Y-71219000D01*
X131815000Y-71875000D01*
X132664999Y-71875000D01*
X132664999Y-71868417D01*
X132658591Y-71797897D01*
X132658590Y-71797892D01*
X132608018Y-71635603D01*
X132520072Y-71490122D01*
X132515118Y-71485168D01*
X132481633Y-71423845D01*
X132486617Y-71354153D01*
X132515119Y-71309805D01*
X132600586Y-71224339D01*
X132600589Y-71224335D01*
X132715494Y-71052368D01*
X132715499Y-71052358D01*
X132794649Y-70861274D01*
X132831789Y-70674556D01*
X132864174Y-70612644D01*
X132924890Y-70578070D01*
X132994659Y-70581809D01*
X133051331Y-70622675D01*
X133071113Y-70659742D01*
X133115641Y-70794119D01*
X133115643Y-70794124D01*
X133207684Y-70943345D01*
X133331654Y-71067315D01*
X133480875Y-71159356D01*
X133480880Y-71159358D01*
X133647302Y-71214505D01*
X133647309Y-71214506D01*
X133750019Y-71224999D01*
X133799999Y-71224998D01*
X133800000Y-71224998D01*
X133800000Y-70250000D01*
X133050001Y-70250000D01*
X133050001Y-70273469D01*
X133030316Y-70340508D01*
X132977512Y-70386263D01*
X132908354Y-70396207D01*
X132844798Y-70367182D01*
X132807024Y-70308404D01*
X132804384Y-70297660D01*
X132794651Y-70248733D01*
X132794649Y-70248725D01*
X132715499Y-70057641D01*
X132715494Y-70057631D01*
X132600589Y-69885664D01*
X132600586Y-69885660D01*
X132454339Y-69739413D01*
X132454335Y-69739410D01*
X132282368Y-69624505D01*
X132282358Y-69624500D01*
X132190437Y-69586425D01*
X132091274Y-69545350D01*
X132091266Y-69545348D01*
X131888420Y-69505000D01*
X131735000Y-69505000D01*
X131735000Y-70255000D01*
X131235000Y-70255000D01*
X131235000Y-69505000D01*
X131081579Y-69505000D01*
X130878733Y-69545348D01*
X130878725Y-69545350D01*
X130687641Y-69624500D01*
X130687631Y-69624505D01*
X130515664Y-69739410D01*
X130515660Y-69739413D01*
X130369413Y-69885660D01*
X130369410Y-69885664D01*
X130254505Y-70057631D01*
X130254500Y-70057641D01*
X130175351Y-70248723D01*
X130175350Y-70248725D01*
X130164157Y-70305000D01*
X129005843Y-70305000D01*
X128994649Y-70248725D01*
X128994648Y-70248723D01*
X128915499Y-70057641D01*
X128915494Y-70057631D01*
X128800589Y-69885664D01*
X128800586Y-69885660D01*
X128654339Y-69739413D01*
X128654335Y-69739410D01*
X128482368Y-69624505D01*
X128482358Y-69624500D01*
X128291274Y-69545350D01*
X128291266Y-69545348D01*
X128088420Y-69505000D01*
X127935000Y-69505000D01*
X127935000Y-70255000D01*
X127435000Y-70255000D01*
X127435000Y-69505000D01*
X127281579Y-69505000D01*
X127078733Y-69545348D01*
X127078725Y-69545350D01*
X126887641Y-69624500D01*
X126887631Y-69624505D01*
X126715664Y-69739410D01*
X126715660Y-69739413D01*
X126569413Y-69885660D01*
X126569410Y-69885664D01*
X126454505Y-70057631D01*
X126454500Y-70057641D01*
X126375351Y-70248723D01*
X126375350Y-70248725D01*
X126364157Y-70305000D01*
X123500500Y-70305000D01*
X123500500Y-69475013D01*
X133050000Y-69475013D01*
X133050000Y-69750000D01*
X133800000Y-69750000D01*
X133800000Y-68775000D01*
X133799999Y-68774999D01*
X133750029Y-68775000D01*
X133750011Y-68775001D01*
X133647302Y-68785494D01*
X133480880Y-68840641D01*
X133480875Y-68840643D01*
X133331654Y-68932684D01*
X133207684Y-69056654D01*
X133115643Y-69205875D01*
X133115641Y-69205880D01*
X133060494Y-69372302D01*
X133060493Y-69372309D01*
X133050000Y-69475013D01*
X123500500Y-69475013D01*
X123500500Y-59124500D01*
X123520185Y-59057461D01*
X123572989Y-59011706D01*
X123624500Y-59000500D01*
X168964294Y-59000500D01*
X169030013Y-59019347D01*
G37*
%TD.AperFunction*%
%TD*%
M02*
