%TF.GenerationSoftware,KiCad,Pcbnew,9.0.7*%
%TF.CreationDate,2026-02-20T23:50:41+01:00*%
%TF.ProjectId,Accordeur,4163636f-7264-4657-9572-2e6b69636164,rev?*%
%TF.SameCoordinates,Original*%
%TF.FileFunction,Copper,L2,Bot*%
%TF.FilePolarity,Positive*%
%FSLAX46Y46*%
G04 Gerber Fmt 4.6, Leading zero omitted, Abs format (unit mm)*
G04 Created by KiCad (PCBNEW 9.0.7) date 2026-02-20 23:50:41*
%MOMM*%
%LPD*%
G01*
G04 APERTURE LIST*
G04 Aperture macros list*
%AMRoundRect*
0 Rectangle with rounded corners*
0 $1 Rounding radius*
0 $2 $3 $4 $5 $6 $7 $8 $9 X,Y pos of 4 corners*
0 Add a 4 corners polygon primitive as box body*
4,1,4,$2,$3,$4,$5,$6,$7,$8,$9,$2,$3,0*
0 Add four circle primitives for the rounded corners*
1,1,$1+$1,$2,$3*
1,1,$1+$1,$4,$5*
1,1,$1+$1,$6,$7*
1,1,$1+$1,$8,$9*
0 Add four rect primitives between the rounded corners*
20,1,$1+$1,$2,$3,$4,$5,0*
20,1,$1+$1,$4,$5,$6,$7,0*
20,1,$1+$1,$6,$7,$8,$9,0*
20,1,$1+$1,$8,$9,$2,$3,0*%
G04 Aperture macros list end*
%TA.AperFunction,SMDPad,CuDef*%
%ADD10RoundRect,0.135000X0.185000X-0.135000X0.185000X0.135000X-0.185000X0.135000X-0.185000X-0.135000X0*%
%TD*%
%TA.AperFunction,ComponentPad*%
%ADD11R,1.800000X1.070000*%
%TD*%
%TA.AperFunction,ComponentPad*%
%ADD12O,1.800000X1.070000*%
%TD*%
%TA.AperFunction,ComponentPad*%
%ADD13RoundRect,0.250000X-0.625000X0.350000X-0.625000X-0.350000X0.625000X-0.350000X0.625000X0.350000X0*%
%TD*%
%TA.AperFunction,ComponentPad*%
%ADD14O,1.750000X1.200000*%
%TD*%
%TA.AperFunction,HeatsinkPad*%
%ADD15C,0.500000*%
%TD*%
%TA.AperFunction,HeatsinkPad*%
%ADD16R,1.500000X0.500000*%
%TD*%
%TA.AperFunction,ComponentPad*%
%ADD17R,1.700000X1.700000*%
%TD*%
%TA.AperFunction,ComponentPad*%
%ADD18C,1.700000*%
%TD*%
%TA.AperFunction,ComponentPad*%
%ADD19RoundRect,0.250001X-0.949999X0.949999X-0.949999X-0.949999X0.949999X-0.949999X0.949999X0.949999X0*%
%TD*%
%TA.AperFunction,ComponentPad*%
%ADD20C,2.400000*%
%TD*%
%TA.AperFunction,ComponentPad*%
%ADD21RoundRect,0.250001X-0.949999X-0.949999X0.949999X-0.949999X0.949999X0.949999X-0.949999X0.949999X0*%
%TD*%
%TA.AperFunction,HeatsinkPad*%
%ADD22O,1.700000X1.100000*%
%TD*%
%TA.AperFunction,ComponentPad*%
%ADD23C,2.000000*%
%TD*%
%TA.AperFunction,SMDPad,CuDef*%
%ADD24RoundRect,0.135000X-0.135000X-0.185000X0.135000X-0.185000X0.135000X0.185000X-0.135000X0.185000X0*%
%TD*%
%TA.AperFunction,SMDPad,CuDef*%
%ADD25RoundRect,0.135000X-0.185000X0.135000X-0.185000X-0.135000X0.185000X-0.135000X0.185000X0.135000X0*%
%TD*%
%TA.AperFunction,SMDPad,CuDef*%
%ADD26RoundRect,0.250000X0.325000X1.100000X-0.325000X1.100000X-0.325000X-1.100000X0.325000X-1.100000X0*%
%TD*%
%TA.AperFunction,SMDPad,CuDef*%
%ADD27RoundRect,0.135000X0.135000X0.185000X-0.135000X0.185000X-0.135000X-0.185000X0.135000X-0.185000X0*%
%TD*%
%TA.AperFunction,SMDPad,CuDef*%
%ADD28RoundRect,0.250000X0.250000X0.475000X-0.250000X0.475000X-0.250000X-0.475000X0.250000X-0.475000X0*%
%TD*%
%TA.AperFunction,SMDPad,CuDef*%
%ADD29RoundRect,0.250000X0.475000X-0.250000X0.475000X0.250000X-0.475000X0.250000X-0.475000X-0.250000X0*%
%TD*%
%TA.AperFunction,SMDPad,CuDef*%
%ADD30RoundRect,0.150000X-0.587500X-0.150000X0.587500X-0.150000X0.587500X0.150000X-0.587500X0.150000X0*%
%TD*%
%TA.AperFunction,ViaPad*%
%ADD31C,0.800000*%
%TD*%
%TA.AperFunction,ViaPad*%
%ADD32C,0.600000*%
%TD*%
%TA.AperFunction,Conductor*%
%ADD33C,0.250000*%
%TD*%
%TA.AperFunction,Conductor*%
%ADD34C,0.254000*%
%TD*%
%TA.AperFunction,Conductor*%
%ADD35C,0.200000*%
%TD*%
G04 APERTURE END LIST*
D10*
%TO.P,R30,1*%
%TO.N,Net-(R30-Pad1)*%
X142500000Y-86020000D03*
%TO.P,R30,2*%
%TO.N,Net-(R30-Pad2)*%
X142500000Y-85000000D03*
%TD*%
D11*
%TO.P,L_INST1,1,RA*%
%TO.N,Net-(L_INST1-RA)*%
X158750000Y-101205000D03*
D12*
%TO.P,L_INST1,2,GA*%
%TO.N,Net-(L_INST1-GA)*%
X158750000Y-99935000D03*
%TO.P,L_INST1,3,BA*%
%TO.N,Net-(L_INST1-BA)*%
X158750000Y-98665000D03*
%TO.P,L_INST1,4,K*%
%TO.N,GND*%
X158750000Y-97395000D03*
%TD*%
D13*
%TO.P,CBAT1,1,Pin_1*%
%TO.N,GND*%
X131235000Y-62750000D03*
D14*
%TO.P,CBAT1,2,Pin_2*%
%TO.N,/Circuit_batterie/BAT*%
X131235000Y-64750000D03*
%TD*%
D15*
%TO.P,U2,11,THERMAL_PAD*%
%TO.N,GND*%
X136250000Y-75500000D03*
D16*
X135750000Y-75500000D03*
D15*
X135250000Y-75500000D03*
%TD*%
D17*
%TO.P,JP1,1,A*%
%TO.N,ALM_3.3V*%
X155420000Y-62070000D03*
D18*
%TO.P,JP1,2,C*%
%TO.N,3V3_MCU*%
X157960000Y-62070000D03*
%TO.P,JP1,3,B*%
%TO.N,3V3_PROG*%
X160500000Y-62070000D03*
%TD*%
D19*
%TO.P,CPT1,1,Pin_1*%
%TO.N,GND*%
X129750000Y-86000000D03*
D20*
%TO.P,CPT1,2,Pin_2*%
%TO.N,Net-(CPT1-Pin_2)*%
X129750000Y-89500000D03*
%TD*%
D21*
%TO.P,Moteur1,1,Pin_1*%
%TO.N,Net-(Moteur1-Pin_1)*%
X142000000Y-97250000D03*
D20*
%TO.P,Moteur1,2,Pin_2*%
%TO.N,Net-(Moteur1-Pin_2)*%
X145500000Y-97250000D03*
%TD*%
D22*
%TO.P,J2,S1,Pin_1*%
%TO.N,GND*%
X131485000Y-70555000D03*
X127685000Y-70555000D03*
X131485000Y-79195000D03*
X127685000Y-79195000D03*
%TD*%
D17*
%TO.P,J3,1,Pin_1*%
%TO.N,GND*%
X172865000Y-72110000D03*
D18*
%TO.P,J3,2,Pin_2*%
%TO.N,3V3_PROG*%
X172865000Y-74650000D03*
%TO.P,J3,3,Pin_3*%
%TO.N,U0RXD*%
X172865000Y-77190000D03*
%TO.P,J3,4,Pin_4*%
%TO.N,U0TXD*%
X172865000Y-79730000D03*
%TO.P,J3,5,Pin_5*%
%TO.N,EN*%
X172865000Y-82270000D03*
%TO.P,J3,6,Pin_6*%
%TO.N,BOOT0*%
X172865000Y-84810000D03*
%TO.P,J3,7,Pin_7*%
%TO.N,RTS*%
X172865000Y-87350000D03*
%TO.P,J3,8,Pin_8*%
%TO.N,DTR*%
X172865000Y-89890000D03*
%TD*%
D23*
%TO.P,SW1,1,1*%
%TO.N,GND*%
X164000000Y-99500000D03*
X164000000Y-93000000D03*
%TO.P,SW1,2,2*%
%TO.N,Push_Button*%
X168500000Y-99500000D03*
X168500000Y-93000000D03*
%TD*%
D11*
%TO.P,LBAT1,1,RA*%
%TO.N,Net-(LBAT1-RA)*%
X151500000Y-101205000D03*
D12*
%TO.P,LBAT1,2,GA*%
%TO.N,Net-(LBAT1-GA)*%
X151500000Y-99935000D03*
%TO.P,LBAT1,3,BA*%
%TO.N,Net-(LBAT1-BA)*%
X151500000Y-98665000D03*
%TO.P,LBAT1,4,K*%
%TO.N,GND*%
X151500000Y-97395000D03*
%TD*%
D24*
%TO.P,R20,1*%
%TO.N,RTS*%
X175490000Y-85500000D03*
%TO.P,R20,2*%
%TO.N,GND*%
X176510000Y-85500000D03*
%TD*%
%TO.P,R28,1*%
%TO.N,ALM_3.3V*%
X164500000Y-79000000D03*
%TO.P,R28,2*%
%TO.N,Push_Button*%
X165520000Y-79000000D03*
%TD*%
D25*
%TO.P,R12,1*%
%TO.N,GND*%
X144000000Y-78480000D03*
%TO.P,R12,2*%
%TO.N,VREF_1.65V*%
X144000000Y-79500000D03*
%TD*%
D26*
%TO.P,C2,1*%
%TO.N,ALM_3.3V*%
X137475000Y-81500000D03*
%TO.P,C2,2*%
%TO.N,GND*%
X134525000Y-81500000D03*
%TD*%
D27*
%TO.P,R17,1*%
%TO.N,Net-(Q1-B)*%
X176520000Y-87500000D03*
%TO.P,R17,2*%
%TO.N,RTS*%
X175500000Y-87500000D03*
%TD*%
D25*
%TO.P,R8,1*%
%TO.N,ALM_3.3V*%
X161500000Y-84000000D03*
%TO.P,R8,2*%
%TO.N,BOOT0*%
X161500000Y-85020000D03*
%TD*%
D10*
%TO.P,R7,1*%
%TO.N,Net-(U7-FB)*%
X143260000Y-74260000D03*
%TO.P,R7,2*%
%TO.N,GND*%
X143260000Y-73240000D03*
%TD*%
D28*
%TO.P,C10,1*%
%TO.N,GND*%
X177900000Y-82500000D03*
%TO.P,C10,2*%
%TO.N,EN*%
X176000000Y-82500000D03*
%TD*%
D29*
%TO.P,C5,1*%
%TO.N,/Circuit_batterie/BAT*%
X129000000Y-64650000D03*
%TO.P,C5,2*%
%TO.N,GND*%
X129000000Y-62750000D03*
%TD*%
D10*
%TO.P,R15,1*%
%TO.N,ALM_3.3V*%
X148250000Y-73510000D03*
%TO.P,R15,2*%
%TO.N,EN*%
X148250000Y-72490000D03*
%TD*%
D30*
%TO.P,Q1,1,B*%
%TO.N,Net-(Q1-B)*%
X179500000Y-86900000D03*
%TO.P,Q1,2,E*%
%TO.N,EN*%
X179500000Y-85000000D03*
%TO.P,Q1,3,C*%
%TO.N,GND*%
X181375000Y-85950000D03*
%TD*%
D31*
%TO.N,Net-(R30-Pad1)*%
X140000000Y-92500000D03*
D32*
%TO.N,Net-(R30-Pad2)*%
X139000000Y-87500000D03*
%TO.N,GND*%
X141000000Y-72000000D03*
X138501337Y-72997957D03*
X144000000Y-77500000D03*
%TO.N,ALM_3.3V*%
X155309000Y-84000000D03*
%TO.N,Net-(J2-Pin_6)*%
X137494877Y-78656595D03*
X129500000Y-77500000D03*
%TO.N,EN*%
X155000000Y-73500000D03*
%TO.N,BOOT0*%
X167000000Y-90000000D03*
%TO.N,Net-(U2-TS{slash}MR)*%
X137900000Y-77500000D03*
X134500000Y-77500000D03*
%TO.N,Net-(U2-ISET)*%
X136000000Y-78279000D03*
X134127000Y-78373000D03*
%TO.N,SDA*%
X150000000Y-78100000D03*
X146000000Y-82500000D03*
%TO.N,SCL*%
X147500000Y-79500000D03*
X146500000Y-76500000D03*
%TO.N,MODE*%
X141500000Y-70520000D03*
X151500000Y-75560000D03*
X136898528Y-72600000D03*
%TO.N,Net-(U7-FB)*%
X138599999Y-74306360D03*
X139500000Y-81500000D03*
%TO.N,VREF_1.65V*%
X137428794Y-87857276D03*
%TO.N,PWM_MOTEUR*%
X143836391Y-82336391D03*
X150000000Y-76500000D03*
D31*
%TO.N,Push_Button*%
X167000000Y-79500000D03*
%TD*%
D33*
%TO.N,Net-(R30-Pad1)*%
X142500000Y-90000000D02*
X140000000Y-92500000D01*
X142500000Y-86020000D02*
X142500000Y-90000000D01*
%TO.N,ALM_3.3V*%
X137475000Y-81500000D02*
X136000000Y-81500000D01*
D34*
X136000000Y-92000000D02*
X136000000Y-81500000D01*
X137500000Y-93500000D02*
X136000000Y-92000000D01*
X145809000Y-93500000D02*
X137500000Y-93500000D01*
X155309000Y-84000000D02*
X145809000Y-93500000D01*
D33*
%TO.N,Net-(R30-Pad2)*%
X141500000Y-85000000D02*
X142500000Y-85000000D01*
X139000000Y-87500000D02*
X141500000Y-85000000D01*
D35*
%TO.N,GND*%
X129259341Y-76919000D02*
X128919000Y-77259341D01*
X142240000Y-73240000D02*
X141000000Y-72000000D01*
D34*
X131235000Y-62750000D02*
X129000000Y-62750000D01*
X155000000Y-97395000D02*
X155000000Y-100500000D01*
D35*
X143260000Y-73240000D02*
X143740000Y-73240000D01*
D34*
X177900000Y-82500000D02*
X181250000Y-82500000D01*
X155000000Y-97395000D02*
X151500000Y-97395000D01*
X181250000Y-82500000D02*
X181375000Y-82625000D01*
X181375000Y-85950000D02*
X176960000Y-85950000D01*
X156876000Y-102376000D02*
X167624000Y-102376000D01*
D35*
X140500000Y-72500000D02*
X140002043Y-72997957D01*
X128919000Y-77740659D02*
X132678341Y-81500000D01*
X140500000Y-72500000D02*
X138500000Y-72500000D01*
X134081000Y-76919000D02*
X129259341Y-76919000D01*
D34*
X181375000Y-88625000D02*
X181375000Y-85950000D01*
X155000000Y-100500000D02*
X156876000Y-102376000D01*
D35*
X143260000Y-73240000D02*
X142240000Y-73240000D01*
D34*
X181375000Y-82625000D02*
X181375000Y-85950000D01*
D35*
X140002043Y-72997957D02*
X138501337Y-72997957D01*
D34*
X167624000Y-102376000D02*
X181375000Y-88625000D01*
X158750000Y-97395000D02*
X155000000Y-97395000D01*
D35*
X143740000Y-73240000D02*
X144000000Y-73500000D01*
X132678341Y-81500000D02*
X134525000Y-81500000D01*
X128919000Y-77259341D02*
X128919000Y-77740659D01*
X141000000Y-72000000D02*
X140500000Y-72500000D01*
D34*
X176960000Y-85950000D02*
X176510000Y-85500000D01*
D35*
X144000000Y-77500000D02*
X144000000Y-78480000D01*
X138500000Y-72500000D02*
X134081000Y-76919000D01*
X144000000Y-73500000D02*
X144000000Y-77500000D01*
D34*
%TO.N,/Circuit_batterie/BAT*%
X129100000Y-64750000D02*
X129000000Y-64650000D01*
X131235000Y-64750000D02*
X129100000Y-64750000D01*
D35*
%TO.N,ALM_3.3V*%
X152510000Y-73510000D02*
X156000000Y-77000000D01*
X155350000Y-62000000D02*
X145000000Y-62000000D01*
D33*
X164500000Y-79000000D02*
X163000000Y-79000000D01*
D35*
X145000000Y-71500000D02*
X147010000Y-73510000D01*
X156000000Y-77500000D02*
X156000000Y-80500000D01*
X145000000Y-62000000D02*
X145000000Y-71500000D01*
X155420000Y-62070000D02*
X155350000Y-62000000D01*
X156000000Y-80500000D02*
X156000000Y-81500000D01*
D33*
X163000000Y-79000000D02*
X161500000Y-80500000D01*
D35*
X156000000Y-81500000D02*
X158500000Y-84000000D01*
X156000000Y-80240000D02*
X156000000Y-80500000D01*
X147010000Y-73510000D02*
X148250000Y-73510000D01*
D33*
X161500000Y-80500000D02*
X161500000Y-84000000D01*
D35*
X158500000Y-84000000D02*
X161500000Y-84000000D01*
X148250000Y-73510000D02*
X152510000Y-73510000D01*
D34*
X155309000Y-84000000D02*
X158500000Y-84000000D01*
D35*
X156000000Y-77000000D02*
X156000000Y-78000000D01*
D34*
%TO.N,Net-(J2-Pin_6)*%
X132331680Y-78500000D02*
X132663000Y-78500000D01*
X133163000Y-79000000D02*
X137151472Y-79000000D01*
X130000000Y-78000000D02*
X131831680Y-78000000D01*
X129500000Y-77500000D02*
X130000000Y-78000000D01*
X137151472Y-79000000D02*
X137494877Y-78656595D01*
X132663000Y-78500000D02*
X133163000Y-79000000D01*
X131831680Y-78000000D02*
X132331680Y-78500000D01*
D35*
%TO.N,EN*%
X153990000Y-72490000D02*
X155000000Y-73500000D01*
X172865000Y-82270000D02*
X164095000Y-73500000D01*
X148250000Y-72490000D02*
X153990000Y-72490000D01*
D34*
X176000000Y-83225000D02*
X177775000Y-85000000D01*
X176000000Y-82500000D02*
X176000000Y-83225000D01*
X173095000Y-82500000D02*
X172865000Y-82270000D01*
X177775000Y-85000000D02*
X179500000Y-85000000D01*
X176000000Y-82500000D02*
X173095000Y-82500000D01*
D35*
X164095000Y-73500000D02*
X155000000Y-73500000D01*
D34*
%TO.N,RTS*%
X175500000Y-87500000D02*
X175500000Y-85510000D01*
X175500000Y-87500000D02*
X173015000Y-87500000D01*
X175500000Y-85510000D02*
X175490000Y-85500000D01*
X173015000Y-87500000D02*
X172865000Y-87350000D01*
D35*
%TO.N,BOOT0*%
X161500000Y-85020000D02*
X162020000Y-85020000D01*
X162020000Y-85020000D02*
X167000000Y-90000000D01*
D34*
%TO.N,Net-(Q1-B)*%
X179500000Y-86900000D02*
X177120000Y-86900000D01*
X177120000Y-86900000D02*
X176520000Y-87500000D01*
D35*
%TO.N,Net-(U2-TS{slash}MR)*%
X137900000Y-77500000D02*
X134500000Y-77500000D01*
%TO.N,Net-(U2-ISET)*%
X134127000Y-78373000D02*
X135906000Y-78373000D01*
X135906000Y-78373000D02*
X136000000Y-78279000D01*
%TO.N,SDA*%
X146000000Y-82500000D02*
X146000000Y-82100000D01*
X146000000Y-82100000D02*
X150000000Y-78100000D01*
%TO.N,SCL*%
X150601000Y-76748943D02*
X150601000Y-76251057D01*
X147101000Y-75899000D02*
X146500000Y-76500000D01*
X150248943Y-75899000D02*
X147101000Y-75899000D01*
X150248943Y-77101000D02*
X150601000Y-76748943D01*
X150601000Y-76251057D02*
X150248943Y-75899000D01*
X149966100Y-77101000D02*
X150248943Y-77101000D01*
X147567100Y-79500000D02*
X149966100Y-77101000D01*
X147500000Y-79500000D02*
X147567100Y-79500000D01*
%TO.N,MODE*%
X141500000Y-70520000D02*
X143452900Y-70520000D01*
X136500000Y-72201472D02*
X136500000Y-71500000D01*
X137500000Y-70500000D02*
X141480000Y-70500000D01*
X136898528Y-72600000D02*
X136500000Y-72201472D01*
X151438000Y-75498000D02*
X151500000Y-75560000D01*
X143452900Y-70520000D02*
X148430900Y-75498000D01*
X141480000Y-70500000D02*
X141500000Y-70520000D01*
X148430900Y-75498000D02*
X151438000Y-75498000D01*
X136500000Y-71500000D02*
X137500000Y-70500000D01*
%TO.N,Net-(U7-FB)*%
X138599999Y-74306360D02*
X138599999Y-80599999D01*
X143260000Y-74260000D02*
X138646359Y-74260000D01*
X138646359Y-74260000D02*
X138599999Y-74306360D01*
X138599999Y-80599999D02*
X139500000Y-81500000D01*
D34*
%TO.N,VREF_1.65V*%
X144000000Y-81286070D02*
X137428794Y-87857276D01*
X144000000Y-79500000D02*
X144000000Y-81286070D01*
D35*
%TO.N,PWM_MOTEUR*%
X145000000Y-81172782D02*
X145000000Y-78500000D01*
X148000000Y-78500000D02*
X150000000Y-76500000D01*
X145000000Y-78500000D02*
X148000000Y-78500000D01*
X143836391Y-82336391D02*
X145000000Y-81172782D01*
%TO.N,3V3_PROG*%
X169351000Y-68351000D02*
X169351000Y-64218164D01*
X172865000Y-74650000D02*
X174350000Y-74650000D01*
X174500000Y-74500000D02*
X174500000Y-73500000D01*
X174500000Y-73500000D02*
X174016000Y-73016000D01*
X167659000Y-64159000D02*
X165570000Y-62070000D01*
X174016000Y-70959000D02*
X171959000Y-70959000D01*
X165570000Y-62070000D02*
X160500000Y-62070000D01*
X174016000Y-73016000D02*
X174016000Y-70959000D01*
X169351000Y-64218164D02*
X169291836Y-64159000D01*
X169291836Y-64159000D02*
X167659000Y-64159000D01*
X174350000Y-74650000D02*
X174500000Y-74500000D01*
X171959000Y-70959000D02*
X169351000Y-68351000D01*
%TO.N,Net-(L_INST1-BA)*%
X158750000Y-98665000D02*
X159335000Y-98665000D01*
D33*
%TO.N,Push_Button*%
X168500000Y-81000000D02*
X167000000Y-79500000D01*
X166500000Y-79000000D02*
X165520000Y-79000000D01*
X167000000Y-79500000D02*
X166500000Y-79000000D01*
X168500000Y-93000000D02*
X168500000Y-81000000D01*
%TD*%
%TA.AperFunction,Conductor*%
%TO.N,GND*%
G36*
X153954186Y-62603050D02*
G01*
X153963148Y-62601762D01*
X153987188Y-62612740D01*
X154012540Y-62620185D01*
X154018467Y-62627025D01*
X154026704Y-62630787D01*
X154040993Y-62653021D01*
X154058295Y-62672989D01*
X154060582Y-62683503D01*
X154064478Y-62689565D01*
X154069501Y-62724500D01*
X154069501Y-62967876D01*
X154075908Y-63027483D01*
X154126202Y-63162328D01*
X154126206Y-63162335D01*
X154212452Y-63277544D01*
X154212455Y-63277547D01*
X154327664Y-63363793D01*
X154327671Y-63363797D01*
X154462517Y-63414091D01*
X154462516Y-63414091D01*
X154469444Y-63414835D01*
X154522127Y-63420500D01*
X156317872Y-63420499D01*
X156377483Y-63414091D01*
X156512331Y-63363796D01*
X156627546Y-63277546D01*
X156713796Y-63162331D01*
X156762810Y-63030916D01*
X156804681Y-62974984D01*
X156870145Y-62950566D01*
X156938418Y-62965417D01*
X156966673Y-62986569D01*
X157080213Y-63100109D01*
X157252179Y-63225048D01*
X157252181Y-63225049D01*
X157252184Y-63225051D01*
X157441588Y-63321557D01*
X157643757Y-63387246D01*
X157853713Y-63420500D01*
X157853714Y-63420500D01*
X158066286Y-63420500D01*
X158066287Y-63420500D01*
X158276243Y-63387246D01*
X158478412Y-63321557D01*
X158667816Y-63225051D01*
X158754138Y-63162335D01*
X158839786Y-63100109D01*
X158839788Y-63100106D01*
X158839792Y-63100104D01*
X158990104Y-62949792D01*
X158990106Y-62949788D01*
X158990109Y-62949786D01*
X159115048Y-62777820D01*
X159115047Y-62777820D01*
X159115051Y-62777816D01*
X159119514Y-62769054D01*
X159167488Y-62718259D01*
X159235308Y-62701463D01*
X159301444Y-62723999D01*
X159340486Y-62769056D01*
X159344951Y-62777820D01*
X159469890Y-62949786D01*
X159620213Y-63100109D01*
X159792179Y-63225048D01*
X159792181Y-63225049D01*
X159792184Y-63225051D01*
X159981588Y-63321557D01*
X160183757Y-63387246D01*
X160393713Y-63420500D01*
X160393714Y-63420500D01*
X160606286Y-63420500D01*
X160606287Y-63420500D01*
X160816243Y-63387246D01*
X161018412Y-63321557D01*
X161207816Y-63225051D01*
X161294138Y-63162335D01*
X161379786Y-63100109D01*
X161379788Y-63100106D01*
X161379792Y-63100104D01*
X161530104Y-62949792D01*
X161530106Y-62949788D01*
X161530109Y-62949786D01*
X161639391Y-62799370D01*
X161655051Y-62777816D01*
X161655349Y-62777230D01*
X161675235Y-62738205D01*
X161723209Y-62687409D01*
X161785719Y-62670500D01*
X165269903Y-62670500D01*
X165336942Y-62690185D01*
X165357584Y-62706819D01*
X166699084Y-64048319D01*
X166732569Y-64109642D01*
X166727585Y-64179334D01*
X166685713Y-64235267D01*
X166620249Y-64259684D01*
X166611403Y-64260000D01*
X151250000Y-64260000D01*
X151250000Y-70260000D01*
X169250000Y-70260000D01*
X169250000Y-69398597D01*
X169269685Y-69331558D01*
X169322489Y-69285803D01*
X169391647Y-69275859D01*
X169455203Y-69304884D01*
X169461681Y-69310916D01*
X171474139Y-71323374D01*
X171474149Y-71323385D01*
X171478479Y-71327715D01*
X171478480Y-71327716D01*
X171590284Y-71439520D01*
X171669924Y-71485499D01*
X171677095Y-71489639D01*
X171677097Y-71489641D01*
X171715151Y-71511611D01*
X171727215Y-71518577D01*
X171879943Y-71559501D01*
X171879946Y-71559501D01*
X172045653Y-71559501D01*
X172045669Y-71559500D01*
X173291500Y-71559500D01*
X173358539Y-71579185D01*
X173404294Y-71631989D01*
X173415500Y-71683500D01*
X173415500Y-72929330D01*
X173415499Y-72929348D01*
X173415499Y-73095054D01*
X173415498Y-73095054D01*
X173448495Y-73218197D01*
X173446832Y-73288047D01*
X173407670Y-73345910D01*
X173343441Y-73373414D01*
X173290402Y-73368222D01*
X173181240Y-73332753D01*
X173019957Y-73307208D01*
X172971287Y-73299500D01*
X172758713Y-73299500D01*
X172710042Y-73307208D01*
X172548760Y-73332753D01*
X172346585Y-73398444D01*
X172157179Y-73494951D01*
X171985213Y-73619890D01*
X171834890Y-73770213D01*
X171709951Y-73942179D01*
X171613444Y-74131585D01*
X171547753Y-74333760D01*
X171522662Y-74492180D01*
X171514500Y-74543713D01*
X171514500Y-74756287D01*
X171524060Y-74816649D01*
X171540027Y-74917461D01*
X171547754Y-74966243D01*
X171574873Y-75049707D01*
X171613444Y-75168414D01*
X171709951Y-75357820D01*
X171834890Y-75529786D01*
X171985213Y-75680109D01*
X172157182Y-75805050D01*
X172165946Y-75809516D01*
X172216742Y-75857491D01*
X172233536Y-75925312D01*
X172210998Y-75991447D01*
X172165946Y-76030484D01*
X172157182Y-76034949D01*
X171985213Y-76159890D01*
X171834890Y-76310213D01*
X171709951Y-76482179D01*
X171613444Y-76671585D01*
X171547753Y-76873760D01*
X171526129Y-77010288D01*
X171514500Y-77083713D01*
X171514500Y-77296287D01*
X171515167Y-77300499D01*
X171541968Y-77469716D01*
X171547754Y-77506243D01*
X171604913Y-77682160D01*
X171613444Y-77708414D01*
X171709951Y-77897820D01*
X171834890Y-78069786D01*
X171985213Y-78220109D01*
X172157182Y-78345050D01*
X172165946Y-78349516D01*
X172216742Y-78397491D01*
X172233536Y-78465312D01*
X172210998Y-78531447D01*
X172165946Y-78570484D01*
X172157182Y-78574949D01*
X171985213Y-78699890D01*
X171834890Y-78850213D01*
X171709951Y-79022179D01*
X171613444Y-79211585D01*
X171547753Y-79413760D01*
X171514500Y-79623713D01*
X171514500Y-79770903D01*
X171494815Y-79837942D01*
X171442011Y-79883697D01*
X171372853Y-79893641D01*
X171309297Y-79864616D01*
X171302819Y-79858584D01*
X164582590Y-73138355D01*
X164582588Y-73138352D01*
X164463717Y-73019481D01*
X164463709Y-73019475D01*
X164344106Y-72950423D01*
X164344106Y-72950422D01*
X164344101Y-72950421D01*
X164338058Y-72946932D01*
X164326786Y-72940423D01*
X164285386Y-72929330D01*
X164174057Y-72899499D01*
X164015943Y-72899499D01*
X164008347Y-72899499D01*
X164008331Y-72899500D01*
X155579766Y-72899500D01*
X155512727Y-72879815D01*
X155510875Y-72878602D01*
X155379185Y-72790609D01*
X155379172Y-72790602D01*
X155233501Y-72730264D01*
X155233491Y-72730261D01*
X155078151Y-72699362D01*
X155016241Y-72666977D01*
X155014662Y-72665426D01*
X154477590Y-72128355D01*
X154477588Y-72128352D01*
X154358717Y-72009481D01*
X154358709Y-72009475D01*
X154254828Y-71949500D01*
X154254825Y-71949499D01*
X154221787Y-71930424D01*
X154221786Y-71930423D01*
X154221785Y-71930423D01*
X154069057Y-71889499D01*
X153910943Y-71889499D01*
X153903347Y-71889499D01*
X153903331Y-71889500D01*
X148919596Y-71889500D01*
X148852557Y-71869815D01*
X148831915Y-71853181D01*
X148827603Y-71848869D01*
X148827595Y-71848863D01*
X148689393Y-71767131D01*
X148689388Y-71767129D01*
X148535208Y-71722335D01*
X148535202Y-71722334D01*
X148499181Y-71719500D01*
X148000830Y-71719500D01*
X148000808Y-71719501D01*
X147964794Y-71722335D01*
X147810611Y-71767129D01*
X147810606Y-71767131D01*
X147672404Y-71848863D01*
X147672396Y-71848869D01*
X147558869Y-71962396D01*
X147558863Y-71962404D01*
X147477131Y-72100606D01*
X147477129Y-72100611D01*
X147432335Y-72254791D01*
X147432334Y-72254797D01*
X147429500Y-72290811D01*
X147429500Y-72689169D01*
X147429501Y-72689191D01*
X147431352Y-72712714D01*
X147432335Y-72725204D01*
X147433804Y-72730261D01*
X147439802Y-72750904D01*
X147439727Y-72777158D01*
X147443464Y-72803147D01*
X147439629Y-72811543D01*
X147439603Y-72820773D01*
X147425346Y-72842818D01*
X147414439Y-72866703D01*
X147406674Y-72871692D01*
X147401662Y-72879444D01*
X147377745Y-72890283D01*
X147355661Y-72904477D01*
X147342144Y-72906420D01*
X147338024Y-72908288D01*
X147320726Y-72909500D01*
X147310097Y-72909500D01*
X147243058Y-72889815D01*
X147222416Y-72873181D01*
X145636819Y-71287584D01*
X145603334Y-71226261D01*
X145600500Y-71199903D01*
X145600500Y-62724500D01*
X145620185Y-62657461D01*
X145672989Y-62611706D01*
X145724500Y-62600500D01*
X153945501Y-62600500D01*
X153954186Y-62603050D01*
G37*
%TD.AperFunction*%
%TA.AperFunction,Conductor*%
G36*
X169030013Y-59019347D02*
G01*
X184941221Y-68963853D01*
X184987636Y-69016075D01*
X184999500Y-69069003D01*
X184999500Y-94930995D01*
X184979815Y-94998034D01*
X184941219Y-95036147D01*
X169115840Y-104927011D01*
X169030014Y-104980652D01*
X168964294Y-104999500D01*
X123624500Y-104999500D01*
X123557461Y-104979815D01*
X123511706Y-104927011D01*
X123500500Y-104875500D01*
X123500500Y-99913389D01*
X131899500Y-99913389D01*
X131899500Y-100086610D01*
X131923325Y-100237040D01*
X131926598Y-100257701D01*
X131980127Y-100422445D01*
X132058768Y-100576788D01*
X132160586Y-100716928D01*
X132283072Y-100839414D01*
X132423212Y-100941232D01*
X132577555Y-101019873D01*
X132742299Y-101073402D01*
X132913389Y-101100500D01*
X132913390Y-101100500D01*
X133086610Y-101100500D01*
X133086611Y-101100500D01*
X133257701Y-101073402D01*
X133422445Y-101019873D01*
X133576788Y-100941232D01*
X133716928Y-100839414D01*
X133839414Y-100716928D01*
X133941232Y-100576788D01*
X134019873Y-100422445D01*
X134073402Y-100257701D01*
X134100500Y-100086611D01*
X134100500Y-99913389D01*
X134073402Y-99742299D01*
X134019873Y-99577555D01*
X133941232Y-99423212D01*
X133839414Y-99283072D01*
X133716928Y-99160586D01*
X133576788Y-99058768D01*
X133422445Y-98980127D01*
X133257701Y-98926598D01*
X133257699Y-98926597D01*
X133257698Y-98926597D01*
X133126271Y-98905781D01*
X133086611Y-98899500D01*
X132913389Y-98899500D01*
X132873728Y-98905781D01*
X132742302Y-98926597D01*
X132742299Y-98926598D01*
X132617839Y-98967038D01*
X132577552Y-98980128D01*
X132423211Y-99058768D01*
X132343256Y-99116859D01*
X132283072Y-99160586D01*
X132283070Y-99160588D01*
X132283069Y-99160588D01*
X132160588Y-99283069D01*
X132160588Y-99283070D01*
X132160586Y-99283072D01*
X132146678Y-99302215D01*
X132058768Y-99423211D01*
X131980128Y-99577552D01*
X131926597Y-99742302D01*
X131899500Y-99913389D01*
X123500500Y-99913389D01*
X123500500Y-96249984D01*
X140299500Y-96249984D01*
X140299500Y-98250015D01*
X140310000Y-98352795D01*
X140310001Y-98352797D01*
X140316904Y-98373629D01*
X140365186Y-98519335D01*
X140365187Y-98519337D01*
X140457286Y-98668651D01*
X140457289Y-98668655D01*
X140581344Y-98792710D01*
X140581348Y-98792713D01*
X140730662Y-98884812D01*
X140730664Y-98884813D01*
X140730666Y-98884814D01*
X140897203Y-98939999D01*
X140999992Y-98950500D01*
X140999997Y-98950500D01*
X143000003Y-98950500D01*
X143000008Y-98950500D01*
X143102797Y-98939999D01*
X143269334Y-98884814D01*
X143418655Y-98792711D01*
X143542711Y-98668655D01*
X143634814Y-98519334D01*
X143689999Y-98352797D01*
X143700500Y-98250008D01*
X143700500Y-97972635D01*
X143720185Y-97905596D01*
X143772989Y-97859841D01*
X143842147Y-97849897D01*
X143905703Y-97878922D01*
X143939061Y-97925183D01*
X143971590Y-98003717D01*
X143971593Y-98003722D01*
X143971595Y-98003726D01*
X144083052Y-98196774D01*
X144083057Y-98196780D01*
X144083058Y-98196782D01*
X144218751Y-98373622D01*
X144218757Y-98373629D01*
X144376370Y-98531242D01*
X144376376Y-98531247D01*
X144553226Y-98666948D01*
X144746274Y-98778405D01*
X144952219Y-98863710D01*
X145167537Y-98921404D01*
X145388543Y-98950500D01*
X145388550Y-98950500D01*
X145611450Y-98950500D01*
X145611457Y-98950500D01*
X145832463Y-98921404D01*
X146047781Y-98863710D01*
X146253726Y-98778405D01*
X146273497Y-98766990D01*
X150099499Y-98766990D01*
X150139292Y-98967038D01*
X150139295Y-98967048D01*
X150217350Y-99155490D01*
X150267877Y-99231109D01*
X150288755Y-99297787D01*
X150270270Y-99365167D01*
X150267877Y-99368891D01*
X150217350Y-99444509D01*
X150139295Y-99632951D01*
X150139292Y-99632961D01*
X150099500Y-99833009D01*
X150099500Y-99833012D01*
X150099500Y-100036988D01*
X150099500Y-100036990D01*
X150099499Y-100036990D01*
X150139292Y-100237038D01*
X150139295Y-100237048D01*
X150169128Y-100309072D01*
X150176597Y-100378542D01*
X150158956Y-100419073D01*
X150160452Y-100419890D01*
X150156202Y-100427671D01*
X150105908Y-100562517D01*
X150099501Y-100622116D01*
X150099501Y-100622123D01*
X150099500Y-100622135D01*
X150099500Y-101787870D01*
X150099501Y-101787876D01*
X150105908Y-101847483D01*
X150156202Y-101982328D01*
X150156206Y-101982335D01*
X150242452Y-102097544D01*
X150242455Y-102097547D01*
X150357664Y-102183793D01*
X150357671Y-102183797D01*
X150492517Y-102234091D01*
X150492516Y-102234091D01*
X150499444Y-102234835D01*
X150552127Y-102240500D01*
X152447872Y-102240499D01*
X152507483Y-102234091D01*
X152642331Y-102183796D01*
X152757546Y-102097546D01*
X152843796Y-101982331D01*
X152894091Y-101847483D01*
X152900500Y-101787873D01*
X152900499Y-100622128D01*
X152894091Y-100562517D01*
X152862386Y-100477512D01*
X152843797Y-100427671D01*
X152839546Y-100419886D01*
X152841653Y-100418735D01*
X152821748Y-100365375D01*
X152830870Y-100309072D01*
X152860706Y-100237044D01*
X152873727Y-100171579D01*
X152900500Y-100036990D01*
X152900500Y-99833009D01*
X152860707Y-99632961D01*
X152860706Y-99632960D01*
X152860706Y-99632956D01*
X152835627Y-99572409D01*
X152782651Y-99444513D01*
X152782649Y-99444509D01*
X152782648Y-99444507D01*
X152740847Y-99381947D01*
X152732123Y-99368891D01*
X152711245Y-99302214D01*
X152729729Y-99234834D01*
X152732123Y-99231109D01*
X152746514Y-99209570D01*
X152782648Y-99155493D01*
X152860706Y-98967044D01*
X152881261Y-98863709D01*
X152900500Y-98766990D01*
X157349499Y-98766990D01*
X157389292Y-98967038D01*
X157389295Y-98967048D01*
X157467350Y-99155490D01*
X157517877Y-99231109D01*
X157538755Y-99297787D01*
X157520270Y-99365167D01*
X157517877Y-99368891D01*
X157467350Y-99444509D01*
X157389295Y-99632951D01*
X157389292Y-99632961D01*
X157349500Y-99833009D01*
X157349500Y-99833012D01*
X157349500Y-100036988D01*
X157349500Y-100036990D01*
X157349499Y-100036990D01*
X157389292Y-100237038D01*
X157389295Y-100237048D01*
X157419128Y-100309072D01*
X157426597Y-100378542D01*
X157408956Y-100419073D01*
X157410452Y-100419890D01*
X157406202Y-100427671D01*
X157355908Y-100562517D01*
X157349501Y-100622116D01*
X157349501Y-100622123D01*
X157349500Y-100622135D01*
X157349500Y-101787870D01*
X157349501Y-101787876D01*
X157355908Y-101847483D01*
X157406202Y-101982328D01*
X157406206Y-101982335D01*
X157492452Y-102097544D01*
X157492455Y-102097547D01*
X157607664Y-102183793D01*
X157607671Y-102183797D01*
X157742517Y-102234091D01*
X157742516Y-102234091D01*
X157749444Y-102234835D01*
X157802127Y-102240500D01*
X159697872Y-102240499D01*
X159757483Y-102234091D01*
X159892331Y-102183796D01*
X160007546Y-102097546D01*
X160093796Y-101982331D01*
X160144091Y-101847483D01*
X160150500Y-101787873D01*
X160150499Y-100622128D01*
X160144091Y-100562517D01*
X160112386Y-100477512D01*
X160093797Y-100427671D01*
X160089546Y-100419886D01*
X160091653Y-100418735D01*
X160071748Y-100365375D01*
X160080870Y-100309072D01*
X160110706Y-100237044D01*
X160123727Y-100171579D01*
X160150500Y-100036990D01*
X160150500Y-99833009D01*
X160110707Y-99632961D01*
X160110706Y-99632960D01*
X160110706Y-99632956D01*
X160085627Y-99572409D01*
X160032651Y-99444513D01*
X160032645Y-99444502D01*
X160009574Y-99409975D01*
X159990846Y-99381947D01*
X162500000Y-99381947D01*
X162500000Y-99618052D01*
X162536934Y-99851247D01*
X162609897Y-100075802D01*
X162717087Y-100286174D01*
X162777338Y-100369104D01*
X162777340Y-100369105D01*
X163476212Y-99670233D01*
X163487482Y-99712292D01*
X163559890Y-99837708D01*
X163662292Y-99940110D01*
X163787708Y-100012518D01*
X163829765Y-100023787D01*
X163130893Y-100722658D01*
X163213828Y-100782914D01*
X163424197Y-100890102D01*
X163648752Y-100963065D01*
X163648751Y-100963065D01*
X163881948Y-101000000D01*
X164118052Y-101000000D01*
X164351247Y-100963065D01*
X164575802Y-100890102D01*
X164786163Y-100782918D01*
X164786169Y-100782914D01*
X164869104Y-100722658D01*
X164869105Y-100722658D01*
X164170233Y-100023787D01*
X164212292Y-100012518D01*
X164337708Y-99940110D01*
X164440110Y-99837708D01*
X164512518Y-99712292D01*
X164523787Y-99670234D01*
X165222658Y-100369105D01*
X165222658Y-100369104D01*
X165282914Y-100286169D01*
X165282918Y-100286163D01*
X165390102Y-100075802D01*
X165463065Y-99851247D01*
X165500000Y-99618052D01*
X165500000Y-99381947D01*
X165499993Y-99381902D01*
X166999500Y-99381902D01*
X166999500Y-99618097D01*
X167036446Y-99851368D01*
X167109433Y-100075996D01*
X167191489Y-100237038D01*
X167216657Y-100286433D01*
X167355483Y-100477510D01*
X167522490Y-100644517D01*
X167713567Y-100783343D01*
X167812991Y-100834002D01*
X167924003Y-100890566D01*
X167924005Y-100890566D01*
X167924008Y-100890568D01*
X168044412Y-100929689D01*
X168148631Y-100963553D01*
X168381903Y-101000500D01*
X168381908Y-101000500D01*
X168618097Y-101000500D01*
X168851368Y-100963553D01*
X168852870Y-100963065D01*
X169075992Y-100890568D01*
X169286433Y-100783343D01*
X169477510Y-100644517D01*
X169644517Y-100477510D01*
X169783343Y-100286433D01*
X169890568Y-100075992D01*
X169963553Y-99851368D01*
X169966461Y-99833009D01*
X170000500Y-99618097D01*
X170000500Y-99381902D01*
X169963553Y-99148631D01*
X169911192Y-98987482D01*
X169890568Y-98924008D01*
X169890566Y-98924005D01*
X169890566Y-98924003D01*
X169816380Y-98778406D01*
X169783343Y-98713567D01*
X169644517Y-98522490D01*
X169477510Y-98355483D01*
X169286433Y-98216657D01*
X169247426Y-98196782D01*
X169075996Y-98109433D01*
X168851368Y-98036446D01*
X168618097Y-97999500D01*
X168618092Y-97999500D01*
X168381908Y-97999500D01*
X168381903Y-97999500D01*
X168148631Y-98036446D01*
X167924003Y-98109433D01*
X167713566Y-98216657D01*
X167630047Y-98277338D01*
X167522490Y-98355483D01*
X167522488Y-98355485D01*
X167522487Y-98355485D01*
X167355485Y-98522487D01*
X167355485Y-98522488D01*
X167355483Y-98522490D01*
X167349121Y-98531247D01*
X167216657Y-98713566D01*
X167109433Y-98924003D01*
X167036446Y-99148631D01*
X166999500Y-99381902D01*
X165499993Y-99381902D01*
X165463065Y-99148752D01*
X165390102Y-98924197D01*
X165282914Y-98713828D01*
X165222658Y-98630894D01*
X165222658Y-98630893D01*
X164523787Y-99329765D01*
X164512518Y-99287708D01*
X164440110Y-99162292D01*
X164337708Y-99059890D01*
X164212292Y-98987482D01*
X164170234Y-98976212D01*
X164869105Y-98277340D01*
X164869104Y-98277338D01*
X164786174Y-98217087D01*
X164575802Y-98109897D01*
X164351247Y-98036934D01*
X164351248Y-98036934D01*
X164118052Y-98000000D01*
X163881948Y-98000000D01*
X163648752Y-98036934D01*
X163424197Y-98109897D01*
X163213830Y-98217084D01*
X163130894Y-98277340D01*
X163829766Y-98976212D01*
X163787708Y-98987482D01*
X163662292Y-99059890D01*
X163559890Y-99162292D01*
X163487482Y-99287708D01*
X163476212Y-99329765D01*
X162777340Y-98630894D01*
X162717084Y-98713830D01*
X162609897Y-98924197D01*
X162536934Y-99148752D01*
X162500000Y-99381947D01*
X159990846Y-99381947D01*
X159982122Y-99368890D01*
X159961245Y-99302215D01*
X159979729Y-99234834D01*
X159982123Y-99231109D01*
X159996514Y-99209570D01*
X160032648Y-99155493D01*
X160110706Y-98967044D01*
X160131261Y-98863709D01*
X160150500Y-98766990D01*
X160150500Y-98563009D01*
X160110706Y-98362956D01*
X160032651Y-98174513D01*
X160032644Y-98174500D01*
X159919325Y-98004907D01*
X159919322Y-98004903D01*
X159775096Y-97860677D01*
X159775092Y-97860674D01*
X159605499Y-97747355D01*
X159605486Y-97747348D01*
X159417048Y-97669295D01*
X159417038Y-97669292D01*
X159216990Y-97629500D01*
X159216988Y-97629500D01*
X158283012Y-97629500D01*
X158283010Y-97629500D01*
X158082961Y-97669292D01*
X158082951Y-97669295D01*
X157894513Y-97747348D01*
X157894500Y-97747355D01*
X157724907Y-97860674D01*
X157724903Y-97860677D01*
X157580677Y-98004903D01*
X157580674Y-98004907D01*
X157467355Y-98174500D01*
X157467348Y-98174513D01*
X157389295Y-98362951D01*
X157389292Y-98362961D01*
X157349500Y-98563009D01*
X157349500Y-98563012D01*
X157349500Y-98766988D01*
X157349500Y-98766990D01*
X157349499Y-98766990D01*
X152900500Y-98766990D01*
X152900500Y-98563009D01*
X152860707Y-98362961D01*
X152860706Y-98362960D01*
X152860706Y-98362956D01*
X152860704Y-98362951D01*
X152782651Y-98174513D01*
X152782647Y-98174506D01*
X152782643Y-98174500D01*
X152731821Y-98098439D01*
X152710944Y-98031764D01*
X152729428Y-97964384D01*
X152731822Y-97960658D01*
X152782204Y-97885256D01*
X152782206Y-97885252D01*
X152860225Y-97696898D01*
X152860227Y-97696890D01*
X152870549Y-97645000D01*
X152057122Y-97645000D01*
X152032932Y-97642617D01*
X151989190Y-97633916D01*
X151966989Y-97629500D01*
X151966988Y-97629500D01*
X151884227Y-97629500D01*
X151919333Y-97568694D01*
X151950000Y-97454244D01*
X151950000Y-97335756D01*
X151919333Y-97221306D01*
X151875278Y-97145000D01*
X152870550Y-97145000D01*
X152870549Y-97144999D01*
X152860227Y-97093109D01*
X152860225Y-97093101D01*
X152782206Y-96904747D01*
X152782201Y-96904737D01*
X152668937Y-96735226D01*
X152668934Y-96735222D01*
X152524777Y-96591065D01*
X152524773Y-96591062D01*
X152355262Y-96477798D01*
X152355252Y-96477793D01*
X152166898Y-96399774D01*
X152166890Y-96399772D01*
X151966943Y-96360000D01*
X151750000Y-96360000D01*
X151750000Y-97019722D01*
X151673694Y-96975667D01*
X151559244Y-96945000D01*
X151440756Y-96945000D01*
X151326306Y-96975667D01*
X151250000Y-97019722D01*
X151250000Y-96360000D01*
X151033056Y-96360000D01*
X150833109Y-96399772D01*
X150833101Y-96399774D01*
X150644747Y-96477793D01*
X150644737Y-96477798D01*
X150475226Y-96591062D01*
X150475222Y-96591065D01*
X150331065Y-96735222D01*
X150331062Y-96735226D01*
X150217798Y-96904737D01*
X150217793Y-96904747D01*
X150139774Y-97093101D01*
X150139772Y-97093109D01*
X150129450Y-97144999D01*
X150129450Y-97145000D01*
X151124722Y-97145000D01*
X151080667Y-97221306D01*
X151050000Y-97335756D01*
X151050000Y-97454244D01*
X151080667Y-97568694D01*
X151115773Y-97629500D01*
X151033012Y-97629500D01*
X151033011Y-97629500D01*
X151010809Y-97633916D01*
X150967067Y-97642617D01*
X150942878Y-97645000D01*
X150129450Y-97645000D01*
X150139772Y-97696890D01*
X150139774Y-97696898D01*
X150217794Y-97885254D01*
X150268177Y-97960659D01*
X150289054Y-98027337D01*
X150270569Y-98094717D01*
X150268178Y-98098438D01*
X150217349Y-98174511D01*
X150139295Y-98362951D01*
X150139292Y-98362961D01*
X150099500Y-98563009D01*
X150099500Y-98563012D01*
X150099500Y-98766988D01*
X150099500Y-98766990D01*
X150099499Y-98766990D01*
X146273497Y-98766990D01*
X146446774Y-98666948D01*
X146623624Y-98531247D01*
X146635537Y-98519334D01*
X146685633Y-98469239D01*
X146781242Y-98373629D01*
X146781247Y-98373624D01*
X146916948Y-98196774D01*
X147028405Y-98003726D01*
X147113710Y-97797781D01*
X147171404Y-97582463D01*
X147200500Y-97361457D01*
X147200500Y-97138543D01*
X147171404Y-96917537D01*
X147113710Y-96702219D01*
X147092612Y-96651285D01*
X147028406Y-96496277D01*
X147028405Y-96496274D01*
X146916948Y-96303226D01*
X146781247Y-96126376D01*
X146781242Y-96126370D01*
X146623629Y-95968757D01*
X146623622Y-95968751D01*
X146446782Y-95833058D01*
X146446780Y-95833057D01*
X146446774Y-95833052D01*
X146253726Y-95721595D01*
X146253722Y-95721593D01*
X146047790Y-95636293D01*
X146047783Y-95636291D01*
X146047781Y-95636290D01*
X145832463Y-95578596D01*
X145832457Y-95578595D01*
X145832452Y-95578594D01*
X145611466Y-95549501D01*
X145611463Y-95549500D01*
X145611457Y-95549500D01*
X145388543Y-95549500D01*
X145388537Y-95549500D01*
X145388533Y-95549501D01*
X145167547Y-95578594D01*
X145167540Y-95578595D01*
X145167537Y-95578596D01*
X145030981Y-95615186D01*
X144952219Y-95636290D01*
X144952209Y-95636293D01*
X144746277Y-95721593D01*
X144746273Y-95721595D01*
X144553226Y-95833052D01*
X144553217Y-95833058D01*
X144376377Y-95968751D01*
X144376370Y-95968757D01*
X144218757Y-96126370D01*
X144218751Y-96126377D01*
X144083058Y-96303217D01*
X144083052Y-96303226D01*
X143971595Y-96496273D01*
X143971593Y-96496277D01*
X143939061Y-96574817D01*
X143895220Y-96629220D01*
X143828926Y-96651285D01*
X143761226Y-96634006D01*
X143713616Y-96582868D01*
X143700500Y-96527364D01*
X143700500Y-96249997D01*
X143700499Y-96249984D01*
X143689999Y-96147204D01*
X143689999Y-96147203D01*
X143634814Y-95980666D01*
X143627468Y-95968757D01*
X143542713Y-95831348D01*
X143542710Y-95831344D01*
X143418655Y-95707289D01*
X143418651Y-95707286D01*
X143269337Y-95615187D01*
X143269335Y-95615186D01*
X143186065Y-95587593D01*
X143102797Y-95560001D01*
X143102795Y-95560000D01*
X143000015Y-95549500D01*
X143000008Y-95549500D01*
X140999992Y-95549500D01*
X140999984Y-95549500D01*
X140897204Y-95560000D01*
X140897203Y-95560001D01*
X140730664Y-95615186D01*
X140730662Y-95615187D01*
X140581348Y-95707286D01*
X140581344Y-95707289D01*
X140457289Y-95831344D01*
X140457286Y-95831348D01*
X140365187Y-95980662D01*
X140365186Y-95980664D01*
X140310001Y-96147203D01*
X140310000Y-96147204D01*
X140299500Y-96249984D01*
X123500500Y-96249984D01*
X123500500Y-95413389D01*
X176899500Y-95413389D01*
X176899500Y-95586610D01*
X176918613Y-95707289D01*
X176926598Y-95757701D01*
X176980127Y-95922445D01*
X177058768Y-96076788D01*
X177160586Y-96216928D01*
X177283072Y-96339414D01*
X177423212Y-96441232D01*
X177577555Y-96519873D01*
X177742299Y-96573402D01*
X177913389Y-96600500D01*
X177913390Y-96600500D01*
X178086610Y-96600500D01*
X178086611Y-96600500D01*
X178257701Y-96573402D01*
X178422445Y-96519873D01*
X178576788Y-96441232D01*
X178716928Y-96339414D01*
X178839414Y-96216928D01*
X178941232Y-96076788D01*
X179019873Y-95922445D01*
X179073402Y-95757701D01*
X179100500Y-95586611D01*
X179100500Y-95413389D01*
X179073402Y-95242299D01*
X179019873Y-95077555D01*
X178941232Y-94923212D01*
X178839414Y-94783072D01*
X178716928Y-94660586D01*
X178576788Y-94558768D01*
X178422445Y-94480127D01*
X178257701Y-94426598D01*
X178257699Y-94426597D01*
X178257698Y-94426597D01*
X178126271Y-94405781D01*
X178086611Y-94399500D01*
X177913389Y-94399500D01*
X177873728Y-94405781D01*
X177742302Y-94426597D01*
X177577552Y-94480128D01*
X177423211Y-94558768D01*
X177343256Y-94616859D01*
X177283072Y-94660586D01*
X177283070Y-94660588D01*
X177283069Y-94660588D01*
X177160588Y-94783069D01*
X177160588Y-94783070D01*
X177160586Y-94783072D01*
X177116859Y-94843256D01*
X177058768Y-94923211D01*
X176980128Y-95077552D01*
X176926597Y-95242302D01*
X176899500Y-95413389D01*
X123500500Y-95413389D01*
X123500500Y-89388549D01*
X128049500Y-89388549D01*
X128049500Y-89611450D01*
X128049501Y-89611466D01*
X128078594Y-89832452D01*
X128078595Y-89832457D01*
X128078596Y-89832463D01*
X128136290Y-90047780D01*
X128136293Y-90047790D01*
X128221593Y-90253722D01*
X128221595Y-90253726D01*
X128333052Y-90446774D01*
X128333057Y-90446780D01*
X128333058Y-90446782D01*
X128468751Y-90623622D01*
X128468757Y-90623629D01*
X128626370Y-90781242D01*
X128626376Y-90781247D01*
X128803226Y-90916948D01*
X128996274Y-91028405D01*
X129202219Y-91113710D01*
X129417537Y-91171404D01*
X129638543Y-91200500D01*
X129638550Y-91200500D01*
X129861450Y-91200500D01*
X129861457Y-91200500D01*
X130082463Y-91171404D01*
X130297781Y-91113710D01*
X130503726Y-91028405D01*
X130696774Y-90916948D01*
X130873624Y-90781247D01*
X131031247Y-90623624D01*
X131166948Y-90446774D01*
X131278405Y-90253726D01*
X131363710Y-90047781D01*
X131421404Y-89832463D01*
X131450500Y-89611457D01*
X131450500Y-89388543D01*
X131421404Y-89167537D01*
X131363710Y-88952219D01*
X131278405Y-88746274D01*
X131166948Y-88553226D01*
X131044548Y-88393710D01*
X131031248Y-88376377D01*
X131031242Y-88376370D01*
X130873629Y-88218757D01*
X130873622Y-88218751D01*
X130696782Y-88083058D01*
X130696780Y-88083057D01*
X130696774Y-88083052D01*
X130503726Y-87971595D01*
X130503716Y-87971590D01*
X130423976Y-87938561D01*
X130369572Y-87894720D01*
X130347507Y-87828426D01*
X130364786Y-87760727D01*
X130415923Y-87713116D01*
X130471428Y-87700000D01*
X130749973Y-87700000D01*
X130749985Y-87699999D01*
X130852689Y-87689506D01*
X130852696Y-87689505D01*
X131019118Y-87634358D01*
X131019123Y-87634356D01*
X131168344Y-87542315D01*
X131292315Y-87418344D01*
X131384356Y-87269123D01*
X131384358Y-87269118D01*
X131439505Y-87102696D01*
X131439506Y-87102689D01*
X131449999Y-86999985D01*
X131450000Y-86999972D01*
X131450000Y-86250000D01*
X130298482Y-86250000D01*
X130309111Y-86231591D01*
X130350000Y-86078991D01*
X130350000Y-85921009D01*
X130309111Y-85768409D01*
X130298482Y-85750000D01*
X131450000Y-85750000D01*
X131450000Y-85000027D01*
X131449999Y-85000014D01*
X131439506Y-84897310D01*
X131439505Y-84897303D01*
X131384358Y-84730881D01*
X131384356Y-84730876D01*
X131292315Y-84581655D01*
X131168344Y-84457684D01*
X131019123Y-84365643D01*
X131019118Y-84365641D01*
X130852696Y-84310494D01*
X130852689Y-84310493D01*
X130749985Y-84300000D01*
X130000000Y-84300000D01*
X130000000Y-85451517D01*
X129981591Y-85440889D01*
X129828991Y-85400000D01*
X129671009Y-85400000D01*
X129518409Y-85440889D01*
X129500000Y-85451517D01*
X129500000Y-84300000D01*
X128750014Y-84300000D01*
X128647310Y-84310493D01*
X128647303Y-84310494D01*
X128480881Y-84365641D01*
X128480876Y-84365643D01*
X128331655Y-84457684D01*
X128207684Y-84581655D01*
X128115643Y-84730876D01*
X128115641Y-84730881D01*
X128060494Y-84897303D01*
X128060493Y-84897310D01*
X128050000Y-85000014D01*
X128050000Y-85750000D01*
X129201518Y-85750000D01*
X129190889Y-85768409D01*
X129150000Y-85921009D01*
X129150000Y-86078991D01*
X129190889Y-86231591D01*
X129201518Y-86250000D01*
X128050000Y-86250000D01*
X128050000Y-86999985D01*
X128060493Y-87102689D01*
X128060494Y-87102696D01*
X128115641Y-87269118D01*
X128115643Y-87269123D01*
X128207684Y-87418344D01*
X128331655Y-87542315D01*
X128480876Y-87634356D01*
X128480881Y-87634358D01*
X128647303Y-87689505D01*
X128647310Y-87689506D01*
X128750014Y-87699999D01*
X128750027Y-87700000D01*
X129028572Y-87700000D01*
X129095611Y-87719685D01*
X129141366Y-87772489D01*
X129151310Y-87841647D01*
X129122285Y-87905203D01*
X129076024Y-87938561D01*
X128996283Y-87971590D01*
X128996273Y-87971595D01*
X128803226Y-88083052D01*
X128803217Y-88083058D01*
X128626377Y-88218751D01*
X128626370Y-88218757D01*
X128468757Y-88376370D01*
X128468751Y-88376377D01*
X128333058Y-88553217D01*
X128333052Y-88553226D01*
X128221595Y-88746273D01*
X128221593Y-88746277D01*
X128136293Y-88952209D01*
X128136290Y-88952219D01*
X128078597Y-89167534D01*
X128078594Y-89167547D01*
X128049501Y-89388533D01*
X128049500Y-89388549D01*
X123500500Y-89388549D01*
X123500500Y-82649986D01*
X133450001Y-82649986D01*
X133460494Y-82752697D01*
X133515641Y-82919119D01*
X133515643Y-82919124D01*
X133607684Y-83068345D01*
X133731654Y-83192315D01*
X133880875Y-83284356D01*
X133880880Y-83284358D01*
X134047302Y-83339505D01*
X134047309Y-83339506D01*
X134150019Y-83349999D01*
X134274999Y-83349999D01*
X134275000Y-83349998D01*
X134275000Y-81750000D01*
X133450001Y-81750000D01*
X133450001Y-82649986D01*
X123500500Y-82649986D01*
X123500500Y-78945000D01*
X126364157Y-78945000D01*
X127218012Y-78945000D01*
X127200795Y-78954940D01*
X127144940Y-79010795D01*
X127105444Y-79079204D01*
X127085000Y-79155504D01*
X127085000Y-79234496D01*
X127105444Y-79310796D01*
X127144940Y-79379205D01*
X127200795Y-79435060D01*
X127218012Y-79445000D01*
X126364157Y-79445000D01*
X126375350Y-79501274D01*
X126375351Y-79501276D01*
X126454500Y-79692358D01*
X126454505Y-79692368D01*
X126569410Y-79864335D01*
X126569413Y-79864339D01*
X126715660Y-80010586D01*
X126715664Y-80010589D01*
X126887631Y-80125494D01*
X126887641Y-80125499D01*
X127078725Y-80204649D01*
X127078733Y-80204651D01*
X127281579Y-80244999D01*
X127281583Y-80245000D01*
X127435000Y-80245000D01*
X127435000Y-79495000D01*
X127935000Y-79495000D01*
X127935000Y-80245000D01*
X128088417Y-80245000D01*
X128088420Y-80244999D01*
X128291266Y-80204651D01*
X128291274Y-80204649D01*
X128482358Y-80125499D01*
X128482368Y-80125494D01*
X128654335Y-80010589D01*
X128654339Y-80010586D01*
X128800586Y-79864339D01*
X128800589Y-79864335D01*
X128915494Y-79692368D01*
X128915499Y-79692358D01*
X128994648Y-79501276D01*
X128994649Y-79501274D01*
X129005843Y-79445000D01*
X128151988Y-79445000D01*
X128169205Y-79435060D01*
X128225060Y-79379205D01*
X128264556Y-79310796D01*
X128285000Y-79234496D01*
X128285000Y-79155504D01*
X128264556Y-79079204D01*
X128225060Y-79010795D01*
X128169205Y-78954940D01*
X128151988Y-78945000D01*
X129005843Y-78945000D01*
X128994649Y-78888725D01*
X128994648Y-78888723D01*
X128915499Y-78697641D01*
X128915494Y-78697631D01*
X128800589Y-78525664D01*
X128800586Y-78525660D01*
X128654339Y-78379413D01*
X128654335Y-78379410D01*
X128482368Y-78264505D01*
X128482358Y-78264500D01*
X128291274Y-78185350D01*
X128291266Y-78185348D01*
X128088420Y-78145000D01*
X127935000Y-78145000D01*
X127935000Y-78895000D01*
X127435000Y-78895000D01*
X127435000Y-78145000D01*
X127281579Y-78145000D01*
X127078733Y-78185348D01*
X127078725Y-78185350D01*
X126887641Y-78264500D01*
X126887631Y-78264505D01*
X126715664Y-78379410D01*
X126715660Y-78379413D01*
X126569413Y-78525660D01*
X126569410Y-78525664D01*
X126454505Y-78697631D01*
X126454500Y-78697641D01*
X126375351Y-78888723D01*
X126375350Y-78888725D01*
X126364157Y-78945000D01*
X123500500Y-78945000D01*
X123500500Y-77421153D01*
X128699500Y-77421153D01*
X128699500Y-77578846D01*
X128730261Y-77733489D01*
X128730264Y-77733501D01*
X128790602Y-77879172D01*
X128790609Y-77879185D01*
X128878210Y-78010288D01*
X128878213Y-78010292D01*
X128989707Y-78121786D01*
X128989711Y-78121789D01*
X129120814Y-78209390D01*
X129120827Y-78209397D01*
X129188961Y-78237618D01*
X129266503Y-78269737D01*
X129374185Y-78291156D01*
X129390939Y-78299920D01*
X129409418Y-78303940D01*
X129434454Y-78322682D01*
X129436092Y-78323539D01*
X129437672Y-78325091D01*
X129512589Y-78400008D01*
X129558268Y-78445687D01*
X129599994Y-78487413D01*
X129599996Y-78487414D01*
X129702756Y-78556076D01*
X129702760Y-78556078D01*
X129702767Y-78556083D01*
X129748314Y-78574949D01*
X129816966Y-78603386D01*
X129938192Y-78627499D01*
X129938196Y-78627500D01*
X129938197Y-78627500D01*
X130061803Y-78627500D01*
X130097975Y-78627500D01*
X130165014Y-78647185D01*
X130210769Y-78699989D01*
X130220713Y-78769147D01*
X130212536Y-78798953D01*
X130175351Y-78888723D01*
X130175350Y-78888725D01*
X130164157Y-78945000D01*
X131018012Y-78945000D01*
X131000795Y-78954940D01*
X130944940Y-79010795D01*
X130905444Y-79079204D01*
X130885000Y-79155504D01*
X130885000Y-79234496D01*
X130905444Y-79310796D01*
X130944940Y-79379205D01*
X131000795Y-79435060D01*
X131018012Y-79445000D01*
X130164157Y-79445000D01*
X130175350Y-79501274D01*
X130175351Y-79501276D01*
X130254500Y-79692358D01*
X130254505Y-79692368D01*
X130369410Y-79864335D01*
X130369413Y-79864339D01*
X130515660Y-80010586D01*
X130515664Y-80010589D01*
X130687631Y-80125494D01*
X130687641Y-80125499D01*
X130878725Y-80204649D01*
X130878733Y-80204651D01*
X131081579Y-80244999D01*
X131081583Y-80245000D01*
X131235000Y-80245000D01*
X131235000Y-79495000D01*
X131735000Y-79495000D01*
X131735000Y-80245000D01*
X131888417Y-80245000D01*
X131888420Y-80244999D01*
X132091266Y-80204651D01*
X132091274Y-80204649D01*
X132282358Y-80125499D01*
X132282368Y-80125494D01*
X132454335Y-80010589D01*
X132454339Y-80010586D01*
X132600586Y-79864339D01*
X132600592Y-79864331D01*
X132715496Y-79692364D01*
X132738232Y-79637475D01*
X132782073Y-79583071D01*
X132848366Y-79561005D01*
X132900247Y-79570365D01*
X132979966Y-79603386D01*
X133091142Y-79625500D01*
X133101192Y-79627499D01*
X133101196Y-79627500D01*
X133612477Y-79627500D01*
X133679516Y-79647185D01*
X133725271Y-79699989D01*
X133735215Y-79769147D01*
X133706190Y-79832703D01*
X133700158Y-79839181D01*
X133607684Y-79931654D01*
X133515643Y-80080875D01*
X133515641Y-80080880D01*
X133460494Y-80247302D01*
X133460493Y-80247309D01*
X133450000Y-80350013D01*
X133450000Y-81250000D01*
X134401000Y-81250000D01*
X134468039Y-81269685D01*
X134513794Y-81322489D01*
X134525000Y-81374000D01*
X134525000Y-81500000D01*
X134651000Y-81500000D01*
X134718039Y-81519685D01*
X134763794Y-81572489D01*
X134775000Y-81624000D01*
X134775000Y-83349999D01*
X134899972Y-83349999D01*
X134899986Y-83349998D01*
X135002697Y-83339505D01*
X135169119Y-83284358D01*
X135169123Y-83284356D01*
X135183400Y-83275550D01*
X135250792Y-83257108D01*
X135317456Y-83278028D01*
X135362227Y-83331669D01*
X135372500Y-83381087D01*
X135372500Y-92061807D01*
X135396612Y-92183027D01*
X135396614Y-92183035D01*
X135419106Y-92237335D01*
X135440281Y-92288456D01*
X135443917Y-92297233D01*
X135454798Y-92313517D01*
X135457491Y-92317548D01*
X135457493Y-92317550D01*
X135512590Y-92400010D01*
X135512591Y-92400011D01*
X137012589Y-93900008D01*
X137090091Y-93977510D01*
X137099993Y-93987412D01*
X137202760Y-94056079D01*
X137202773Y-94056086D01*
X137316960Y-94103383D01*
X137316965Y-94103385D01*
X137316969Y-94103385D01*
X137316970Y-94103386D01*
X137438194Y-94127500D01*
X137438197Y-94127500D01*
X145870804Y-94127500D01*
X145870805Y-94127499D01*
X145992035Y-94103386D01*
X146072784Y-94069937D01*
X146106233Y-94056083D01*
X146209008Y-93987411D01*
X146296411Y-93900008D01*
X147314472Y-92881947D01*
X162500000Y-92881947D01*
X162500000Y-93118052D01*
X162536934Y-93351247D01*
X162609897Y-93575802D01*
X162717087Y-93786174D01*
X162777338Y-93869104D01*
X162777340Y-93869105D01*
X163476212Y-93170233D01*
X163487482Y-93212292D01*
X163559890Y-93337708D01*
X163662292Y-93440110D01*
X163787708Y-93512518D01*
X163829765Y-93523787D01*
X163130893Y-94222658D01*
X163213828Y-94282914D01*
X163424197Y-94390102D01*
X163648752Y-94463065D01*
X163648751Y-94463065D01*
X163881948Y-94500000D01*
X164118052Y-94500000D01*
X164351247Y-94463065D01*
X164575802Y-94390102D01*
X164786163Y-94282918D01*
X164786169Y-94282914D01*
X164869104Y-94222658D01*
X164869105Y-94222658D01*
X164170233Y-93523787D01*
X164212292Y-93512518D01*
X164337708Y-93440110D01*
X164440110Y-93337708D01*
X164512518Y-93212292D01*
X164523787Y-93170234D01*
X165222658Y-93869105D01*
X165222658Y-93869104D01*
X165282914Y-93786169D01*
X165282918Y-93786163D01*
X165390102Y-93575802D01*
X165463065Y-93351247D01*
X165500000Y-93118052D01*
X165500000Y-92881947D01*
X165463065Y-92648752D01*
X165390102Y-92424197D01*
X165282914Y-92213828D01*
X165222658Y-92130894D01*
X165222658Y-92130893D01*
X164523787Y-92829765D01*
X164512518Y-92787708D01*
X164440110Y-92662292D01*
X164337708Y-92559890D01*
X164212292Y-92487482D01*
X164170234Y-92476212D01*
X164869105Y-91777340D01*
X164869104Y-91777338D01*
X164786174Y-91717087D01*
X164575802Y-91609897D01*
X164351247Y-91536934D01*
X164351248Y-91536934D01*
X164118052Y-91500000D01*
X163881948Y-91500000D01*
X163648752Y-91536934D01*
X163424197Y-91609897D01*
X163213830Y-91717084D01*
X163130894Y-91777340D01*
X163829766Y-92476212D01*
X163787708Y-92487482D01*
X163662292Y-92559890D01*
X163559890Y-92662292D01*
X163487482Y-92787708D01*
X163476212Y-92829765D01*
X162777340Y-92130894D01*
X162717084Y-92213830D01*
X162609897Y-92424197D01*
X162536934Y-92648752D01*
X162500000Y-92881947D01*
X147314472Y-92881947D01*
X155371328Y-84825089D01*
X155432649Y-84791606D01*
X155434648Y-84791189D01*
X155542497Y-84769737D01*
X155688179Y-84709394D01*
X155779466Y-84648398D01*
X155846143Y-84627520D01*
X155848357Y-84627500D01*
X158561805Y-84627500D01*
X158685560Y-84602883D01*
X158709752Y-84600500D01*
X160570725Y-84600500D01*
X160637764Y-84620185D01*
X160683519Y-84672989D01*
X160693463Y-84742147D01*
X160689802Y-84759094D01*
X160682334Y-84784797D01*
X160679500Y-84820811D01*
X160679500Y-85219169D01*
X160679501Y-85219191D01*
X160682335Y-85255205D01*
X160727129Y-85409388D01*
X160727131Y-85409393D01*
X160808863Y-85547595D01*
X160808869Y-85547603D01*
X160922396Y-85661130D01*
X160922400Y-85661133D01*
X160922402Y-85661135D01*
X161060607Y-85742869D01*
X161096063Y-85753170D01*
X161214791Y-85787664D01*
X161214794Y-85787664D01*
X161214796Y-85787665D01*
X161250819Y-85790500D01*
X161749180Y-85790499D01*
X161785204Y-85787665D01*
X161833515Y-85773629D01*
X161903380Y-85773827D01*
X161955789Y-85805024D01*
X166165425Y-90014660D01*
X166198910Y-90075983D01*
X166199361Y-90078149D01*
X166230261Y-90233491D01*
X166230264Y-90233501D01*
X166290602Y-90379172D01*
X166290609Y-90379185D01*
X166378210Y-90510288D01*
X166378213Y-90510292D01*
X166489707Y-90621786D01*
X166489711Y-90621789D01*
X166620814Y-90709390D01*
X166620827Y-90709397D01*
X166766498Y-90769735D01*
X166766503Y-90769737D01*
X166921153Y-90800499D01*
X166921156Y-90800500D01*
X166921158Y-90800500D01*
X167078844Y-90800500D01*
X167078845Y-90800499D01*
X167233497Y-90769737D01*
X167379179Y-90709394D01*
X167510289Y-90621789D01*
X167621789Y-90510289D01*
X167647398Y-90471963D01*
X167701010Y-90427158D01*
X167770335Y-90418451D01*
X167833363Y-90448605D01*
X167870082Y-90508048D01*
X167874500Y-90540854D01*
X167874500Y-91558669D01*
X167854815Y-91625708D01*
X167806796Y-91669153D01*
X167713569Y-91716655D01*
X167631338Y-91776400D01*
X167522490Y-91855483D01*
X167522488Y-91855485D01*
X167522487Y-91855485D01*
X167355485Y-92022487D01*
X167355485Y-92022488D01*
X167355483Y-92022490D01*
X167318461Y-92073446D01*
X167216657Y-92213566D01*
X167109433Y-92424003D01*
X167036446Y-92648631D01*
X166999500Y-92881902D01*
X166999500Y-93118097D01*
X167036446Y-93351368D01*
X167109433Y-93575996D01*
X167216519Y-93786163D01*
X167216657Y-93786433D01*
X167355483Y-93977510D01*
X167522490Y-94144517D01*
X167713567Y-94283343D01*
X167812991Y-94334002D01*
X167924003Y-94390566D01*
X167924005Y-94390566D01*
X167924008Y-94390568D01*
X168034897Y-94426598D01*
X168148631Y-94463553D01*
X168381903Y-94500500D01*
X168381908Y-94500500D01*
X168618097Y-94500500D01*
X168851368Y-94463553D01*
X168852870Y-94463065D01*
X169075992Y-94390568D01*
X169286433Y-94283343D01*
X169477510Y-94144517D01*
X169644517Y-93977510D01*
X169783343Y-93786433D01*
X169890568Y-93575992D01*
X169963553Y-93351368D01*
X169965717Y-93337708D01*
X170000500Y-93118097D01*
X170000500Y-92881902D01*
X169963553Y-92648631D01*
X169901340Y-92457162D01*
X169890568Y-92424008D01*
X169890566Y-92424005D01*
X169890566Y-92424003D01*
X169795453Y-92237334D01*
X169783343Y-92213567D01*
X169644517Y-92022490D01*
X169477510Y-91855483D01*
X169286433Y-91716657D01*
X169286432Y-91716656D01*
X169286430Y-91716655D01*
X169193204Y-91669153D01*
X169142409Y-91621178D01*
X169125500Y-91558669D01*
X169125500Y-80938389D01*
X169122545Y-80923537D01*
X169122543Y-80923531D01*
X169111791Y-80869477D01*
X169107818Y-80849500D01*
X169101463Y-80817548D01*
X169070755Y-80743413D01*
X169054314Y-80703720D01*
X169054307Y-80703707D01*
X168985859Y-80601268D01*
X168985858Y-80601267D01*
X168898733Y-80514142D01*
X168898732Y-80514141D01*
X167936819Y-79552228D01*
X167903334Y-79490905D01*
X167900500Y-79464547D01*
X167900500Y-79411306D01*
X167900499Y-79411304D01*
X167865896Y-79237341D01*
X167865893Y-79237332D01*
X167855228Y-79211585D01*
X167820400Y-79127500D01*
X167798016Y-79073459D01*
X167798009Y-79073446D01*
X167699464Y-78925965D01*
X167699461Y-78925961D01*
X167574038Y-78800538D01*
X167574034Y-78800535D01*
X167426553Y-78701990D01*
X167426540Y-78701983D01*
X167262667Y-78634106D01*
X167262658Y-78634103D01*
X167088694Y-78599500D01*
X167088691Y-78599500D01*
X167035453Y-78599500D01*
X167011761Y-78592543D01*
X166987228Y-78589738D01*
X166975636Y-78581935D01*
X166968414Y-78579815D01*
X166956997Y-78571524D01*
X166952176Y-78567585D01*
X166898733Y-78514142D01*
X166837998Y-78473560D01*
X166809447Y-78454482D01*
X166796285Y-78445687D01*
X166736545Y-78420943D01*
X166705604Y-78408127D01*
X166682452Y-78398537D01*
X166622029Y-78386518D01*
X166618028Y-78385722D01*
X166618020Y-78385720D01*
X166561610Y-78374500D01*
X166561607Y-78374500D01*
X166561606Y-78374500D01*
X166164596Y-78374500D01*
X166097557Y-78354815D01*
X166076915Y-78338181D01*
X166047603Y-78308869D01*
X166047595Y-78308863D01*
X165909393Y-78227131D01*
X165909388Y-78227129D01*
X165755208Y-78182335D01*
X165755202Y-78182334D01*
X165719181Y-78179500D01*
X165320830Y-78179500D01*
X165320808Y-78179501D01*
X165284794Y-78182335D01*
X165130611Y-78227129D01*
X165130604Y-78227132D01*
X165073119Y-78261128D01*
X165005395Y-78278309D01*
X164946881Y-78261128D01*
X164889395Y-78227132D01*
X164889388Y-78227129D01*
X164735208Y-78182335D01*
X164735202Y-78182334D01*
X164699181Y-78179500D01*
X164300830Y-78179500D01*
X164300808Y-78179501D01*
X164264794Y-78182335D01*
X164110611Y-78227129D01*
X164110606Y-78227131D01*
X163972404Y-78308863D01*
X163972396Y-78308869D01*
X163943085Y-78338181D01*
X163881762Y-78371666D01*
X163855404Y-78374500D01*
X162938389Y-78374500D01*
X162881983Y-78385720D01*
X162877971Y-78386518D01*
X162834743Y-78395116D01*
X162817546Y-78398537D01*
X162703716Y-78445687D01*
X162604953Y-78511679D01*
X162603592Y-78512589D01*
X162602050Y-78513618D01*
X162601261Y-78514146D01*
X161474741Y-79640668D01*
X161101269Y-80014140D01*
X161101267Y-80014142D01*
X161069170Y-80046239D01*
X161014142Y-80101266D01*
X160990827Y-80136160D01*
X160987503Y-80141135D01*
X160945688Y-80203714D01*
X160918025Y-80270500D01*
X160915655Y-80276219D01*
X160915654Y-80276223D01*
X160898538Y-80317545D01*
X160898535Y-80317555D01*
X160874500Y-80438389D01*
X160874500Y-83275500D01*
X160854815Y-83342539D01*
X160802011Y-83388294D01*
X160750500Y-83399500D01*
X158800097Y-83399500D01*
X158733058Y-83379815D01*
X158712416Y-83363181D01*
X156636819Y-81287584D01*
X156603334Y-81226261D01*
X156600500Y-81199903D01*
X156600500Y-76920943D01*
X156594754Y-76899500D01*
X156586640Y-76869216D01*
X156559577Y-76768216D01*
X156559573Y-76768209D01*
X156480524Y-76631290D01*
X156480521Y-76631286D01*
X156480520Y-76631284D01*
X156368716Y-76519480D01*
X156368715Y-76519479D01*
X156364385Y-76515149D01*
X156364374Y-76515139D01*
X153151416Y-73302181D01*
X153117931Y-73240858D01*
X153122915Y-73171166D01*
X153164787Y-73115233D01*
X153230251Y-73090816D01*
X153239097Y-73090500D01*
X153689903Y-73090500D01*
X153756942Y-73110185D01*
X153777584Y-73126819D01*
X154165425Y-73514660D01*
X154198910Y-73575983D01*
X154199361Y-73578149D01*
X154230261Y-73733491D01*
X154230264Y-73733501D01*
X154290602Y-73879172D01*
X154290609Y-73879185D01*
X154378210Y-74010288D01*
X154378213Y-74010292D01*
X154489707Y-74121786D01*
X154489711Y-74121789D01*
X154620814Y-74209390D01*
X154620827Y-74209397D01*
X154766498Y-74269735D01*
X154766503Y-74269737D01*
X154921153Y-74300499D01*
X154921156Y-74300500D01*
X154921158Y-74300500D01*
X155078844Y-74300500D01*
X155078845Y-74300499D01*
X155233497Y-74269737D01*
X155379179Y-74209394D01*
X155379185Y-74209390D01*
X155510875Y-74121398D01*
X155577553Y-74100520D01*
X155579766Y-74100500D01*
X163794903Y-74100500D01*
X163861942Y-74120185D01*
X163882584Y-74136819D01*
X171531241Y-81785476D01*
X171564726Y-81846799D01*
X171561492Y-81911473D01*
X171547753Y-81953757D01*
X171521140Y-82121789D01*
X171514500Y-82163713D01*
X171514500Y-82376287D01*
X171521606Y-82421153D01*
X171546581Y-82578842D01*
X171547754Y-82586243D01*
X171601870Y-82752795D01*
X171613444Y-82788414D01*
X171709951Y-82977820D01*
X171834890Y-83149786D01*
X171985213Y-83300109D01*
X172157182Y-83425050D01*
X172165946Y-83429516D01*
X172216742Y-83477491D01*
X172233536Y-83545312D01*
X172210998Y-83611447D01*
X172165946Y-83650484D01*
X172157182Y-83654949D01*
X171985213Y-83779890D01*
X171834890Y-83930213D01*
X171709951Y-84102179D01*
X171613444Y-84291585D01*
X171547753Y-84493760D01*
X171514500Y-84703713D01*
X171514500Y-84916286D01*
X171540035Y-85077511D01*
X171547754Y-85126243D01*
X171589656Y-85255205D01*
X171613444Y-85328414D01*
X171709951Y-85517820D01*
X171834890Y-85689786D01*
X171985213Y-85840109D01*
X172157182Y-85965050D01*
X172165946Y-85969516D01*
X172216742Y-86017491D01*
X172233536Y-86085312D01*
X172210998Y-86151447D01*
X172165946Y-86190484D01*
X172157182Y-86194949D01*
X171985213Y-86319890D01*
X171834890Y-86470213D01*
X171709951Y-86642179D01*
X171613444Y-86831585D01*
X171547753Y-87033760D01*
X171514500Y-87243713D01*
X171514500Y-87456286D01*
X171545457Y-87651745D01*
X171547754Y-87666243D01*
X171604746Y-87841647D01*
X171613444Y-87868414D01*
X171709951Y-88057820D01*
X171834890Y-88229786D01*
X171985213Y-88380109D01*
X172157182Y-88505050D01*
X172165946Y-88509516D01*
X172216742Y-88557491D01*
X172233536Y-88625312D01*
X172210998Y-88691447D01*
X172165946Y-88730484D01*
X172157182Y-88734949D01*
X171985213Y-88859890D01*
X171834890Y-89010213D01*
X171709951Y-89182179D01*
X171613444Y-89371585D01*
X171547753Y-89573760D01*
X171514500Y-89783713D01*
X171514500Y-89996286D01*
X171527575Y-90078842D01*
X171547754Y-90206243D01*
X171610297Y-90398731D01*
X171613444Y-90408414D01*
X171709951Y-90597820D01*
X171834890Y-90769786D01*
X171985213Y-90920109D01*
X172157179Y-91045048D01*
X172157181Y-91045049D01*
X172157184Y-91045051D01*
X172346588Y-91141557D01*
X172548757Y-91207246D01*
X172758713Y-91240500D01*
X172758714Y-91240500D01*
X172971286Y-91240500D01*
X172971287Y-91240500D01*
X173181243Y-91207246D01*
X173383412Y-91141557D01*
X173572816Y-91045051D01*
X173595729Y-91028404D01*
X173744786Y-90920109D01*
X173744788Y-90920106D01*
X173744792Y-90920104D01*
X173895104Y-90769792D01*
X173895106Y-90769788D01*
X173895109Y-90769786D01*
X174020048Y-90597820D01*
X174020047Y-90597820D01*
X174020051Y-90597816D01*
X174116557Y-90408412D01*
X174182246Y-90206243D01*
X174215500Y-89996287D01*
X174215500Y-89783713D01*
X174182246Y-89573757D01*
X174116557Y-89371588D01*
X174020051Y-89182184D01*
X174020049Y-89182181D01*
X174020048Y-89182179D01*
X173895109Y-89010213D01*
X173744786Y-88859890D01*
X173572820Y-88734951D01*
X173572115Y-88734591D01*
X173564054Y-88730485D01*
X173513259Y-88682512D01*
X173496463Y-88614692D01*
X173518999Y-88548556D01*
X173564054Y-88509515D01*
X173572816Y-88505051D01*
X173608587Y-88479062D01*
X173744786Y-88380109D01*
X173744788Y-88380106D01*
X173744792Y-88380104D01*
X173895104Y-88229792D01*
X173915629Y-88201542D01*
X173932287Y-88178615D01*
X173987616Y-88135949D01*
X174032605Y-88127500D01*
X174857404Y-88127500D01*
X174924443Y-88147185D01*
X174945085Y-88163819D01*
X174972396Y-88191130D01*
X174972400Y-88191133D01*
X174972402Y-88191135D01*
X175110607Y-88272869D01*
X175110614Y-88272871D01*
X175264791Y-88317664D01*
X175264794Y-88317664D01*
X175264796Y-88317665D01*
X175300819Y-88320500D01*
X175699180Y-88320499D01*
X175735204Y-88317665D01*
X175889393Y-88272869D01*
X175946882Y-88238869D01*
X176014602Y-88221688D01*
X176073117Y-88238869D01*
X176130607Y-88272869D01*
X176130610Y-88272869D01*
X176130612Y-88272871D01*
X176284791Y-88317664D01*
X176284794Y-88317664D01*
X176284796Y-88317665D01*
X176320819Y-88320500D01*
X176719180Y-88320499D01*
X176755204Y-88317665D01*
X176909393Y-88272869D01*
X177047598Y-88191135D01*
X177161135Y-88077598D01*
X177242869Y-87939393D01*
X177287665Y-87785204D01*
X177290500Y-87749181D01*
X177290499Y-87668281D01*
X177299145Y-87638834D01*
X177305669Y-87608852D01*
X177309420Y-87603840D01*
X177310183Y-87601244D01*
X177326820Y-87580598D01*
X177343603Y-87563816D01*
X177404928Y-87530333D01*
X177431282Y-87527500D01*
X178418691Y-87527500D01*
X178485730Y-87547185D01*
X178506372Y-87563819D01*
X178510629Y-87568076D01*
X178510633Y-87568079D01*
X178510635Y-87568081D01*
X178652102Y-87651744D01*
X178693724Y-87663836D01*
X178809926Y-87697597D01*
X178809929Y-87697597D01*
X178809931Y-87697598D01*
X178846806Y-87700500D01*
X178846814Y-87700500D01*
X180153186Y-87700500D01*
X180153194Y-87700500D01*
X180190069Y-87697598D01*
X180190071Y-87697597D01*
X180190073Y-87697597D01*
X180231691Y-87685505D01*
X180347898Y-87651744D01*
X180489365Y-87568081D01*
X180605581Y-87451865D01*
X180689244Y-87310398D01*
X180735098Y-87152569D01*
X180738000Y-87115694D01*
X180738000Y-86874000D01*
X180757685Y-86806961D01*
X180810489Y-86761206D01*
X180862000Y-86750000D01*
X181125000Y-86750000D01*
X181625000Y-86750000D01*
X182028134Y-86750000D01*
X182028149Y-86749999D01*
X182064989Y-86747100D01*
X182064995Y-86747099D01*
X182222693Y-86701283D01*
X182222696Y-86701282D01*
X182364052Y-86617685D01*
X182364061Y-86617678D01*
X182480178Y-86501561D01*
X182480185Y-86501552D01*
X182563781Y-86360198D01*
X182609600Y-86202486D01*
X182609795Y-86200001D01*
X182609795Y-86200000D01*
X181625000Y-86200000D01*
X181625000Y-86750000D01*
X181125000Y-86750000D01*
X181125000Y-86200000D01*
X180469315Y-86200000D01*
X180406194Y-86182732D01*
X180402094Y-86180307D01*
X180347898Y-86148256D01*
X180347897Y-86148255D01*
X180347896Y-86148255D01*
X180347893Y-86148254D01*
X180190073Y-86102402D01*
X180190067Y-86102401D01*
X180153201Y-86099500D01*
X180153194Y-86099500D01*
X178846806Y-86099500D01*
X178846798Y-86099500D01*
X178809932Y-86102401D01*
X178809926Y-86102402D01*
X178652106Y-86148254D01*
X178652103Y-86148255D01*
X178510637Y-86231917D01*
X178510629Y-86231923D01*
X178506372Y-86236181D01*
X178445049Y-86269666D01*
X178418691Y-86272500D01*
X177058195Y-86272500D01*
X176936970Y-86296613D01*
X176936960Y-86296616D01*
X176822769Y-86343915D01*
X176724775Y-86409393D01*
X176719991Y-86412588D01*
X176489398Y-86643181D01*
X176465037Y-86656482D01*
X176442449Y-86672619D01*
X176432367Y-86674322D01*
X176428075Y-86676666D01*
X176407802Y-86679351D01*
X176404762Y-86679500D01*
X176320820Y-86679501D01*
X176284796Y-86682335D01*
X176272119Y-86686017D01*
X176257585Y-86686732D01*
X176237190Y-86681816D01*
X176216215Y-86681755D01*
X176203909Y-86673795D01*
X176189661Y-86670361D01*
X176175162Y-86655200D01*
X176157548Y-86643807D01*
X176151498Y-86630457D01*
X176141370Y-86619866D01*
X176137369Y-86599274D01*
X176128711Y-86580167D01*
X176127500Y-86562881D01*
X176127500Y-86117667D01*
X176144768Y-86054546D01*
X176195054Y-85969516D01*
X176212869Y-85939393D01*
X176254065Y-85797597D01*
X176257664Y-85785208D01*
X176257664Y-85785206D01*
X176257665Y-85785204D01*
X176260500Y-85749181D01*
X176260499Y-85250820D01*
X176257665Y-85214796D01*
X176212869Y-85060607D01*
X176131135Y-84922402D01*
X176131133Y-84922400D01*
X176131130Y-84922396D01*
X176017603Y-84808869D01*
X176017595Y-84808863D01*
X175879393Y-84727131D01*
X175879388Y-84727129D01*
X175725208Y-84682335D01*
X175725202Y-84682334D01*
X175689181Y-84679500D01*
X175290830Y-84679500D01*
X175290808Y-84679501D01*
X175254794Y-84682335D01*
X175100611Y-84727129D01*
X175100606Y-84727131D01*
X174962404Y-84808863D01*
X174962396Y-84808869D01*
X174848869Y-84922396D01*
X174848863Y-84922404D01*
X174767131Y-85060606D01*
X174767129Y-85060611D01*
X174722335Y-85214791D01*
X174722334Y-85214797D01*
X174719500Y-85250811D01*
X174719500Y-85749169D01*
X174719501Y-85749191D01*
X174722335Y-85785205D01*
X174767129Y-85939388D01*
X174767131Y-85939393D01*
X174852836Y-86084313D01*
X174850796Y-86085519D01*
X174872014Y-86139561D01*
X174872500Y-86150523D01*
X174872500Y-86748500D01*
X174852815Y-86815539D01*
X174800011Y-86861294D01*
X174748500Y-86872500D01*
X174213390Y-86872500D01*
X174146351Y-86852815D01*
X174102905Y-86804795D01*
X174020051Y-86642184D01*
X174020049Y-86642181D01*
X174020048Y-86642179D01*
X173895109Y-86470213D01*
X173744786Y-86319890D01*
X173572820Y-86194951D01*
X173572115Y-86194591D01*
X173564054Y-86190485D01*
X173513259Y-86142512D01*
X173496463Y-86074692D01*
X173518999Y-86008556D01*
X173564054Y-85969515D01*
X173572816Y-85965051D01*
X173594789Y-85949086D01*
X173744786Y-85840109D01*
X173744788Y-85840106D01*
X173744792Y-85840104D01*
X173895104Y-85689792D01*
X173895106Y-85689788D01*
X173895109Y-85689786D01*
X174020048Y-85517820D01*
X174020047Y-85517820D01*
X174020051Y-85517816D01*
X174116557Y-85328412D01*
X174182246Y-85126243D01*
X174215500Y-84916287D01*
X174215500Y-84703713D01*
X174182246Y-84493757D01*
X174116557Y-84291588D01*
X174020051Y-84102184D01*
X174020049Y-84102181D01*
X174020048Y-84102179D01*
X173895109Y-83930213D01*
X173744786Y-83779890D01*
X173572820Y-83654951D01*
X173572115Y-83654591D01*
X173564054Y-83650485D01*
X173513259Y-83602512D01*
X173496463Y-83534692D01*
X173518999Y-83468556D01*
X173564054Y-83429515D01*
X173572816Y-83425051D01*
X173633328Y-83381087D01*
X173744786Y-83300109D01*
X173744788Y-83300106D01*
X173744792Y-83300104D01*
X173881077Y-83163819D01*
X173942400Y-83130334D01*
X173968758Y-83127500D01*
X174920362Y-83127500D01*
X174987401Y-83147185D01*
X175033156Y-83199989D01*
X175038064Y-83212488D01*
X175057035Y-83269735D01*
X175065185Y-83294331D01*
X175065187Y-83294336D01*
X175093048Y-83339506D01*
X175157288Y-83443656D01*
X175281344Y-83567712D01*
X175430666Y-83659814D01*
X175577349Y-83708420D01*
X175626026Y-83738445D01*
X177287589Y-85400008D01*
X177334459Y-85446878D01*
X177374993Y-85487412D01*
X177477760Y-85556079D01*
X177477773Y-85556086D01*
X177591960Y-85603383D01*
X177591965Y-85603385D01*
X177591969Y-85603385D01*
X177591970Y-85603386D01*
X177713194Y-85627500D01*
X177713197Y-85627500D01*
X178418691Y-85627500D01*
X178485730Y-85647185D01*
X178506372Y-85663819D01*
X178510629Y-85668076D01*
X178510633Y-85668079D01*
X178510635Y-85668081D01*
X178652102Y-85751744D01*
X178693724Y-85763836D01*
X178809926Y-85797597D01*
X178809929Y-85797597D01*
X178809931Y-85797598D01*
X178846806Y-85800500D01*
X178846814Y-85800500D01*
X180153186Y-85800500D01*
X180153194Y-85800500D01*
X180190069Y-85797598D01*
X180190071Y-85797597D01*
X180190073Y-85797597D01*
X180234133Y-85784796D01*
X180347898Y-85751744D01*
X180406194Y-85717268D01*
X180469315Y-85700000D01*
X181125000Y-85700000D01*
X181625000Y-85700000D01*
X182609795Y-85700000D01*
X182609795Y-85699998D01*
X182609600Y-85697513D01*
X182563781Y-85539801D01*
X182480185Y-85398447D01*
X182480178Y-85398438D01*
X182364061Y-85282321D01*
X182364052Y-85282314D01*
X182222696Y-85198717D01*
X182222693Y-85198716D01*
X182064995Y-85152900D01*
X182064989Y-85152899D01*
X182028149Y-85150000D01*
X181625000Y-85150000D01*
X181625000Y-85700000D01*
X181125000Y-85700000D01*
X181125000Y-85150000D01*
X180862000Y-85150000D01*
X180794961Y-85130315D01*
X180749206Y-85077511D01*
X180738000Y-85026000D01*
X180738000Y-84784313D01*
X180737999Y-84784298D01*
X180736464Y-84764796D01*
X180735098Y-84747431D01*
X180730288Y-84730876D01*
X180695348Y-84610611D01*
X180689244Y-84589602D01*
X180605581Y-84448135D01*
X180605579Y-84448133D01*
X180605576Y-84448129D01*
X180489370Y-84331923D01*
X180489362Y-84331917D01*
X180347896Y-84248255D01*
X180347893Y-84248254D01*
X180190073Y-84202402D01*
X180190067Y-84202401D01*
X180153201Y-84199500D01*
X180153194Y-84199500D01*
X178846806Y-84199500D01*
X178846798Y-84199500D01*
X178809932Y-84202401D01*
X178809926Y-84202402D01*
X178652106Y-84248254D01*
X178652103Y-84248255D01*
X178510637Y-84331917D01*
X178510629Y-84331923D01*
X178506372Y-84336181D01*
X178445049Y-84369666D01*
X178418691Y-84372500D01*
X178086281Y-84372500D01*
X178019242Y-84352815D01*
X177998600Y-84336181D01*
X177599098Y-83936679D01*
X177565613Y-83875356D01*
X177570597Y-83805664D01*
X177612469Y-83749731D01*
X177632881Y-83742117D01*
X177649999Y-83724999D01*
X178150000Y-83724999D01*
X178199972Y-83724999D01*
X178199986Y-83724998D01*
X178302697Y-83714505D01*
X178469119Y-83659358D01*
X178469124Y-83659356D01*
X178618345Y-83567315D01*
X178742315Y-83443345D01*
X178834356Y-83294124D01*
X178834358Y-83294119D01*
X178889505Y-83127697D01*
X178889506Y-83127690D01*
X178899999Y-83024986D01*
X178900000Y-83024973D01*
X178900000Y-82750000D01*
X178150000Y-82750000D01*
X178150000Y-83724999D01*
X177649999Y-83724999D01*
X177650000Y-83724998D01*
X177650000Y-82250000D01*
X178150000Y-82250000D01*
X178899999Y-82250000D01*
X178899999Y-81975028D01*
X178899998Y-81975013D01*
X178889505Y-81872302D01*
X178834358Y-81705880D01*
X178834356Y-81705875D01*
X178742315Y-81556654D01*
X178618345Y-81432684D01*
X178469124Y-81340643D01*
X178469119Y-81340641D01*
X178302697Y-81285494D01*
X178302690Y-81285493D01*
X178199986Y-81275000D01*
X178150000Y-81275000D01*
X178150000Y-82250000D01*
X177650000Y-82250000D01*
X177650000Y-81275000D01*
X177649999Y-81274999D01*
X177600029Y-81275000D01*
X177600011Y-81275001D01*
X177497302Y-81285494D01*
X177330880Y-81340641D01*
X177330875Y-81340643D01*
X177181654Y-81432684D01*
X177057683Y-81556655D01*
X177057679Y-81556660D01*
X177055826Y-81559665D01*
X177054018Y-81561290D01*
X177053202Y-81562323D01*
X177053025Y-81562183D01*
X177003874Y-81606385D01*
X176934911Y-81617601D01*
X176870831Y-81589752D01*
X176844753Y-81559653D01*
X176844737Y-81559628D01*
X176842712Y-81556344D01*
X176718656Y-81432288D01*
X176569334Y-81340186D01*
X176402797Y-81285001D01*
X176402795Y-81285000D01*
X176300010Y-81274500D01*
X175699998Y-81274500D01*
X175699980Y-81274501D01*
X175597203Y-81285000D01*
X175597200Y-81285001D01*
X175430668Y-81340185D01*
X175430663Y-81340187D01*
X175281342Y-81432289D01*
X175157289Y-81556342D01*
X175065187Y-81705663D01*
X175065185Y-81705668D01*
X175065115Y-81705880D01*
X175039924Y-81781904D01*
X175038068Y-81787504D01*
X174998295Y-81844949D01*
X174933780Y-81871772D01*
X174920362Y-81872500D01*
X174245935Y-81872500D01*
X174178896Y-81852815D01*
X174133141Y-81800011D01*
X174128004Y-81786819D01*
X174116555Y-81751583D01*
X174042572Y-81606385D01*
X174020051Y-81562184D01*
X174020049Y-81562181D01*
X174020048Y-81562179D01*
X173895109Y-81390213D01*
X173744786Y-81239890D01*
X173572820Y-81114951D01*
X173572115Y-81114591D01*
X173564054Y-81110485D01*
X173513259Y-81062512D01*
X173496463Y-80994692D01*
X173518999Y-80928556D01*
X173564054Y-80889515D01*
X173572816Y-80885051D01*
X173621748Y-80849500D01*
X173744786Y-80760109D01*
X173744788Y-80760106D01*
X173744792Y-80760104D01*
X173895104Y-80609792D01*
X173895106Y-80609788D01*
X173895109Y-80609786D01*
X174020048Y-80437820D01*
X174020047Y-80437820D01*
X174020051Y-80437816D01*
X174116557Y-80248412D01*
X174182246Y-80046243D01*
X174215500Y-79836287D01*
X174215500Y-79623713D01*
X174182246Y-79413757D01*
X174116557Y-79211588D01*
X174020051Y-79022184D01*
X174020049Y-79022181D01*
X174020048Y-79022179D01*
X173895109Y-78850213D01*
X173744786Y-78699890D01*
X173572820Y-78574951D01*
X173572115Y-78574591D01*
X173564054Y-78570485D01*
X173513259Y-78522512D01*
X173496463Y-78454692D01*
X173518999Y-78388556D01*
X173564054Y-78349515D01*
X173572816Y-78345051D01*
X173636948Y-78298457D01*
X173744786Y-78220109D01*
X173744788Y-78220106D01*
X173744792Y-78220104D01*
X173895104Y-78069792D01*
X173895106Y-78069788D01*
X173895109Y-78069786D01*
X174004086Y-77919789D01*
X174020051Y-77897816D01*
X174116557Y-77708412D01*
X174182246Y-77506243D01*
X174215500Y-77296287D01*
X174215500Y-77083713D01*
X174182246Y-76873757D01*
X174116557Y-76671588D01*
X174020051Y-76482184D01*
X174020049Y-76482181D01*
X174020048Y-76482179D01*
X173895109Y-76310213D01*
X173744786Y-76159890D01*
X173572820Y-76034951D01*
X173572115Y-76034591D01*
X173564054Y-76030485D01*
X173513259Y-75982512D01*
X173496463Y-75914692D01*
X173518999Y-75848556D01*
X173564054Y-75809515D01*
X173572816Y-75805051D01*
X173594789Y-75789086D01*
X173744786Y-75680109D01*
X173744788Y-75680106D01*
X173744792Y-75680104D01*
X173895104Y-75529792D01*
X173895106Y-75529788D01*
X173895109Y-75529786D01*
X173970421Y-75426126D01*
X174020051Y-75357816D01*
X174022223Y-75353554D01*
X174040235Y-75318205D01*
X174050683Y-75307142D01*
X174057006Y-75293297D01*
X174074187Y-75282255D01*
X174088209Y-75267409D01*
X174103888Y-75263167D01*
X174115784Y-75255523D01*
X174150719Y-75250500D01*
X174263331Y-75250500D01*
X174263347Y-75250501D01*
X174270943Y-75250501D01*
X174429054Y-75250501D01*
X174429057Y-75250501D01*
X174581785Y-75209577D01*
X174631904Y-75180639D01*
X174718716Y-75130520D01*
X174830520Y-75018716D01*
X174830520Y-75018714D01*
X174840728Y-75008507D01*
X174840730Y-75008504D01*
X174868713Y-74980521D01*
X174868716Y-74980520D01*
X174980520Y-74868716D01*
X175030639Y-74781904D01*
X175059577Y-74731785D01*
X175100501Y-74579057D01*
X175100501Y-74420943D01*
X175100501Y-74413348D01*
X175100500Y-74413330D01*
X175100500Y-73420945D01*
X175100500Y-73420943D01*
X175059577Y-73268216D01*
X174986295Y-73141286D01*
X174980524Y-73131290D01*
X174980521Y-73131286D01*
X174980520Y-73131284D01*
X174868716Y-73019480D01*
X174868715Y-73019479D01*
X174864385Y-73015149D01*
X174864374Y-73015139D01*
X174652819Y-72803584D01*
X174619334Y-72742261D01*
X174616500Y-72715903D01*
X174616500Y-70879945D01*
X174616500Y-70879943D01*
X174575577Y-70727216D01*
X174543003Y-70670796D01*
X174496524Y-70590290D01*
X174496518Y-70590282D01*
X174384717Y-70478481D01*
X174384709Y-70478475D01*
X174247790Y-70399426D01*
X174247786Y-70399424D01*
X174247784Y-70399423D01*
X174095057Y-70358500D01*
X174095056Y-70358500D01*
X172259097Y-70358500D01*
X172192058Y-70338815D01*
X172171416Y-70322181D01*
X169987819Y-68138584D01*
X169954334Y-68077261D01*
X169951500Y-68050903D01*
X169951500Y-66913389D01*
X172899500Y-66913389D01*
X172899500Y-67086611D01*
X172926598Y-67257701D01*
X172980127Y-67422445D01*
X173058768Y-67576788D01*
X173160586Y-67716928D01*
X173283072Y-67839414D01*
X173423212Y-67941232D01*
X173577555Y-68019873D01*
X173742299Y-68073402D01*
X173913389Y-68100500D01*
X173913390Y-68100500D01*
X174086610Y-68100500D01*
X174086611Y-68100500D01*
X174257701Y-68073402D01*
X174422445Y-68019873D01*
X174576788Y-67941232D01*
X174716928Y-67839414D01*
X174839414Y-67716928D01*
X174941232Y-67576788D01*
X175019873Y-67422445D01*
X175073402Y-67257701D01*
X175100500Y-67086611D01*
X175100500Y-66913389D01*
X175073402Y-66742299D01*
X175019873Y-66577555D01*
X174941232Y-66423212D01*
X174839414Y-66283072D01*
X174716928Y-66160586D01*
X174576788Y-66058768D01*
X174422445Y-65980127D01*
X174257701Y-65926598D01*
X174257699Y-65926597D01*
X174257698Y-65926597D01*
X174126271Y-65905781D01*
X174086611Y-65899500D01*
X173913389Y-65899500D01*
X173873728Y-65905781D01*
X173742302Y-65926597D01*
X173577552Y-65980128D01*
X173423211Y-66058768D01*
X173343256Y-66116859D01*
X173283072Y-66160586D01*
X173283070Y-66160588D01*
X173283069Y-66160588D01*
X173160588Y-66283069D01*
X173160588Y-66283070D01*
X173160586Y-66283072D01*
X173116859Y-66343256D01*
X173058768Y-66423211D01*
X172980128Y-66577552D01*
X172926597Y-66742302D01*
X172899500Y-66913389D01*
X169951500Y-66913389D01*
X169951500Y-64307224D01*
X169951501Y-64307211D01*
X169951501Y-64139108D01*
X169951501Y-64139107D01*
X169910577Y-63986380D01*
X169878801Y-63931342D01*
X169831524Y-63849454D01*
X169831518Y-63849446D01*
X169660553Y-63678481D01*
X169660545Y-63678475D01*
X169555216Y-63617664D01*
X169555213Y-63617663D01*
X169523622Y-63599423D01*
X169523623Y-63599423D01*
X169462529Y-63583053D01*
X169370893Y-63558499D01*
X169212779Y-63558499D01*
X169205183Y-63558499D01*
X169205167Y-63558500D01*
X167959097Y-63558500D01*
X167892058Y-63538815D01*
X167871416Y-63522181D01*
X166057590Y-61708355D01*
X166057588Y-61708352D01*
X165938717Y-61589481D01*
X165938716Y-61589480D01*
X165851904Y-61539360D01*
X165851904Y-61539359D01*
X165851900Y-61539358D01*
X165801785Y-61510423D01*
X165649057Y-61469499D01*
X165490943Y-61469499D01*
X165483347Y-61469499D01*
X165483331Y-61469500D01*
X161785719Y-61469500D01*
X161718680Y-61449815D01*
X161675235Y-61401795D01*
X161655052Y-61362185D01*
X161655051Y-61362184D01*
X161530109Y-61190213D01*
X161379786Y-61039890D01*
X161207820Y-60914951D01*
X161018414Y-60818444D01*
X161018413Y-60818443D01*
X161018412Y-60818443D01*
X160816243Y-60752754D01*
X160816241Y-60752753D01*
X160816240Y-60752753D01*
X160654957Y-60727208D01*
X160606287Y-60719500D01*
X160393713Y-60719500D01*
X160345042Y-60727208D01*
X160183760Y-60752753D01*
X159981585Y-60818444D01*
X159792179Y-60914951D01*
X159620213Y-61039890D01*
X159469890Y-61190213D01*
X159344949Y-61362182D01*
X159340484Y-61370946D01*
X159292509Y-61421742D01*
X159224688Y-61438536D01*
X159158553Y-61415998D01*
X159119516Y-61370946D01*
X159115050Y-61362182D01*
X158990109Y-61190213D01*
X158839786Y-61039890D01*
X158667820Y-60914951D01*
X158478414Y-60818444D01*
X158478413Y-60818443D01*
X158478412Y-60818443D01*
X158276243Y-60752754D01*
X158276241Y-60752753D01*
X158276240Y-60752753D01*
X158114957Y-60727208D01*
X158066287Y-60719500D01*
X157853713Y-60719500D01*
X157805042Y-60727208D01*
X157643760Y-60752753D01*
X157441585Y-60818444D01*
X157252179Y-60914951D01*
X157080215Y-61039889D01*
X156966673Y-61153431D01*
X156905350Y-61186915D01*
X156835658Y-61181931D01*
X156779725Y-61140059D01*
X156762810Y-61109082D01*
X156713797Y-60977671D01*
X156713793Y-60977664D01*
X156627547Y-60862455D01*
X156627544Y-60862452D01*
X156512335Y-60776206D01*
X156512328Y-60776202D01*
X156377482Y-60725908D01*
X156377483Y-60725908D01*
X156317883Y-60719501D01*
X156317881Y-60719500D01*
X156317873Y-60719500D01*
X156317864Y-60719500D01*
X154522129Y-60719500D01*
X154522123Y-60719501D01*
X154462516Y-60725908D01*
X154327671Y-60776202D01*
X154327664Y-60776206D01*
X154212455Y-60862452D01*
X154212452Y-60862455D01*
X154126206Y-60977664D01*
X154126202Y-60977671D01*
X154075908Y-61112517D01*
X154069501Y-61172116D01*
X154069500Y-61172135D01*
X154069500Y-61275500D01*
X154049815Y-61342539D01*
X153997011Y-61388294D01*
X153945500Y-61399500D01*
X144920943Y-61399500D01*
X144768216Y-61440423D01*
X144768209Y-61440426D01*
X144631290Y-61519475D01*
X144631282Y-61519481D01*
X144519481Y-61631282D01*
X144519475Y-61631290D01*
X144440426Y-61768209D01*
X144440423Y-61768216D01*
X144399500Y-61920943D01*
X144399500Y-70318003D01*
X144379815Y-70385042D01*
X144327011Y-70430797D01*
X144257853Y-70440741D01*
X144194297Y-70411716D01*
X144187819Y-70405684D01*
X143940490Y-70158355D01*
X143940488Y-70158352D01*
X143821617Y-70039481D01*
X143821616Y-70039480D01*
X143734804Y-69989360D01*
X143734804Y-69989359D01*
X143734800Y-69989358D01*
X143684685Y-69960423D01*
X143531957Y-69919499D01*
X143373843Y-69919499D01*
X143366247Y-69919499D01*
X143366231Y-69919500D01*
X142079766Y-69919500D01*
X142012727Y-69899815D01*
X142010875Y-69898602D01*
X141879185Y-69810609D01*
X141879172Y-69810602D01*
X141733501Y-69750264D01*
X141733489Y-69750261D01*
X141578845Y-69719500D01*
X141578842Y-69719500D01*
X141421158Y-69719500D01*
X141421155Y-69719500D01*
X141266510Y-69750261D01*
X141266498Y-69750264D01*
X141120827Y-69810602D01*
X141120814Y-69810609D01*
X141019057Y-69878602D01*
X140952379Y-69899480D01*
X140950166Y-69899500D01*
X137586670Y-69899500D01*
X137586654Y-69899499D01*
X137579058Y-69899499D01*
X137420943Y-69899499D01*
X137346304Y-69919499D01*
X137268214Y-69940423D01*
X137268209Y-69940426D01*
X137131290Y-70019475D01*
X137131282Y-70019481D01*
X136019481Y-71131282D01*
X136019479Y-71131285D01*
X135969361Y-71218094D01*
X135969359Y-71218096D01*
X135940425Y-71268209D01*
X135940424Y-71268210D01*
X135934656Y-71289737D01*
X135899499Y-71420943D01*
X135899499Y-71420945D01*
X135899499Y-71589046D01*
X135899500Y-71589059D01*
X135899500Y-72114802D01*
X135899499Y-72114820D01*
X135899499Y-72280526D01*
X135899498Y-72280526D01*
X135940424Y-72433259D01*
X135950966Y-72451519D01*
X135950969Y-72451524D01*
X135953798Y-72456423D01*
X136019480Y-72570188D01*
X136071454Y-72622162D01*
X136077568Y-72630821D01*
X136085573Y-72654254D01*
X136097439Y-72675985D01*
X136097890Y-72678151D01*
X136128789Y-72833491D01*
X136128792Y-72833501D01*
X136189130Y-72979172D01*
X136189137Y-72979185D01*
X136276738Y-73110288D01*
X136276741Y-73110292D01*
X136388235Y-73221786D01*
X136388239Y-73221789D01*
X136519342Y-73309390D01*
X136519355Y-73309397D01*
X136575745Y-73332754D01*
X136665031Y-73369737D01*
X136809345Y-73398443D01*
X136819681Y-73400499D01*
X136819684Y-73400500D01*
X136819686Y-73400500D01*
X136977372Y-73400500D01*
X136977373Y-73400499D01*
X137132025Y-73369737D01*
X137277707Y-73309394D01*
X137408817Y-73221789D01*
X137520317Y-73110289D01*
X137600692Y-72990000D01*
X142447156Y-72990000D01*
X143010000Y-72990000D01*
X143510000Y-72990000D01*
X144072844Y-72990000D01*
X144032404Y-72850805D01*
X143950738Y-72712714D01*
X143950731Y-72712705D01*
X143837294Y-72599268D01*
X143837285Y-72599261D01*
X143699191Y-72517593D01*
X143699188Y-72517592D01*
X143545130Y-72472834D01*
X143510000Y-72470068D01*
X143510000Y-72990000D01*
X143010000Y-72990000D01*
X143010000Y-72470068D01*
X143009999Y-72470068D01*
X142974869Y-72472834D01*
X142974868Y-72472834D01*
X142820811Y-72517592D01*
X142820808Y-72517593D01*
X142682714Y-72599261D01*
X142682705Y-72599268D01*
X142569268Y-72712705D01*
X142569261Y-72712714D01*
X142487595Y-72850805D01*
X142447156Y-72990000D01*
X137600692Y-72990000D01*
X137607922Y-72979179D01*
X137607925Y-72979172D01*
X137612780Y-72967452D01*
X137668263Y-72833501D01*
X137668265Y-72833497D01*
X137699028Y-72678842D01*
X137699028Y-72521158D01*
X137699028Y-72521155D01*
X137699027Y-72521153D01*
X137685176Y-72451519D01*
X137668265Y-72366503D01*
X137632654Y-72280529D01*
X137607925Y-72220827D01*
X137607918Y-72220814D01*
X137520317Y-72089711D01*
X137520314Y-72089707D01*
X137408820Y-71978213D01*
X137408816Y-71978210D01*
X137277713Y-71890609D01*
X137277701Y-71890602D01*
X137223537Y-71868168D01*
X137169133Y-71824328D01*
X137147068Y-71758034D01*
X137164347Y-71690334D01*
X137183304Y-71665931D01*
X137712417Y-71136819D01*
X137773740Y-71103334D01*
X137800098Y-71100500D01*
X140897059Y-71100500D01*
X140964098Y-71120185D01*
X140984740Y-71136819D01*
X140989707Y-71141786D01*
X140989711Y-71141789D01*
X141120814Y-71229390D01*
X141120827Y-71229397D01*
X141261305Y-71287584D01*
X141266503Y-71289737D01*
X141421153Y-71320499D01*
X141421156Y-71320500D01*
X141421158Y-71320500D01*
X141578844Y-71320500D01*
X141578845Y-71320499D01*
X141733497Y-71289737D01*
X141879179Y-71229394D01*
X141896091Y-71218094D01*
X142010875Y-71141398D01*
X142077553Y-71120520D01*
X142079766Y-71120500D01*
X143152803Y-71120500D01*
X143219842Y-71140185D01*
X143240484Y-71156819D01*
X147170484Y-75086819D01*
X147203969Y-75148142D01*
X147198985Y-75217834D01*
X147157113Y-75273767D01*
X147091649Y-75298184D01*
X147082803Y-75298500D01*
X147021940Y-75298500D01*
X146981019Y-75309464D01*
X146981019Y-75309465D01*
X146943751Y-75319451D01*
X146869214Y-75339423D01*
X146869209Y-75339426D01*
X146732290Y-75418475D01*
X146732282Y-75418481D01*
X146620480Y-75530283D01*
X146620480Y-75530284D01*
X146620478Y-75530286D01*
X146550764Y-75600000D01*
X146485338Y-75665426D01*
X146424015Y-75698910D01*
X146421849Y-75699361D01*
X146266508Y-75730261D01*
X146266498Y-75730264D01*
X146120827Y-75790602D01*
X146120814Y-75790609D01*
X145989711Y-75878210D01*
X145989707Y-75878213D01*
X145878213Y-75989707D01*
X145878210Y-75989711D01*
X145790609Y-76120814D01*
X145790602Y-76120827D01*
X145730264Y-76266498D01*
X145730261Y-76266510D01*
X145699500Y-76421153D01*
X145699500Y-76578846D01*
X145730261Y-76733489D01*
X145730264Y-76733501D01*
X145790602Y-76879172D01*
X145790609Y-76879185D01*
X145878210Y-77010288D01*
X145878213Y-77010292D01*
X145989707Y-77121786D01*
X145989711Y-77121789D01*
X146120814Y-77209390D01*
X146120827Y-77209397D01*
X146258695Y-77266503D01*
X146266503Y-77269737D01*
X146399973Y-77296286D01*
X146421153Y-77300499D01*
X146421156Y-77300500D01*
X146421158Y-77300500D01*
X146578844Y-77300500D01*
X146578845Y-77300499D01*
X146733497Y-77269737D01*
X146879179Y-77209394D01*
X147010289Y-77121789D01*
X147121789Y-77010289D01*
X147209394Y-76879179D01*
X147269737Y-76733497D01*
X147296429Y-76599309D01*
X147328814Y-76537398D01*
X147389529Y-76502824D01*
X147418046Y-76499500D01*
X148851903Y-76499500D01*
X148918942Y-76519185D01*
X148964697Y-76571989D01*
X148974641Y-76641147D01*
X148945616Y-76704703D01*
X148939584Y-76711181D01*
X147787584Y-77863181D01*
X147726261Y-77896666D01*
X147699903Y-77899500D01*
X144920943Y-77899500D01*
X144766569Y-77940864D01*
X144696719Y-77939201D01*
X144646794Y-77908770D01*
X144577290Y-77839265D01*
X144577285Y-77839261D01*
X144439191Y-77757593D01*
X144439188Y-77757592D01*
X144285130Y-77712834D01*
X144250000Y-77710068D01*
X144250000Y-78356000D01*
X144230315Y-78423039D01*
X144177511Y-78468794D01*
X144126000Y-78480000D01*
X144000000Y-78480000D01*
X144000000Y-78605500D01*
X143997514Y-78613966D01*
X143998802Y-78622697D01*
X143987820Y-78646977D01*
X143980315Y-78672539D01*
X143973647Y-78678316D01*
X143970010Y-78686359D01*
X143947643Y-78700848D01*
X143927511Y-78718294D01*
X143917234Y-78720549D01*
X143911371Y-78724348D01*
X143877337Y-78729305D01*
X143876455Y-78729499D01*
X143875977Y-78729500D01*
X143750820Y-78729501D01*
X143744706Y-78729981D01*
X143740062Y-78729999D01*
X143740010Y-78729984D01*
X143739607Y-78730000D01*
X143187156Y-78730000D01*
X143227594Y-78869193D01*
X143261419Y-78926388D01*
X143278601Y-78994112D01*
X143261419Y-79052628D01*
X143227130Y-79110607D01*
X143227129Y-79110611D01*
X143182335Y-79264791D01*
X143182334Y-79264797D01*
X143179500Y-79300811D01*
X143179500Y-79699169D01*
X143179501Y-79699191D01*
X143182335Y-79735205D01*
X143227129Y-79889388D01*
X143227131Y-79889393D01*
X143298628Y-80010289D01*
X143308865Y-80027598D01*
X143336181Y-80054914D01*
X143369666Y-80116235D01*
X143372500Y-80142595D01*
X143372500Y-80974788D01*
X143352815Y-81041827D01*
X143336181Y-81062469D01*
X137366466Y-87032183D01*
X137305143Y-87065668D01*
X137302977Y-87066119D01*
X137195302Y-87087537D01*
X137195292Y-87087540D01*
X137049621Y-87147878D01*
X137049608Y-87147885D01*
X136918505Y-87235486D01*
X136918501Y-87235489D01*
X136839181Y-87314810D01*
X136777858Y-87348295D01*
X136708166Y-87343311D01*
X136652233Y-87301439D01*
X136627816Y-87235975D01*
X136627500Y-87227129D01*
X136627500Y-83381674D01*
X136647185Y-83314635D01*
X136699989Y-83268880D01*
X136769147Y-83258936D01*
X136816597Y-83276136D01*
X136830666Y-83284814D01*
X136997203Y-83339999D01*
X137099991Y-83350500D01*
X137850008Y-83350499D01*
X137850016Y-83350498D01*
X137850019Y-83350498D01*
X137906302Y-83344748D01*
X137952797Y-83339999D01*
X138119334Y-83284814D01*
X138268656Y-83192712D01*
X138392712Y-83068656D01*
X138484814Y-82919334D01*
X138539999Y-82752797D01*
X138550500Y-82650009D01*
X138550499Y-81922898D01*
X138570183Y-81855861D01*
X138622987Y-81810106D01*
X138692146Y-81800162D01*
X138755702Y-81829187D01*
X138789060Y-81875448D01*
X138790602Y-81879172D01*
X138790609Y-81879185D01*
X138878210Y-82010288D01*
X138878213Y-82010292D01*
X138989707Y-82121786D01*
X138989711Y-82121789D01*
X139120814Y-82209390D01*
X139120827Y-82209397D01*
X139218853Y-82250000D01*
X139266503Y-82269737D01*
X139421153Y-82300499D01*
X139421156Y-82300500D01*
X139421158Y-82300500D01*
X139578844Y-82300500D01*
X139578845Y-82300499D01*
X139733497Y-82269737D01*
X139879179Y-82209394D01*
X140010289Y-82121789D01*
X140121789Y-82010289D01*
X140209394Y-81879179D01*
X140210940Y-81875448D01*
X140249688Y-81781900D01*
X140269737Y-81733497D01*
X140300500Y-81578842D01*
X140300500Y-81421158D01*
X140300500Y-81421155D01*
X140300499Y-81421153D01*
X140284394Y-81340187D01*
X140269737Y-81266503D01*
X140269735Y-81266498D01*
X140209397Y-81120827D01*
X140209390Y-81120814D01*
X140121789Y-80989711D01*
X140121786Y-80989707D01*
X140010292Y-80878213D01*
X140010288Y-80878210D01*
X139879185Y-80790609D01*
X139879172Y-80790602D01*
X139733501Y-80730264D01*
X139733491Y-80730261D01*
X139578151Y-80699362D01*
X139516241Y-80666977D01*
X139514662Y-80665426D01*
X139236818Y-80387582D01*
X139203333Y-80326259D01*
X139200499Y-80299901D01*
X139200499Y-78230000D01*
X143187156Y-78230000D01*
X143750000Y-78230000D01*
X143750000Y-77710068D01*
X143749999Y-77710068D01*
X143714869Y-77712834D01*
X143714868Y-77712834D01*
X143560811Y-77757592D01*
X143560808Y-77757593D01*
X143422714Y-77839261D01*
X143422705Y-77839268D01*
X143309268Y-77952705D01*
X143309261Y-77952714D01*
X143227595Y-78090805D01*
X143187156Y-78230000D01*
X139200499Y-78230000D01*
X139200499Y-74984500D01*
X139220184Y-74917461D01*
X139272988Y-74871706D01*
X139324499Y-74860500D01*
X142590404Y-74860500D01*
X142657443Y-74880185D01*
X142678085Y-74896819D01*
X142682396Y-74901130D01*
X142682400Y-74901133D01*
X142682402Y-74901135D01*
X142820607Y-74982869D01*
X142826221Y-74984500D01*
X142974791Y-75027664D01*
X142974794Y-75027664D01*
X142974796Y-75027665D01*
X143010819Y-75030500D01*
X143509180Y-75030499D01*
X143545204Y-75027665D01*
X143699393Y-74982869D01*
X143837598Y-74901135D01*
X143951135Y-74787598D01*
X144032869Y-74649393D01*
X144077665Y-74495204D01*
X144080500Y-74459181D01*
X144080499Y-74060820D01*
X144077665Y-74024796D01*
X144032869Y-73870607D01*
X143998581Y-73812629D01*
X143981398Y-73744905D01*
X143998582Y-73686386D01*
X144032404Y-73629196D01*
X144032405Y-73629194D01*
X144072844Y-73490000D01*
X143520409Y-73490000D01*
X143510680Y-73489618D01*
X143509186Y-73489500D01*
X143010830Y-73489500D01*
X143010813Y-73489501D01*
X143009692Y-73489589D01*
X143009330Y-73489618D01*
X142999607Y-73490000D01*
X142447156Y-73490000D01*
X142450324Y-73500905D01*
X142450124Y-73570775D01*
X142412181Y-73629445D01*
X142348543Y-73658288D01*
X142331247Y-73659500D01*
X139110382Y-73659500D01*
X139043343Y-73639815D01*
X139041492Y-73638602D01*
X138979179Y-73596966D01*
X138979176Y-73596964D01*
X138833500Y-73536624D01*
X138833488Y-73536621D01*
X138678844Y-73505860D01*
X138678841Y-73505860D01*
X138521157Y-73505860D01*
X138521154Y-73505860D01*
X138366509Y-73536621D01*
X138366497Y-73536624D01*
X138220826Y-73596962D01*
X138220813Y-73596969D01*
X138089710Y-73684570D01*
X138089706Y-73684573D01*
X137978212Y-73796067D01*
X137978209Y-73796071D01*
X137890608Y-73927174D01*
X137890601Y-73927187D01*
X137830263Y-74072858D01*
X137830260Y-74072870D01*
X137799499Y-74227513D01*
X137799499Y-74385206D01*
X137830260Y-74539849D01*
X137830263Y-74539861D01*
X137890601Y-74685532D01*
X137890608Y-74685545D01*
X137978601Y-74817234D01*
X137999479Y-74883911D01*
X137999499Y-74886125D01*
X137999499Y-76575500D01*
X137979814Y-76642539D01*
X137927010Y-76688294D01*
X137875499Y-76699500D01*
X137821155Y-76699500D01*
X137666510Y-76730261D01*
X137666498Y-76730264D01*
X137520827Y-76790602D01*
X137520814Y-76790609D01*
X137389125Y-76878602D01*
X137322447Y-76899480D01*
X137320234Y-76899500D01*
X135079766Y-76899500D01*
X135012727Y-76879815D01*
X135010875Y-76878602D01*
X134879185Y-76790609D01*
X134879172Y-76790602D01*
X134733501Y-76730264D01*
X134733489Y-76730261D01*
X134578845Y-76699500D01*
X134578842Y-76699500D01*
X134421158Y-76699500D01*
X134421155Y-76699500D01*
X134266510Y-76730261D01*
X134266498Y-76730264D01*
X134120827Y-76790602D01*
X134120814Y-76790609D01*
X133989711Y-76878210D01*
X133989707Y-76878213D01*
X133878213Y-76989707D01*
X133878210Y-76989711D01*
X133790609Y-77120814D01*
X133790602Y-77120827D01*
X133730264Y-77266498D01*
X133730261Y-77266510D01*
X133699500Y-77421153D01*
X133699500Y-77578843D01*
X133703887Y-77600901D01*
X133697658Y-77670492D01*
X133654793Y-77725668D01*
X133651164Y-77728188D01*
X133616712Y-77751209D01*
X133616704Y-77751217D01*
X133505213Y-77862707D01*
X133505210Y-77862711D01*
X133417609Y-77993814D01*
X133417604Y-77993824D01*
X133379267Y-78086378D01*
X133335426Y-78140781D01*
X133269131Y-78162846D01*
X133201432Y-78145567D01*
X133177025Y-78126606D01*
X133063009Y-78012590D01*
X133059570Y-78010292D01*
X133050579Y-78004284D01*
X133034924Y-77993824D01*
X132960230Y-77943915D01*
X132926785Y-77930062D01*
X132846035Y-77896614D01*
X132846027Y-77896612D01*
X132724807Y-77872500D01*
X132724803Y-77872500D01*
X132642961Y-77872500D01*
X132575922Y-77852815D01*
X132555280Y-77836181D01*
X132231689Y-77512590D01*
X132231684Y-77512586D01*
X132229461Y-77511101D01*
X132229460Y-77511100D01*
X132226710Y-77509263D01*
X132128913Y-77443917D01*
X132095464Y-77430062D01*
X132087248Y-77426659D01*
X132087247Y-77426658D01*
X132014715Y-77396614D01*
X132014707Y-77396612D01*
X131893487Y-77372500D01*
X131893483Y-77372500D01*
X130392585Y-77372500D01*
X130325546Y-77352815D01*
X130279791Y-77300011D01*
X130270967Y-77272688D01*
X130269737Y-77266505D01*
X130269736Y-77266501D01*
X130209397Y-77120827D01*
X130209390Y-77120814D01*
X130121789Y-76989711D01*
X130121786Y-76989707D01*
X130010292Y-76878213D01*
X130010288Y-76878210D01*
X129879185Y-76790609D01*
X129879172Y-76790602D01*
X129733501Y-76730264D01*
X129733489Y-76730261D01*
X129578845Y-76699500D01*
X129578842Y-76699500D01*
X129421158Y-76699500D01*
X129421155Y-76699500D01*
X129266510Y-76730261D01*
X129266498Y-76730264D01*
X129120827Y-76790602D01*
X129120814Y-76790609D01*
X128989711Y-76878210D01*
X128989707Y-76878213D01*
X128878213Y-76989707D01*
X128878210Y-76989711D01*
X128790609Y-77120814D01*
X128790602Y-77120827D01*
X128730264Y-77266498D01*
X128730261Y-77266510D01*
X128699500Y-77421153D01*
X123500500Y-77421153D01*
X123500500Y-76177577D01*
X134925975Y-76177577D01*
X135031236Y-76221178D01*
X135031240Y-76221179D01*
X135176126Y-76249999D01*
X135176129Y-76250000D01*
X135323871Y-76250000D01*
X135323873Y-76249999D01*
X135468760Y-76221179D01*
X135468775Y-76221175D01*
X135574024Y-76177578D01*
X135574024Y-76177577D01*
X135925975Y-76177577D01*
X136031236Y-76221178D01*
X136031240Y-76221179D01*
X136176126Y-76249999D01*
X136176129Y-76250000D01*
X136323871Y-76250000D01*
X136323873Y-76249999D01*
X136468760Y-76221179D01*
X136468775Y-76221175D01*
X136574024Y-76177578D01*
X136574024Y-76177577D01*
X136250001Y-75853554D01*
X136250000Y-75853554D01*
X135925975Y-76177577D01*
X135574024Y-76177577D01*
X135250001Y-75853554D01*
X135250000Y-75853554D01*
X134925975Y-76177577D01*
X123500500Y-76177577D01*
X123500500Y-75426126D01*
X134500000Y-75426126D01*
X134500000Y-75573873D01*
X134528820Y-75718759D01*
X134528822Y-75718767D01*
X134572421Y-75824024D01*
X134896446Y-75500000D01*
X134896446Y-75499999D01*
X134876556Y-75480109D01*
X135150000Y-75480109D01*
X135150000Y-75519891D01*
X135165224Y-75556645D01*
X135193355Y-75584776D01*
X135230109Y-75600000D01*
X135269891Y-75600000D01*
X135306645Y-75584776D01*
X135334776Y-75556645D01*
X135350000Y-75519891D01*
X135350000Y-75500000D01*
X135603554Y-75500000D01*
X135750000Y-75646446D01*
X135896446Y-75500000D01*
X135876555Y-75480109D01*
X136150000Y-75480109D01*
X136150000Y-75519891D01*
X136165224Y-75556645D01*
X136193355Y-75584776D01*
X136230109Y-75600000D01*
X136269891Y-75600000D01*
X136306645Y-75584776D01*
X136334776Y-75556645D01*
X136350000Y-75519891D01*
X136350000Y-75499999D01*
X136603554Y-75499999D01*
X136603554Y-75500001D01*
X136927577Y-75824024D01*
X136927578Y-75824024D01*
X136971175Y-75718775D01*
X136971179Y-75718760D01*
X136999999Y-75573873D01*
X137000000Y-75573871D01*
X137000000Y-75426128D01*
X136999999Y-75426126D01*
X136971179Y-75281240D01*
X136971178Y-75281236D01*
X136927577Y-75175975D01*
X136603554Y-75499999D01*
X136350000Y-75499999D01*
X136350000Y-75480109D01*
X136334776Y-75443355D01*
X136306645Y-75415224D01*
X136269891Y-75400000D01*
X136230109Y-75400000D01*
X136193355Y-75415224D01*
X136165224Y-75443355D01*
X136150000Y-75480109D01*
X135876555Y-75480109D01*
X135750000Y-75353554D01*
X135603554Y-75500000D01*
X135350000Y-75500000D01*
X135350000Y-75480109D01*
X135334776Y-75443355D01*
X135306645Y-75415224D01*
X135269891Y-75400000D01*
X135230109Y-75400000D01*
X135193355Y-75415224D01*
X135165224Y-75443355D01*
X135150000Y-75480109D01*
X134876556Y-75480109D01*
X134572421Y-75175974D01*
X134572420Y-75175974D01*
X134528823Y-75281228D01*
X134528820Y-75281240D01*
X134500000Y-75426126D01*
X123500500Y-75426126D01*
X123500500Y-74822420D01*
X134925974Y-74822420D01*
X134925974Y-74822421D01*
X135250000Y-75146446D01*
X135250001Y-75146446D01*
X135574024Y-74822421D01*
X135574022Y-74822420D01*
X135925974Y-74822420D01*
X135925974Y-74822421D01*
X136250000Y-75146446D01*
X136250001Y-75146446D01*
X136574024Y-74822421D01*
X136468767Y-74778822D01*
X136468759Y-74778820D01*
X136323872Y-74750000D01*
X136176128Y-74750000D01*
X136031240Y-74778820D01*
X136031228Y-74778823D01*
X135925974Y-74822420D01*
X135574022Y-74822420D01*
X135468767Y-74778822D01*
X135468759Y-74778820D01*
X135323872Y-74750000D01*
X135176128Y-74750000D01*
X135031240Y-74778820D01*
X135031228Y-74778823D01*
X134925974Y-74822420D01*
X123500500Y-74822420D01*
X123500500Y-70305000D01*
X126364157Y-70305000D01*
X127218012Y-70305000D01*
X127200795Y-70314940D01*
X127144940Y-70370795D01*
X127105444Y-70439204D01*
X127085000Y-70515504D01*
X127085000Y-70594496D01*
X127105444Y-70670796D01*
X127144940Y-70739205D01*
X127200795Y-70795060D01*
X127218012Y-70805000D01*
X126364157Y-70805000D01*
X126375350Y-70861274D01*
X126375351Y-70861276D01*
X126454500Y-71052358D01*
X126454505Y-71052368D01*
X126569410Y-71224335D01*
X126569413Y-71224339D01*
X126715660Y-71370586D01*
X126715664Y-71370589D01*
X126887631Y-71485494D01*
X126887641Y-71485499D01*
X127078725Y-71564649D01*
X127078733Y-71564651D01*
X127281579Y-71604999D01*
X127281583Y-71605000D01*
X127435000Y-71605000D01*
X127435000Y-70855000D01*
X127935000Y-70855000D01*
X127935000Y-71605000D01*
X128088417Y-71605000D01*
X128088420Y-71604999D01*
X128291266Y-71564651D01*
X128291274Y-71564649D01*
X128482358Y-71485499D01*
X128482368Y-71485494D01*
X128654335Y-71370589D01*
X128654339Y-71370586D01*
X128800586Y-71224339D01*
X128800589Y-71224335D01*
X128915494Y-71052368D01*
X128915499Y-71052358D01*
X128994648Y-70861276D01*
X128994649Y-70861274D01*
X129005843Y-70805000D01*
X128151988Y-70805000D01*
X128169205Y-70795060D01*
X128225060Y-70739205D01*
X128264556Y-70670796D01*
X128285000Y-70594496D01*
X128285000Y-70515504D01*
X128264556Y-70439204D01*
X128225060Y-70370795D01*
X128169205Y-70314940D01*
X128151988Y-70305000D01*
X129005843Y-70305000D01*
X130164157Y-70305000D01*
X131018012Y-70305000D01*
X131000795Y-70314940D01*
X130944940Y-70370795D01*
X130905444Y-70439204D01*
X130885000Y-70515504D01*
X130885000Y-70594496D01*
X130905444Y-70670796D01*
X130944940Y-70739205D01*
X131000795Y-70795060D01*
X131018012Y-70805000D01*
X130164157Y-70805000D01*
X130175350Y-70861274D01*
X130175351Y-70861276D01*
X130254500Y-71052358D01*
X130254505Y-71052368D01*
X130369410Y-71224335D01*
X130369413Y-71224339D01*
X130515660Y-71370586D01*
X130515664Y-71370589D01*
X130687631Y-71485494D01*
X130687641Y-71485499D01*
X130878725Y-71564649D01*
X130878733Y-71564651D01*
X131081579Y-71604999D01*
X131081583Y-71605000D01*
X131235000Y-71605000D01*
X131235000Y-70855000D01*
X131735000Y-70855000D01*
X131735000Y-71605000D01*
X131888417Y-71605000D01*
X131888420Y-71604999D01*
X132091266Y-71564651D01*
X132091274Y-71564649D01*
X132282358Y-71485499D01*
X132282368Y-71485494D01*
X132454335Y-71370589D01*
X132454339Y-71370586D01*
X132600586Y-71224339D01*
X132600589Y-71224335D01*
X132715494Y-71052368D01*
X132715499Y-71052358D01*
X132794648Y-70861276D01*
X132794649Y-70861274D01*
X132805843Y-70805000D01*
X131951988Y-70805000D01*
X131969205Y-70795060D01*
X132025060Y-70739205D01*
X132064556Y-70670796D01*
X132085000Y-70594496D01*
X132085000Y-70515504D01*
X132064556Y-70439204D01*
X132025060Y-70370795D01*
X131969205Y-70314940D01*
X131951988Y-70305000D01*
X132805843Y-70305000D01*
X132794649Y-70248725D01*
X132794648Y-70248723D01*
X132715499Y-70057641D01*
X132715494Y-70057631D01*
X132600589Y-69885664D01*
X132600586Y-69885660D01*
X132454339Y-69739413D01*
X132454335Y-69739410D01*
X132282368Y-69624505D01*
X132282358Y-69624500D01*
X132091274Y-69545350D01*
X132091266Y-69545348D01*
X131888420Y-69505000D01*
X131735000Y-69505000D01*
X131735000Y-70255000D01*
X131235000Y-70255000D01*
X131235000Y-69505000D01*
X131081579Y-69505000D01*
X130878733Y-69545348D01*
X130878725Y-69545350D01*
X130687641Y-69624500D01*
X130687631Y-69624505D01*
X130515664Y-69739410D01*
X130515660Y-69739413D01*
X130369413Y-69885660D01*
X130369410Y-69885664D01*
X130254505Y-70057631D01*
X130254500Y-70057641D01*
X130175351Y-70248723D01*
X130175350Y-70248725D01*
X130164157Y-70305000D01*
X129005843Y-70305000D01*
X128994649Y-70248725D01*
X128994648Y-70248723D01*
X128915499Y-70057641D01*
X128915494Y-70057631D01*
X128800589Y-69885664D01*
X128800586Y-69885660D01*
X128654339Y-69739413D01*
X128654335Y-69739410D01*
X128482368Y-69624505D01*
X128482358Y-69624500D01*
X128291274Y-69545350D01*
X128291266Y-69545348D01*
X128088420Y-69505000D01*
X127935000Y-69505000D01*
X127935000Y-70255000D01*
X127435000Y-70255000D01*
X127435000Y-69505000D01*
X127281579Y-69505000D01*
X127078733Y-69545348D01*
X127078725Y-69545350D01*
X126887641Y-69624500D01*
X126887631Y-69624505D01*
X126715664Y-69739410D01*
X126715660Y-69739413D01*
X126569413Y-69885660D01*
X126569410Y-69885664D01*
X126454505Y-70057631D01*
X126454500Y-70057641D01*
X126375351Y-70248723D01*
X126375350Y-70248725D01*
X126364157Y-70305000D01*
X123500500Y-70305000D01*
X123500500Y-64349983D01*
X127774500Y-64349983D01*
X127774500Y-64950001D01*
X127774501Y-64950019D01*
X127785000Y-65052796D01*
X127785001Y-65052799D01*
X127824648Y-65172445D01*
X127840186Y-65219334D01*
X127932288Y-65368656D01*
X128056344Y-65492712D01*
X128205666Y-65584814D01*
X128372203Y-65639999D01*
X128474991Y-65650500D01*
X129525008Y-65650499D01*
X129525016Y-65650498D01*
X129525019Y-65650498D01*
X129581302Y-65644748D01*
X129627797Y-65639999D01*
X129794334Y-65584814D01*
X129943656Y-65492712D01*
X129957330Y-65479036D01*
X130018652Y-65445551D01*
X130088343Y-65450534D01*
X130132694Y-65479036D01*
X130243072Y-65589414D01*
X130383212Y-65691232D01*
X130537555Y-65769873D01*
X130702299Y-65823402D01*
X130873389Y-65850500D01*
X130873390Y-65850500D01*
X131596610Y-65850500D01*
X131596611Y-65850500D01*
X131767701Y-65823402D01*
X131932445Y-65769873D01*
X132086788Y-65691232D01*
X132226928Y-65589414D01*
X132349414Y-65466928D01*
X132451232Y-65326788D01*
X132529873Y-65172445D01*
X132583402Y-65007701D01*
X132610500Y-64836611D01*
X132610500Y-64663389D01*
X132583402Y-64492299D01*
X132529873Y-64327555D01*
X132451232Y-64173212D01*
X132349414Y-64033072D01*
X132241508Y-63925166D01*
X132208023Y-63863843D01*
X132213007Y-63794151D01*
X132254879Y-63738218D01*
X132264094Y-63731945D01*
X132328345Y-63692315D01*
X132452315Y-63568345D01*
X132544356Y-63419124D01*
X132544358Y-63419119D01*
X132599505Y-63252697D01*
X132599506Y-63252690D01*
X132609999Y-63149986D01*
X132610000Y-63149973D01*
X132610000Y-63000000D01*
X131515330Y-63000000D01*
X131535075Y-62980255D01*
X131584444Y-62894745D01*
X131610000Y-62799370D01*
X131610000Y-62700630D01*
X131584444Y-62605255D01*
X131535075Y-62519745D01*
X131515330Y-62500000D01*
X132609999Y-62500000D01*
X132609999Y-62350028D01*
X132609998Y-62350013D01*
X132599505Y-62247302D01*
X132544358Y-62080880D01*
X132544356Y-62080875D01*
X132452315Y-61931654D01*
X132328345Y-61807684D01*
X132179124Y-61715643D01*
X132179119Y-61715641D01*
X132012697Y-61660494D01*
X132012690Y-61660493D01*
X131909986Y-61650000D01*
X131485000Y-61650000D01*
X131485000Y-62469670D01*
X131465255Y-62449925D01*
X131379745Y-62400556D01*
X131284370Y-62375000D01*
X131185630Y-62375000D01*
X131090255Y-62400556D01*
X131004745Y-62449925D01*
X130985000Y-62469670D01*
X130985000Y-61650000D01*
X130560028Y-61650000D01*
X130560012Y-61650001D01*
X130457302Y-61660494D01*
X130290880Y-61715641D01*
X130290875Y-61715643D01*
X130141657Y-61807682D01*
X130073479Y-61875860D01*
X130012155Y-61909344D01*
X129942464Y-61904359D01*
X129920701Y-61893717D01*
X129794124Y-61815643D01*
X129794119Y-61815641D01*
X129627697Y-61760494D01*
X129627690Y-61760493D01*
X129524986Y-61750000D01*
X129250000Y-61750000D01*
X129250000Y-62500000D01*
X130954670Y-62500000D01*
X130934925Y-62519745D01*
X130885556Y-62605255D01*
X130860000Y-62700630D01*
X130860000Y-62799370D01*
X130885556Y-62894745D01*
X130934925Y-62980255D01*
X130954670Y-63000000D01*
X127775001Y-63000000D01*
X127775001Y-63049986D01*
X127785494Y-63152697D01*
X127840641Y-63319119D01*
X127840643Y-63319124D01*
X127932684Y-63468345D01*
X128056655Y-63592316D01*
X128056659Y-63592319D01*
X128059656Y-63594168D01*
X128061279Y-63595972D01*
X128062323Y-63596798D01*
X128062181Y-63596976D01*
X128106381Y-63646116D01*
X128117602Y-63715079D01*
X128089759Y-63779161D01*
X128059661Y-63805241D01*
X128056349Y-63807283D01*
X128056343Y-63807288D01*
X127932289Y-63931342D01*
X127840187Y-64080663D01*
X127840185Y-64080668D01*
X127820820Y-64139108D01*
X127785001Y-64247203D01*
X127785001Y-64247204D01*
X127785000Y-64247204D01*
X127774500Y-64349983D01*
X123500500Y-64349983D01*
X123500500Y-62450013D01*
X127775000Y-62450013D01*
X127775000Y-62500000D01*
X128750000Y-62500000D01*
X128750000Y-61750000D01*
X128475029Y-61750000D01*
X128475012Y-61750001D01*
X128372302Y-61760494D01*
X128205880Y-61815641D01*
X128205875Y-61815643D01*
X128056654Y-61907684D01*
X127932684Y-62031654D01*
X127840643Y-62180875D01*
X127840641Y-62180880D01*
X127785494Y-62347302D01*
X127785493Y-62347309D01*
X127775000Y-62450013D01*
X123500500Y-62450013D01*
X123500500Y-59124500D01*
X123520185Y-59057461D01*
X123572989Y-59011706D01*
X123624500Y-59000500D01*
X168964294Y-59000500D01*
X169030013Y-59019347D01*
G37*
%TD.AperFunction*%
%TD*%
M02*
